%TF.GenerationSoftware,KiCad,Pcbnew,9.0.0*%
%TF.CreationDate,2025-04-17T10:48:16-04:00*%
%TF.ProjectId,PicoTag,5069636f-5461-4672-9e6b-696361645f70,rev?*%
%TF.SameCoordinates,Original*%
%TF.FileFunction,Soldermask,Top*%
%TF.FilePolarity,Negative*%
%FSLAX46Y46*%
G04 Gerber Fmt 4.6, Leading zero omitted, Abs format (unit mm)*
G04 Created by KiCad (PCBNEW 9.0.0) date 2025-04-17 10:48:16*
%MOMM*%
%LPD*%
G01*
G04 APERTURE LIST*
G04 Aperture macros list*
%AMRoundRect*
0 Rectangle with rounded corners*
0 $1 Rounding radius*
0 $2 $3 $4 $5 $6 $7 $8 $9 X,Y pos of 4 corners*
0 Add a 4 corners polygon primitive as box body*
4,1,4,$2,$3,$4,$5,$6,$7,$8,$9,$2,$3,0*
0 Add four circle primitives for the rounded corners*
1,1,$1+$1,$2,$3*
1,1,$1+$1,$4,$5*
1,1,$1+$1,$6,$7*
1,1,$1+$1,$8,$9*
0 Add four rect primitives between the rounded corners*
20,1,$1+$1,$2,$3,$4,$5,0*
20,1,$1+$1,$4,$5,$6,$7,0*
20,1,$1+$1,$6,$7,$8,$9,0*
20,1,$1+$1,$8,$9,$2,$3,0*%
G04 Aperture macros list end*
%ADD10R,1.700000X1.700000*%
%ADD11O,0.850000X0.850000*%
%ADD12R,0.850000X0.850000*%
%ADD13C,1.000000*%
%ADD14R,1.000000X1.000000*%
%ADD15R,0.700000X0.900000*%
%ADD16O,1.700000X1.700000*%
%ADD17RoundRect,0.237500X0.250000X0.237500X-0.250000X0.237500X-0.250000X-0.237500X0.250000X-0.237500X0*%
%ADD18R,1.800000X1.100000*%
%ADD19RoundRect,0.237500X-0.250000X-0.237500X0.250000X-0.237500X0.250000X0.237500X-0.250000X0.237500X0*%
%ADD20R,1.500000X1.500000*%
%ADD21R,3.200000X1.600000*%
%ADD22RoundRect,0.237500X-0.237500X0.250000X-0.237500X-0.250000X0.237500X-0.250000X0.237500X0.250000X0*%
%ADD23RoundRect,0.237500X0.300000X0.237500X-0.300000X0.237500X-0.300000X-0.237500X0.300000X-0.237500X0*%
%ADD24RoundRect,0.175000X-1.325000X-0.175000X1.325000X-0.175000X1.325000X0.175000X-1.325000X0.175000X0*%
%ADD25RoundRect,0.237500X0.237500X-0.250000X0.237500X0.250000X-0.237500X0.250000X-0.237500X-0.250000X0*%
%ADD26RoundRect,0.237500X-0.237500X0.300000X-0.237500X-0.300000X0.237500X-0.300000X0.237500X0.300000X0*%
G04 APERTURE END LIST*
D10*
%TO.C,J10*%
X168800000Y-64000000D03*
%TD*%
D11*
%TO.C,J11*%
X186100000Y-55100000D03*
X185100000Y-55100000D03*
X184100000Y-55100000D03*
X183100000Y-55100000D03*
X182100000Y-55100000D03*
D12*
X181100000Y-55100000D03*
%TD*%
D13*
%TO.C,Card1*%
X178840000Y-42750000D03*
X170840000Y-42740000D03*
%TD*%
D14*
%TO.C,TP_CLK1*%
X177300000Y-57000000D03*
%TD*%
%TO.C,TP_MOSI1*%
X181600000Y-46700000D03*
%TD*%
%TO.C,TP_MISO1*%
X181600000Y-48800000D03*
%TD*%
%TO.C,TP_FLASH_CS1*%
X174900000Y-57000000D03*
%TD*%
D13*
%TO.C,FID4*%
X136500000Y-91300000D03*
%TD*%
%TO.C,FID3*%
X188100000Y-86600000D03*
%TD*%
%TO.C,FID2*%
X137800000Y-44400000D03*
%TD*%
%TO.C,FID1*%
X167200000Y-41100000D03*
%TD*%
D10*
%TO.C,J5*%
X172900000Y-64000000D03*
%TD*%
D15*
%TO.C,LED1*%
X188100000Y-75800000D03*
X187000000Y-75800000D03*
X187000000Y-73960000D03*
X188100000Y-73960000D03*
%TD*%
D16*
%TO.C,J9*%
X145500000Y-95040000D03*
X142960000Y-95040000D03*
X145500000Y-92500000D03*
D10*
X142960000Y-92500000D03*
%TD*%
D16*
%TO.C,J4*%
X185950000Y-46560000D03*
X185950000Y-49100000D03*
D10*
X185950000Y-51640000D03*
%TD*%
D16*
%TO.C,J8*%
X137500000Y-69500000D03*
X134960000Y-69500000D03*
X137500000Y-66960000D03*
D10*
X134960000Y-66960000D03*
%TD*%
D16*
%TO.C,J7*%
X175000000Y-76500000D03*
X172460000Y-76500000D03*
X175000000Y-73960000D03*
D10*
X172460000Y-73960000D03*
%TD*%
D17*
%TO.C,R8*%
X139587500Y-78100000D03*
X141412500Y-78100000D03*
%TD*%
D18*
%TO.C,BTN1*%
X170584000Y-84582000D03*
X176784000Y-84582000D03*
X170584000Y-88282000D03*
X176784000Y-88282000D03*
%TD*%
D19*
%TO.C,R9*%
X141625000Y-43942000D03*
X139800000Y-43942000D03*
%TD*%
D16*
%TO.C,J2*%
X129500000Y-63620000D03*
X129500000Y-61080000D03*
X129500000Y-58540000D03*
X129500000Y-56000000D03*
X129500000Y-53460000D03*
X129500000Y-50920000D03*
X129500000Y-48380000D03*
X129500000Y-45840000D03*
X129500000Y-43300000D03*
D10*
X129500000Y-40760000D03*
%TD*%
D17*
%TO.C,R7*%
X169087500Y-60200000D03*
X170912500Y-60200000D03*
%TD*%
D20*
%TO.C,U1*%
X151500000Y-53080000D03*
X151500000Y-50580000D03*
X151500000Y-48080000D03*
X153000000Y-39790000D03*
X155000000Y-39790000D03*
X154000000Y-43090000D03*
D21*
X163690000Y-39950000D03*
X163690000Y-42490000D03*
X163690000Y-45030000D03*
X163690000Y-47570000D03*
X163690000Y-50110000D03*
X163690000Y-52650000D03*
X163690000Y-55190000D03*
X163690000Y-57730000D03*
X163690000Y-60270000D03*
X163690000Y-62810000D03*
X163690000Y-65350000D03*
X163690000Y-67890000D03*
X163690000Y-70430000D03*
X163690000Y-72970000D03*
X163690000Y-75510000D03*
X163690000Y-78050000D03*
X163690000Y-80590000D03*
X163690000Y-83130000D03*
X163690000Y-85670000D03*
X163690000Y-88210000D03*
X144310000Y-88210000D03*
X144310000Y-85670000D03*
X144310000Y-83130000D03*
X144310000Y-80590000D03*
X144310000Y-78050000D03*
X144310000Y-75510000D03*
X144310000Y-72970000D03*
X144310000Y-70430000D03*
X144310000Y-67890000D03*
X144310000Y-65350000D03*
X144310000Y-62810000D03*
X144310000Y-60270000D03*
X144310000Y-57730000D03*
X144310000Y-55190000D03*
X144310000Y-52650000D03*
X144310000Y-50110000D03*
X144310000Y-47570000D03*
X144310000Y-45030000D03*
X144310000Y-42490000D03*
X144310000Y-39950000D03*
%TD*%
D22*
%TO.C,R2*%
X128800000Y-68312500D03*
X128800000Y-66487500D03*
%TD*%
D16*
%TO.C,J1*%
X129500000Y-95580000D03*
X129500000Y-93040000D03*
X129500000Y-90500000D03*
X129500000Y-87960000D03*
X129500000Y-85420000D03*
X129500000Y-82880000D03*
X129500000Y-80340000D03*
X129500000Y-77800000D03*
X129500000Y-75260000D03*
D10*
X129500000Y-72720000D03*
%TD*%
D19*
%TO.C,R1*%
X171000000Y-56400000D03*
X169175000Y-56400000D03*
%TD*%
D16*
%TO.C,J6*%
X184000000Y-76500000D03*
X181460000Y-76500000D03*
X184000000Y-73960000D03*
D10*
X181460000Y-73960000D03*
%TD*%
D19*
%TO.C,R13*%
X185800000Y-91800000D03*
X183975000Y-91800000D03*
%TD*%
D23*
%TO.C,C4*%
X167275000Y-52000000D03*
X169000000Y-52000000D03*
%TD*%
D17*
%TO.C,R3*%
X173087500Y-50900000D03*
X174912500Y-50900000D03*
%TD*%
D18*
%TO.C,BTN2*%
X179705000Y-84582000D03*
X185905000Y-84582000D03*
X179705000Y-88282000D03*
X185905000Y-88282000D03*
%TD*%
D24*
%TO.C,C1*%
X179487500Y-40845000D03*
X179487500Y-42115000D03*
X179487500Y-43385000D03*
X179487500Y-44655000D03*
X172312500Y-44655000D03*
X172312500Y-43385000D03*
X172312500Y-42115000D03*
X172312500Y-40845000D03*
%TD*%
D16*
%TO.C,J3*%
X184300000Y-66940000D03*
X181760000Y-66940000D03*
X184300000Y-64400000D03*
X181760000Y-64400000D03*
X184300000Y-61860000D03*
X181760000Y-61860000D03*
X184300000Y-59320000D03*
D10*
X181760000Y-59320000D03*
%TD*%
D19*
%TO.C,R11*%
X150512500Y-91200000D03*
X148687500Y-91200000D03*
%TD*%
D23*
%TO.C,C2*%
X167275000Y-50200000D03*
X169000000Y-50200000D03*
%TD*%
D25*
%TO.C,R4*%
X188200000Y-68875000D03*
X188200000Y-70700000D03*
%TD*%
D17*
%TO.C,R12*%
X177387500Y-90000000D03*
X179212500Y-90000000D03*
%TD*%
%TO.C,R12*%
X182175000Y-71000000D03*
X184000000Y-71000000D03*
%TD*%
D19*
%TO.C,R5*%
X168600000Y-78100000D03*
X166775000Y-78100000D03*
%TD*%
%TO.C,R10*%
X141700000Y-41500000D03*
X139875000Y-41500000D03*
%TD*%
%TO.C,R6*%
X174902500Y-49300000D03*
X173077500Y-49300000D03*
%TD*%
D18*
%TO.C,RESET1*%
X156718000Y-96520000D03*
X150518000Y-96520000D03*
X156718000Y-92820000D03*
X150518000Y-92820000D03*
%TD*%
D26*
%TO.C,C3*%
X178200000Y-76125000D03*
X178200000Y-74400000D03*
%TD*%
M02*
