%TF.GenerationSoftware,KiCad,Pcbnew,9.0.0*%
%TF.CreationDate,2025-04-17T10:48:16-04:00*%
%TF.ProjectId,PicoTag,5069636f-5461-4672-9e6b-696361645f70,rev?*%
%TF.SameCoordinates,Original*%
%TF.FileFunction,Copper,L2,Bot*%
%TF.FilePolarity,Positive*%
%FSLAX46Y46*%
G04 Gerber Fmt 4.6, Leading zero omitted, Abs format (unit mm)*
G04 Created by KiCad (PCBNEW 9.0.0) date 2025-04-17 10:48:16*
%MOMM*%
%LPD*%
G01*
G04 APERTURE LIST*
%TA.AperFunction,ComponentPad*%
%ADD10R,1.700000X1.700000*%
%TD*%
%TA.AperFunction,ComponentPad*%
%ADD11O,0.850000X0.850000*%
%TD*%
%TA.AperFunction,ComponentPad*%
%ADD12R,0.850000X0.850000*%
%TD*%
%TA.AperFunction,SMDPad,CuDef*%
%ADD13R,1.780000X1.400000*%
%TD*%
%TA.AperFunction,SMDPad,CuDef*%
%ADD14R,1.270000X2.290000*%
%TD*%
%TA.AperFunction,SMDPad,CuDef*%
%ADD15R,1.200000X1.400000*%
%TD*%
%TA.AperFunction,SMDPad,CuDef*%
%ADD16R,0.700000X2.000000*%
%TD*%
%TA.AperFunction,ComponentPad*%
%ADD17C,1.000000*%
%TD*%
%TA.AperFunction,ComponentPad*%
%ADD18O,1.700000X1.700000*%
%TD*%
%TA.AperFunction,ViaPad*%
%ADD19C,0.600000*%
%TD*%
%TA.AperFunction,Conductor*%
%ADD20C,0.500000*%
%TD*%
%TA.AperFunction,Conductor*%
%ADD21C,0.200000*%
%TD*%
%TA.AperFunction,Conductor*%
%ADD22C,0.250000*%
%TD*%
G04 APERTURE END LIST*
D10*
%TO.P,J10,1,Pin_1*%
%TO.N,AVREF*%
X168800000Y-64000000D03*
%TD*%
D11*
%TO.P,J11,6,Pin_6*%
%TO.N,GND*%
X186100000Y-55100000D03*
%TO.P,J11,5,Pin_5*%
%TO.N,3V3*%
X185100000Y-55100000D03*
%TO.P,J11,4,Pin_4*%
%TO.N,EXT_SPI_CS*%
X184100000Y-55100000D03*
%TO.P,J11,3,Pin_3*%
%TO.N,SPI_CLK*%
X183100000Y-55100000D03*
%TO.P,J11,2,Pin_2*%
%TO.N,SPI_MOSI*%
X182100000Y-55100000D03*
D12*
%TO.P,J11,1,Pin_1*%
%TO.N,SPI_MISO*%
X181100000Y-55100000D03*
%TD*%
D13*
%TO.P,Card1,13,GND*%
%TO.N,GND*%
X182740000Y-52810000D03*
D14*
%TO.P,Card1,12,GND*%
X183500000Y-43160000D03*
%TO.P,Card1,11,GND*%
X168010000Y-43150000D03*
D15*
%TO.P,Card1,10,GND*%
X167980000Y-52810000D03*
D16*
%TO.P,Card1,9,CD*%
%TO.N,MMC_CD*%
X169260000Y-53350000D03*
%TO.P,Card1,8,DAT1(RSV)*%
%TO.N,unconnected-(Card1-DAT1(RSV)-Pad8)*%
X170360000Y-53340000D03*
%TO.P,Card1,7,DAT0(D0)*%
%TO.N,SPI_MISO*%
X171460000Y-53340000D03*
%TO.P,Card1,6,VSS*%
%TO.N,GND*%
X172560000Y-53340000D03*
%TO.P,Card1,5,CLK(SCLK)*%
%TO.N,SPI_CLK*%
X173650000Y-53340000D03*
%TO.P,Card1,4,VDD*%
%TO.N,3V3*%
X174750000Y-53340000D03*
%TO.P,Card1,3,CMD(DI)*%
%TO.N,SPI_MOSI*%
X175850000Y-53340000D03*
%TO.P,Card1,2,CDDAT3(CS)*%
%TO.N,MMC_CS*%
X176950000Y-53340000D03*
%TO.P,Card1,1,DAT2(RSV)*%
%TO.N,unconnected-(Card1-DAT2(RSV)-Pad1)*%
X178040000Y-53340000D03*
D17*
%TO.P,Card1,*%
%TO.N,*%
X178840000Y-42750000D03*
X170840000Y-42740000D03*
%TD*%
D10*
%TO.P,J5,1,Pin_1*%
%TO.N,AGND*%
X172900000Y-64000000D03*
%TD*%
D18*
%TO.P,J9,4,Pin_4*%
%TO.N,+5V*%
X145500000Y-95040000D03*
%TO.P,J9,3,Pin_3*%
X142960000Y-95040000D03*
%TO.P,J9,2,Pin_2*%
X145500000Y-92500000D03*
D10*
%TO.P,J9,1,Pin_1*%
X142960000Y-92500000D03*
%TD*%
D18*
%TO.P,J4,3,Pin_3*%
%TO.N,3V3*%
X185950000Y-46560000D03*
%TO.P,J4,2,Pin_2*%
%TO.N,{slash}WP*%
X185950000Y-49100000D03*
D10*
%TO.P,J4,1,Pin_1*%
%TO.N,GND*%
X185950000Y-51640000D03*
%TD*%
D18*
%TO.P,J8,4,Pin_4*%
%TO.N,GND*%
X137500000Y-69500000D03*
%TO.P,J8,3,Pin_3*%
X134960000Y-69500000D03*
%TO.P,J8,2,Pin_2*%
%TO.N,3V3*%
X137500000Y-66960000D03*
D10*
%TO.P,J8,1,Pin_1*%
X134960000Y-66960000D03*
%TD*%
D18*
%TO.P,J7,4,Pin_4*%
%TO.N,3V3*%
X175000000Y-76500000D03*
%TO.P,J7,3,Pin_3*%
X172460000Y-76500000D03*
%TO.P,J7,2,Pin_2*%
X175000000Y-73960000D03*
D10*
%TO.P,J7,1,Pin_1*%
X172460000Y-73960000D03*
%TD*%
D18*
%TO.P,J2,10,Pin_10*%
%TO.N,GND*%
X129500000Y-63620000D03*
%TO.P,J2,9,Pin_9*%
X129500000Y-61080000D03*
%TO.P,J2,8,Pin_8*%
%TO.N,CH8*%
X129500000Y-58540000D03*
%TO.P,J2,7,Pin_7*%
%TO.N,CH7*%
X129500000Y-56000000D03*
%TO.P,J2,6,Pin_6*%
%TO.N,CH6*%
X129500000Y-53460000D03*
%TO.P,J2,5,Pin_5*%
%TO.N,CH5*%
X129500000Y-50920000D03*
%TO.P,J2,4,Pin_4*%
%TO.N,CH4*%
X129500000Y-48380000D03*
%TO.P,J2,3,Pin_3*%
%TO.N,CH3*%
X129500000Y-45840000D03*
%TO.P,J2,2,Pin_2*%
%TO.N,CH2*%
X129500000Y-43300000D03*
D10*
%TO.P,J2,1,Pin_1*%
%TO.N,CH1*%
X129500000Y-40760000D03*
%TD*%
D18*
%TO.P,J1,10,Pin_10*%
%TO.N,GND*%
X129500000Y-95580000D03*
%TO.P,J1,9,Pin_9*%
X129500000Y-93040000D03*
%TO.P,J1,8,Pin_8*%
%TO.N,CH16*%
X129500000Y-90500000D03*
%TO.P,J1,7,Pin_7*%
%TO.N,CH15*%
X129500000Y-87960000D03*
%TO.P,J1,6,Pin_6*%
%TO.N,CH14*%
X129500000Y-85420000D03*
%TO.P,J1,5,Pin_5*%
%TO.N,CH13*%
X129500000Y-82880000D03*
%TO.P,J1,4,Pin_4*%
%TO.N,CH12*%
X129500000Y-80340000D03*
%TO.P,J1,3,Pin_3*%
%TO.N,CH11*%
X129500000Y-77800000D03*
%TO.P,J1,2,Pin_2*%
%TO.N,CH10*%
X129500000Y-75260000D03*
D10*
%TO.P,J1,1,Pin_1*%
%TO.N,CH9*%
X129500000Y-72720000D03*
%TD*%
D18*
%TO.P,J6,4,Pin_4*%
%TO.N,GND*%
X184000000Y-76500000D03*
%TO.P,J6,3,Pin_3*%
X181460000Y-76500000D03*
%TO.P,J6,2,Pin_2*%
X184000000Y-73960000D03*
D10*
%TO.P,J6,1,Pin_1*%
X181460000Y-73960000D03*
%TD*%
D18*
%TO.P,J3,8,Pin_8*%
%TO.N,SPI_MOSI*%
X184300000Y-66940000D03*
%TO.P,J3,7,Pin_7*%
%TO.N,GND*%
X181760000Y-66940000D03*
%TO.P,J3,6,Pin_6*%
%TO.N,SPI_CLK*%
X184300000Y-64400000D03*
%TO.P,J3,5,Pin_5*%
%TO.N,{slash}WP*%
X181760000Y-64400000D03*
%TO.P,J3,4,Pin_4*%
%TO.N,3V3*%
X184300000Y-61860000D03*
%TO.P,J3,3,Pin_3*%
%TO.N,SPI_MISO*%
X181760000Y-61860000D03*
%TO.P,J3,2,Pin_2*%
%TO.N,3V3*%
X184300000Y-59320000D03*
D10*
%TO.P,J3,1,Pin_1*%
%TO.N,FLASH_CS*%
X181760000Y-59320000D03*
%TD*%
D19*
%TO.N,GND*%
X178100000Y-51500000D03*
X175100000Y-55800000D03*
X173600000Y-57500000D03*
X179400000Y-53200000D03*
X180100000Y-51300000D03*
%TO.N,SPI_CLK*%
X184023529Y-53818442D03*
X187200000Y-70700000D03*
X186500000Y-64900000D03*
%TO.N,3V3*%
X187900000Y-66200000D03*
%TO.N,AVREF*%
X160900000Y-64100000D03*
%TO.N,EXT_SPI_CS*%
X179200000Y-55300000D03*
%TO.N,GND*%
X171600000Y-61400000D03*
X173900000Y-59300000D03*
X137500000Y-40700000D03*
X157100000Y-40100000D03*
X146900000Y-51400000D03*
X156300000Y-52000000D03*
X171600000Y-91200000D03*
X174700000Y-70200000D03*
X170000000Y-74000000D03*
%TO.N,SPI_MISO*%
X179700000Y-48300000D03*
%TO.N,EXT_SPI_CS*%
X176600000Y-62600000D03*
X169800000Y-68300000D03*
X168400000Y-70600000D03*
X173600000Y-66500000D03*
X167700000Y-80300000D03*
%TO.N,AGND*%
X167200000Y-57900000D03*
%TO.N,+5V*%
X189000000Y-45900000D03*
X184124265Y-39675735D03*
X175200000Y-39400000D03*
%TO.N,LED*%
X159800000Y-83300000D03*
X186000000Y-83000000D03*
%TO.N,+5V*%
X188400000Y-77900000D03*
%TO.N,SPI_MOSI*%
X177500000Y-55200000D03*
%TO.N,3V3*%
X176022000Y-49530000D03*
X170600000Y-82800000D03*
X158400000Y-50200000D03*
X177800000Y-49276000D03*
X138500000Y-43090000D03*
X156400000Y-50000000D03*
X178800000Y-81000000D03*
X174800000Y-55000000D03*
X181864000Y-42418000D03*
X173200000Y-56200000D03*
X138600000Y-41800000D03*
X171000000Y-71000000D03*
X178800000Y-82800000D03*
%TO.N,SPI_MISO*%
X174300000Y-61000000D03*
X170900000Y-47000000D03*
X172212000Y-49530000D03*
%TO.N,{slash}WP*%
X188400000Y-56600000D03*
%TO.N,SPI_CLK*%
X173400000Y-47500000D03*
%TO.N,GND*%
X168000000Y-44700000D03*
X172400000Y-55300000D03*
X139800000Y-67200000D03*
X170800000Y-51000000D03*
X139000000Y-69500000D03*
X167900000Y-54900000D03*
X142000000Y-74200000D03*
X170434000Y-44958000D03*
X142000000Y-75600000D03*
X170000000Y-61600000D03*
X141600000Y-81800000D03*
X166800000Y-43100000D03*
X139800000Y-65800000D03*
X169000000Y-61600000D03*
X146600000Y-69400000D03*
X175800000Y-79200000D03*
X140800000Y-75200000D03*
X181900000Y-40600000D03*
X146600000Y-72000000D03*
X146600000Y-75100000D03*
X137500000Y-71100000D03*
X172060000Y-51839998D03*
X139000000Y-64800000D03*
%TO.N,FLASH_CS*%
X170180000Y-47350000D03*
X175000000Y-59800000D03*
X170434000Y-48550000D03*
X161000000Y-69200000D03*
%TO.N,MMC_CD*%
X169200000Y-55200000D03*
X167800000Y-59000000D03*
X167800000Y-61000000D03*
%TO.N,MMC_CS*%
X166250000Y-46350000D03*
X178000000Y-50200000D03*
X159900000Y-46350000D03*
%TO.N,CH14*%
X139000000Y-83800000D03*
X148000000Y-83600000D03*
%TO.N,CH10*%
X166800000Y-60200000D03*
X161400000Y-60200000D03*
X156000000Y-60600000D03*
X159000000Y-60200000D03*
%TO.N,CH11*%
X137600000Y-80600000D03*
X134800000Y-78200000D03*
%TO.N,CH12*%
X136000000Y-81400000D03*
%TO.N,RESET*%
X156800000Y-85600000D03*
X156400000Y-83200000D03*
X156800000Y-76600000D03*
X157200000Y-71200000D03*
%TO.N,BTN1*%
X170600000Y-89400000D03*
X167200000Y-88600000D03*
%TO.N,BTN2*%
X166400000Y-82200000D03*
X160800000Y-55200000D03*
%TD*%
D20*
%TO.N,3V3*%
X185100000Y-57000000D02*
X184300000Y-57800000D01*
X185100000Y-55100000D02*
X185100000Y-57000000D01*
X184300000Y-57800000D02*
X184300000Y-59320000D01*
D21*
%TO.N,EXT_SPI_CS*%
X183400000Y-56000000D02*
X179900000Y-56000000D01*
X184100000Y-55300000D02*
X183400000Y-56000000D01*
X184100000Y-55100000D02*
X184100000Y-55300000D01*
X179900000Y-56000000D02*
X179200000Y-55300000D01*
%TO.N,SPI_CLK*%
X183100000Y-54741971D02*
X184023529Y-53818442D01*
X183100000Y-55100000D02*
X183100000Y-54741971D01*
%TO.N,SPI_MOSI*%
X178132000Y-55200000D02*
X177500000Y-55200000D01*
X181700000Y-54300000D02*
X179032000Y-54300000D01*
X182100000Y-54700000D02*
X181700000Y-54300000D01*
X179032000Y-54300000D02*
X178132000Y-55200000D01*
X182100000Y-55100000D02*
X182100000Y-54700000D01*
%TO.N,SPI_CLK*%
X186500000Y-70000000D02*
X187200000Y-70700000D01*
X186500000Y-64900000D02*
X186500000Y-70000000D01*
%TO.N,3V3*%
X185760000Y-61860000D02*
X184300000Y-61860000D01*
X186100000Y-62200000D02*
X185760000Y-61860000D01*
X187300000Y-63100000D02*
X186400000Y-62200000D01*
X187300000Y-65600000D02*
X187300000Y-63100000D01*
X187900000Y-66200000D02*
X187300000Y-65600000D01*
X186400000Y-62200000D02*
X186100000Y-62200000D01*
%TO.N,AVREF*%
X168800000Y-64000000D02*
X161000000Y-64000000D01*
X161000000Y-64000000D02*
X160900000Y-64100000D01*
%TO.N,EXT_SPI_CS*%
X171100000Y-67000000D02*
X173100000Y-67000000D01*
X169800000Y-68300000D02*
X171100000Y-67000000D01*
X173100000Y-67000000D02*
X173600000Y-66500000D01*
X179300000Y-55400000D02*
X179200000Y-55300000D01*
X179300000Y-56500000D02*
X179300000Y-55400000D01*
%TO.N,GND*%
X172400000Y-57800000D02*
X172700000Y-58100000D01*
X172400000Y-55300000D02*
X172400000Y-57800000D01*
X172700000Y-58100000D02*
X173900000Y-59300000D01*
%TO.N,SPI_MISO*%
X174000000Y-60500000D02*
X174000000Y-60700000D01*
X174000000Y-60700000D02*
X174300000Y-61000000D01*
X171800000Y-58300000D02*
X174000000Y-60500000D01*
X171460000Y-57860000D02*
X171800000Y-58200000D01*
X171460000Y-53340000D02*
X171460000Y-57860000D01*
X171800000Y-58200000D02*
X171800000Y-58300000D01*
%TO.N,AGND*%
X170700000Y-57900000D02*
X172900000Y-60100000D01*
X172900000Y-60100000D02*
X172900000Y-64000000D01*
X167200000Y-57900000D02*
X170700000Y-57900000D01*
%TO.N,SPI_MOSI*%
X176300000Y-55200000D02*
X175850000Y-54750000D01*
X177500000Y-55200000D02*
X176300000Y-55200000D01*
X175850000Y-54750000D02*
X175850000Y-53340000D01*
D20*
%TO.N,+5V*%
X189151000Y-46051000D02*
X189151000Y-77149000D01*
D21*
%TO.N,SPI_MISO*%
X172000000Y-47000000D02*
X170900000Y-47000000D01*
X179100000Y-46000000D02*
X173000000Y-46000000D01*
X179400000Y-48000000D02*
X179400000Y-46300000D01*
X179400000Y-46300000D02*
X179100000Y-46000000D01*
X179700000Y-48300000D02*
X179400000Y-48000000D01*
X173000000Y-46000000D02*
X172000000Y-47000000D01*
%TO.N,EXT_SPI_CS*%
X176600000Y-59200000D02*
X179300000Y-56500000D01*
X176600000Y-62600000D02*
X176600000Y-59200000D01*
X167700000Y-80300000D02*
X168400000Y-79600000D01*
X168400000Y-79600000D02*
X168400000Y-70600000D01*
D20*
%TO.N,+5V*%
X189151000Y-77149000D02*
X188400000Y-77900000D01*
X189000000Y-45900000D02*
X189151000Y-46051000D01*
X183848530Y-39400000D02*
X184124265Y-39675735D01*
X175200000Y-39400000D02*
X183848530Y-39400000D01*
D22*
%TO.N,LED*%
X162600000Y-92600000D02*
X161600000Y-91600000D01*
X159800000Y-89800000D02*
X159800000Y-83300000D01*
X183900000Y-92600000D02*
X162600000Y-92600000D01*
X186000000Y-90500000D02*
X183900000Y-92600000D01*
X161600000Y-91600000D02*
X159800000Y-89800000D01*
X186000000Y-83000000D02*
X186000000Y-90500000D01*
%TO.N,+5V*%
X188200000Y-78100000D02*
X188400000Y-77900000D01*
X187100000Y-79200000D02*
X188200000Y-78100000D01*
X181600000Y-93400000D02*
X184000000Y-93400000D01*
X187100000Y-90300000D02*
X187100000Y-79200000D01*
X184000000Y-93400000D02*
X187100000Y-90300000D01*
X146400000Y-93400000D02*
X181600000Y-93400000D01*
X145500000Y-92500000D02*
X146400000Y-93400000D01*
D21*
%TO.N,SPI_MOSI*%
X177400000Y-69800000D02*
X183600000Y-69800000D01*
X183600000Y-69800000D02*
X184300000Y-69100000D01*
X184300000Y-69100000D02*
X184300000Y-66940000D01*
X175850000Y-53340000D02*
X175850000Y-68250000D01*
X175850000Y-68250000D02*
X177400000Y-69800000D01*
%TO.N,3V3*%
X175000000Y-73960000D02*
X175000000Y-76500000D01*
X170600000Y-80400000D02*
X172460000Y-78540000D01*
X173600000Y-56200000D02*
X174800000Y-55000000D01*
X137668000Y-50038000D02*
X137700000Y-50070000D01*
X180750000Y-49276000D02*
X183466000Y-46560000D01*
X138600000Y-41800000D02*
X138600000Y-42990000D01*
X181864000Y-44958000D02*
X181864000Y-42418000D01*
X155400000Y-49000000D02*
X156400000Y-50000000D01*
X183466000Y-46560000D02*
X181864000Y-44958000D01*
X173200000Y-56200000D02*
X173600000Y-56200000D01*
X172460000Y-76500000D02*
X175000000Y-76500000D01*
X137700000Y-50070000D02*
X137700000Y-66760000D01*
X176022000Y-49530000D02*
X177546000Y-49530000D01*
X148800000Y-49000000D02*
X155400000Y-49000000D01*
X158200000Y-50000000D02*
X156400000Y-50000000D01*
X137700000Y-66760000D02*
X137500000Y-66960000D01*
X170600000Y-82800000D02*
X170600000Y-80400000D01*
X172460000Y-73960000D02*
X172460000Y-72460000D01*
X185950000Y-46560000D02*
X183466000Y-46560000D01*
X177800000Y-49276000D02*
X180750000Y-49276000D01*
X172460000Y-73960000D02*
X175000000Y-73960000D01*
X137668000Y-43922000D02*
X138500000Y-43090000D01*
X172460000Y-72460000D02*
X171000000Y-71000000D01*
X177546000Y-49530000D02*
X177800000Y-49276000D01*
X174800000Y-53390000D02*
X174750000Y-53340000D01*
X137668000Y-50038000D02*
X137668000Y-43922000D01*
X158400000Y-50200000D02*
X158200000Y-50000000D01*
X172460000Y-78540000D02*
X172460000Y-76500000D01*
X178800000Y-82800000D02*
X178800000Y-81000000D01*
X147762000Y-50038000D02*
X148800000Y-49000000D01*
X137668000Y-50038000D02*
X147762000Y-50038000D01*
X134960000Y-66960000D02*
X137500000Y-66960000D01*
X138600000Y-42990000D02*
X138500000Y-43090000D01*
X174800000Y-55000000D02*
X174800000Y-53390000D01*
%TO.N,SPI_MISO*%
X171460000Y-47560000D02*
X170900000Y-47000000D01*
X171460000Y-53340000D02*
X171460000Y-49530000D01*
X172212000Y-49530000D02*
X171460000Y-49530000D01*
X171460000Y-49530000D02*
X171460000Y-47560000D01*
%TO.N,{slash}WP*%
X187800000Y-56000000D02*
X187800000Y-49800000D01*
X187100000Y-49100000D02*
X185950000Y-49100000D01*
X188400000Y-56600000D02*
X187800000Y-56000000D01*
X187800000Y-49800000D02*
X187100000Y-49100000D01*
%TO.N,SPI_CLK*%
X173400000Y-47500000D02*
X173650000Y-47750000D01*
X173650000Y-47750000D02*
X173650000Y-53340000D01*
%TO.N,GND*%
X168850000Y-51350000D02*
X169200000Y-51000000D01*
X169200000Y-51000000D02*
X170800000Y-51000000D01*
X167980000Y-54820000D02*
X167900000Y-54900000D01*
X167980000Y-52220000D02*
X168850000Y-51350000D01*
X167980000Y-52810000D02*
X167980000Y-54820000D01*
X167980000Y-52810000D02*
X167980000Y-52220000D01*
%TO.N,FLASH_CS*%
X175000000Y-66800000D02*
X175000000Y-59800000D01*
X170180000Y-47350000D02*
X170180000Y-48296000D01*
X170180000Y-48296000D02*
X170434000Y-48550000D01*
X161000000Y-69200000D02*
X172600000Y-69200000D01*
X174420000Y-67380000D02*
X175000000Y-66800000D01*
X172600000Y-69200000D02*
X174420000Y-67380000D01*
%TO.N,MMC_CD*%
X169260000Y-53350000D02*
X169260000Y-55140000D01*
X167800000Y-61000000D02*
X167800000Y-59000000D01*
X169260000Y-55140000D02*
X169200000Y-55200000D01*
%TO.N,MMC_CS*%
X159900000Y-46350000D02*
X166250000Y-46350000D01*
X176950000Y-51250000D02*
X178000000Y-50200000D01*
X176950000Y-53340000D02*
X176950000Y-51250000D01*
%TO.N,CH14*%
X139000000Y-83800000D02*
X147400000Y-83800000D01*
X147800000Y-83800000D02*
X148000000Y-83600000D01*
X147400000Y-83800000D02*
X147800000Y-83800000D01*
%TO.N,CH10*%
X156400000Y-60200000D02*
X156000000Y-60600000D01*
X166800000Y-60200000D02*
X161400000Y-60200000D01*
X159000000Y-60200000D02*
X156400000Y-60200000D01*
%TO.N,CH11*%
X137200000Y-80600000D02*
X137600000Y-80600000D01*
X134800000Y-78200000D02*
X137200000Y-80600000D01*
%TO.N,CH12*%
X135800000Y-81200000D02*
X130360000Y-81200000D01*
X136000000Y-81400000D02*
X135800000Y-81200000D01*
X130360000Y-81200000D02*
X129500000Y-80340000D01*
%TO.N,RESET*%
X156800000Y-76600000D02*
X156800000Y-71600000D01*
X156800000Y-71600000D02*
X157200000Y-71200000D01*
X156800000Y-85600000D02*
X156400000Y-85200000D01*
X156400000Y-85200000D02*
X156400000Y-83200000D01*
%TO.N,BTN1*%
X169800000Y-88600000D02*
X170600000Y-89400000D01*
X167200000Y-88600000D02*
X169800000Y-88600000D01*
%TO.N,BTN2*%
X161200000Y-82200000D02*
X161000000Y-82200000D01*
X161000000Y-82200000D02*
X160000000Y-81200000D01*
X160000000Y-56000000D02*
X160800000Y-55200000D01*
X160000000Y-81200000D02*
X160000000Y-56000000D01*
X166400000Y-82200000D02*
X161200000Y-82200000D01*
%TD*%
%TA.AperFunction,Conductor*%
%TO.N,GND*%
G36*
X129750000Y-95146988D02*
G01*
X129692993Y-95114075D01*
X129565826Y-95080000D01*
X129434174Y-95080000D01*
X129307007Y-95114075D01*
X129250000Y-95146988D01*
X129250000Y-93473012D01*
X129307007Y-93505925D01*
X129434174Y-93540000D01*
X129565826Y-93540000D01*
X129692993Y-93505925D01*
X129750000Y-93473012D01*
X129750000Y-95146988D01*
G37*
%TD.AperFunction*%
%TA.AperFunction,Conductor*%
G36*
X137034075Y-69307007D02*
G01*
X137000000Y-69434174D01*
X137000000Y-69565826D01*
X137034075Y-69692993D01*
X137066988Y-69750000D01*
X135393012Y-69750000D01*
X135425925Y-69692993D01*
X135460000Y-69565826D01*
X135460000Y-69434174D01*
X135425925Y-69307007D01*
X135393012Y-69250000D01*
X137066988Y-69250000D01*
X137034075Y-69307007D01*
G37*
%TD.AperFunction*%
%TA.AperFunction,Conductor*%
G36*
X129750000Y-63186988D02*
G01*
X129692993Y-63154075D01*
X129565826Y-63120000D01*
X129434174Y-63120000D01*
X129307007Y-63154075D01*
X129250000Y-63186988D01*
X129250000Y-61513012D01*
X129307007Y-61545925D01*
X129434174Y-61580000D01*
X129565826Y-61580000D01*
X129692993Y-61545925D01*
X129750000Y-61513012D01*
X129750000Y-63186988D01*
G37*
%TD.AperFunction*%
%TA.AperFunction,Conductor*%
G36*
X174380484Y-39020185D02*
G01*
X174426239Y-39072989D01*
X174436183Y-39142147D01*
X174431159Y-39160411D01*
X174432031Y-39160676D01*
X174430261Y-39166510D01*
X174399500Y-39321153D01*
X174399500Y-39478846D01*
X174430261Y-39633489D01*
X174430264Y-39633501D01*
X174490602Y-39779172D01*
X174490609Y-39779185D01*
X174578210Y-39910288D01*
X174578213Y-39910292D01*
X174689707Y-40021786D01*
X174689711Y-40021789D01*
X174820814Y-40109390D01*
X174820827Y-40109397D01*
X174920060Y-40150500D01*
X174966503Y-40169737D01*
X175121153Y-40200499D01*
X175121156Y-40200500D01*
X175121158Y-40200500D01*
X175278844Y-40200500D01*
X175278845Y-40200499D01*
X175355152Y-40185320D01*
X175433488Y-40169739D01*
X175433489Y-40169738D01*
X175433497Y-40169737D01*
X175457155Y-40159937D01*
X175504604Y-40150500D01*
X183415589Y-40150500D01*
X183482628Y-40170185D01*
X183503270Y-40186819D01*
X183613972Y-40297521D01*
X183613976Y-40297524D01*
X183745079Y-40385125D01*
X183745092Y-40385132D01*
X183890763Y-40445470D01*
X183890768Y-40445472D01*
X184022785Y-40471732D01*
X184045418Y-40476234D01*
X184045421Y-40476235D01*
X184045423Y-40476235D01*
X184203109Y-40476235D01*
X184203110Y-40476234D01*
X184357762Y-40445472D01*
X184503444Y-40385129D01*
X184506288Y-40383229D01*
X184508003Y-40382691D01*
X184508819Y-40382256D01*
X184508901Y-40382410D01*
X184572965Y-40362349D01*
X184640345Y-40380831D01*
X184687037Y-40432809D01*
X184698216Y-40501778D01*
X184687436Y-40538321D01*
X184687536Y-40538363D01*
X184687148Y-40539299D01*
X184686905Y-40540124D01*
X184686204Y-40541579D01*
X184686200Y-40541588D01*
X184593443Y-40806670D01*
X184593439Y-40806682D01*
X184530945Y-41080487D01*
X184530942Y-41080505D01*
X184499500Y-41359568D01*
X184499500Y-41438709D01*
X184479815Y-41505748D01*
X184427011Y-41551503D01*
X184357853Y-41561447D01*
X184332168Y-41554891D01*
X184242382Y-41521403D01*
X184242372Y-41521401D01*
X184182844Y-41515000D01*
X183750000Y-41515000D01*
X183750000Y-42910000D01*
X184635000Y-42910000D01*
X184635000Y-42866443D01*
X184654685Y-42799404D01*
X184707489Y-42753649D01*
X184776647Y-42743705D01*
X184840203Y-42772730D01*
X184863993Y-42800470D01*
X184957477Y-42949248D01*
X185132584Y-43168825D01*
X185331175Y-43367416D01*
X185550752Y-43542523D01*
X185788555Y-43691945D01*
X186041592Y-43813801D01*
X186240680Y-43883465D01*
X186306670Y-43906556D01*
X186306682Y-43906560D01*
X186580491Y-43969055D01*
X186580497Y-43969055D01*
X186580505Y-43969057D01*
X186766547Y-43990018D01*
X186859569Y-44000499D01*
X186859572Y-44000500D01*
X186859575Y-44000500D01*
X187140428Y-44000500D01*
X187140429Y-44000499D01*
X187283055Y-43984429D01*
X187419494Y-43969057D01*
X187419499Y-43969056D01*
X187419509Y-43969055D01*
X187693318Y-43906560D01*
X187958408Y-43813801D01*
X188211445Y-43691945D01*
X188449248Y-43542523D01*
X188668825Y-43367416D01*
X188867416Y-43168825D01*
X189042523Y-42949248D01*
X189191945Y-42711445D01*
X189214464Y-42664684D01*
X189263780Y-42562279D01*
X189310602Y-42510419D01*
X189378029Y-42492106D01*
X189444653Y-42513154D01*
X189489322Y-42566880D01*
X189499500Y-42616080D01*
X189499500Y-45054865D01*
X189479815Y-45121904D01*
X189427011Y-45167659D01*
X189357853Y-45177603D01*
X189328048Y-45169427D01*
X189323780Y-45167659D01*
X189233497Y-45130263D01*
X189233494Y-45130262D01*
X189233491Y-45130261D01*
X189078845Y-45099500D01*
X189078842Y-45099500D01*
X188921158Y-45099500D01*
X188921155Y-45099500D01*
X188766510Y-45130261D01*
X188766498Y-45130264D01*
X188620827Y-45190602D01*
X188620814Y-45190609D01*
X188489711Y-45278210D01*
X188489707Y-45278213D01*
X188378213Y-45389707D01*
X188378210Y-45389711D01*
X188290609Y-45520814D01*
X188290602Y-45520827D01*
X188230264Y-45666498D01*
X188230261Y-45666510D01*
X188199500Y-45821153D01*
X188199500Y-45978846D01*
X188230261Y-46133489D01*
X188230264Y-46133501D01*
X188290602Y-46279172D01*
X188290609Y-46279185D01*
X188379602Y-46412371D01*
X188400480Y-46479048D01*
X188400500Y-46481262D01*
X188400500Y-49251901D01*
X188394262Y-49273143D01*
X188392684Y-49295230D01*
X188384609Y-49306016D01*
X188380815Y-49318940D01*
X188364083Y-49333437D01*
X188350814Y-49351165D01*
X188338191Y-49355873D01*
X188328011Y-49364695D01*
X188306097Y-49367845D01*
X188285351Y-49375585D01*
X188272186Y-49372721D01*
X188258853Y-49374639D01*
X188238713Y-49365441D01*
X188217078Y-49360736D01*
X188199348Y-49347464D01*
X188195297Y-49345614D01*
X188188822Y-49339586D01*
X188184264Y-49335028D01*
X188168716Y-49319480D01*
X188168713Y-49319478D01*
X187587590Y-48738355D01*
X187587588Y-48738352D01*
X187468717Y-48619481D01*
X187468716Y-48619480D01*
X187429606Y-48596900D01*
X187375161Y-48565466D01*
X187375158Y-48565465D01*
X187364960Y-48559577D01*
X187331785Y-48540423D01*
X187205676Y-48506631D01*
X187201431Y-48505158D01*
X187176496Y-48487367D01*
X187150342Y-48471425D01*
X187146638Y-48466064D01*
X187144554Y-48464577D01*
X187143106Y-48460950D01*
X187131611Y-48444311D01*
X187105051Y-48392184D01*
X187086997Y-48367334D01*
X186980109Y-48220213D01*
X186829786Y-48069890D01*
X186657820Y-47944951D01*
X186657115Y-47944591D01*
X186649054Y-47940485D01*
X186598259Y-47892512D01*
X186581463Y-47824692D01*
X186603999Y-47758556D01*
X186649054Y-47719515D01*
X186657816Y-47715051D01*
X186734462Y-47659365D01*
X186829786Y-47590109D01*
X186829788Y-47590106D01*
X186829792Y-47590104D01*
X186980104Y-47439792D01*
X186980106Y-47439788D01*
X186980109Y-47439786D01*
X187102623Y-47271158D01*
X187105051Y-47267816D01*
X187201557Y-47078412D01*
X187267246Y-46876243D01*
X187300500Y-46666287D01*
X187300500Y-46453713D01*
X187267246Y-46243757D01*
X187201557Y-46041588D01*
X187105051Y-45852184D01*
X187105049Y-45852181D01*
X187105048Y-45852179D01*
X186980109Y-45680213D01*
X186829786Y-45529890D01*
X186657820Y-45404951D01*
X186468414Y-45308444D01*
X186468413Y-45308443D01*
X186468412Y-45308443D01*
X186266243Y-45242754D01*
X186266241Y-45242753D01*
X186266240Y-45242753D01*
X186104957Y-45217208D01*
X186056287Y-45209500D01*
X185843713Y-45209500D01*
X185795042Y-45217208D01*
X185633760Y-45242753D01*
X185431585Y-45308444D01*
X185242179Y-45404951D01*
X185070213Y-45529890D01*
X184919890Y-45680213D01*
X184794948Y-45852184D01*
X184794947Y-45852185D01*
X184774765Y-45891795D01*
X184726791Y-45942591D01*
X184664281Y-45959500D01*
X183766097Y-45959500D01*
X183699058Y-45939815D01*
X183678416Y-45923181D01*
X182771916Y-45016681D01*
X182738431Y-44955358D01*
X182743415Y-44885666D01*
X182785287Y-44829733D01*
X182850751Y-44805316D01*
X182859597Y-44805000D01*
X183250000Y-44805000D01*
X183750000Y-44805000D01*
X184182828Y-44805000D01*
X184182844Y-44804999D01*
X184242372Y-44798598D01*
X184242379Y-44798596D01*
X184377086Y-44748354D01*
X184377093Y-44748350D01*
X184492187Y-44662190D01*
X184492190Y-44662187D01*
X184578350Y-44547093D01*
X184578354Y-44547086D01*
X184628596Y-44412379D01*
X184628598Y-44412372D01*
X184634999Y-44352844D01*
X184635000Y-44352827D01*
X184635000Y-43410000D01*
X183750000Y-43410000D01*
X183750000Y-44805000D01*
X183250000Y-44805000D01*
X183250000Y-41515000D01*
X182817155Y-41515000D01*
X182757627Y-41521401D01*
X182757620Y-41521403D01*
X182622913Y-41571645D01*
X182622906Y-41571649D01*
X182507812Y-41657809D01*
X182507809Y-41657812D01*
X182464664Y-41715447D01*
X182408730Y-41757318D01*
X182339039Y-41762302D01*
X182296507Y-41744238D01*
X182243185Y-41708609D01*
X182243172Y-41708602D01*
X182097501Y-41648264D01*
X182097489Y-41648261D01*
X181942845Y-41617500D01*
X181942842Y-41617500D01*
X181785158Y-41617500D01*
X181785155Y-41617500D01*
X181630510Y-41648261D01*
X181630498Y-41648264D01*
X181484827Y-41708602D01*
X181484814Y-41708609D01*
X181353711Y-41796210D01*
X181353707Y-41796213D01*
X181242213Y-41907707D01*
X181242210Y-41907711D01*
X181154609Y-42038814D01*
X181154602Y-42038827D01*
X181094264Y-42184498D01*
X181094261Y-42184510D01*
X181063500Y-42339153D01*
X181063500Y-42496846D01*
X181094261Y-42651489D01*
X181094264Y-42651501D01*
X181154602Y-42797172D01*
X181154609Y-42797185D01*
X181242602Y-42928874D01*
X181263480Y-42995551D01*
X181263500Y-42997765D01*
X181263500Y-44871330D01*
X181263499Y-44871348D01*
X181263499Y-45037054D01*
X181263498Y-45037054D01*
X181304423Y-45189785D01*
X181315806Y-45209500D01*
X181315807Y-45209503D01*
X181383475Y-45326709D01*
X181383481Y-45326717D01*
X181502349Y-45445585D01*
X181502355Y-45445590D01*
X182529084Y-46472319D01*
X182562569Y-46533642D01*
X182557585Y-46603334D01*
X182529084Y-46647681D01*
X180712181Y-48464584D01*
X180650858Y-48498069D01*
X180581166Y-48493085D01*
X180525233Y-48451213D01*
X180500816Y-48385749D01*
X180500500Y-48376903D01*
X180500500Y-48221155D01*
X180500499Y-48221153D01*
X180472234Y-48079057D01*
X180469737Y-48066503D01*
X180419389Y-47944951D01*
X180409397Y-47920827D01*
X180409390Y-47920814D01*
X180321789Y-47789711D01*
X180321786Y-47789707D01*
X180210292Y-47678213D01*
X180210288Y-47678210D01*
X180079185Y-47590609D01*
X180079169Y-47590601D01*
X180077038Y-47589718D01*
X180076094Y-47588957D01*
X180073809Y-47587736D01*
X180074040Y-47587302D01*
X180022638Y-47545873D01*
X180000579Y-47479577D01*
X180000500Y-47475161D01*
X180000500Y-46220945D01*
X180000500Y-46220943D01*
X179973161Y-46118912D01*
X179959577Y-46068215D01*
X179906961Y-45977082D01*
X179880520Y-45931284D01*
X179768716Y-45819480D01*
X179768713Y-45819478D01*
X179587590Y-45638355D01*
X179587588Y-45638352D01*
X179468717Y-45519481D01*
X179468716Y-45519480D01*
X179379634Y-45468049D01*
X179331785Y-45440423D01*
X179179057Y-45399499D01*
X179020943Y-45399499D01*
X179013347Y-45399499D01*
X179013331Y-45399500D01*
X173086670Y-45399500D01*
X173086654Y-45399499D01*
X173079058Y-45399499D01*
X172920943Y-45399499D01*
X172844579Y-45419961D01*
X172768214Y-45440423D01*
X172768209Y-45440426D01*
X172631290Y-45519475D01*
X172631282Y-45519481D01*
X171787584Y-46363181D01*
X171760656Y-46377884D01*
X171734838Y-46394477D01*
X171728637Y-46395368D01*
X171726261Y-46396666D01*
X171699903Y-46399500D01*
X171479766Y-46399500D01*
X171412727Y-46379815D01*
X171410875Y-46378602D01*
X171279185Y-46290609D01*
X171279172Y-46290602D01*
X171133501Y-46230264D01*
X171133489Y-46230261D01*
X170978845Y-46199500D01*
X170978842Y-46199500D01*
X170821158Y-46199500D01*
X170821155Y-46199500D01*
X170666510Y-46230261D01*
X170666498Y-46230264D01*
X170520827Y-46290602D01*
X170520814Y-46290609D01*
X170389711Y-46378210D01*
X170389707Y-46378213D01*
X170278211Y-46489709D01*
X170275086Y-46494388D01*
X170221475Y-46539194D01*
X170171982Y-46549500D01*
X170101155Y-46549500D01*
X169946510Y-46580261D01*
X169946498Y-46580264D01*
X169800827Y-46640602D01*
X169800814Y-46640609D01*
X169669711Y-46728210D01*
X169669707Y-46728213D01*
X169558213Y-46839707D01*
X169558210Y-46839711D01*
X169470609Y-46970814D01*
X169470602Y-46970827D01*
X169410264Y-47116498D01*
X169410261Y-47116510D01*
X169379500Y-47271153D01*
X169379500Y-47428846D01*
X169410261Y-47583489D01*
X169410264Y-47583501D01*
X169470602Y-47729172D01*
X169470609Y-47729185D01*
X169558602Y-47860874D01*
X169579480Y-47927551D01*
X169579500Y-47929765D01*
X169579500Y-48209330D01*
X169579499Y-48209348D01*
X169579499Y-48375054D01*
X169579498Y-48375054D01*
X169591656Y-48420427D01*
X169620295Y-48527308D01*
X169620424Y-48527787D01*
X169623533Y-48535293D01*
X169620830Y-48536412D01*
X169633500Y-48583660D01*
X169633500Y-48628846D01*
X169664261Y-48783489D01*
X169664264Y-48783501D01*
X169724602Y-48929172D01*
X169724609Y-48929185D01*
X169812210Y-49060288D01*
X169812213Y-49060292D01*
X169923707Y-49171786D01*
X169923711Y-49171789D01*
X170054814Y-49259390D01*
X170054827Y-49259397D01*
X170200498Y-49319735D01*
X170200503Y-49319737D01*
X170330595Y-49345614D01*
X170355153Y-49350499D01*
X170355156Y-49350500D01*
X170355158Y-49350500D01*
X170512844Y-49350500D01*
X170512845Y-49350499D01*
X170667497Y-49319737D01*
X170688047Y-49311224D01*
X170757514Y-49303755D01*
X170819994Y-49335028D01*
X170855648Y-49395116D01*
X170859500Y-49425785D01*
X170859500Y-51715500D01*
X170839815Y-51782539D01*
X170787011Y-51828294D01*
X170735500Y-51839500D01*
X169962129Y-51839500D01*
X169962123Y-51839501D01*
X169902516Y-51845908D01*
X169839926Y-51869253D01*
X169770234Y-51874237D01*
X169753261Y-51869253D01*
X169717482Y-51855908D01*
X169717483Y-51855908D01*
X169657883Y-51849501D01*
X169657881Y-51849500D01*
X169657873Y-51849500D01*
X169657865Y-51849500D01*
X169071640Y-51849500D01*
X169004601Y-51829815D01*
X168972373Y-51799811D01*
X168937190Y-51752813D01*
X168937185Y-51752808D01*
X168822093Y-51666649D01*
X168822086Y-51666645D01*
X168687379Y-51616403D01*
X168687372Y-51616401D01*
X168627844Y-51610000D01*
X168230000Y-51610000D01*
X168230000Y-54010000D01*
X168285501Y-54010000D01*
X168352540Y-54029685D01*
X168398295Y-54082489D01*
X168409501Y-54134000D01*
X168409501Y-54397876D01*
X168415908Y-54457483D01*
X168466202Y-54592328D01*
X168466206Y-54592335D01*
X168507181Y-54647070D01*
X168531599Y-54712534D01*
X168516748Y-54780807D01*
X168511019Y-54790269D01*
X168490610Y-54820814D01*
X168490602Y-54820828D01*
X168430264Y-54966498D01*
X168430261Y-54966510D01*
X168399500Y-55121153D01*
X168399500Y-55278846D01*
X168430261Y-55433489D01*
X168430264Y-55433501D01*
X168490602Y-55579172D01*
X168490609Y-55579185D01*
X168578210Y-55710288D01*
X168578213Y-55710292D01*
X168689707Y-55821786D01*
X168689711Y-55821789D01*
X168820814Y-55909390D01*
X168820827Y-55909397D01*
X168866534Y-55928329D01*
X168966503Y-55969737D01*
X169085429Y-55993393D01*
X169121153Y-56000499D01*
X169121156Y-56000500D01*
X169121158Y-56000500D01*
X169278844Y-56000500D01*
X169278845Y-56000499D01*
X169433497Y-55969737D01*
X169579179Y-55909394D01*
X169710289Y-55821789D01*
X169821789Y-55710289D01*
X169909394Y-55579179D01*
X169969737Y-55433497D01*
X170000500Y-55278842D01*
X170000500Y-55121158D01*
X170000500Y-55121155D01*
X170000499Y-55121153D01*
X169974151Y-54988690D01*
X169980378Y-54919099D01*
X170023241Y-54863921D01*
X170089131Y-54840677D01*
X170095736Y-54840499D01*
X170735500Y-54840499D01*
X170802539Y-54860184D01*
X170848294Y-54912988D01*
X170859500Y-54964499D01*
X170859500Y-57175499D01*
X170856949Y-57184184D01*
X170858238Y-57193145D01*
X170847259Y-57217186D01*
X170839815Y-57242538D01*
X170832975Y-57248464D01*
X170829214Y-57256701D01*
X170806978Y-57270991D01*
X170787011Y-57288293D01*
X170776498Y-57290580D01*
X170770436Y-57294476D01*
X170735502Y-57299498D01*
X170735501Y-57299499D01*
X170620943Y-57299499D01*
X170620939Y-57299499D01*
X170613332Y-57299500D01*
X170613331Y-57299499D01*
X170613331Y-57299500D01*
X167779766Y-57299500D01*
X167712727Y-57279815D01*
X167710875Y-57278602D01*
X167579185Y-57190609D01*
X167579172Y-57190602D01*
X167433501Y-57130264D01*
X167433489Y-57130261D01*
X167278845Y-57099500D01*
X167278842Y-57099500D01*
X167121158Y-57099500D01*
X167121155Y-57099500D01*
X166966510Y-57130261D01*
X166966498Y-57130264D01*
X166820827Y-57190602D01*
X166820814Y-57190609D01*
X166689711Y-57278210D01*
X166689707Y-57278213D01*
X166578213Y-57389707D01*
X166578210Y-57389711D01*
X166490609Y-57520814D01*
X166490602Y-57520827D01*
X166430264Y-57666498D01*
X166430261Y-57666510D01*
X166399500Y-57821153D01*
X166399500Y-57978846D01*
X166430261Y-58133489D01*
X166430264Y-58133501D01*
X166490602Y-58279172D01*
X166490609Y-58279185D01*
X166578210Y-58410288D01*
X166578213Y-58410292D01*
X166689707Y-58521786D01*
X166689711Y-58521789D01*
X166820814Y-58609390D01*
X166820821Y-58609394D01*
X166949175Y-58662559D01*
X167003576Y-58706398D01*
X167025642Y-58772692D01*
X167023338Y-58801310D01*
X166999500Y-58921153D01*
X166999500Y-59078846D01*
X167030261Y-59233489D01*
X167032031Y-59239324D01*
X167030751Y-59239712D01*
X167037480Y-59302388D01*
X167006196Y-59364863D01*
X166946101Y-59400506D01*
X166891263Y-59401970D01*
X166878845Y-59399500D01*
X166878842Y-59399500D01*
X166721158Y-59399500D01*
X166721155Y-59399500D01*
X166566510Y-59430261D01*
X166566498Y-59430264D01*
X166420827Y-59490602D01*
X166420814Y-59490609D01*
X166289125Y-59578602D01*
X166222447Y-59599480D01*
X166220234Y-59599500D01*
X161979766Y-59599500D01*
X161912727Y-59579815D01*
X161910875Y-59578602D01*
X161779185Y-59490609D01*
X161779172Y-59490602D01*
X161633501Y-59430264D01*
X161633489Y-59430261D01*
X161478845Y-59399500D01*
X161478842Y-59399500D01*
X161321158Y-59399500D01*
X161321155Y-59399500D01*
X161166510Y-59430261D01*
X161166498Y-59430264D01*
X161020827Y-59490602D01*
X161020814Y-59490609D01*
X160889711Y-59578210D01*
X160889707Y-59578213D01*
X160812181Y-59655740D01*
X160750858Y-59689225D01*
X160681166Y-59684241D01*
X160625233Y-59642369D01*
X160600816Y-59576905D01*
X160600500Y-59568059D01*
X160600500Y-56300097D01*
X160620185Y-56233058D01*
X160636819Y-56212416D01*
X160724449Y-56124786D01*
X160814662Y-56034572D01*
X160875983Y-56001089D01*
X160878150Y-56000638D01*
X160967121Y-55982940D01*
X161033497Y-55969737D01*
X161179179Y-55909394D01*
X161310289Y-55821789D01*
X161421789Y-55710289D01*
X161509394Y-55579179D01*
X161569737Y-55433497D01*
X161600500Y-55278842D01*
X161600500Y-55121158D01*
X161600500Y-55121155D01*
X161600499Y-55121153D01*
X161585491Y-55045702D01*
X161569737Y-54966503D01*
X161537245Y-54888060D01*
X161509397Y-54820827D01*
X161509390Y-54820814D01*
X161421789Y-54689711D01*
X161421786Y-54689707D01*
X161310292Y-54578213D01*
X161310288Y-54578210D01*
X161179185Y-54490609D01*
X161179172Y-54490602D01*
X161033501Y-54430264D01*
X161033489Y-54430261D01*
X160878845Y-54399500D01*
X160878842Y-54399500D01*
X160721158Y-54399500D01*
X160721155Y-54399500D01*
X160566510Y-54430261D01*
X160566498Y-54430264D01*
X160420827Y-54490602D01*
X160420814Y-54490609D01*
X160289711Y-54578210D01*
X160289707Y-54578213D01*
X160178213Y-54689707D01*
X160178210Y-54689711D01*
X160090609Y-54820814D01*
X160090602Y-54820827D01*
X160030264Y-54966498D01*
X160030261Y-54966508D01*
X159999361Y-55121850D01*
X159966976Y-55183761D01*
X159965425Y-55185339D01*
X159519481Y-55631282D01*
X159519480Y-55631284D01*
X159476761Y-55705276D01*
X159452889Y-55746623D01*
X159443249Y-55763321D01*
X159440423Y-55768215D01*
X159399499Y-55920943D01*
X159399499Y-55920945D01*
X159399499Y-56089046D01*
X159399500Y-56089059D01*
X159399500Y-59313444D01*
X159379815Y-59380483D01*
X159327011Y-59426238D01*
X159257853Y-59436182D01*
X159239575Y-59431202D01*
X159239324Y-59432031D01*
X159233500Y-59430264D01*
X159233497Y-59430263D01*
X159233492Y-59430262D01*
X159233489Y-59430261D01*
X159078845Y-59399500D01*
X159078842Y-59399500D01*
X158921158Y-59399500D01*
X158921155Y-59399500D01*
X158766510Y-59430261D01*
X158766498Y-59430264D01*
X158620827Y-59490602D01*
X158620814Y-59490609D01*
X158489125Y-59578602D01*
X158422447Y-59599480D01*
X158420234Y-59599500D01*
X156320941Y-59599500D01*
X156280800Y-59610255D01*
X156280801Y-59610256D01*
X156168214Y-59640423D01*
X156168209Y-59640426D01*
X156031290Y-59719475D01*
X156031282Y-59719481D01*
X155985336Y-59765427D01*
X155924013Y-59798911D01*
X155921848Y-59799362D01*
X155766508Y-59830261D01*
X155766498Y-59830264D01*
X155620827Y-59890602D01*
X155620814Y-59890609D01*
X155489711Y-59978210D01*
X155489707Y-59978213D01*
X155378213Y-60089707D01*
X155378210Y-60089711D01*
X155290609Y-60220814D01*
X155290602Y-60220827D01*
X155230264Y-60366498D01*
X155230261Y-60366510D01*
X155199500Y-60521153D01*
X155199500Y-60678846D01*
X155230261Y-60833489D01*
X155230264Y-60833501D01*
X155290602Y-60979172D01*
X155290609Y-60979185D01*
X155378210Y-61110288D01*
X155378213Y-61110292D01*
X155489707Y-61221786D01*
X155489711Y-61221789D01*
X155620814Y-61309390D01*
X155620827Y-61309397D01*
X155766498Y-61369735D01*
X155766503Y-61369737D01*
X155853325Y-61387007D01*
X155921153Y-61400499D01*
X155921156Y-61400500D01*
X155921158Y-61400500D01*
X156078844Y-61400500D01*
X156078845Y-61400499D01*
X156233497Y-61369737D01*
X156379179Y-61309394D01*
X156510289Y-61221789D01*
X156621789Y-61110289D01*
X156709394Y-60979179D01*
X156714037Y-60967969D01*
X156751698Y-60877048D01*
X156795538Y-60822644D01*
X156861833Y-60800579D01*
X156866259Y-60800500D01*
X158420234Y-60800500D01*
X158487273Y-60820185D01*
X158489125Y-60821398D01*
X158620814Y-60909390D01*
X158620827Y-60909397D01*
X158766498Y-60969735D01*
X158766503Y-60969737D01*
X158896982Y-60995691D01*
X158921153Y-61000499D01*
X158921156Y-61000500D01*
X158921158Y-61000500D01*
X159078844Y-61000500D01*
X159078845Y-61000499D01*
X159233497Y-60969737D01*
X159233509Y-60969731D01*
X159239324Y-60967969D01*
X159240158Y-60970720D01*
X159297359Y-60964497D01*
X159359878Y-60995691D01*
X159395608Y-61055734D01*
X159399500Y-61086555D01*
X159399500Y-81113330D01*
X159399499Y-81113348D01*
X159399499Y-81279054D01*
X159399498Y-81279054D01*
X159399499Y-81279057D01*
X159440015Y-81430264D01*
X159440423Y-81431784D01*
X159440424Y-81431788D01*
X159467591Y-81478843D01*
X159467592Y-81478843D01*
X159519477Y-81568712D01*
X159519481Y-81568717D01*
X159638349Y-81687585D01*
X159638354Y-81687589D01*
X160380461Y-82429697D01*
X160413946Y-82491019D01*
X160408962Y-82560711D01*
X160367090Y-82616644D01*
X160301626Y-82641061D01*
X160233353Y-82626209D01*
X160223890Y-82620480D01*
X160179183Y-82590608D01*
X160179172Y-82590602D01*
X160033501Y-82530264D01*
X160033489Y-82530261D01*
X159878845Y-82499500D01*
X159878842Y-82499500D01*
X159721158Y-82499500D01*
X159721155Y-82499500D01*
X159566510Y-82530261D01*
X159566498Y-82530264D01*
X159420827Y-82590602D01*
X159420814Y-82590609D01*
X159289711Y-82678210D01*
X159289707Y-82678213D01*
X159178213Y-82789707D01*
X159178210Y-82789711D01*
X159090609Y-82920814D01*
X159090602Y-82920827D01*
X159030264Y-83066498D01*
X159030261Y-83066510D01*
X158999500Y-83221153D01*
X158999500Y-83378846D01*
X159030261Y-83533489D01*
X159030264Y-83533501D01*
X159090602Y-83679172D01*
X159090609Y-83679184D01*
X159153602Y-83773459D01*
X159174480Y-83840136D01*
X159174500Y-83842350D01*
X159174500Y-89861611D01*
X159198535Y-89982444D01*
X159198540Y-89982461D01*
X159245685Y-90096280D01*
X159245687Y-90096283D01*
X159245688Y-90096286D01*
X159279915Y-90147509D01*
X159314142Y-90198733D01*
X159401267Y-90285858D01*
X159401269Y-90285859D01*
X159411232Y-90295822D01*
X161208331Y-92092922D01*
X161208337Y-92092927D01*
X161678228Y-92562819D01*
X161711713Y-92624142D01*
X161706729Y-92693834D01*
X161664857Y-92749767D01*
X161599393Y-92774184D01*
X161590547Y-92774500D01*
X146969042Y-92774500D01*
X146902003Y-92754815D01*
X146856248Y-92702011D01*
X146846304Y-92632853D01*
X146846550Y-92631225D01*
X146850500Y-92606287D01*
X146850500Y-92393713D01*
X146817246Y-92183757D01*
X146751557Y-91981588D01*
X146655051Y-91792184D01*
X146655049Y-91792181D01*
X146655048Y-91792179D01*
X146530109Y-91620213D01*
X146379786Y-91469890D01*
X146207820Y-91344951D01*
X146018414Y-91248444D01*
X146018413Y-91248443D01*
X146018412Y-91248443D01*
X145816243Y-91182754D01*
X145816241Y-91182753D01*
X145816240Y-91182753D01*
X145654957Y-91157208D01*
X145606287Y-91149500D01*
X145393713Y-91149500D01*
X145345042Y-91157208D01*
X145183760Y-91182753D01*
X144981585Y-91248444D01*
X144792179Y-91344951D01*
X144620215Y-91469889D01*
X144506673Y-91583431D01*
X144445350Y-91616915D01*
X144375658Y-91611931D01*
X144319725Y-91570059D01*
X144302810Y-91539082D01*
X144253797Y-91407671D01*
X144253793Y-91407664D01*
X144167547Y-91292455D01*
X144167544Y-91292452D01*
X144052335Y-91206206D01*
X144052328Y-91206202D01*
X143917482Y-91155908D01*
X143917483Y-91155908D01*
X143857883Y-91149501D01*
X143857881Y-91149500D01*
X143857873Y-91149500D01*
X143857864Y-91149500D01*
X142062129Y-91149500D01*
X142062123Y-91149501D01*
X142002516Y-91155908D01*
X141867671Y-91206202D01*
X141867664Y-91206206D01*
X141752455Y-91292452D01*
X141752452Y-91292455D01*
X141666206Y-91407664D01*
X141666202Y-91407671D01*
X141615908Y-91542517D01*
X141609501Y-91602116D01*
X141609500Y-91602135D01*
X141609500Y-93397870D01*
X141609501Y-93397876D01*
X141615908Y-93457483D01*
X141666202Y-93592328D01*
X141666206Y-93592335D01*
X141752452Y-93707544D01*
X141752455Y-93707547D01*
X141867664Y-93793793D01*
X141867671Y-93793797D01*
X141999082Y-93842810D01*
X142055016Y-93884681D01*
X142079433Y-93950145D01*
X142064582Y-94018418D01*
X142043431Y-94046673D01*
X141929889Y-94160215D01*
X141804951Y-94332179D01*
X141708444Y-94521585D01*
X141642753Y-94723760D01*
X141624651Y-94838051D01*
X141609500Y-94933713D01*
X141609500Y-95146287D01*
X141642754Y-95356243D01*
X141672051Y-95446411D01*
X141708444Y-95558414D01*
X141804951Y-95747820D01*
X141929890Y-95919786D01*
X142080213Y-96070109D01*
X142252179Y-96195048D01*
X142252181Y-96195049D01*
X142252184Y-96195051D01*
X142441588Y-96291557D01*
X142643757Y-96357246D01*
X142853713Y-96390500D01*
X142853714Y-96390500D01*
X143066286Y-96390500D01*
X143066287Y-96390500D01*
X143276243Y-96357246D01*
X143478412Y-96291557D01*
X143667816Y-96195051D01*
X143720430Y-96156825D01*
X143839786Y-96070109D01*
X143839788Y-96070106D01*
X143839792Y-96070104D01*
X143990104Y-95919792D01*
X143990106Y-95919788D01*
X143990109Y-95919786D01*
X144115048Y-95747820D01*
X144115047Y-95747820D01*
X144115051Y-95747816D01*
X144119514Y-95739054D01*
X144167488Y-95688259D01*
X144235308Y-95671463D01*
X144301444Y-95693999D01*
X144340486Y-95739056D01*
X144344951Y-95747820D01*
X144469890Y-95919786D01*
X144620213Y-96070109D01*
X144792179Y-96195048D01*
X144792181Y-96195049D01*
X144792184Y-96195051D01*
X144981588Y-96291557D01*
X145183757Y-96357246D01*
X145393713Y-96390500D01*
X145393714Y-96390500D01*
X145606286Y-96390500D01*
X145606287Y-96390500D01*
X145816243Y-96357246D01*
X146018412Y-96291557D01*
X146207816Y-96195051D01*
X146260430Y-96156825D01*
X146379786Y-96070109D01*
X146379788Y-96070106D01*
X146379792Y-96070104D01*
X146530104Y-95919792D01*
X146530106Y-95919788D01*
X146530109Y-95919786D01*
X146655048Y-95747820D01*
X146655047Y-95747820D01*
X146655051Y-95747816D01*
X146751557Y-95558412D01*
X146817246Y-95356243D01*
X146850500Y-95146287D01*
X146850500Y-94933713D01*
X146817246Y-94723757D01*
X146751557Y-94521588D01*
X146655051Y-94332184D01*
X146575278Y-94222385D01*
X146551799Y-94156578D01*
X146567625Y-94088525D01*
X146617731Y-94039830D01*
X146675597Y-94025500D01*
X184061608Y-94025500D01*
X184061608Y-94025499D01*
X184140055Y-94009896D01*
X184182452Y-94001463D01*
X184215792Y-93987652D01*
X184296286Y-93954312D01*
X184356367Y-93914166D01*
X184398733Y-93885858D01*
X184485858Y-93798733D01*
X184485859Y-93798731D01*
X184492925Y-93791665D01*
X184492928Y-93791661D01*
X184581844Y-93702744D01*
X184643165Y-93669261D01*
X184712857Y-93674245D01*
X184768790Y-93716117D01*
X184793207Y-93781581D01*
X184781243Y-93844228D01*
X184686203Y-94041580D01*
X184686200Y-94041588D01*
X184593443Y-94306670D01*
X184593439Y-94306682D01*
X184530945Y-94580487D01*
X184530942Y-94580505D01*
X184499500Y-94859568D01*
X184499500Y-95140431D01*
X184530942Y-95419494D01*
X184530945Y-95419512D01*
X184593439Y-95693317D01*
X184593443Y-95693329D01*
X184686200Y-95958411D01*
X184808053Y-96211442D01*
X184808055Y-96211445D01*
X184957477Y-96449248D01*
X185132584Y-96668825D01*
X185331175Y-96867416D01*
X185550752Y-97042523D01*
X185788555Y-97191945D01*
X185788560Y-97191948D01*
X185937721Y-97263780D01*
X185989581Y-97310602D01*
X186007894Y-97378029D01*
X185986846Y-97444653D01*
X185933120Y-97489322D01*
X185883920Y-97499500D01*
X129004428Y-97499500D01*
X128995582Y-97499184D01*
X128973622Y-97497613D01*
X128795442Y-97484869D01*
X128777931Y-97482351D01*
X128586212Y-97440646D01*
X128569236Y-97435662D01*
X128385390Y-97367090D01*
X128369298Y-97359740D01*
X128197095Y-97265711D01*
X128182210Y-97256146D01*
X128025132Y-97138558D01*
X128011762Y-97126972D01*
X127873027Y-96988237D01*
X127861441Y-96974867D01*
X127848107Y-96957055D01*
X127743849Y-96817784D01*
X127734288Y-96802904D01*
X127640259Y-96630701D01*
X127632909Y-96614609D01*
X127588251Y-96494878D01*
X127564334Y-96430755D01*
X127559355Y-96413797D01*
X127517647Y-96222063D01*
X127515130Y-96204556D01*
X127514450Y-96195051D01*
X127500816Y-96004418D01*
X127500500Y-95995572D01*
X127500500Y-71822135D01*
X128149500Y-71822135D01*
X128149500Y-73617870D01*
X128149501Y-73617876D01*
X128155908Y-73677483D01*
X128206202Y-73812328D01*
X128206206Y-73812335D01*
X128292452Y-73927544D01*
X128292455Y-73927547D01*
X128407664Y-74013793D01*
X128407671Y-74013797D01*
X128539082Y-74062810D01*
X128595016Y-74104681D01*
X128619433Y-74170145D01*
X128604582Y-74238418D01*
X128583431Y-74266673D01*
X128469889Y-74380215D01*
X128344951Y-74552179D01*
X128248444Y-74741585D01*
X128182753Y-74943760D01*
X128154917Y-75119514D01*
X128149500Y-75153713D01*
X128149500Y-75366287D01*
X128182754Y-75576243D01*
X128197147Y-75620541D01*
X128248444Y-75778414D01*
X128344951Y-75967820D01*
X128469890Y-76139786D01*
X128620213Y-76290109D01*
X128792182Y-76415050D01*
X128800946Y-76419516D01*
X128851742Y-76467491D01*
X128868536Y-76535312D01*
X128845998Y-76601447D01*
X128800946Y-76640484D01*
X128792182Y-76644949D01*
X128620213Y-76769890D01*
X128469890Y-76920213D01*
X128344951Y-77092179D01*
X128248444Y-77281585D01*
X128182753Y-77483760D01*
X128155623Y-77655052D01*
X128149500Y-77693713D01*
X128149500Y-77906287D01*
X128182754Y-78116243D01*
X128239622Y-78291265D01*
X128248444Y-78318414D01*
X128344951Y-78507820D01*
X128469890Y-78679786D01*
X128620213Y-78830109D01*
X128792182Y-78955050D01*
X128800946Y-78959516D01*
X128851742Y-79007491D01*
X128868536Y-79075312D01*
X128845998Y-79141447D01*
X128800946Y-79180484D01*
X128792182Y-79184949D01*
X128620213Y-79309890D01*
X128469890Y-79460213D01*
X128344951Y-79632179D01*
X128248444Y-79821585D01*
X128182753Y-80023760D01*
X128150047Y-80230261D01*
X128149500Y-80233713D01*
X128149500Y-80446287D01*
X128156377Y-80489707D01*
X128181564Y-80648735D01*
X128182754Y-80656243D01*
X128232806Y-80810288D01*
X128248444Y-80858414D01*
X128344951Y-81047820D01*
X128469890Y-81219786D01*
X128620213Y-81370109D01*
X128792182Y-81495050D01*
X128800946Y-81499516D01*
X128851742Y-81547491D01*
X128868536Y-81615312D01*
X128845998Y-81681447D01*
X128800946Y-81720484D01*
X128792182Y-81724949D01*
X128620213Y-81849890D01*
X128469890Y-82000213D01*
X128344951Y-82172179D01*
X128248444Y-82361585D01*
X128182753Y-82563760D01*
X128149500Y-82773713D01*
X128149500Y-82986286D01*
X128170861Y-83121158D01*
X128182754Y-83196243D01*
X128242195Y-83379184D01*
X128248444Y-83398414D01*
X128344951Y-83587820D01*
X128469890Y-83759786D01*
X128620213Y-83910109D01*
X128792182Y-84035050D01*
X128800946Y-84039516D01*
X128851742Y-84087491D01*
X128868536Y-84155312D01*
X128845998Y-84221447D01*
X128800946Y-84260484D01*
X128792182Y-84264949D01*
X128620213Y-84389890D01*
X128469890Y-84540213D01*
X128344951Y-84712179D01*
X128248444Y-84901585D01*
X128182753Y-85103760D01*
X128149500Y-85313713D01*
X128149500Y-85526286D01*
X128173662Y-85678842D01*
X128182754Y-85736243D01*
X128214355Y-85833501D01*
X128248444Y-85938414D01*
X128344951Y-86127820D01*
X128469890Y-86299786D01*
X128620213Y-86450109D01*
X128792182Y-86575050D01*
X128800946Y-86579516D01*
X128851742Y-86627491D01*
X128868536Y-86695312D01*
X128845998Y-86761447D01*
X128800946Y-86800484D01*
X128792182Y-86804949D01*
X128620213Y-86929890D01*
X128469890Y-87080213D01*
X128344951Y-87252179D01*
X128248444Y-87441585D01*
X128182753Y-87643760D01*
X128149500Y-87853713D01*
X128149500Y-88066286D01*
X128176752Y-88238352D01*
X128182754Y-88276243D01*
X128212081Y-88366503D01*
X128248444Y-88478414D01*
X128344951Y-88667820D01*
X128469890Y-88839786D01*
X128620213Y-88990109D01*
X128792182Y-89115050D01*
X128800946Y-89119516D01*
X128851742Y-89167491D01*
X128868536Y-89235312D01*
X128845998Y-89301447D01*
X128800946Y-89340484D01*
X128792182Y-89344949D01*
X128620213Y-89469890D01*
X128469890Y-89620213D01*
X128344951Y-89792179D01*
X128248444Y-89981585D01*
X128182753Y-90183760D01*
X128149500Y-90393713D01*
X128149500Y-90606286D01*
X128182753Y-90816239D01*
X128248444Y-91018414D01*
X128344951Y-91207820D01*
X128469890Y-91379786D01*
X128620213Y-91530109D01*
X128792179Y-91655048D01*
X128792181Y-91655049D01*
X128792184Y-91655051D01*
X128801493Y-91659794D01*
X128852290Y-91707766D01*
X128869087Y-91775587D01*
X128846552Y-91841722D01*
X128801502Y-91880762D01*
X128792443Y-91885378D01*
X128620540Y-92010272D01*
X128620535Y-92010276D01*
X128470276Y-92160535D01*
X128470272Y-92160540D01*
X128345379Y-92332442D01*
X128248904Y-92521782D01*
X128183242Y-92723870D01*
X128183242Y-92723873D01*
X128172769Y-92790000D01*
X129066988Y-92790000D01*
X129034075Y-92847007D01*
X129000000Y-92974174D01*
X129000000Y-93105826D01*
X129034075Y-93232993D01*
X129066988Y-93290000D01*
X128172769Y-93290000D01*
X128183242Y-93356126D01*
X128183242Y-93356129D01*
X128248904Y-93558217D01*
X128345379Y-93747557D01*
X128470272Y-93919459D01*
X128470276Y-93919464D01*
X128620535Y-94069723D01*
X128620540Y-94069727D01*
X128792444Y-94194622D01*
X128802048Y-94199516D01*
X128852844Y-94247491D01*
X128869638Y-94315312D01*
X128847100Y-94381447D01*
X128802048Y-94420484D01*
X128792444Y-94425377D01*
X128620540Y-94550272D01*
X128620535Y-94550276D01*
X128470276Y-94700535D01*
X128470272Y-94700540D01*
X128345379Y-94872442D01*
X128248904Y-95061782D01*
X128183242Y-95263870D01*
X128183242Y-95263873D01*
X128172769Y-95330000D01*
X129066988Y-95330000D01*
X129034075Y-95387007D01*
X129000000Y-95514174D01*
X129000000Y-95645826D01*
X129034075Y-95772993D01*
X129066988Y-95830000D01*
X128172769Y-95830000D01*
X128183242Y-95896126D01*
X128183242Y-95896129D01*
X128248904Y-96098217D01*
X128345379Y-96287557D01*
X128470272Y-96459459D01*
X128470276Y-96459464D01*
X128620535Y-96609723D01*
X128620540Y-96609727D01*
X128792442Y-96734620D01*
X128981782Y-96831095D01*
X129183871Y-96896757D01*
X129250000Y-96907231D01*
X129250000Y-96013012D01*
X129307007Y-96045925D01*
X129434174Y-96080000D01*
X129565826Y-96080000D01*
X129692993Y-96045925D01*
X129750000Y-96013012D01*
X129750000Y-96907230D01*
X129816126Y-96896757D01*
X129816129Y-96896757D01*
X130018217Y-96831095D01*
X130207557Y-96734620D01*
X130379459Y-96609727D01*
X130379464Y-96609723D01*
X130529723Y-96459464D01*
X130529727Y-96459459D01*
X130654620Y-96287557D01*
X130751095Y-96098217D01*
X130816757Y-95896129D01*
X130816757Y-95896126D01*
X130827231Y-95830000D01*
X129933012Y-95830000D01*
X129965925Y-95772993D01*
X130000000Y-95645826D01*
X130000000Y-95514174D01*
X129965925Y-95387007D01*
X129933012Y-95330000D01*
X130827231Y-95330000D01*
X130816757Y-95263873D01*
X130816757Y-95263870D01*
X130751095Y-95061782D01*
X130654620Y-94872442D01*
X130529727Y-94700540D01*
X130529723Y-94700535D01*
X130379464Y-94550276D01*
X130379459Y-94550272D01*
X130236333Y-94446285D01*
X130186614Y-94413931D01*
X130167984Y-94392182D01*
X130147157Y-94372512D01*
X130145538Y-94365977D01*
X130141161Y-94360867D01*
X130139326Y-94347568D01*
X135675500Y-94347568D01*
X135675500Y-94628431D01*
X135706942Y-94907494D01*
X135706945Y-94907512D01*
X135769439Y-95181317D01*
X135769443Y-95181329D01*
X135862200Y-95446411D01*
X135984053Y-95699442D01*
X135984055Y-95699445D01*
X136133477Y-95937248D01*
X136261846Y-96098217D01*
X136304139Y-96151252D01*
X136308584Y-96156825D01*
X136507175Y-96355416D01*
X136726752Y-96530523D01*
X136964555Y-96679945D01*
X137217592Y-96801801D01*
X137405109Y-96867416D01*
X137482670Y-96894556D01*
X137482682Y-96894560D01*
X137756491Y-96957055D01*
X137756497Y-96957055D01*
X137756505Y-96957057D01*
X137942547Y-96978018D01*
X138035569Y-96988499D01*
X138035572Y-96988500D01*
X138035575Y-96988500D01*
X138316428Y-96988500D01*
X138316429Y-96988499D01*
X138459055Y-96972429D01*
X138595494Y-96957057D01*
X138595499Y-96957056D01*
X138595509Y-96957055D01*
X138869318Y-96894560D01*
X139134408Y-96801801D01*
X139387445Y-96679945D01*
X139625248Y-96530523D01*
X139844825Y-96355416D01*
X140043416Y-96156825D01*
X140218523Y-95937248D01*
X140367945Y-95699445D01*
X140489801Y-95446408D01*
X140582560Y-95181318D01*
X140645055Y-94907509D01*
X140676500Y-94628425D01*
X140676500Y-94347575D01*
X140659818Y-94199514D01*
X140645057Y-94068505D01*
X140645054Y-94068487D01*
X140638914Y-94041588D01*
X140582560Y-93794682D01*
X140582250Y-93793797D01*
X140552069Y-93707544D01*
X140489801Y-93529592D01*
X140367945Y-93276555D01*
X140218523Y-93038752D01*
X140043416Y-92819175D01*
X139844825Y-92620584D01*
X139625248Y-92445477D01*
X139387445Y-92296055D01*
X139387442Y-92296053D01*
X139134411Y-92174200D01*
X138869329Y-92081443D01*
X138869317Y-92081439D01*
X138595512Y-92018945D01*
X138595494Y-92018942D01*
X138316431Y-91987500D01*
X138316425Y-91987500D01*
X138035575Y-91987500D01*
X138035568Y-91987500D01*
X137756505Y-92018942D01*
X137756487Y-92018945D01*
X137482682Y-92081439D01*
X137482670Y-92081443D01*
X137217588Y-92174200D01*
X136964557Y-92296053D01*
X136726753Y-92445476D01*
X136507175Y-92620583D01*
X136308583Y-92819175D01*
X136133476Y-93038753D01*
X135984053Y-93276557D01*
X135862200Y-93529588D01*
X135769443Y-93794670D01*
X135769439Y-93794682D01*
X135706945Y-94068487D01*
X135706942Y-94068505D01*
X135675500Y-94347568D01*
X130139326Y-94347568D01*
X130137246Y-94332496D01*
X130130361Y-94304692D01*
X130132531Y-94298320D01*
X130131612Y-94291653D01*
X130143658Y-94265668D01*
X130152897Y-94238556D01*
X130158463Y-94233732D01*
X130160999Y-94228264D01*
X130175108Y-94219309D01*
X130197954Y-94199514D01*
X130207558Y-94194620D01*
X130379459Y-94069727D01*
X130379464Y-94069723D01*
X130529723Y-93919464D01*
X130529727Y-93919459D01*
X130654620Y-93747557D01*
X130751095Y-93558217D01*
X130816757Y-93356129D01*
X130816757Y-93356126D01*
X130827231Y-93290000D01*
X129933012Y-93290000D01*
X129965925Y-93232993D01*
X130000000Y-93105826D01*
X130000000Y-92974174D01*
X129965925Y-92847007D01*
X129933012Y-92790000D01*
X130827231Y-92790000D01*
X130816757Y-92723873D01*
X130816757Y-92723870D01*
X130751095Y-92521782D01*
X130654620Y-92332442D01*
X130529727Y-92160540D01*
X130529723Y-92160535D01*
X130379464Y-92010276D01*
X130379459Y-92010272D01*
X130207555Y-91885377D01*
X130198500Y-91880763D01*
X130147706Y-91832788D01*
X130130912Y-91764966D01*
X130153451Y-91698832D01*
X130198508Y-91659793D01*
X130207816Y-91655051D01*
X130306393Y-91583431D01*
X130379786Y-91530109D01*
X130379788Y-91530106D01*
X130379792Y-91530104D01*
X130530104Y-91379792D01*
X130530106Y-91379788D01*
X130530109Y-91379786D01*
X130655048Y-91207820D01*
X130655047Y-91207820D01*
X130655051Y-91207816D01*
X130751557Y-91018412D01*
X130817246Y-90816243D01*
X130850500Y-90606287D01*
X130850500Y-90393713D01*
X130817246Y-90183757D01*
X130751557Y-89981588D01*
X130655051Y-89792184D01*
X130655049Y-89792181D01*
X130655048Y-89792179D01*
X130530109Y-89620213D01*
X130379786Y-89469890D01*
X130207820Y-89344951D01*
X130207115Y-89344591D01*
X130199054Y-89340485D01*
X130148259Y-89292512D01*
X130131463Y-89224692D01*
X130153999Y-89158556D01*
X130199054Y-89119515D01*
X130207816Y-89115051D01*
X130229789Y-89099086D01*
X130379786Y-88990109D01*
X130379788Y-88990106D01*
X130379792Y-88990104D01*
X130530104Y-88839792D01*
X130530106Y-88839788D01*
X130530109Y-88839786D01*
X130655048Y-88667820D01*
X130655047Y-88667820D01*
X130655051Y-88667816D01*
X130751557Y-88478412D01*
X130817246Y-88276243D01*
X130850500Y-88066287D01*
X130850500Y-87853713D01*
X130817246Y-87643757D01*
X130751557Y-87441588D01*
X130655051Y-87252184D01*
X130655049Y-87252181D01*
X130655048Y-87252179D01*
X130530109Y-87080213D01*
X130379786Y-86929890D01*
X130207820Y-86804951D01*
X130207115Y-86804591D01*
X130199054Y-86800485D01*
X130148259Y-86752512D01*
X130131463Y-86684692D01*
X130153999Y-86618556D01*
X130199054Y-86579515D01*
X130207816Y-86575051D01*
X130229789Y-86559086D01*
X130379786Y-86450109D01*
X130379788Y-86450106D01*
X130379792Y-86450104D01*
X130530104Y-86299792D01*
X130530106Y-86299788D01*
X130530109Y-86299786D01*
X130655048Y-86127820D01*
X130655047Y-86127820D01*
X130655051Y-86127816D01*
X130751557Y-85938412D01*
X130817246Y-85736243D01*
X130850500Y-85526287D01*
X130850500Y-85313713D01*
X130817246Y-85103757D01*
X130751557Y-84901588D01*
X130655051Y-84712184D01*
X130655049Y-84712181D01*
X130655048Y-84712179D01*
X130530109Y-84540213D01*
X130379786Y-84389890D01*
X130207820Y-84264951D01*
X130207115Y-84264591D01*
X130199054Y-84260485D01*
X130148259Y-84212512D01*
X130131463Y-84144692D01*
X130153999Y-84078556D01*
X130199054Y-84039515D01*
X130207816Y-84035051D01*
X130229789Y-84019086D01*
X130379786Y-83910109D01*
X130379788Y-83910106D01*
X130379792Y-83910104D01*
X130530104Y-83759792D01*
X130558177Y-83721153D01*
X138199500Y-83721153D01*
X138199500Y-83878846D01*
X138230261Y-84033489D01*
X138230264Y-84033501D01*
X138290602Y-84179172D01*
X138290609Y-84179185D01*
X138378210Y-84310288D01*
X138378213Y-84310292D01*
X138489707Y-84421786D01*
X138489711Y-84421789D01*
X138620814Y-84509390D01*
X138620827Y-84509397D01*
X138695225Y-84540213D01*
X138766503Y-84569737D01*
X138921153Y-84600499D01*
X138921156Y-84600500D01*
X138921158Y-84600500D01*
X139078844Y-84600500D01*
X139078845Y-84600499D01*
X139233497Y-84569737D01*
X139379179Y-84509394D01*
X139379185Y-84509390D01*
X139510875Y-84421398D01*
X139577553Y-84400520D01*
X139579766Y-84400500D01*
X147320943Y-84400500D01*
X147720939Y-84400500D01*
X147720943Y-84400501D01*
X147879057Y-84400501D01*
X147884987Y-84398911D01*
X147899137Y-84398781D01*
X147905314Y-84400533D01*
X147915004Y-84400850D01*
X147915098Y-84399903D01*
X147921156Y-84400500D01*
X147921158Y-84400500D01*
X148078844Y-84400500D01*
X148078845Y-84400499D01*
X148233497Y-84369737D01*
X148379179Y-84309394D01*
X148510289Y-84221789D01*
X148621789Y-84110289D01*
X148709394Y-83979179D01*
X148769737Y-83833497D01*
X148800500Y-83678842D01*
X148800500Y-83521158D01*
X148800500Y-83521155D01*
X148800499Y-83521153D01*
X148780734Y-83421789D01*
X148769737Y-83366503D01*
X148737929Y-83289711D01*
X148709397Y-83220827D01*
X148709390Y-83220814D01*
X148684763Y-83183957D01*
X148642798Y-83121153D01*
X155599500Y-83121153D01*
X155599500Y-83278846D01*
X155630261Y-83433489D01*
X155630264Y-83433501D01*
X155690602Y-83579172D01*
X155690609Y-83579185D01*
X155778602Y-83710874D01*
X155799480Y-83777551D01*
X155799500Y-83779765D01*
X155799500Y-85113330D01*
X155799499Y-85113348D01*
X155799499Y-85279054D01*
X155799498Y-85279054D01*
X155799499Y-85279057D01*
X155840423Y-85431785D01*
X155869360Y-85481904D01*
X155919480Y-85568716D01*
X155972210Y-85621446D01*
X155977865Y-85629185D01*
X155986579Y-85653401D01*
X155998911Y-85675985D01*
X155999362Y-85678151D01*
X156030261Y-85833491D01*
X156030264Y-85833501D01*
X156090602Y-85979172D01*
X156090609Y-85979185D01*
X156178210Y-86110288D01*
X156178213Y-86110292D01*
X156289707Y-86221786D01*
X156289711Y-86221789D01*
X156420814Y-86309390D01*
X156420827Y-86309397D01*
X156566498Y-86369735D01*
X156566503Y-86369737D01*
X156721153Y-86400499D01*
X156721156Y-86400500D01*
X156721158Y-86400500D01*
X156878844Y-86400500D01*
X156878845Y-86400499D01*
X157033497Y-86369737D01*
X157179179Y-86309394D01*
X157310289Y-86221789D01*
X157421789Y-86110289D01*
X157509394Y-85979179D01*
X157569737Y-85833497D01*
X157600500Y-85678842D01*
X157600500Y-85521158D01*
X157600500Y-85521155D01*
X157600499Y-85521153D01*
X157569738Y-85366510D01*
X157569737Y-85366503D01*
X157533515Y-85279054D01*
X157509397Y-85220827D01*
X157509390Y-85220814D01*
X157421789Y-85089711D01*
X157421786Y-85089707D01*
X157310292Y-84978213D01*
X157310288Y-84978210D01*
X157179185Y-84890609D01*
X157179175Y-84890604D01*
X157077047Y-84848301D01*
X157022644Y-84804460D01*
X157000579Y-84738166D01*
X157000500Y-84733740D01*
X157000500Y-83779765D01*
X157020185Y-83712726D01*
X157021398Y-83710874D01*
X157042799Y-83678846D01*
X157109394Y-83579179D01*
X157169737Y-83433497D01*
X157200500Y-83278842D01*
X157200500Y-83121158D01*
X157200500Y-83121155D01*
X157200499Y-83121153D01*
X157194422Y-83090602D01*
X157169737Y-82966503D01*
X157124465Y-82857206D01*
X157109397Y-82820827D01*
X157109390Y-82820814D01*
X157021789Y-82689711D01*
X157021786Y-82689707D01*
X156910292Y-82578213D01*
X156910288Y-82578210D01*
X156779185Y-82490609D01*
X156779172Y-82490602D01*
X156633501Y-82430264D01*
X156633489Y-82430261D01*
X156478845Y-82399500D01*
X156478842Y-82399500D01*
X156321158Y-82399500D01*
X156321155Y-82399500D01*
X156166510Y-82430261D01*
X156166498Y-82430264D01*
X156020827Y-82490602D01*
X156020814Y-82490609D01*
X155889711Y-82578210D01*
X155889707Y-82578213D01*
X155778213Y-82689707D01*
X155778210Y-82689711D01*
X155690609Y-82820814D01*
X155690602Y-82820827D01*
X155630264Y-82966498D01*
X155630261Y-82966510D01*
X155599500Y-83121153D01*
X148642798Y-83121153D01*
X148621789Y-83089711D01*
X148621786Y-83089707D01*
X148510292Y-82978213D01*
X148510288Y-82978210D01*
X148379185Y-82890609D01*
X148379172Y-82890602D01*
X148233501Y-82830264D01*
X148233489Y-82830261D01*
X148078845Y-82799500D01*
X148078842Y-82799500D01*
X147921158Y-82799500D01*
X147921155Y-82799500D01*
X147766510Y-82830261D01*
X147766498Y-82830264D01*
X147620827Y-82890602D01*
X147620814Y-82890609D01*
X147489711Y-82978210D01*
X147489707Y-82978213D01*
X147378213Y-83089707D01*
X147378207Y-83089715D01*
X147341675Y-83144390D01*
X147288063Y-83189196D01*
X147238573Y-83199500D01*
X139579766Y-83199500D01*
X139512727Y-83179815D01*
X139510875Y-83178602D01*
X139379185Y-83090609D01*
X139379172Y-83090602D01*
X139233501Y-83030264D01*
X139233489Y-83030261D01*
X139078845Y-82999500D01*
X139078842Y-82999500D01*
X138921158Y-82999500D01*
X138921155Y-82999500D01*
X138766510Y-83030261D01*
X138766498Y-83030264D01*
X138620827Y-83090602D01*
X138620814Y-83090609D01*
X138489711Y-83178210D01*
X138489707Y-83178213D01*
X138378213Y-83289707D01*
X138378210Y-83289711D01*
X138290609Y-83420814D01*
X138290602Y-83420827D01*
X138230264Y-83566498D01*
X138230261Y-83566510D01*
X138199500Y-83721153D01*
X130558177Y-83721153D01*
X130615554Y-83642181D01*
X130642733Y-83604769D01*
X130655051Y-83587816D01*
X130751557Y-83398412D01*
X130817246Y-83196243D01*
X130850500Y-82986287D01*
X130850500Y-82773713D01*
X130817246Y-82563757D01*
X130751557Y-82361588D01*
X130655051Y-82172184D01*
X130655049Y-82172181D01*
X130655048Y-82172179D01*
X130528054Y-81997385D01*
X130504574Y-81931578D01*
X130520400Y-81863525D01*
X130570506Y-81814830D01*
X130628372Y-81800500D01*
X135238573Y-81800500D01*
X135305612Y-81820185D01*
X135341675Y-81855610D01*
X135378207Y-81910284D01*
X135378213Y-81910292D01*
X135489707Y-82021786D01*
X135489711Y-82021789D01*
X135620814Y-82109390D01*
X135620827Y-82109397D01*
X135705599Y-82144510D01*
X135766503Y-82169737D01*
X135916131Y-82199500D01*
X135921153Y-82200499D01*
X135921156Y-82200500D01*
X135921158Y-82200500D01*
X136078844Y-82200500D01*
X136078845Y-82200499D01*
X136233497Y-82169737D01*
X136379179Y-82109394D01*
X136510289Y-82021789D01*
X136621789Y-81910289D01*
X136709394Y-81779179D01*
X136769737Y-81633497D01*
X136797276Y-81495050D01*
X136800500Y-81478843D01*
X136800500Y-81321156D01*
X136795673Y-81296892D01*
X136795968Y-81293585D01*
X136794584Y-81290567D01*
X136799060Y-81259032D01*
X136801899Y-81227300D01*
X136803936Y-81224677D01*
X136804403Y-81221391D01*
X136825216Y-81197283D01*
X136844762Y-81172122D01*
X136847893Y-81171017D01*
X136850063Y-81168504D01*
X136880614Y-81159473D01*
X136910651Y-81148877D01*
X136914830Y-81149360D01*
X136917067Y-81148699D01*
X136928235Y-81150910D01*
X136952011Y-81153659D01*
X136964045Y-81157169D01*
X136968216Y-81159577D01*
X137018439Y-81173034D01*
X137019731Y-81173411D01*
X137032186Y-81181384D01*
X137072691Y-81204770D01*
X137089707Y-81221786D01*
X137089711Y-81221789D01*
X137220814Y-81309390D01*
X137220827Y-81309397D01*
X137366498Y-81369735D01*
X137366503Y-81369737D01*
X137516131Y-81399500D01*
X137521153Y-81400499D01*
X137521156Y-81400500D01*
X137521158Y-81400500D01*
X137678844Y-81400500D01*
X137678845Y-81400499D01*
X137833497Y-81369737D01*
X137979179Y-81309394D01*
X138110289Y-81221789D01*
X138221789Y-81110289D01*
X138309394Y-80979179D01*
X138369737Y-80833497D01*
X138400500Y-80678842D01*
X138400500Y-80521158D01*
X138400500Y-80521155D01*
X138400499Y-80521153D01*
X138392126Y-80479060D01*
X138369737Y-80366503D01*
X138362377Y-80348735D01*
X138309397Y-80220827D01*
X138309390Y-80220814D01*
X138221789Y-80089711D01*
X138221786Y-80089707D01*
X138110292Y-79978213D01*
X138110288Y-79978210D01*
X137979185Y-79890609D01*
X137979172Y-79890602D01*
X137833501Y-79830264D01*
X137833489Y-79830261D01*
X137678845Y-79799500D01*
X137678842Y-79799500D01*
X137521158Y-79799500D01*
X137521156Y-79799500D01*
X137360530Y-79831451D01*
X137360051Y-79829046D01*
X137300944Y-79829544D01*
X137247194Y-79797958D01*
X135634573Y-78185337D01*
X135601088Y-78124014D01*
X135600637Y-78121847D01*
X135599522Y-78116243D01*
X135569737Y-77966503D01*
X135544795Y-77906287D01*
X135509397Y-77820827D01*
X135509390Y-77820814D01*
X135421789Y-77689711D01*
X135421786Y-77689707D01*
X135310292Y-77578213D01*
X135310288Y-77578210D01*
X135179185Y-77490609D01*
X135179172Y-77490602D01*
X135033501Y-77430264D01*
X135033489Y-77430261D01*
X134878845Y-77399500D01*
X134878842Y-77399500D01*
X134721158Y-77399500D01*
X134721155Y-77399500D01*
X134566510Y-77430261D01*
X134566498Y-77430264D01*
X134420827Y-77490602D01*
X134420814Y-77490609D01*
X134289711Y-77578210D01*
X134289707Y-77578213D01*
X134178213Y-77689707D01*
X134178210Y-77689711D01*
X134090609Y-77820814D01*
X134090602Y-77820827D01*
X134030264Y-77966498D01*
X134030261Y-77966510D01*
X133999500Y-78121153D01*
X133999500Y-78278846D01*
X134030261Y-78433489D01*
X134030264Y-78433501D01*
X134090602Y-78579172D01*
X134090609Y-78579185D01*
X134178210Y-78710288D01*
X134178213Y-78710292D01*
X134289707Y-78821786D01*
X134289711Y-78821789D01*
X134420814Y-78909390D01*
X134420827Y-78909397D01*
X134541822Y-78959514D01*
X134566503Y-78969737D01*
X134631147Y-78982595D01*
X134721849Y-79000638D01*
X134783760Y-79033023D01*
X134785339Y-79034574D01*
X136138583Y-80387819D01*
X136148864Y-80406648D01*
X136163100Y-80422702D01*
X136165277Y-80436705D01*
X136172068Y-80449142D01*
X136170537Y-80470540D01*
X136173834Y-80491742D01*
X136168094Y-80504699D01*
X136167084Y-80518834D01*
X136154226Y-80536009D01*
X136145538Y-80555625D01*
X136133704Y-80563422D01*
X136125212Y-80574767D01*
X136105110Y-80582264D01*
X136087195Y-80594070D01*
X136064258Y-80597501D01*
X136059748Y-80599184D01*
X136052320Y-80599492D01*
X136051621Y-80599500D01*
X135921158Y-80599500D01*
X135913197Y-80601083D01*
X135901698Y-80601215D01*
X135896513Y-80599756D01*
X135884095Y-80600162D01*
X135879059Y-80599499D01*
X135879057Y-80599499D01*
X135720943Y-80599499D01*
X135713347Y-80599499D01*
X135713331Y-80599500D01*
X130971418Y-80599500D01*
X130904379Y-80579815D01*
X130858624Y-80527011D01*
X130848680Y-80457853D01*
X130848929Y-80456203D01*
X130850500Y-80446287D01*
X130850500Y-80233713D01*
X130817246Y-80023757D01*
X130751557Y-79821588D01*
X130655051Y-79632184D01*
X130655049Y-79632181D01*
X130655048Y-79632179D01*
X130530109Y-79460213D01*
X130379786Y-79309890D01*
X130207820Y-79184951D01*
X130207115Y-79184591D01*
X130199054Y-79180485D01*
X130148259Y-79132512D01*
X130131463Y-79064692D01*
X130153999Y-78998556D01*
X130199054Y-78959515D01*
X130207816Y-78955051D01*
X130270658Y-78909394D01*
X130379786Y-78830109D01*
X130379788Y-78830106D01*
X130379792Y-78830104D01*
X130530104Y-78679792D01*
X130530106Y-78679788D01*
X130530109Y-78679786D01*
X130655048Y-78507820D01*
X130655047Y-78507820D01*
X130655051Y-78507816D01*
X130751557Y-78318412D01*
X130817246Y-78116243D01*
X130850500Y-77906287D01*
X130850500Y-77693713D01*
X130817246Y-77483757D01*
X130751557Y-77281588D01*
X130655051Y-77092184D01*
X130655049Y-77092181D01*
X130655048Y-77092179D01*
X130530109Y-76920213D01*
X130379786Y-76769890D01*
X130207820Y-76644951D01*
X130207115Y-76644591D01*
X130199054Y-76640485D01*
X130192331Y-76634134D01*
X130183586Y-76631124D01*
X130167334Y-76610527D01*
X130148259Y-76592512D01*
X130146035Y-76583533D01*
X130140306Y-76576272D01*
X130137769Y-76550157D01*
X130131463Y-76524692D01*
X130132669Y-76521153D01*
X155999500Y-76521153D01*
X155999500Y-76678846D01*
X156030261Y-76833489D01*
X156030264Y-76833501D01*
X156090602Y-76979172D01*
X156090609Y-76979185D01*
X156178210Y-77110288D01*
X156178213Y-77110292D01*
X156289707Y-77221786D01*
X156289711Y-77221789D01*
X156420814Y-77309390D01*
X156420827Y-77309397D01*
X156566498Y-77369735D01*
X156566503Y-77369737D01*
X156716131Y-77399500D01*
X156721153Y-77400499D01*
X156721156Y-77400500D01*
X156721158Y-77400500D01*
X156878844Y-77400500D01*
X156878845Y-77400499D01*
X157033497Y-77369737D01*
X157179179Y-77309394D01*
X157310289Y-77221789D01*
X157421789Y-77110289D01*
X157509394Y-76979179D01*
X157569737Y-76833497D01*
X157600500Y-76678842D01*
X157600500Y-76521158D01*
X157600500Y-76521155D01*
X157600499Y-76521153D01*
X157589825Y-76467491D01*
X157569737Y-76366503D01*
X157538092Y-76290104D01*
X157509397Y-76220827D01*
X157509390Y-76220814D01*
X157421398Y-76089125D01*
X157400520Y-76022447D01*
X157400500Y-76020234D01*
X157400500Y-72066259D01*
X157420185Y-71999220D01*
X157472989Y-71953465D01*
X157477048Y-71951698D01*
X157579172Y-71909397D01*
X157579172Y-71909396D01*
X157579179Y-71909394D01*
X157710289Y-71821789D01*
X157821789Y-71710289D01*
X157909394Y-71579179D01*
X157969737Y-71433497D01*
X158000500Y-71278842D01*
X158000500Y-71121158D01*
X158000500Y-71121155D01*
X158000499Y-71121153D01*
X157992148Y-71079172D01*
X157969737Y-70966503D01*
X157950953Y-70921153D01*
X157909397Y-70820827D01*
X157909390Y-70820814D01*
X157821789Y-70689711D01*
X157821786Y-70689707D01*
X157710292Y-70578213D01*
X157710288Y-70578210D01*
X157579185Y-70490609D01*
X157579172Y-70490602D01*
X157433501Y-70430264D01*
X157433489Y-70430261D01*
X157278845Y-70399500D01*
X157278842Y-70399500D01*
X157121158Y-70399500D01*
X157121155Y-70399500D01*
X156966510Y-70430261D01*
X156966498Y-70430264D01*
X156820827Y-70490602D01*
X156820814Y-70490609D01*
X156689711Y-70578210D01*
X156689707Y-70578213D01*
X156578213Y-70689707D01*
X156578210Y-70689711D01*
X156490609Y-70820814D01*
X156490602Y-70820827D01*
X156430264Y-70966498D01*
X156430261Y-70966508D01*
X156399362Y-71121848D01*
X156377374Y-71171481D01*
X156371912Y-71178851D01*
X156319480Y-71231284D01*
X156275115Y-71308127D01*
X156240423Y-71368215D01*
X156199499Y-71520943D01*
X156199499Y-71520945D01*
X156199499Y-71689046D01*
X156199500Y-71689059D01*
X156199500Y-76020234D01*
X156179815Y-76087273D01*
X156178602Y-76089125D01*
X156090609Y-76220814D01*
X156090602Y-76220827D01*
X156030264Y-76366498D01*
X156030261Y-76366510D01*
X155999500Y-76521153D01*
X130132669Y-76521153D01*
X130134446Y-76515937D01*
X130133552Y-76506730D01*
X130145536Y-76483391D01*
X130153999Y-76458556D01*
X130162091Y-76451152D01*
X130165468Y-76444576D01*
X130186128Y-76429159D01*
X130193175Y-76422713D01*
X130196060Y-76421040D01*
X130207816Y-76415051D01*
X130239095Y-76392324D01*
X130379786Y-76290109D01*
X130379788Y-76290106D01*
X130379792Y-76290104D01*
X130530104Y-76139792D01*
X130530106Y-76139788D01*
X130530109Y-76139786D01*
X130655048Y-75967820D01*
X130655047Y-75967820D01*
X130655051Y-75967816D01*
X130751557Y-75778412D01*
X130817246Y-75576243D01*
X130850500Y-75366287D01*
X130850500Y-75153713D01*
X130817246Y-74943757D01*
X130751557Y-74741588D01*
X130655051Y-74552184D01*
X130655049Y-74552181D01*
X130655048Y-74552179D01*
X130530109Y-74380213D01*
X130416569Y-74266673D01*
X130383084Y-74205350D01*
X130388068Y-74135658D01*
X130429940Y-74079725D01*
X130460915Y-74062810D01*
X130592331Y-74013796D01*
X130707546Y-73927546D01*
X130793796Y-73812331D01*
X130844091Y-73677483D01*
X130850500Y-73617873D01*
X130850499Y-71822128D01*
X130844091Y-71762517D01*
X130824612Y-71710292D01*
X130793797Y-71627671D01*
X130793793Y-71627664D01*
X130707547Y-71512455D01*
X130707544Y-71512452D01*
X130592335Y-71426206D01*
X130592328Y-71426202D01*
X130457482Y-71375908D01*
X130457483Y-71375908D01*
X130397883Y-71369501D01*
X130397881Y-71369500D01*
X130397873Y-71369500D01*
X130397864Y-71369500D01*
X128602129Y-71369500D01*
X128602123Y-71369501D01*
X128542516Y-71375908D01*
X128407671Y-71426202D01*
X128407664Y-71426206D01*
X128292455Y-71512452D01*
X128292452Y-71512455D01*
X128206206Y-71627664D01*
X128206202Y-71627671D01*
X128155908Y-71762517D01*
X128149536Y-71821789D01*
X128149501Y-71822123D01*
X128149500Y-71822135D01*
X127500500Y-71822135D01*
X127500500Y-66062135D01*
X133609500Y-66062135D01*
X133609500Y-67857870D01*
X133609501Y-67857876D01*
X133615908Y-67917483D01*
X133666202Y-68052328D01*
X133666206Y-68052335D01*
X133752452Y-68167544D01*
X133752455Y-68167547D01*
X133867664Y-68253793D01*
X133867671Y-68253797D01*
X133903687Y-68267230D01*
X133999598Y-68303002D01*
X134055531Y-68344873D01*
X134079949Y-68410337D01*
X134065098Y-68478610D01*
X134043947Y-68506865D01*
X133930271Y-68620541D01*
X133805379Y-68792442D01*
X133708904Y-68981782D01*
X133643242Y-69183870D01*
X133643242Y-69183873D01*
X133632769Y-69250000D01*
X134526988Y-69250000D01*
X134494075Y-69307007D01*
X134460000Y-69434174D01*
X134460000Y-69565826D01*
X134494075Y-69692993D01*
X134526988Y-69750000D01*
X133632769Y-69750000D01*
X133643242Y-69816126D01*
X133643242Y-69816129D01*
X133708904Y-70018217D01*
X133805379Y-70207557D01*
X133930272Y-70379459D01*
X133930276Y-70379464D01*
X134080535Y-70529723D01*
X134080540Y-70529727D01*
X134252442Y-70654620D01*
X134441782Y-70751095D01*
X134643871Y-70816757D01*
X134710000Y-70827231D01*
X134710000Y-69933012D01*
X134767007Y-69965925D01*
X134894174Y-70000000D01*
X135025826Y-70000000D01*
X135152993Y-69965925D01*
X135210000Y-69933012D01*
X135210000Y-70827230D01*
X135276126Y-70816757D01*
X135276129Y-70816757D01*
X135478217Y-70751095D01*
X135667557Y-70654620D01*
X135839459Y-70529727D01*
X135839464Y-70529723D01*
X135989723Y-70379464D01*
X135989727Y-70379459D01*
X136114620Y-70207558D01*
X136119514Y-70197954D01*
X136167488Y-70147157D01*
X136235308Y-70130361D01*
X136301444Y-70152897D01*
X136340486Y-70197954D01*
X136345379Y-70207558D01*
X136470272Y-70379459D01*
X136470276Y-70379464D01*
X136620535Y-70529723D01*
X136620540Y-70529727D01*
X136792442Y-70654620D01*
X136981782Y-70751095D01*
X137183871Y-70816757D01*
X137250000Y-70827231D01*
X137250000Y-69933012D01*
X137307007Y-69965925D01*
X137434174Y-70000000D01*
X137565826Y-70000000D01*
X137692993Y-69965925D01*
X137750000Y-69933012D01*
X137750000Y-70827230D01*
X137816126Y-70816757D01*
X137816129Y-70816757D01*
X138018217Y-70751095D01*
X138207557Y-70654620D01*
X138379459Y-70529727D01*
X138379464Y-70529723D01*
X138529723Y-70379464D01*
X138529727Y-70379459D01*
X138654620Y-70207557D01*
X138751095Y-70018217D01*
X138816757Y-69816129D01*
X138816757Y-69816126D01*
X138827231Y-69750000D01*
X137933012Y-69750000D01*
X137965925Y-69692993D01*
X138000000Y-69565826D01*
X138000000Y-69434174D01*
X137965925Y-69307007D01*
X137933012Y-69250000D01*
X138827231Y-69250000D01*
X138816757Y-69183873D01*
X138816757Y-69183870D01*
X138751095Y-68981782D01*
X138654620Y-68792442D01*
X138529727Y-68620540D01*
X138529723Y-68620535D01*
X138379464Y-68470276D01*
X138379459Y-68470272D01*
X138207555Y-68345377D01*
X138198500Y-68340763D01*
X138147706Y-68292788D01*
X138130912Y-68224966D01*
X138153451Y-68158832D01*
X138198508Y-68119793D01*
X138207816Y-68115051D01*
X138314441Y-68037584D01*
X138379786Y-67990109D01*
X138379788Y-67990106D01*
X138379792Y-67990104D01*
X138530104Y-67839792D01*
X138530106Y-67839788D01*
X138530109Y-67839786D01*
X138655048Y-67667820D01*
X138655047Y-67667820D01*
X138655051Y-67667816D01*
X138751557Y-67478412D01*
X138817246Y-67276243D01*
X138850500Y-67066287D01*
X138850500Y-66853713D01*
X138817246Y-66643757D01*
X138751557Y-66441588D01*
X138655051Y-66252184D01*
X138655049Y-66252181D01*
X138655048Y-66252179D01*
X138530109Y-66080213D01*
X138379794Y-65929898D01*
X138379792Y-65929896D01*
X138351613Y-65909422D01*
X138308949Y-65854094D01*
X138300500Y-65809106D01*
X138300500Y-53557844D01*
X166880000Y-53557844D01*
X166886401Y-53617372D01*
X166886403Y-53617379D01*
X166936645Y-53752086D01*
X166936649Y-53752093D01*
X167022809Y-53867187D01*
X167022812Y-53867190D01*
X167137906Y-53953350D01*
X167137913Y-53953354D01*
X167272620Y-54003596D01*
X167272627Y-54003598D01*
X167332155Y-54009999D01*
X167332172Y-54010000D01*
X167730000Y-54010000D01*
X167730000Y-53060000D01*
X166880000Y-53060000D01*
X166880000Y-53557844D01*
X138300500Y-53557844D01*
X138300500Y-52062155D01*
X166880000Y-52062155D01*
X166880000Y-52560000D01*
X167730000Y-52560000D01*
X167730000Y-51610000D01*
X167332155Y-51610000D01*
X167272627Y-51616401D01*
X167272620Y-51616403D01*
X167137913Y-51666645D01*
X167137906Y-51666649D01*
X167022812Y-51752809D01*
X167022809Y-51752812D01*
X166936649Y-51867906D01*
X166936645Y-51867913D01*
X166886403Y-52002620D01*
X166886401Y-52002627D01*
X166880000Y-52062155D01*
X138300500Y-52062155D01*
X138300500Y-50762500D01*
X138320185Y-50695461D01*
X138372989Y-50649706D01*
X138424500Y-50638500D01*
X147675331Y-50638500D01*
X147675347Y-50638501D01*
X147682943Y-50638501D01*
X147841054Y-50638501D01*
X147841057Y-50638501D01*
X147993785Y-50597577D01*
X148043904Y-50568639D01*
X148130716Y-50518520D01*
X148242520Y-50406716D01*
X148242520Y-50406714D01*
X148252728Y-50396507D01*
X148252729Y-50396504D01*
X149012417Y-49636819D01*
X149073740Y-49603334D01*
X149100098Y-49600500D01*
X155099903Y-49600500D01*
X155166942Y-49620185D01*
X155187584Y-49636819D01*
X155565425Y-50014660D01*
X155598910Y-50075983D01*
X155599361Y-50078149D01*
X155630261Y-50233491D01*
X155630264Y-50233501D01*
X155690602Y-50379172D01*
X155690609Y-50379185D01*
X155778210Y-50510288D01*
X155778213Y-50510292D01*
X155889707Y-50621786D01*
X155889711Y-50621789D01*
X156020814Y-50709390D01*
X156020827Y-50709397D01*
X156166498Y-50769735D01*
X156166503Y-50769737D01*
X156321153Y-50800499D01*
X156321156Y-50800500D01*
X156321158Y-50800500D01*
X156478844Y-50800500D01*
X156478845Y-50800499D01*
X156633497Y-50769737D01*
X156777021Y-50710288D01*
X156779172Y-50709397D01*
X156779172Y-50709396D01*
X156779179Y-50709394D01*
X156819249Y-50682620D01*
X156910875Y-50621398D01*
X156977553Y-50600520D01*
X156979766Y-50600500D01*
X157638573Y-50600500D01*
X157705612Y-50620185D01*
X157741675Y-50655610D01*
X157778207Y-50710284D01*
X157778213Y-50710292D01*
X157889707Y-50821786D01*
X157889711Y-50821789D01*
X158020814Y-50909390D01*
X158020827Y-50909397D01*
X158162536Y-50968094D01*
X158166503Y-50969737D01*
X158321153Y-51000499D01*
X158321156Y-51000500D01*
X158321158Y-51000500D01*
X158478844Y-51000500D01*
X158478845Y-51000499D01*
X158633497Y-50969737D01*
X158779179Y-50909394D01*
X158910289Y-50821789D01*
X159021789Y-50710289D01*
X159109394Y-50579179D01*
X159169737Y-50433497D01*
X159200500Y-50278842D01*
X159200500Y-50121158D01*
X159200500Y-50121155D01*
X159200499Y-50121153D01*
X159186094Y-50048735D01*
X159169737Y-49966503D01*
X159163452Y-49951330D01*
X159109397Y-49820827D01*
X159109390Y-49820814D01*
X159021789Y-49689711D01*
X159021786Y-49689707D01*
X158910292Y-49578213D01*
X158910288Y-49578210D01*
X158779185Y-49490609D01*
X158779172Y-49490602D01*
X158633501Y-49430264D01*
X158633489Y-49430261D01*
X158478845Y-49399500D01*
X158478842Y-49399500D01*
X158321158Y-49399500D01*
X158321157Y-49399500D01*
X158315095Y-49400097D01*
X158315058Y-49399725D01*
X158299137Y-49401218D01*
X158284985Y-49401087D01*
X158279057Y-49399499D01*
X158120943Y-49399499D01*
X158120939Y-49399500D01*
X156979766Y-49399500D01*
X156912727Y-49379815D01*
X156910875Y-49378602D01*
X156779185Y-49290609D01*
X156779172Y-49290602D01*
X156633501Y-49230264D01*
X156633491Y-49230261D01*
X156478151Y-49199362D01*
X156416241Y-49166977D01*
X156414662Y-49165426D01*
X155887590Y-48638355D01*
X155887588Y-48638352D01*
X155768717Y-48519481D01*
X155768716Y-48519480D01*
X155681904Y-48469360D01*
X155681904Y-48469359D01*
X155681900Y-48469358D01*
X155631785Y-48440423D01*
X155479057Y-48399499D01*
X155320943Y-48399499D01*
X155313347Y-48399499D01*
X155313331Y-48399500D01*
X148886670Y-48399500D01*
X148886654Y-48399499D01*
X148879058Y-48399499D01*
X148720943Y-48399499D01*
X148644579Y-48419961D01*
X148568214Y-48440423D01*
X148568209Y-48440426D01*
X148431290Y-48519475D01*
X148431282Y-48519481D01*
X147549584Y-49401181D01*
X147488261Y-49434666D01*
X147461903Y-49437500D01*
X138392500Y-49437500D01*
X138325461Y-49417815D01*
X138279706Y-49365011D01*
X138268500Y-49313500D01*
X138268500Y-46271153D01*
X159099500Y-46271153D01*
X159099500Y-46428846D01*
X159130261Y-46583489D01*
X159130264Y-46583501D01*
X159190602Y-46729172D01*
X159190609Y-46729185D01*
X159278210Y-46860288D01*
X159278213Y-46860292D01*
X159389707Y-46971786D01*
X159389711Y-46971789D01*
X159520814Y-47059390D01*
X159520827Y-47059397D01*
X159655820Y-47115312D01*
X159666503Y-47119737D01*
X159821153Y-47150499D01*
X159821156Y-47150500D01*
X159821158Y-47150500D01*
X159978844Y-47150500D01*
X159978845Y-47150499D01*
X160133497Y-47119737D01*
X160279179Y-47059394D01*
X160368796Y-46999514D01*
X160410875Y-46971398D01*
X160477553Y-46950520D01*
X160479766Y-46950500D01*
X165670234Y-46950500D01*
X165737273Y-46970185D01*
X165739125Y-46971398D01*
X165870814Y-47059390D01*
X165870827Y-47059397D01*
X166005820Y-47115312D01*
X166016503Y-47119737D01*
X166171153Y-47150499D01*
X166171156Y-47150500D01*
X166171158Y-47150500D01*
X166328844Y-47150500D01*
X166328845Y-47150499D01*
X166483497Y-47119737D01*
X166629179Y-47059394D01*
X166760289Y-46971789D01*
X166871789Y-46860289D01*
X166959394Y-46729179D01*
X167019737Y-46583497D01*
X167050500Y-46428842D01*
X167050500Y-46271158D01*
X167050500Y-46271155D01*
X167050499Y-46271153D01*
X167045050Y-46243760D01*
X167019737Y-46116503D01*
X166999735Y-46068213D01*
X166959397Y-45970827D01*
X166959390Y-45970814D01*
X166871789Y-45839711D01*
X166871786Y-45839707D01*
X166760292Y-45728213D01*
X166760288Y-45728210D01*
X166629185Y-45640609D01*
X166629172Y-45640602D01*
X166483501Y-45580264D01*
X166483489Y-45580261D01*
X166328845Y-45549500D01*
X166328842Y-45549500D01*
X166171158Y-45549500D01*
X166171155Y-45549500D01*
X166016510Y-45580261D01*
X166016498Y-45580264D01*
X165870827Y-45640602D01*
X165870814Y-45640609D01*
X165739125Y-45728602D01*
X165672447Y-45749480D01*
X165670234Y-45749500D01*
X160479766Y-45749500D01*
X160412727Y-45729815D01*
X160410875Y-45728602D01*
X160279185Y-45640609D01*
X160279172Y-45640602D01*
X160133501Y-45580264D01*
X160133489Y-45580261D01*
X159978845Y-45549500D01*
X159978842Y-45549500D01*
X159821158Y-45549500D01*
X159821155Y-45549500D01*
X159666510Y-45580261D01*
X159666498Y-45580264D01*
X159520827Y-45640602D01*
X159520814Y-45640609D01*
X159389711Y-45728210D01*
X159389707Y-45728213D01*
X159278213Y-45839707D01*
X159278210Y-45839711D01*
X159190609Y-45970814D01*
X159190602Y-45970827D01*
X159130264Y-46116498D01*
X159130261Y-46116510D01*
X159099500Y-46271153D01*
X138268500Y-46271153D01*
X138268500Y-44342844D01*
X166875000Y-44342844D01*
X166881401Y-44402372D01*
X166881403Y-44402379D01*
X166931645Y-44537086D01*
X166931649Y-44537093D01*
X167017809Y-44652187D01*
X167017812Y-44652190D01*
X167132906Y-44738350D01*
X167132913Y-44738354D01*
X167267620Y-44788596D01*
X167267627Y-44788598D01*
X167327155Y-44794999D01*
X167327172Y-44795000D01*
X167760000Y-44795000D01*
X168260000Y-44795000D01*
X168692828Y-44795000D01*
X168692844Y-44794999D01*
X168752372Y-44788598D01*
X168752379Y-44788596D01*
X168887086Y-44738354D01*
X168887093Y-44738350D01*
X169002187Y-44652190D01*
X169002190Y-44652187D01*
X169088350Y-44537093D01*
X169088354Y-44537086D01*
X169138596Y-44402379D01*
X169138598Y-44402372D01*
X169144999Y-44342844D01*
X169145000Y-44342827D01*
X169145000Y-43400000D01*
X168260000Y-43400000D01*
X168260000Y-44795000D01*
X167760000Y-44795000D01*
X167760000Y-43400000D01*
X166875000Y-43400000D01*
X166875000Y-44342844D01*
X138268500Y-44342844D01*
X138268500Y-44222097D01*
X138288185Y-44155058D01*
X138304819Y-44134416D01*
X138514665Y-43924570D01*
X138575984Y-43891088D01*
X138578151Y-43890637D01*
X138578840Y-43890500D01*
X138578842Y-43890500D01*
X138733497Y-43859737D01*
X138879179Y-43799394D01*
X139010289Y-43711789D01*
X139121789Y-43600289D01*
X139209394Y-43469179D01*
X139269737Y-43323497D01*
X139269738Y-43323490D01*
X139269740Y-43323485D01*
X139300499Y-43168846D01*
X139300500Y-43168844D01*
X139300500Y-43011155D01*
X139300499Y-43011153D01*
X139295050Y-42983760D01*
X139269737Y-42856503D01*
X139245167Y-42797185D01*
X139209939Y-42712136D01*
X139200500Y-42664684D01*
X139200500Y-42379765D01*
X139220185Y-42312726D01*
X139221398Y-42310874D01*
X139239698Y-42283487D01*
X139309394Y-42179179D01*
X139310853Y-42175658D01*
X139337130Y-42112218D01*
X139369737Y-42033497D01*
X139383787Y-41962863D01*
X139384922Y-41957155D01*
X166875000Y-41957155D01*
X166875000Y-42900000D01*
X167760000Y-42900000D01*
X168260000Y-42900000D01*
X169145000Y-42900000D01*
X169145000Y-42838543D01*
X169839499Y-42838543D01*
X169877947Y-43031829D01*
X169877950Y-43031839D01*
X169953364Y-43213907D01*
X169953371Y-43213920D01*
X170062860Y-43377781D01*
X170062863Y-43377785D01*
X170202214Y-43517136D01*
X170202218Y-43517139D01*
X170366079Y-43626628D01*
X170366092Y-43626635D01*
X170523769Y-43691946D01*
X170548165Y-43702051D01*
X170548169Y-43702051D01*
X170548170Y-43702052D01*
X170741456Y-43740500D01*
X170741459Y-43740500D01*
X170938543Y-43740500D01*
X171082894Y-43711786D01*
X171131835Y-43702051D01*
X171272655Y-43643721D01*
X171313907Y-43626635D01*
X171313907Y-43626634D01*
X171313914Y-43626632D01*
X171477782Y-43517139D01*
X171617139Y-43377782D01*
X171726632Y-43213914D01*
X171735000Y-43193713D01*
X171784032Y-43075337D01*
X171802051Y-43031835D01*
X171818479Y-42949246D01*
X171838511Y-42848543D01*
X177839499Y-42848543D01*
X177877947Y-43041829D01*
X177877950Y-43041839D01*
X177953364Y-43223907D01*
X177953371Y-43223920D01*
X178062860Y-43387781D01*
X178062863Y-43387785D01*
X178202214Y-43527136D01*
X178202218Y-43527139D01*
X178366079Y-43636628D01*
X178366092Y-43636635D01*
X178524025Y-43702052D01*
X178548165Y-43712051D01*
X178548169Y-43712051D01*
X178548170Y-43712052D01*
X178741456Y-43750500D01*
X178741459Y-43750500D01*
X178938543Y-43750500D01*
X179068582Y-43724632D01*
X179131835Y-43712051D01*
X179313914Y-43636632D01*
X179477782Y-43527139D01*
X179617139Y-43387782D01*
X179726632Y-43223914D01*
X179802051Y-43041835D01*
X179838915Y-42856510D01*
X179840500Y-42848543D01*
X179840500Y-42651456D01*
X179802052Y-42458170D01*
X179802051Y-42458169D01*
X179802051Y-42458165D01*
X179786329Y-42420208D01*
X179726635Y-42276092D01*
X179726628Y-42276079D01*
X179617139Y-42112218D01*
X179617136Y-42112214D01*
X179477785Y-41972863D01*
X179477781Y-41972860D01*
X179313920Y-41863371D01*
X179313907Y-41863364D01*
X179131839Y-41787950D01*
X179131829Y-41787947D01*
X178938543Y-41749500D01*
X178938541Y-41749500D01*
X178741459Y-41749500D01*
X178741457Y-41749500D01*
X178548170Y-41787947D01*
X178548160Y-41787950D01*
X178366092Y-41863364D01*
X178366079Y-41863371D01*
X178202218Y-41972860D01*
X178202214Y-41972863D01*
X178062863Y-42112214D01*
X178062860Y-42112218D01*
X177953371Y-42276079D01*
X177953364Y-42276092D01*
X177877950Y-42458160D01*
X177877947Y-42458170D01*
X177839500Y-42651456D01*
X177839500Y-42651459D01*
X177839500Y-42848541D01*
X177839500Y-42848543D01*
X177839499Y-42848543D01*
X171838511Y-42848543D01*
X171840500Y-42838543D01*
X171840500Y-42641456D01*
X171802052Y-42448170D01*
X171802051Y-42448169D01*
X171802051Y-42448165D01*
X171790471Y-42420208D01*
X171726635Y-42266092D01*
X171726628Y-42266079D01*
X171617139Y-42102218D01*
X171617136Y-42102214D01*
X171477785Y-41962863D01*
X171477781Y-41962860D01*
X171313920Y-41853371D01*
X171313907Y-41853364D01*
X171131839Y-41777950D01*
X171131829Y-41777947D01*
X170938543Y-41739500D01*
X170938541Y-41739500D01*
X170741459Y-41739500D01*
X170741457Y-41739500D01*
X170548170Y-41777947D01*
X170548160Y-41777950D01*
X170366092Y-41853364D01*
X170366079Y-41853371D01*
X170202218Y-41962860D01*
X170202214Y-41962863D01*
X170062863Y-42102214D01*
X170062860Y-42102218D01*
X169953371Y-42266079D01*
X169953364Y-42266092D01*
X169877950Y-42448160D01*
X169877947Y-42448170D01*
X169839500Y-42641456D01*
X169839500Y-42641459D01*
X169839500Y-42838541D01*
X169839500Y-42838543D01*
X169839499Y-42838543D01*
X169145000Y-42838543D01*
X169145000Y-41957172D01*
X169144999Y-41957155D01*
X169138598Y-41897627D01*
X169138596Y-41897620D01*
X169088354Y-41762913D01*
X169088350Y-41762906D01*
X169002190Y-41647812D01*
X169002187Y-41647809D01*
X168887093Y-41561649D01*
X168887086Y-41561645D01*
X168752379Y-41511403D01*
X168752372Y-41511401D01*
X168692844Y-41505000D01*
X168260000Y-41505000D01*
X168260000Y-42900000D01*
X167760000Y-42900000D01*
X167760000Y-41505000D01*
X167327155Y-41505000D01*
X167267627Y-41511401D01*
X167267620Y-41511403D01*
X167132913Y-41561645D01*
X167132906Y-41561649D01*
X167017812Y-41647809D01*
X167017809Y-41647812D01*
X166931649Y-41762906D01*
X166931645Y-41762913D01*
X166881403Y-41897620D01*
X166881401Y-41897627D01*
X166875000Y-41957155D01*
X139384922Y-41957155D01*
X139390392Y-41929660D01*
X139390392Y-41929659D01*
X139400500Y-41878844D01*
X139400500Y-41721155D01*
X139400499Y-41721153D01*
X139387912Y-41657873D01*
X139369737Y-41566503D01*
X139369735Y-41566498D01*
X139309397Y-41420827D01*
X139309390Y-41420814D01*
X139221789Y-41289711D01*
X139221786Y-41289707D01*
X139110292Y-41178213D01*
X139110288Y-41178210D01*
X138979185Y-41090609D01*
X138979172Y-41090602D01*
X138833501Y-41030264D01*
X138833489Y-41030261D01*
X138678845Y-40999500D01*
X138678842Y-40999500D01*
X138521158Y-40999500D01*
X138521155Y-40999500D01*
X138366510Y-41030261D01*
X138366498Y-41030264D01*
X138220827Y-41090602D01*
X138220814Y-41090609D01*
X138089711Y-41178210D01*
X138089707Y-41178213D01*
X137978213Y-41289707D01*
X137978210Y-41289711D01*
X137890609Y-41420814D01*
X137890602Y-41420827D01*
X137830264Y-41566498D01*
X137830261Y-41566510D01*
X137799500Y-41721153D01*
X137799500Y-41878846D01*
X137830261Y-42033489D01*
X137830264Y-42033501D01*
X137890602Y-42179172D01*
X137890609Y-42179185D01*
X137978602Y-42310874D01*
X137984252Y-42328920D01*
X137994477Y-42344830D01*
X137998928Y-42375789D01*
X137999480Y-42377551D01*
X137999500Y-42379765D01*
X137999500Y-42407059D01*
X137979815Y-42474098D01*
X137963181Y-42494740D01*
X137878213Y-42579707D01*
X137878210Y-42579711D01*
X137790609Y-42710814D01*
X137790602Y-42710827D01*
X137730264Y-42856498D01*
X137730261Y-42856508D01*
X137699362Y-43011848D01*
X137666977Y-43073759D01*
X137665426Y-43075337D01*
X137302584Y-43438179D01*
X137302577Y-43438186D01*
X137299286Y-43441478D01*
X137299284Y-43441480D01*
X137187480Y-43553284D01*
X137160342Y-43600289D01*
X137154542Y-43610334D01*
X137154541Y-43610336D01*
X137108424Y-43690213D01*
X137108423Y-43690215D01*
X137067499Y-43842943D01*
X137067499Y-43842945D01*
X137067499Y-44011046D01*
X137067500Y-44011059D01*
X137067500Y-49951330D01*
X137067499Y-49951348D01*
X137067499Y-49958943D01*
X137067499Y-50117057D01*
X137092989Y-50212184D01*
X137095275Y-50220716D01*
X137099500Y-50252810D01*
X137099500Y-65580039D01*
X137079815Y-65647078D01*
X137027011Y-65692833D01*
X137013821Y-65697969D01*
X136981586Y-65708443D01*
X136792179Y-65804951D01*
X136620215Y-65929889D01*
X136506673Y-66043431D01*
X136445350Y-66076915D01*
X136375658Y-66071931D01*
X136319725Y-66030059D01*
X136302810Y-65999082D01*
X136253797Y-65867671D01*
X136253793Y-65867664D01*
X136167547Y-65752455D01*
X136167544Y-65752452D01*
X136052335Y-65666206D01*
X136052328Y-65666202D01*
X135917482Y-65615908D01*
X135917483Y-65615908D01*
X135857883Y-65609501D01*
X135857881Y-65609500D01*
X135857873Y-65609500D01*
X135857864Y-65609500D01*
X134062129Y-65609500D01*
X134062123Y-65609501D01*
X134002516Y-65615908D01*
X133867671Y-65666202D01*
X133867664Y-65666206D01*
X133752455Y-65752452D01*
X133752452Y-65752455D01*
X133666206Y-65867664D01*
X133666202Y-65867671D01*
X133615908Y-66002517D01*
X133609501Y-66062116D01*
X133609500Y-66062135D01*
X127500500Y-66062135D01*
X127500500Y-40504427D01*
X127500816Y-40495581D01*
X127515130Y-40295436D01*
X127517646Y-40277938D01*
X127559356Y-40086199D01*
X127564333Y-40069248D01*
X127632911Y-39885385D01*
X127640259Y-39869298D01*
X127644170Y-39862135D01*
X128149500Y-39862135D01*
X128149500Y-41657870D01*
X128149501Y-41657876D01*
X128155908Y-41717483D01*
X128206202Y-41852328D01*
X128206206Y-41852335D01*
X128292452Y-41967544D01*
X128292455Y-41967547D01*
X128407664Y-42053793D01*
X128407671Y-42053797D01*
X128539082Y-42102810D01*
X128595016Y-42144681D01*
X128619433Y-42210145D01*
X128604582Y-42278418D01*
X128583431Y-42306673D01*
X128469889Y-42420215D01*
X128344951Y-42592179D01*
X128248444Y-42781585D01*
X128182753Y-42983760D01*
X128149500Y-43193713D01*
X128149500Y-43406286D01*
X128180227Y-43600292D01*
X128182754Y-43616243D01*
X128242262Y-43799390D01*
X128248444Y-43818414D01*
X128344951Y-44007820D01*
X128469890Y-44179786D01*
X128620213Y-44330109D01*
X128792182Y-44455050D01*
X128800946Y-44459516D01*
X128851742Y-44507491D01*
X128868536Y-44575312D01*
X128845998Y-44641447D01*
X128800946Y-44680484D01*
X128792182Y-44684949D01*
X128620213Y-44809890D01*
X128469890Y-44960213D01*
X128344951Y-45132179D01*
X128248444Y-45321585D01*
X128248443Y-45321587D01*
X128248443Y-45321588D01*
X128226310Y-45389707D01*
X128182753Y-45523760D01*
X128150117Y-45729815D01*
X128149500Y-45733713D01*
X128149500Y-45946287D01*
X128154656Y-45978842D01*
X128176459Y-46116503D01*
X128182754Y-46156243D01*
X128226412Y-46290609D01*
X128248444Y-46358414D01*
X128344951Y-46547820D01*
X128469890Y-46719786D01*
X128620213Y-46870109D01*
X128792182Y-46995050D01*
X128800946Y-46999516D01*
X128851742Y-47047491D01*
X128868536Y-47115312D01*
X128845998Y-47181447D01*
X128800946Y-47220484D01*
X128792182Y-47224949D01*
X128620213Y-47349890D01*
X128469890Y-47500213D01*
X128344951Y-47672179D01*
X128248444Y-47861585D01*
X128182753Y-48063760D01*
X128157825Y-48221153D01*
X128149500Y-48273713D01*
X128149500Y-48486287D01*
X128155997Y-48527308D01*
X128179468Y-48675500D01*
X128182754Y-48696243D01*
X128223162Y-48820606D01*
X128248444Y-48898414D01*
X128344951Y-49087820D01*
X128469890Y-49259786D01*
X128620213Y-49410109D01*
X128792182Y-49535050D01*
X128800946Y-49539516D01*
X128851742Y-49587491D01*
X128868536Y-49655312D01*
X128845998Y-49721447D01*
X128800946Y-49760484D01*
X128792182Y-49764949D01*
X128620213Y-49889890D01*
X128469890Y-50040213D01*
X128344951Y-50212179D01*
X128248444Y-50401585D01*
X128182753Y-50603760D01*
X128165881Y-50710288D01*
X128149500Y-50813713D01*
X128149500Y-51026287D01*
X128182754Y-51236243D01*
X128212912Y-51329060D01*
X128248444Y-51438414D01*
X128344951Y-51627820D01*
X128469890Y-51799786D01*
X128620213Y-51950109D01*
X128792182Y-52075050D01*
X128800946Y-52079516D01*
X128851742Y-52127491D01*
X128868536Y-52195312D01*
X128845998Y-52261447D01*
X128800946Y-52300484D01*
X128792182Y-52304949D01*
X128620213Y-52429890D01*
X128469890Y-52580213D01*
X128344951Y-52752179D01*
X128248444Y-52941585D01*
X128182753Y-53143760D01*
X128149500Y-53353713D01*
X128149500Y-53566286D01*
X128181718Y-53769707D01*
X128182754Y-53776243D01*
X128239657Y-53951373D01*
X128248444Y-53978414D01*
X128344951Y-54167820D01*
X128469890Y-54339786D01*
X128620213Y-54490109D01*
X128792182Y-54615050D01*
X128800946Y-54619516D01*
X128851742Y-54667491D01*
X128868536Y-54735312D01*
X128845998Y-54801447D01*
X128800946Y-54840484D01*
X128792182Y-54844949D01*
X128620213Y-54969890D01*
X128469890Y-55120213D01*
X128344951Y-55292179D01*
X128248444Y-55481585D01*
X128182753Y-55683760D01*
X128149500Y-55893713D01*
X128149500Y-56106286D01*
X128180196Y-56300097D01*
X128182754Y-56316243D01*
X128238428Y-56487590D01*
X128248444Y-56518414D01*
X128344951Y-56707820D01*
X128469890Y-56879786D01*
X128620213Y-57030109D01*
X128792182Y-57155050D01*
X128800946Y-57159516D01*
X128851742Y-57207491D01*
X128868536Y-57275312D01*
X128845998Y-57341447D01*
X128800946Y-57380484D01*
X128792182Y-57384949D01*
X128620213Y-57509890D01*
X128469890Y-57660213D01*
X128344951Y-57832179D01*
X128248444Y-58021585D01*
X128182753Y-58223760D01*
X128149500Y-58433713D01*
X128149500Y-58646286D01*
X128168541Y-58766510D01*
X128182754Y-58856243D01*
X128241450Y-59036891D01*
X128248444Y-59058414D01*
X128344951Y-59247820D01*
X128469890Y-59419786D01*
X128620213Y-59570109D01*
X128792179Y-59695048D01*
X128792181Y-59695049D01*
X128792184Y-59695051D01*
X128801493Y-59699794D01*
X128852290Y-59747766D01*
X128869087Y-59815587D01*
X128846552Y-59881722D01*
X128801502Y-59920762D01*
X128792443Y-59925378D01*
X128620540Y-60050272D01*
X128620535Y-60050276D01*
X128470276Y-60200535D01*
X128470272Y-60200540D01*
X128345379Y-60372442D01*
X128248904Y-60561782D01*
X128183242Y-60763870D01*
X128183242Y-60763873D01*
X128172769Y-60830000D01*
X129066988Y-60830000D01*
X129034075Y-60887007D01*
X129000000Y-61014174D01*
X129000000Y-61145826D01*
X129034075Y-61272993D01*
X129066988Y-61330000D01*
X128172769Y-61330000D01*
X128183242Y-61396126D01*
X128183242Y-61396129D01*
X128248904Y-61598217D01*
X128345379Y-61787557D01*
X128470272Y-61959459D01*
X128470276Y-61959464D01*
X128620535Y-62109723D01*
X128620540Y-62109727D01*
X128792444Y-62234622D01*
X128802048Y-62239516D01*
X128852844Y-62287491D01*
X128869638Y-62355312D01*
X128847100Y-62421447D01*
X128802048Y-62460484D01*
X128792444Y-62465377D01*
X128620540Y-62590272D01*
X128620535Y-62590276D01*
X128470276Y-62740535D01*
X128470272Y-62740540D01*
X128345379Y-62912442D01*
X128248904Y-63101782D01*
X128183242Y-63303870D01*
X128183242Y-63303873D01*
X128172769Y-63370000D01*
X129066988Y-63370000D01*
X129034075Y-63427007D01*
X129000000Y-63554174D01*
X129000000Y-63685826D01*
X129034075Y-63812993D01*
X129066988Y-63870000D01*
X128172769Y-63870000D01*
X128183242Y-63936126D01*
X128183242Y-63936129D01*
X128248904Y-64138217D01*
X128345379Y-64327557D01*
X128470272Y-64499459D01*
X128470276Y-64499464D01*
X128620535Y-64649723D01*
X128620540Y-64649727D01*
X128792442Y-64774620D01*
X128981782Y-64871095D01*
X129183871Y-64936757D01*
X129250000Y-64947231D01*
X129250000Y-64053012D01*
X129307007Y-64085925D01*
X129434174Y-64120000D01*
X129565826Y-64120000D01*
X129692993Y-64085925D01*
X129750000Y-64053012D01*
X129750000Y-64947230D01*
X129816126Y-64936757D01*
X129816129Y-64936757D01*
X130018217Y-64871095D01*
X130207557Y-64774620D01*
X130379459Y-64649727D01*
X130379464Y-64649723D01*
X130529723Y-64499464D01*
X130529727Y-64499459D01*
X130654620Y-64327557D01*
X130751095Y-64138217D01*
X130816757Y-63936129D01*
X130816757Y-63936126D01*
X130827231Y-63870000D01*
X129933012Y-63870000D01*
X129965925Y-63812993D01*
X130000000Y-63685826D01*
X130000000Y-63554174D01*
X129965925Y-63427007D01*
X129933012Y-63370000D01*
X130827231Y-63370000D01*
X130816757Y-63303873D01*
X130816757Y-63303870D01*
X130751095Y-63101782D01*
X130654620Y-62912442D01*
X130529727Y-62740540D01*
X130529723Y-62740535D01*
X130379464Y-62590276D01*
X130379459Y-62590272D01*
X130207558Y-62465379D01*
X130197954Y-62460486D01*
X130147157Y-62412512D01*
X130130361Y-62344692D01*
X130152897Y-62278556D01*
X130197954Y-62239514D01*
X130207558Y-62234620D01*
X130379459Y-62109727D01*
X130379464Y-62109723D01*
X130529723Y-61959464D01*
X130529727Y-61959459D01*
X130654620Y-61787557D01*
X130751095Y-61598217D01*
X130816757Y-61396129D01*
X130816757Y-61396126D01*
X130827231Y-61330000D01*
X129933012Y-61330000D01*
X129965925Y-61272993D01*
X130000000Y-61145826D01*
X130000000Y-61014174D01*
X129965925Y-60887007D01*
X129933012Y-60830000D01*
X130827231Y-60830000D01*
X130816757Y-60763873D01*
X130816757Y-60763870D01*
X130751095Y-60561782D01*
X130654620Y-60372442D01*
X130529727Y-60200540D01*
X130529723Y-60200535D01*
X130379464Y-60050276D01*
X130379459Y-60050272D01*
X130207555Y-59925377D01*
X130198500Y-59920763D01*
X130147706Y-59872788D01*
X130130912Y-59804966D01*
X130153451Y-59738832D01*
X130198508Y-59699793D01*
X130207816Y-59695051D01*
X130324529Y-59610255D01*
X130379786Y-59570109D01*
X130379788Y-59570106D01*
X130379792Y-59570104D01*
X130530104Y-59419792D01*
X130530106Y-59419788D01*
X130530109Y-59419786D01*
X130655048Y-59247820D01*
X130655047Y-59247820D01*
X130655051Y-59247816D01*
X130751557Y-59058412D01*
X130817246Y-58856243D01*
X130850500Y-58646287D01*
X130850500Y-58433713D01*
X130817246Y-58223757D01*
X130751557Y-58021588D01*
X130655051Y-57832184D01*
X130655049Y-57832181D01*
X130655048Y-57832179D01*
X130530109Y-57660213D01*
X130379786Y-57509890D01*
X130207820Y-57384951D01*
X130207115Y-57384591D01*
X130199054Y-57380485D01*
X130148259Y-57332512D01*
X130131463Y-57264692D01*
X130153999Y-57198556D01*
X130199054Y-57159515D01*
X130207816Y-57155051D01*
X130269426Y-57110289D01*
X130379786Y-57030109D01*
X130379788Y-57030106D01*
X130379792Y-57030104D01*
X130530104Y-56879792D01*
X130530106Y-56879788D01*
X130530109Y-56879786D01*
X130641269Y-56726785D01*
X130655051Y-56707816D01*
X130751557Y-56518412D01*
X130817246Y-56316243D01*
X130850500Y-56106287D01*
X130850500Y-55893713D01*
X130817246Y-55683757D01*
X130751557Y-55481588D01*
X130655051Y-55292184D01*
X130655049Y-55292181D01*
X130655048Y-55292179D01*
X130530109Y-55120213D01*
X130379786Y-54969890D01*
X130207820Y-54844951D01*
X130207115Y-54844591D01*
X130199054Y-54840485D01*
X130148259Y-54792512D01*
X130131463Y-54724692D01*
X130153999Y-54658556D01*
X130199054Y-54619515D01*
X130207816Y-54615051D01*
X130258524Y-54578210D01*
X130379786Y-54490109D01*
X130379788Y-54490106D01*
X130379792Y-54490104D01*
X130530104Y-54339792D01*
X130530106Y-54339788D01*
X130530109Y-54339786D01*
X130640392Y-54187992D01*
X130655051Y-54167816D01*
X130751557Y-53978412D01*
X130817246Y-53776243D01*
X130850500Y-53566287D01*
X130850500Y-53353713D01*
X130817246Y-53143757D01*
X130751557Y-52941588D01*
X130655051Y-52752184D01*
X130655049Y-52752181D01*
X130655048Y-52752179D01*
X130530109Y-52580213D01*
X130379786Y-52429890D01*
X130207820Y-52304951D01*
X130207115Y-52304591D01*
X130199054Y-52300485D01*
X130148259Y-52252512D01*
X130131463Y-52184692D01*
X130153999Y-52118556D01*
X130199054Y-52079515D01*
X130207816Y-52075051D01*
X130307500Y-52002627D01*
X130379786Y-51950109D01*
X130379788Y-51950106D01*
X130379792Y-51950104D01*
X130530104Y-51799792D01*
X130530106Y-51799788D01*
X130530109Y-51799786D01*
X130655048Y-51627820D01*
X130655047Y-51627820D01*
X130655051Y-51627816D01*
X130751557Y-51438412D01*
X130817246Y-51236243D01*
X130850500Y-51026287D01*
X130850500Y-50813713D01*
X130817246Y-50603757D01*
X130751557Y-50401588D01*
X130655051Y-50212184D01*
X130655049Y-50212181D01*
X130655048Y-50212179D01*
X130530109Y-50040213D01*
X130379786Y-49889890D01*
X130207820Y-49764951D01*
X130204966Y-49763497D01*
X130199054Y-49760485D01*
X130148259Y-49712512D01*
X130131463Y-49644692D01*
X130153999Y-49578556D01*
X130199054Y-49539515D01*
X130207816Y-49535051D01*
X130323582Y-49450943D01*
X130379786Y-49410109D01*
X130379788Y-49410106D01*
X130379792Y-49410104D01*
X130530104Y-49259792D01*
X130530106Y-49259788D01*
X130530109Y-49259786D01*
X130655048Y-49087820D01*
X130655047Y-49087820D01*
X130655051Y-49087816D01*
X130751557Y-48898412D01*
X130817246Y-48696243D01*
X130850500Y-48486287D01*
X130850500Y-48273713D01*
X130817246Y-48063757D01*
X130751557Y-47861588D01*
X130655051Y-47672184D01*
X130655049Y-47672181D01*
X130655048Y-47672179D01*
X130530109Y-47500213D01*
X130379786Y-47349890D01*
X130207820Y-47224951D01*
X130207115Y-47224591D01*
X130199054Y-47220485D01*
X130148259Y-47172512D01*
X130131463Y-47104692D01*
X130153999Y-47038556D01*
X130199054Y-46999515D01*
X130207816Y-46995051D01*
X130269136Y-46950500D01*
X130379786Y-46870109D01*
X130379788Y-46870106D01*
X130379792Y-46870104D01*
X130530104Y-46719792D01*
X130530106Y-46719788D01*
X130530109Y-46719786D01*
X130646199Y-46560000D01*
X130655051Y-46547816D01*
X130751557Y-46358412D01*
X130817246Y-46156243D01*
X130850500Y-45946287D01*
X130850500Y-45733713D01*
X130817246Y-45523757D01*
X130751557Y-45321588D01*
X130655051Y-45132184D01*
X130655049Y-45132181D01*
X130655048Y-45132179D01*
X130530109Y-44960213D01*
X130379786Y-44809890D01*
X130207820Y-44684951D01*
X130207115Y-44684591D01*
X130199054Y-44680485D01*
X130148259Y-44632512D01*
X130131463Y-44564692D01*
X130153999Y-44498556D01*
X130199054Y-44459515D01*
X130207816Y-44455051D01*
X130229789Y-44439086D01*
X130379786Y-44330109D01*
X130379788Y-44330106D01*
X130379792Y-44330104D01*
X130530104Y-44179792D01*
X130530106Y-44179788D01*
X130530109Y-44179786D01*
X130655048Y-44007820D01*
X130655047Y-44007820D01*
X130655051Y-44007816D01*
X130751557Y-43818412D01*
X130817246Y-43616243D01*
X130850500Y-43406287D01*
X130850500Y-43193713D01*
X130817246Y-42983757D01*
X130751557Y-42781588D01*
X130655051Y-42592184D01*
X130655049Y-42592181D01*
X130655048Y-42592179D01*
X130530109Y-42420213D01*
X130416569Y-42306673D01*
X130383084Y-42245350D01*
X130388068Y-42175658D01*
X130429940Y-42119725D01*
X130460915Y-42102810D01*
X130592331Y-42053796D01*
X130707546Y-41967546D01*
X130793796Y-41852331D01*
X130844091Y-41717483D01*
X130850500Y-41657873D01*
X130850499Y-39862128D01*
X130844091Y-39802517D01*
X130835386Y-39779179D01*
X130793797Y-39667671D01*
X130793793Y-39667664D01*
X130707547Y-39552455D01*
X130707544Y-39552452D01*
X130592335Y-39466206D01*
X130592328Y-39466202D01*
X130457482Y-39415908D01*
X130457483Y-39415908D01*
X130397883Y-39409501D01*
X130397881Y-39409500D01*
X130397873Y-39409500D01*
X130397864Y-39409500D01*
X128602129Y-39409500D01*
X128602123Y-39409501D01*
X128542516Y-39415908D01*
X128407671Y-39466202D01*
X128407664Y-39466206D01*
X128292455Y-39552452D01*
X128292452Y-39552455D01*
X128206206Y-39667664D01*
X128206202Y-39667671D01*
X128155908Y-39802517D01*
X128149643Y-39860798D01*
X128149501Y-39862123D01*
X128149500Y-39862135D01*
X127644170Y-39862135D01*
X127734297Y-39697079D01*
X127743845Y-39682222D01*
X127861448Y-39525123D01*
X127873020Y-39511769D01*
X128011769Y-39373020D01*
X128025123Y-39361448D01*
X128182221Y-39243845D01*
X128197089Y-39234291D01*
X128369298Y-39140258D01*
X128385385Y-39132911D01*
X128569248Y-39064333D01*
X128586199Y-39059356D01*
X128777938Y-39017646D01*
X128795436Y-39015130D01*
X128995582Y-39000816D01*
X129004428Y-39000500D01*
X129065892Y-39000500D01*
X174313445Y-39000500D01*
X174380484Y-39020185D01*
G37*
%TD.AperFunction*%
%TA.AperFunction,Conductor*%
G36*
X183534075Y-76307007D02*
G01*
X183500000Y-76434174D01*
X183500000Y-76565826D01*
X183534075Y-76692993D01*
X183566988Y-76750000D01*
X181893012Y-76750000D01*
X181925925Y-76692993D01*
X181960000Y-76565826D01*
X181960000Y-76434174D01*
X181925925Y-76307007D01*
X181893012Y-76250000D01*
X183566988Y-76250000D01*
X183534075Y-76307007D01*
G37*
%TD.AperFunction*%
%TA.AperFunction,Conductor*%
G36*
X181710000Y-76066988D02*
G01*
X181652993Y-76034075D01*
X181525826Y-76000000D01*
X181394174Y-76000000D01*
X181267007Y-76034075D01*
X181210000Y-76066988D01*
X181210000Y-74393012D01*
X181267007Y-74425925D01*
X181394174Y-74460000D01*
X181525826Y-74460000D01*
X181652993Y-74425925D01*
X181710000Y-74393012D01*
X181710000Y-76066988D01*
G37*
%TD.AperFunction*%
%TA.AperFunction,Conductor*%
G36*
X184250000Y-76066988D02*
G01*
X184192993Y-76034075D01*
X184065826Y-76000000D01*
X183934174Y-76000000D01*
X183807007Y-76034075D01*
X183750000Y-76066988D01*
X183750000Y-74393012D01*
X183807007Y-74425925D01*
X183934174Y-74460000D01*
X184065826Y-74460000D01*
X184192993Y-74425925D01*
X184250000Y-74393012D01*
X184250000Y-76066988D01*
G37*
%TD.AperFunction*%
%TA.AperFunction,Conductor*%
G36*
X183534075Y-73767007D02*
G01*
X183500000Y-73894174D01*
X183500000Y-74025826D01*
X183534075Y-74152993D01*
X183566988Y-74210000D01*
X181893012Y-74210000D01*
X181925925Y-74152993D01*
X181960000Y-74025826D01*
X181960000Y-73894174D01*
X181925925Y-73767007D01*
X181893012Y-73710000D01*
X183566988Y-73710000D01*
X183534075Y-73767007D01*
G37*
%TD.AperFunction*%
%TA.AperFunction,Conductor*%
G36*
X185668905Y-65000107D02*
G01*
X185712357Y-65054822D01*
X185719077Y-65077264D01*
X185730261Y-65133491D01*
X185730264Y-65133501D01*
X185790602Y-65279172D01*
X185790609Y-65279185D01*
X185838261Y-65350500D01*
X185873854Y-65403769D01*
X185878602Y-65410874D01*
X185899480Y-65477551D01*
X185899500Y-65479765D01*
X185899500Y-69913330D01*
X185899499Y-69913348D01*
X185899499Y-70079054D01*
X185899498Y-70079054D01*
X185899499Y-70079057D01*
X185940423Y-70231785D01*
X185968560Y-70280519D01*
X186019479Y-70368714D01*
X186019481Y-70368717D01*
X186138349Y-70487585D01*
X186138355Y-70487590D01*
X186365425Y-70714660D01*
X186398910Y-70775983D01*
X186399361Y-70778149D01*
X186430261Y-70933491D01*
X186430264Y-70933501D01*
X186490602Y-71079172D01*
X186490609Y-71079185D01*
X186578210Y-71210288D01*
X186578213Y-71210292D01*
X186689707Y-71321786D01*
X186689711Y-71321789D01*
X186820814Y-71409390D01*
X186820827Y-71409397D01*
X186966498Y-71469735D01*
X186966503Y-71469737D01*
X187121153Y-71500499D01*
X187121156Y-71500500D01*
X187121158Y-71500500D01*
X187278844Y-71500500D01*
X187278845Y-71500499D01*
X187433497Y-71469737D01*
X187579179Y-71409394D01*
X187710289Y-71321789D01*
X187821789Y-71210289D01*
X187909394Y-71079179D01*
X187969737Y-70933497D01*
X188000500Y-70778842D01*
X188000500Y-70621158D01*
X188000500Y-70621155D01*
X188000499Y-70621153D01*
X187982312Y-70529723D01*
X187969737Y-70466503D01*
X187969735Y-70466498D01*
X187909397Y-70320827D01*
X187909390Y-70320814D01*
X187821789Y-70189711D01*
X187821786Y-70189707D01*
X187710292Y-70078213D01*
X187710288Y-70078210D01*
X187579185Y-69990609D01*
X187579172Y-69990602D01*
X187433501Y-69930264D01*
X187433491Y-69930261D01*
X187278149Y-69899361D01*
X187261392Y-69890595D01*
X187242914Y-69886576D01*
X187217877Y-69867833D01*
X187216238Y-69866976D01*
X187214660Y-69865425D01*
X187136819Y-69787584D01*
X187103334Y-69726261D01*
X187100500Y-69699903D01*
X187100500Y-66831941D01*
X187120185Y-66764902D01*
X187172989Y-66719147D01*
X187242147Y-66709203D01*
X187305703Y-66738228D01*
X187312181Y-66744260D01*
X187389707Y-66821786D01*
X187389711Y-66821789D01*
X187520814Y-66909390D01*
X187520827Y-66909397D01*
X187642235Y-66959685D01*
X187666503Y-66969737D01*
X187821153Y-67000499D01*
X187821156Y-67000500D01*
X187821158Y-67000500D01*
X187978844Y-67000500D01*
X187978845Y-67000499D01*
X188133497Y-66969737D01*
X188205289Y-66940000D01*
X188229048Y-66930159D01*
X188298517Y-66922690D01*
X188360996Y-66953965D01*
X188396648Y-67014054D01*
X188400500Y-67044720D01*
X188400500Y-76786770D01*
X188380815Y-76853809D01*
X188364181Y-76874451D01*
X188084704Y-77153927D01*
X188044478Y-77180806D01*
X188020826Y-77190603D01*
X188020814Y-77190609D01*
X187889711Y-77278210D01*
X187889707Y-77278213D01*
X187778213Y-77389707D01*
X187778210Y-77389711D01*
X187690609Y-77520814D01*
X187690602Y-77520827D01*
X187630264Y-77666498D01*
X187630261Y-77666508D01*
X187608141Y-77777714D01*
X187575756Y-77839625D01*
X187574205Y-77841203D01*
X187136567Y-78278842D01*
X186701270Y-78714139D01*
X186701267Y-78714142D01*
X186657705Y-78757703D01*
X186614144Y-78801264D01*
X186614142Y-78801267D01*
X186594874Y-78830104D01*
X186594873Y-78830106D01*
X186594872Y-78830105D01*
X186545689Y-78903712D01*
X186545685Y-78903719D01*
X186524424Y-78955050D01*
X186498538Y-79017544D01*
X186498535Y-79017556D01*
X186474500Y-79138389D01*
X186474500Y-82144510D01*
X186454815Y-82211549D01*
X186402011Y-82257304D01*
X186332853Y-82267248D01*
X186303048Y-82259071D01*
X186233501Y-82230264D01*
X186233489Y-82230261D01*
X186078845Y-82199500D01*
X186078842Y-82199500D01*
X185921158Y-82199500D01*
X185921155Y-82199500D01*
X185766510Y-82230261D01*
X185766498Y-82230264D01*
X185620827Y-82290602D01*
X185620814Y-82290609D01*
X185489711Y-82378210D01*
X185489707Y-82378213D01*
X185378213Y-82489707D01*
X185378210Y-82489711D01*
X185290609Y-82620814D01*
X185290602Y-82620827D01*
X185230264Y-82766498D01*
X185230261Y-82766510D01*
X185199500Y-82921153D01*
X185199500Y-83078846D01*
X185230261Y-83233489D01*
X185230264Y-83233501D01*
X185290602Y-83379172D01*
X185290609Y-83379184D01*
X185353602Y-83473459D01*
X185374480Y-83540136D01*
X185374500Y-83542350D01*
X185374500Y-90189547D01*
X185354815Y-90256586D01*
X185338181Y-90277228D01*
X183677229Y-91938181D01*
X183615906Y-91971666D01*
X183589548Y-91974500D01*
X162910453Y-91974500D01*
X162843414Y-91954815D01*
X162822772Y-91938181D01*
X162092927Y-91208337D01*
X162092925Y-91208334D01*
X160461819Y-89577228D01*
X160428334Y-89515905D01*
X160425500Y-89489547D01*
X160425500Y-88521153D01*
X166399500Y-88521153D01*
X166399500Y-88678846D01*
X166430261Y-88833489D01*
X166430264Y-88833501D01*
X166490602Y-88979172D01*
X166490609Y-88979185D01*
X166578210Y-89110288D01*
X166578213Y-89110292D01*
X166689707Y-89221786D01*
X166689711Y-89221789D01*
X166820814Y-89309390D01*
X166820827Y-89309397D01*
X166966498Y-89369735D01*
X166966503Y-89369737D01*
X167121153Y-89400499D01*
X167121156Y-89400500D01*
X167121158Y-89400500D01*
X167278844Y-89400500D01*
X167278845Y-89400499D01*
X167433497Y-89369737D01*
X167579179Y-89309394D01*
X167670399Y-89248443D01*
X167710875Y-89221398D01*
X167777553Y-89200520D01*
X167779766Y-89200500D01*
X169499903Y-89200500D01*
X169566942Y-89220185D01*
X169587584Y-89236819D01*
X169765425Y-89414660D01*
X169798910Y-89475983D01*
X169799361Y-89478149D01*
X169830261Y-89633491D01*
X169830264Y-89633501D01*
X169890602Y-89779172D01*
X169890609Y-89779185D01*
X169978210Y-89910288D01*
X169978213Y-89910292D01*
X170089707Y-90021786D01*
X170089711Y-90021789D01*
X170220814Y-90109390D01*
X170220827Y-90109397D01*
X170312839Y-90147509D01*
X170366503Y-90169737D01*
X170512275Y-90198733D01*
X170521153Y-90200499D01*
X170521156Y-90200500D01*
X170521158Y-90200500D01*
X170678844Y-90200500D01*
X170678845Y-90200499D01*
X170833497Y-90169737D01*
X170979179Y-90109394D01*
X171110289Y-90021789D01*
X171221789Y-89910289D01*
X171309394Y-89779179D01*
X171369737Y-89633497D01*
X171400500Y-89478842D01*
X171400500Y-89321158D01*
X171400500Y-89321155D01*
X171400499Y-89321153D01*
X171382367Y-89230000D01*
X171369737Y-89166503D01*
X171366445Y-89158556D01*
X171309397Y-89020827D01*
X171309390Y-89020814D01*
X171221789Y-88889711D01*
X171221786Y-88889707D01*
X171110292Y-88778213D01*
X171110288Y-88778210D01*
X170979185Y-88690609D01*
X170979172Y-88690602D01*
X170833501Y-88630264D01*
X170833491Y-88630261D01*
X170678149Y-88599361D01*
X170616238Y-88566976D01*
X170614660Y-88565425D01*
X170287590Y-88238355D01*
X170287588Y-88238352D01*
X170168717Y-88119481D01*
X170168709Y-88119475D01*
X170063167Y-88058541D01*
X170063164Y-88058540D01*
X170031787Y-88040424D01*
X170031786Y-88040423D01*
X170031785Y-88040423D01*
X169879057Y-87999499D01*
X169720943Y-87999499D01*
X169713347Y-87999499D01*
X169713331Y-87999500D01*
X167779766Y-87999500D01*
X167712727Y-87979815D01*
X167710875Y-87978602D01*
X167579185Y-87890609D01*
X167579172Y-87890602D01*
X167433501Y-87830264D01*
X167433489Y-87830261D01*
X167278845Y-87799500D01*
X167278842Y-87799500D01*
X167121158Y-87799500D01*
X167121155Y-87799500D01*
X166966510Y-87830261D01*
X166966498Y-87830264D01*
X166820827Y-87890602D01*
X166820814Y-87890609D01*
X166689711Y-87978210D01*
X166689707Y-87978213D01*
X166578213Y-88089707D01*
X166578210Y-88089711D01*
X166490609Y-88220814D01*
X166490602Y-88220827D01*
X166430264Y-88366498D01*
X166430261Y-88366510D01*
X166399500Y-88521153D01*
X160425500Y-88521153D01*
X160425500Y-83842350D01*
X160445185Y-83775311D01*
X160446398Y-83773459D01*
X160481344Y-83721158D01*
X160509394Y-83679179D01*
X160569737Y-83533497D01*
X160600500Y-83378842D01*
X160600500Y-83221158D01*
X160600500Y-83221155D01*
X160600499Y-83221153D01*
X160585230Y-83144390D01*
X160569737Y-83066503D01*
X160556062Y-83033489D01*
X160509397Y-82920827D01*
X160509390Y-82920814D01*
X160466888Y-82857206D01*
X160446010Y-82790529D01*
X160464494Y-82723149D01*
X160516473Y-82676458D01*
X160585443Y-82665282D01*
X160631988Y-82680926D01*
X160768216Y-82759577D01*
X160920943Y-82800501D01*
X160920945Y-82800501D01*
X161086654Y-82800501D01*
X161086670Y-82800500D01*
X161120943Y-82800500D01*
X165820234Y-82800500D01*
X165887273Y-82820185D01*
X165889125Y-82821398D01*
X166020814Y-82909390D01*
X166020827Y-82909397D01*
X166158683Y-82966498D01*
X166166503Y-82969737D01*
X166316131Y-82999500D01*
X166321153Y-83000499D01*
X166321156Y-83000500D01*
X166321158Y-83000500D01*
X166478844Y-83000500D01*
X166478845Y-83000499D01*
X166633497Y-82969737D01*
X166751592Y-82920821D01*
X166779172Y-82909397D01*
X166779172Y-82909396D01*
X166779179Y-82909394D01*
X166910289Y-82821789D01*
X167010925Y-82721153D01*
X169799500Y-82721153D01*
X169799500Y-82878846D01*
X169830261Y-83033489D01*
X169830264Y-83033501D01*
X169890602Y-83179172D01*
X169890609Y-83179185D01*
X169978210Y-83310288D01*
X169978213Y-83310292D01*
X170089707Y-83421786D01*
X170089711Y-83421789D01*
X170220814Y-83509390D01*
X170220827Y-83509397D01*
X170295039Y-83540136D01*
X170366503Y-83569737D01*
X170521153Y-83600499D01*
X170521156Y-83600500D01*
X170521158Y-83600500D01*
X170678844Y-83600500D01*
X170678845Y-83600499D01*
X170833497Y-83569737D01*
X170979179Y-83509394D01*
X171110289Y-83421789D01*
X171221789Y-83310289D01*
X171309394Y-83179179D01*
X171369737Y-83033497D01*
X171400500Y-82878842D01*
X171400500Y-82721158D01*
X171400500Y-82721155D01*
X171400499Y-82721153D01*
X171394244Y-82689707D01*
X171369737Y-82566503D01*
X171367338Y-82560711D01*
X171309397Y-82420827D01*
X171309390Y-82420814D01*
X171221398Y-82289125D01*
X171200520Y-82222447D01*
X171200500Y-82220234D01*
X171200500Y-80921153D01*
X177999500Y-80921153D01*
X177999500Y-81078846D01*
X178030261Y-81233489D01*
X178030264Y-81233501D01*
X178090602Y-81379172D01*
X178090609Y-81379185D01*
X178178602Y-81510874D01*
X178199480Y-81577551D01*
X178199500Y-81579765D01*
X178199500Y-82220234D01*
X178179815Y-82287273D01*
X178178602Y-82289125D01*
X178090609Y-82420814D01*
X178090602Y-82420827D01*
X178030264Y-82566498D01*
X178030261Y-82566510D01*
X177999500Y-82721153D01*
X177999500Y-82878846D01*
X178030261Y-83033489D01*
X178030264Y-83033501D01*
X178090602Y-83179172D01*
X178090609Y-83179185D01*
X178178210Y-83310288D01*
X178178213Y-83310292D01*
X178289707Y-83421786D01*
X178289711Y-83421789D01*
X178420814Y-83509390D01*
X178420827Y-83509397D01*
X178495039Y-83540136D01*
X178566503Y-83569737D01*
X178721153Y-83600499D01*
X178721156Y-83600500D01*
X178721158Y-83600500D01*
X178878844Y-83600500D01*
X178878845Y-83600499D01*
X179033497Y-83569737D01*
X179179179Y-83509394D01*
X179310289Y-83421789D01*
X179421789Y-83310289D01*
X179509394Y-83179179D01*
X179569737Y-83033497D01*
X179600500Y-82878842D01*
X179600500Y-82721158D01*
X179600500Y-82721155D01*
X179600499Y-82721153D01*
X179594244Y-82689707D01*
X179569737Y-82566503D01*
X179567338Y-82560711D01*
X179509397Y-82420827D01*
X179509390Y-82420814D01*
X179421398Y-82289125D01*
X179400520Y-82222447D01*
X179400500Y-82220234D01*
X179400500Y-81579765D01*
X179420185Y-81512726D01*
X179421398Y-81510874D01*
X179442801Y-81478843D01*
X179509394Y-81379179D01*
X179569737Y-81233497D01*
X179600500Y-81078842D01*
X179600500Y-80921158D01*
X179600500Y-80921155D01*
X179600499Y-80921153D01*
X179578447Y-80810292D01*
X179569737Y-80766503D01*
X179533569Y-80679185D01*
X179509397Y-80620827D01*
X179509390Y-80620814D01*
X179421789Y-80489711D01*
X179421786Y-80489707D01*
X179310292Y-80378213D01*
X179310288Y-80378210D01*
X179179185Y-80290609D01*
X179179172Y-80290602D01*
X179033501Y-80230264D01*
X179033489Y-80230261D01*
X178878845Y-80199500D01*
X178878842Y-80199500D01*
X178721158Y-80199500D01*
X178721155Y-80199500D01*
X178566510Y-80230261D01*
X178566498Y-80230264D01*
X178420827Y-80290602D01*
X178420814Y-80290609D01*
X178289711Y-80378210D01*
X178289707Y-80378213D01*
X178178213Y-80489707D01*
X178178210Y-80489711D01*
X178090609Y-80620814D01*
X178090602Y-80620827D01*
X178030264Y-80766498D01*
X178030261Y-80766510D01*
X177999500Y-80921153D01*
X171200500Y-80921153D01*
X171200500Y-80700096D01*
X171220185Y-80633057D01*
X171236814Y-80612420D01*
X172818506Y-79030727D01*
X172818511Y-79030724D01*
X172828714Y-79020520D01*
X172828716Y-79020520D01*
X172940520Y-78908716D01*
X173002998Y-78800500D01*
X173019577Y-78771785D01*
X173060500Y-78619058D01*
X173060500Y-78460943D01*
X173060500Y-77785718D01*
X173080185Y-77718679D01*
X173128207Y-77675233D01*
X173167815Y-77655052D01*
X173167815Y-77655051D01*
X173167816Y-77655051D01*
X173273579Y-77578210D01*
X173339786Y-77530109D01*
X173339788Y-77530106D01*
X173339792Y-77530104D01*
X173490104Y-77379792D01*
X173490106Y-77379788D01*
X173490109Y-77379786D01*
X173615048Y-77207820D01*
X173615047Y-77207820D01*
X173615051Y-77207816D01*
X173619514Y-77199055D01*
X173667488Y-77148259D01*
X173735308Y-77131463D01*
X173801444Y-77153999D01*
X173840486Y-77199056D01*
X173844951Y-77207820D01*
X173969890Y-77379786D01*
X174120213Y-77530109D01*
X174292179Y-77655048D01*
X174292181Y-77655049D01*
X174292184Y-77655051D01*
X174481588Y-77751557D01*
X174683757Y-77817246D01*
X174893713Y-77850500D01*
X174893714Y-77850500D01*
X175106286Y-77850500D01*
X175106287Y-77850500D01*
X175316243Y-77817246D01*
X175518412Y-77751557D01*
X175707816Y-77655051D01*
X175729789Y-77639086D01*
X175879786Y-77530109D01*
X175879788Y-77530106D01*
X175879792Y-77530104D01*
X176030104Y-77379792D01*
X176030106Y-77379788D01*
X176030109Y-77379786D01*
X176155048Y-77207820D01*
X176155047Y-77207820D01*
X176155051Y-77207816D01*
X176251557Y-77018412D01*
X176317246Y-76816243D01*
X176344377Y-76644949D01*
X176350500Y-76606287D01*
X176350500Y-76393713D01*
X176346190Y-76366503D01*
X176317246Y-76183757D01*
X176251557Y-75981588D01*
X176155051Y-75792184D01*
X176155049Y-75792181D01*
X176155048Y-75792179D01*
X176030109Y-75620213D01*
X175879786Y-75469890D01*
X175707820Y-75344951D01*
X175706905Y-75344485D01*
X175699054Y-75340484D01*
X175648259Y-75292512D01*
X175631463Y-75224692D01*
X175653999Y-75158556D01*
X175699054Y-75119515D01*
X175707816Y-75115051D01*
X175794138Y-75052335D01*
X175879786Y-74990109D01*
X175879788Y-74990106D01*
X175879792Y-74990104D01*
X176030104Y-74839792D01*
X176030106Y-74839788D01*
X176030109Y-74839786D01*
X176155048Y-74667820D01*
X176155047Y-74667820D01*
X176155051Y-74667816D01*
X176251557Y-74478412D01*
X176317246Y-74276243D01*
X176350500Y-74066287D01*
X176350500Y-73853713D01*
X176317246Y-73643757D01*
X176251557Y-73441588D01*
X176155051Y-73252184D01*
X176155049Y-73252181D01*
X176155048Y-73252179D01*
X176067542Y-73131736D01*
X176030109Y-73080214D01*
X176030105Y-73080209D01*
X176012051Y-73062155D01*
X180110000Y-73062155D01*
X180110000Y-73710000D01*
X181026988Y-73710000D01*
X180994075Y-73767007D01*
X180960000Y-73894174D01*
X180960000Y-74025826D01*
X180994075Y-74152993D01*
X181026988Y-74210000D01*
X180110000Y-74210000D01*
X180110000Y-74857844D01*
X180116401Y-74917372D01*
X180116403Y-74917379D01*
X180166645Y-75052086D01*
X180166649Y-75052093D01*
X180252809Y-75167187D01*
X180252812Y-75167190D01*
X180367906Y-75253350D01*
X180367913Y-75253354D01*
X180499986Y-75302614D01*
X180555920Y-75344485D01*
X180580337Y-75409949D01*
X180565486Y-75478222D01*
X180544335Y-75506477D01*
X180430271Y-75620541D01*
X180305379Y-75792442D01*
X180208904Y-75981782D01*
X180143242Y-76183870D01*
X180143242Y-76183873D01*
X180132769Y-76250000D01*
X181026988Y-76250000D01*
X180994075Y-76307007D01*
X180960000Y-76434174D01*
X180960000Y-76565826D01*
X180994075Y-76692993D01*
X181026988Y-76750000D01*
X180132769Y-76750000D01*
X180143242Y-76816126D01*
X180143242Y-76816129D01*
X180208904Y-77018217D01*
X180305379Y-77207557D01*
X180430272Y-77379459D01*
X180430276Y-77379464D01*
X180580535Y-77529723D01*
X180580540Y-77529727D01*
X180752442Y-77654620D01*
X180941782Y-77751095D01*
X181143871Y-77816757D01*
X181210000Y-77827231D01*
X181210000Y-76933012D01*
X181267007Y-76965925D01*
X181394174Y-77000000D01*
X181525826Y-77000000D01*
X181652993Y-76965925D01*
X181710000Y-76933012D01*
X181710000Y-77827230D01*
X181776126Y-77816757D01*
X181776129Y-77816757D01*
X181978217Y-77751095D01*
X182167557Y-77654620D01*
X182339459Y-77529727D01*
X182339464Y-77529723D01*
X182489723Y-77379464D01*
X182489727Y-77379459D01*
X182614620Y-77207558D01*
X182619514Y-77197954D01*
X182667488Y-77147157D01*
X182735308Y-77130361D01*
X182801444Y-77152897D01*
X182840486Y-77197954D01*
X182845379Y-77207558D01*
X182970272Y-77379459D01*
X182970276Y-77379464D01*
X183120535Y-77529723D01*
X183120540Y-77529727D01*
X183292442Y-77654620D01*
X183481782Y-77751095D01*
X183683871Y-77816757D01*
X183750000Y-77827231D01*
X183750000Y-76933012D01*
X183807007Y-76965925D01*
X183934174Y-77000000D01*
X184065826Y-77000000D01*
X184192993Y-76965925D01*
X184250000Y-76933012D01*
X184250000Y-77827230D01*
X184316126Y-77816757D01*
X184316129Y-77816757D01*
X184518217Y-77751095D01*
X184707557Y-77654620D01*
X184879459Y-77529727D01*
X184879464Y-77529723D01*
X185029723Y-77379464D01*
X185029727Y-77379459D01*
X185154620Y-77207557D01*
X185251095Y-77018217D01*
X185316757Y-76816129D01*
X185316757Y-76816126D01*
X185327231Y-76750000D01*
X184433012Y-76750000D01*
X184465925Y-76692993D01*
X184500000Y-76565826D01*
X184500000Y-76434174D01*
X184465925Y-76307007D01*
X184433012Y-76250000D01*
X185327231Y-76250000D01*
X185316757Y-76183873D01*
X185316757Y-76183870D01*
X185251095Y-75981782D01*
X185154620Y-75792442D01*
X185029727Y-75620540D01*
X185029723Y-75620535D01*
X184879464Y-75470276D01*
X184879459Y-75470272D01*
X184707558Y-75345379D01*
X184697954Y-75340486D01*
X184647157Y-75292512D01*
X184630361Y-75224692D01*
X184652897Y-75158556D01*
X184697954Y-75119514D01*
X184707558Y-75114620D01*
X184879459Y-74989727D01*
X184879464Y-74989723D01*
X185029723Y-74839464D01*
X185029727Y-74839459D01*
X185154620Y-74667557D01*
X185251095Y-74478217D01*
X185316757Y-74276129D01*
X185316757Y-74276126D01*
X185327231Y-74210000D01*
X184433012Y-74210000D01*
X184465925Y-74152993D01*
X184500000Y-74025826D01*
X184500000Y-73894174D01*
X184465925Y-73767007D01*
X184433012Y-73710000D01*
X185327231Y-73710000D01*
X185316757Y-73643873D01*
X185316757Y-73643870D01*
X185251095Y-73441782D01*
X185154620Y-73252442D01*
X185029727Y-73080540D01*
X185029723Y-73080535D01*
X184879464Y-72930276D01*
X184879459Y-72930272D01*
X184707557Y-72805379D01*
X184518215Y-72708903D01*
X184316124Y-72643241D01*
X184250000Y-72632768D01*
X184250000Y-73526988D01*
X184192993Y-73494075D01*
X184065826Y-73460000D01*
X183934174Y-73460000D01*
X183807007Y-73494075D01*
X183750000Y-73526988D01*
X183750000Y-72632768D01*
X183749999Y-72632768D01*
X183683875Y-72643241D01*
X183481784Y-72708903D01*
X183292442Y-72805379D01*
X183120541Y-72930271D01*
X183006477Y-73044335D01*
X182945154Y-73077819D01*
X182875462Y-73072835D01*
X182819529Y-73030963D01*
X182802614Y-72999986D01*
X182753354Y-72867913D01*
X182753350Y-72867906D01*
X182667190Y-72752812D01*
X182667187Y-72752809D01*
X182552093Y-72666649D01*
X182552086Y-72666645D01*
X182417379Y-72616403D01*
X182417372Y-72616401D01*
X182357844Y-72610000D01*
X181710000Y-72610000D01*
X181710000Y-73526988D01*
X181652993Y-73494075D01*
X181525826Y-73460000D01*
X181394174Y-73460000D01*
X181267007Y-73494075D01*
X181210000Y-73526988D01*
X181210000Y-72610000D01*
X180562155Y-72610000D01*
X180502627Y-72616401D01*
X180502620Y-72616403D01*
X180367913Y-72666645D01*
X180367906Y-72666649D01*
X180252812Y-72752809D01*
X180252809Y-72752812D01*
X180166649Y-72867906D01*
X180166645Y-72867913D01*
X180116403Y-73002620D01*
X180116401Y-73002627D01*
X180110000Y-73062155D01*
X176012051Y-73062155D01*
X175879786Y-72929890D01*
X175707820Y-72804951D01*
X175518414Y-72708444D01*
X175518413Y-72708443D01*
X175518412Y-72708443D01*
X175316243Y-72642754D01*
X175316241Y-72642753D01*
X175316240Y-72642753D01*
X175154957Y-72617208D01*
X175106287Y-72609500D01*
X174893713Y-72609500D01*
X174845042Y-72617208D01*
X174683760Y-72642753D01*
X174481585Y-72708444D01*
X174292179Y-72804951D01*
X174120215Y-72929889D01*
X174006673Y-73043431D01*
X173945350Y-73076915D01*
X173875658Y-73071931D01*
X173819725Y-73030059D01*
X173802810Y-72999082D01*
X173753797Y-72867671D01*
X173753793Y-72867664D01*
X173667547Y-72752455D01*
X173667544Y-72752452D01*
X173552335Y-72666206D01*
X173552328Y-72666202D01*
X173417482Y-72615908D01*
X173417483Y-72615908D01*
X173357883Y-72609501D01*
X173357881Y-72609500D01*
X173357873Y-72609500D01*
X173357865Y-72609500D01*
X173184501Y-72609500D01*
X173117462Y-72589815D01*
X173071707Y-72537011D01*
X173060501Y-72485500D01*
X173060501Y-72380945D01*
X173060501Y-72380943D01*
X173019577Y-72228215D01*
X172940520Y-72091284D01*
X171834573Y-70985337D01*
X171801088Y-70924014D01*
X171800637Y-70921847D01*
X171783061Y-70833489D01*
X171769737Y-70766503D01*
X171737929Y-70689711D01*
X171709397Y-70620827D01*
X171709390Y-70620814D01*
X171621789Y-70489711D01*
X171621786Y-70489707D01*
X171510292Y-70378213D01*
X171510288Y-70378210D01*
X171379185Y-70290609D01*
X171379172Y-70290602D01*
X171233501Y-70230264D01*
X171233489Y-70230261D01*
X171078845Y-70199500D01*
X171078842Y-70199500D01*
X170921158Y-70199500D01*
X170921155Y-70199500D01*
X170766510Y-70230261D01*
X170766498Y-70230264D01*
X170620827Y-70290602D01*
X170620814Y-70290609D01*
X170489711Y-70378210D01*
X170489707Y-70378213D01*
X170378213Y-70489707D01*
X170378210Y-70489711D01*
X170290609Y-70620814D01*
X170290602Y-70620827D01*
X170230264Y-70766498D01*
X170230261Y-70766510D01*
X170199500Y-70921153D01*
X170199500Y-71078846D01*
X170230261Y-71233489D01*
X170230264Y-71233501D01*
X170290602Y-71379172D01*
X170290609Y-71379185D01*
X170378210Y-71510288D01*
X170378213Y-71510292D01*
X170489707Y-71621786D01*
X170489711Y-71621789D01*
X170620814Y-71709390D01*
X170620827Y-71709397D01*
X170749070Y-71762516D01*
X170766503Y-71769737D01*
X170831147Y-71782595D01*
X170921849Y-71800638D01*
X170983760Y-71833023D01*
X170985339Y-71834574D01*
X171558959Y-72408194D01*
X171592444Y-72469517D01*
X171587460Y-72539209D01*
X171545588Y-72595142D01*
X171509367Y-72612078D01*
X171509785Y-72613198D01*
X171367671Y-72666202D01*
X171367664Y-72666206D01*
X171252455Y-72752452D01*
X171252452Y-72752455D01*
X171166206Y-72867664D01*
X171166202Y-72867671D01*
X171115908Y-73002517D01*
X171109501Y-73062116D01*
X171109500Y-73062135D01*
X171109500Y-74857870D01*
X171109501Y-74857876D01*
X171115908Y-74917483D01*
X171166202Y-75052328D01*
X171166206Y-75052335D01*
X171252452Y-75167544D01*
X171252455Y-75167547D01*
X171367664Y-75253793D01*
X171367671Y-75253797D01*
X171499082Y-75302810D01*
X171555016Y-75344681D01*
X171579433Y-75410145D01*
X171564582Y-75478418D01*
X171543431Y-75506673D01*
X171429889Y-75620215D01*
X171304951Y-75792179D01*
X171208444Y-75981585D01*
X171142753Y-76183760D01*
X171109500Y-76393713D01*
X171109500Y-76606287D01*
X171142754Y-76816243D01*
X171195697Y-76979185D01*
X171208444Y-77018414D01*
X171304951Y-77207820D01*
X171429890Y-77379786D01*
X171580213Y-77530109D01*
X171752184Y-77655051D01*
X171752184Y-77655052D01*
X171791793Y-77675233D01*
X171842590Y-77723206D01*
X171859500Y-77785718D01*
X171859500Y-78239902D01*
X171839815Y-78306941D01*
X171823181Y-78327583D01*
X170119481Y-80031282D01*
X170119475Y-80031290D01*
X170075064Y-80108214D01*
X170075064Y-80108215D01*
X170040423Y-80168215D01*
X169999499Y-80320943D01*
X169999499Y-80320945D01*
X169999499Y-80489046D01*
X169999500Y-80489059D01*
X169999500Y-82220234D01*
X169979815Y-82287273D01*
X169978602Y-82289125D01*
X169890609Y-82420814D01*
X169890602Y-82420827D01*
X169830264Y-82566498D01*
X169830261Y-82566510D01*
X169799500Y-82721153D01*
X167010925Y-82721153D01*
X167021789Y-82710289D01*
X167081575Y-82620814D01*
X167109390Y-82579185D01*
X167109390Y-82579184D01*
X167109394Y-82579179D01*
X167169737Y-82433497D01*
X167200500Y-82278842D01*
X167200500Y-82121158D01*
X167200500Y-82121155D01*
X167200499Y-82121153D01*
X167180734Y-82021789D01*
X167169737Y-81966503D01*
X167146451Y-81910284D01*
X167109397Y-81820827D01*
X167109390Y-81820814D01*
X167021789Y-81689711D01*
X167021786Y-81689707D01*
X166910292Y-81578213D01*
X166910288Y-81578210D01*
X166779185Y-81490609D01*
X166779172Y-81490602D01*
X166633501Y-81430264D01*
X166633489Y-81430261D01*
X166478845Y-81399500D01*
X166478842Y-81399500D01*
X166321158Y-81399500D01*
X166321155Y-81399500D01*
X166166510Y-81430261D01*
X166166498Y-81430264D01*
X166020827Y-81490602D01*
X166020814Y-81490609D01*
X165889125Y-81578602D01*
X165822447Y-81599480D01*
X165820234Y-81599500D01*
X161300098Y-81599500D01*
X161233059Y-81579815D01*
X161212417Y-81563181D01*
X160636819Y-80987583D01*
X160603334Y-80926260D01*
X160600500Y-80899902D01*
X160600500Y-70086555D01*
X160620185Y-70019516D01*
X160672989Y-69973761D01*
X160742147Y-69963817D01*
X160760411Y-69968840D01*
X160760676Y-69967969D01*
X160766492Y-69969732D01*
X160766503Y-69969737D01*
X160918644Y-70000000D01*
X160921153Y-70000499D01*
X160921156Y-70000500D01*
X160921158Y-70000500D01*
X161078844Y-70000500D01*
X161078845Y-70000499D01*
X161233497Y-69969737D01*
X161379179Y-69909394D01*
X161393090Y-69900099D01*
X161510875Y-69821398D01*
X161577553Y-69800520D01*
X161579766Y-69800500D01*
X167768059Y-69800500D01*
X167835098Y-69820185D01*
X167880853Y-69872989D01*
X167890797Y-69942147D01*
X167861772Y-70005703D01*
X167855740Y-70012181D01*
X167778213Y-70089707D01*
X167778210Y-70089711D01*
X167690609Y-70220814D01*
X167690602Y-70220827D01*
X167630264Y-70366498D01*
X167630261Y-70366510D01*
X167599500Y-70521153D01*
X167599500Y-70678846D01*
X167630261Y-70833489D01*
X167630264Y-70833501D01*
X167690602Y-70979172D01*
X167690609Y-70979185D01*
X167778602Y-71110874D01*
X167799480Y-71177551D01*
X167799500Y-71179765D01*
X167799500Y-79299903D01*
X167790855Y-79329340D01*
X167784332Y-79359331D01*
X167780576Y-79364347D01*
X167779815Y-79366942D01*
X167763185Y-79387579D01*
X167707353Y-79443412D01*
X167685339Y-79465426D01*
X167624015Y-79498910D01*
X167621850Y-79499361D01*
X167466508Y-79530261D01*
X167466498Y-79530264D01*
X167320827Y-79590602D01*
X167320814Y-79590609D01*
X167189711Y-79678210D01*
X167189707Y-79678213D01*
X167078213Y-79789707D01*
X167078210Y-79789711D01*
X166990609Y-79920814D01*
X166990602Y-79920827D01*
X166930264Y-80066498D01*
X166930261Y-80066510D01*
X166899500Y-80221153D01*
X166899500Y-80378846D01*
X166930261Y-80533489D01*
X166930264Y-80533501D01*
X166990602Y-80679172D01*
X166990609Y-80679185D01*
X167078210Y-80810288D01*
X167078213Y-80810292D01*
X167189707Y-80921786D01*
X167189711Y-80921789D01*
X167320814Y-81009390D01*
X167320827Y-81009397D01*
X167413590Y-81047820D01*
X167466503Y-81069737D01*
X167621153Y-81100499D01*
X167621156Y-81100500D01*
X167621158Y-81100500D01*
X167778844Y-81100500D01*
X167778845Y-81100499D01*
X167933497Y-81069737D01*
X168079179Y-81009394D01*
X168210289Y-80921789D01*
X168321789Y-80810289D01*
X168409394Y-80679179D01*
X168469737Y-80533497D01*
X168494969Y-80406648D01*
X168500638Y-80378150D01*
X168533023Y-80316239D01*
X168534525Y-80314709D01*
X168758506Y-80090727D01*
X168758511Y-80090724D01*
X168768714Y-80080520D01*
X168768716Y-80080520D01*
X168880520Y-79968716D01*
X168959577Y-79831784D01*
X169000500Y-79679057D01*
X169000500Y-71179765D01*
X169020185Y-71112726D01*
X169021398Y-71110874D01*
X169042799Y-71078846D01*
X169109394Y-70979179D01*
X169114643Y-70966508D01*
X169132244Y-70924014D01*
X169169737Y-70833497D01*
X169200500Y-70678842D01*
X169200500Y-70521158D01*
X169200500Y-70521155D01*
X169200499Y-70521153D01*
X169192417Y-70480521D01*
X169169737Y-70366503D01*
X169138298Y-70290602D01*
X169109397Y-70220827D01*
X169109390Y-70220814D01*
X169021789Y-70089711D01*
X169021786Y-70089707D01*
X168944260Y-70012181D01*
X168910775Y-69950858D01*
X168915759Y-69881166D01*
X168957631Y-69825233D01*
X169023095Y-69800816D01*
X169031941Y-69800500D01*
X172513331Y-69800500D01*
X172513347Y-69800501D01*
X172520943Y-69800501D01*
X172679054Y-69800501D01*
X172679057Y-69800501D01*
X172831785Y-69759577D01*
X172881904Y-69730639D01*
X172968716Y-69680520D01*
X173080520Y-69568716D01*
X173080520Y-69568714D01*
X173090728Y-69558507D01*
X173090729Y-69558504D01*
X174900520Y-67748716D01*
X174900520Y-67748714D01*
X174910720Y-67738515D01*
X174910723Y-67738510D01*
X175037822Y-67611412D01*
X175099142Y-67577930D01*
X175168834Y-67582914D01*
X175224767Y-67624786D01*
X175249184Y-67690250D01*
X175249500Y-67699096D01*
X175249500Y-68163330D01*
X175249499Y-68163348D01*
X175249499Y-68329054D01*
X175249498Y-68329054D01*
X175249499Y-68329057D01*
X175290423Y-68481785D01*
X175290424Y-68481787D01*
X175290423Y-68481787D01*
X175295516Y-68490607D01*
X175295517Y-68490608D01*
X175369477Y-68618712D01*
X175369481Y-68618717D01*
X175488349Y-68737585D01*
X175488355Y-68737590D01*
X176915139Y-70164374D01*
X176915149Y-70164385D01*
X176919479Y-70168715D01*
X176919480Y-70168716D01*
X177031284Y-70280520D01*
X177101088Y-70320821D01*
X177168215Y-70359577D01*
X177320943Y-70400501D01*
X177320946Y-70400501D01*
X177486653Y-70400501D01*
X177486669Y-70400500D01*
X183513331Y-70400500D01*
X183513347Y-70400501D01*
X183520943Y-70400501D01*
X183679054Y-70400501D01*
X183679057Y-70400501D01*
X183831785Y-70359577D01*
X183898912Y-70320821D01*
X183968716Y-70280520D01*
X184080520Y-70168716D01*
X184080520Y-70168714D01*
X184090724Y-70158511D01*
X184090728Y-70158506D01*
X184658506Y-69590728D01*
X184658511Y-69590724D01*
X184668714Y-69580520D01*
X184668716Y-69580520D01*
X184780520Y-69468716D01*
X184859577Y-69331784D01*
X184900500Y-69179057D01*
X184900500Y-68225718D01*
X184920185Y-68158679D01*
X184968207Y-68115233D01*
X185007815Y-68095052D01*
X185007815Y-68095051D01*
X185007816Y-68095051D01*
X185099193Y-68028661D01*
X185179786Y-67970109D01*
X185179788Y-67970106D01*
X185179792Y-67970104D01*
X185330104Y-67819792D01*
X185330106Y-67819788D01*
X185330109Y-67819786D01*
X185455048Y-67647820D01*
X185455050Y-67647817D01*
X185455051Y-67647816D01*
X185551557Y-67458412D01*
X185617246Y-67256243D01*
X185650500Y-67046287D01*
X185650500Y-66833713D01*
X185617246Y-66623757D01*
X185551557Y-66421588D01*
X185455051Y-66232184D01*
X185455049Y-66232181D01*
X185455048Y-66232179D01*
X185330109Y-66060213D01*
X185179786Y-65909890D01*
X185007820Y-65784951D01*
X184999600Y-65780763D01*
X184999054Y-65780485D01*
X184948259Y-65732512D01*
X184931463Y-65664692D01*
X184953999Y-65598556D01*
X184999054Y-65559515D01*
X185007816Y-65555051D01*
X185113845Y-65478017D01*
X185179786Y-65430109D01*
X185179788Y-65430106D01*
X185179792Y-65430104D01*
X185330104Y-65279792D01*
X185330106Y-65279788D01*
X185330109Y-65279786D01*
X185455048Y-65107820D01*
X185455047Y-65107820D01*
X185455051Y-65107816D01*
X185486975Y-65045160D01*
X185534949Y-64994365D01*
X185602770Y-64977570D01*
X185668905Y-65000107D01*
G37*
%TD.AperFunction*%
%TA.AperFunction,Conductor*%
G36*
X184268834Y-56082914D02*
G01*
X184324767Y-56124786D01*
X184349184Y-56190250D01*
X184349500Y-56199096D01*
X184349500Y-56637770D01*
X184329815Y-56704809D01*
X184313181Y-56725451D01*
X183717047Y-57321584D01*
X183717043Y-57321589D01*
X183674711Y-57384947D01*
X183674710Y-57384949D01*
X183634919Y-57444499D01*
X183634912Y-57444511D01*
X183578343Y-57581082D01*
X183578340Y-57581092D01*
X183549500Y-57726079D01*
X183549500Y-58132779D01*
X183529815Y-58199818D01*
X183498385Y-58233097D01*
X183420211Y-58289893D01*
X183306673Y-58403431D01*
X183245350Y-58436915D01*
X183175658Y-58431931D01*
X183119725Y-58390059D01*
X183102810Y-58359082D01*
X183053797Y-58227671D01*
X183053793Y-58227664D01*
X182967547Y-58112455D01*
X182967544Y-58112452D01*
X182852335Y-58026206D01*
X182852328Y-58026202D01*
X182717482Y-57975908D01*
X182717483Y-57975908D01*
X182657883Y-57969501D01*
X182657881Y-57969500D01*
X182657873Y-57969500D01*
X182657864Y-57969500D01*
X180862129Y-57969500D01*
X180862123Y-57969501D01*
X180802516Y-57975908D01*
X180667671Y-58026202D01*
X180667664Y-58026206D01*
X180552455Y-58112452D01*
X180552452Y-58112455D01*
X180466206Y-58227664D01*
X180466202Y-58227671D01*
X180415908Y-58362517D01*
X180409501Y-58422116D01*
X180409500Y-58422135D01*
X180409500Y-60217870D01*
X180409501Y-60217876D01*
X180415908Y-60277483D01*
X180466202Y-60412328D01*
X180466206Y-60412335D01*
X180552452Y-60527544D01*
X180552455Y-60527547D01*
X180667664Y-60613793D01*
X180667671Y-60613797D01*
X180799082Y-60662810D01*
X180855016Y-60704681D01*
X180879433Y-60770145D01*
X180864582Y-60838418D01*
X180843431Y-60866673D01*
X180729889Y-60980215D01*
X180604951Y-61152179D01*
X180508444Y-61341585D01*
X180442753Y-61543760D01*
X180409500Y-61753713D01*
X180409500Y-61966286D01*
X180429048Y-62089711D01*
X180442754Y-62176243D01*
X180500937Y-62355312D01*
X180508444Y-62378414D01*
X180604951Y-62567820D01*
X180729890Y-62739786D01*
X180880213Y-62890109D01*
X181052182Y-63015050D01*
X181060946Y-63019516D01*
X181111742Y-63067491D01*
X181128536Y-63135312D01*
X181105998Y-63201447D01*
X181060946Y-63240484D01*
X181052182Y-63244949D01*
X180880213Y-63369890D01*
X180729890Y-63520213D01*
X180604951Y-63692179D01*
X180508444Y-63881585D01*
X180442753Y-64083760D01*
X180425830Y-64190609D01*
X180409500Y-64293713D01*
X180409500Y-64506287D01*
X180442754Y-64716243D01*
X180501770Y-64897876D01*
X180508444Y-64918414D01*
X180604951Y-65107820D01*
X180729890Y-65279786D01*
X180880213Y-65430109D01*
X181052179Y-65555048D01*
X181052181Y-65555049D01*
X181052184Y-65555051D01*
X181061493Y-65559794D01*
X181112290Y-65607766D01*
X181129087Y-65675587D01*
X181106552Y-65741722D01*
X181061502Y-65780762D01*
X181052443Y-65785378D01*
X180880540Y-65910272D01*
X180880535Y-65910276D01*
X180730276Y-66060535D01*
X180730272Y-66060540D01*
X180605379Y-66232442D01*
X180508904Y-66421782D01*
X180443242Y-66623870D01*
X180443242Y-66623873D01*
X180432769Y-66690000D01*
X181326988Y-66690000D01*
X181294075Y-66747007D01*
X181260000Y-66874174D01*
X181260000Y-67005826D01*
X181294075Y-67132993D01*
X181326988Y-67190000D01*
X180432769Y-67190000D01*
X180443242Y-67256126D01*
X180443242Y-67256129D01*
X180508904Y-67458217D01*
X180605379Y-67647557D01*
X180730272Y-67819459D01*
X180730276Y-67819464D01*
X180880535Y-67969723D01*
X180880540Y-67969727D01*
X181052442Y-68094620D01*
X181241782Y-68191095D01*
X181443871Y-68256757D01*
X181510000Y-68267231D01*
X181510000Y-67373012D01*
X181567007Y-67405925D01*
X181694174Y-67440000D01*
X181825826Y-67440000D01*
X181952993Y-67405925D01*
X182010000Y-67373012D01*
X182010000Y-68267230D01*
X182076126Y-68256757D01*
X182076129Y-68256757D01*
X182278217Y-68191095D01*
X182467557Y-68094620D01*
X182639459Y-67969727D01*
X182639464Y-67969723D01*
X182789723Y-67819464D01*
X182789727Y-67819459D01*
X182914620Y-67647558D01*
X182919232Y-67638507D01*
X182967205Y-67587709D01*
X183035025Y-67570912D01*
X183101161Y-67593447D01*
X183140204Y-67638504D01*
X183144949Y-67647817D01*
X183269890Y-67819786D01*
X183420213Y-67970109D01*
X183592184Y-68095051D01*
X183592184Y-68095052D01*
X183631793Y-68115233D01*
X183682590Y-68163206D01*
X183699500Y-68225718D01*
X183699500Y-68799903D01*
X183679815Y-68866942D01*
X183663181Y-68887584D01*
X183387584Y-69163181D01*
X183326261Y-69196666D01*
X183299903Y-69199500D01*
X177700097Y-69199500D01*
X177633058Y-69179815D01*
X177612416Y-69163181D01*
X176486819Y-68037584D01*
X176453334Y-67976261D01*
X176450500Y-67949903D01*
X176450500Y-63524500D01*
X176470185Y-63457461D01*
X176522989Y-63411706D01*
X176574500Y-63400500D01*
X176678844Y-63400500D01*
X176678845Y-63400499D01*
X176833497Y-63369737D01*
X176979179Y-63309394D01*
X177110289Y-63221789D01*
X177221789Y-63110289D01*
X177309394Y-62979179D01*
X177369737Y-62833497D01*
X177400500Y-62678842D01*
X177400500Y-62521158D01*
X177400500Y-62521155D01*
X177400499Y-62521153D01*
X177388434Y-62460500D01*
X177369737Y-62366503D01*
X177360703Y-62344692D01*
X177309397Y-62220827D01*
X177309390Y-62220814D01*
X177221398Y-62089125D01*
X177200520Y-62022447D01*
X177200500Y-62020234D01*
X177200500Y-59500097D01*
X177220185Y-59433058D01*
X177236819Y-59412416D01*
X178459074Y-58190161D01*
X179780520Y-56868716D01*
X179859577Y-56731784D01*
X179870128Y-56692404D01*
X179906494Y-56632746D01*
X179969341Y-56602217D01*
X179989903Y-56600500D01*
X183313331Y-56600500D01*
X183313347Y-56600501D01*
X183320943Y-56600501D01*
X183479054Y-56600501D01*
X183479057Y-56600501D01*
X183631785Y-56559577D01*
X183698328Y-56521158D01*
X183703085Y-56518412D01*
X183768709Y-56480524D01*
X183768708Y-56480524D01*
X183768716Y-56480520D01*
X183880520Y-56368716D01*
X183880520Y-56368714D01*
X183890724Y-56358511D01*
X183890728Y-56358506D01*
X184137819Y-56111415D01*
X184199142Y-56077930D01*
X184268834Y-56082914D01*
G37*
%TD.AperFunction*%
%TA.AperFunction,Conductor*%
G36*
X170466942Y-58520185D02*
G01*
X170487584Y-58536819D01*
X172263181Y-60312416D01*
X172296666Y-60373739D01*
X172299500Y-60400097D01*
X172299500Y-62525500D01*
X172279815Y-62592539D01*
X172227011Y-62638294D01*
X172175501Y-62649500D01*
X172002130Y-62649500D01*
X172002123Y-62649501D01*
X171942516Y-62655908D01*
X171807671Y-62706202D01*
X171807664Y-62706206D01*
X171692455Y-62792452D01*
X171692452Y-62792455D01*
X171606206Y-62907664D01*
X171606202Y-62907671D01*
X171555908Y-63042517D01*
X171549537Y-63101782D01*
X171549501Y-63102123D01*
X171549500Y-63102135D01*
X171549500Y-64897870D01*
X171549501Y-64897876D01*
X171555908Y-64957483D01*
X171606202Y-65092328D01*
X171606206Y-65092335D01*
X171692452Y-65207544D01*
X171692455Y-65207547D01*
X171807664Y-65293793D01*
X171807671Y-65293797D01*
X171942517Y-65344091D01*
X171942516Y-65344091D01*
X171949444Y-65344835D01*
X172002127Y-65350500D01*
X173797872Y-65350499D01*
X173857483Y-65344091D01*
X173992331Y-65293796D01*
X174107546Y-65207546D01*
X174176234Y-65115789D01*
X174232167Y-65073920D01*
X174301859Y-65068936D01*
X174363182Y-65102421D01*
X174396666Y-65163745D01*
X174399500Y-65190102D01*
X174399500Y-65868059D01*
X174379815Y-65935098D01*
X174327011Y-65980853D01*
X174257853Y-65990797D01*
X174194297Y-65961772D01*
X174187819Y-65955740D01*
X174110292Y-65878213D01*
X174110288Y-65878210D01*
X173979185Y-65790609D01*
X173979172Y-65790602D01*
X173833501Y-65730264D01*
X173833489Y-65730261D01*
X173678845Y-65699500D01*
X173678842Y-65699500D01*
X173521158Y-65699500D01*
X173521155Y-65699500D01*
X173366510Y-65730261D01*
X173366498Y-65730264D01*
X173220827Y-65790602D01*
X173220814Y-65790609D01*
X173089711Y-65878210D01*
X173089707Y-65878213D01*
X172978213Y-65989707D01*
X172978210Y-65989711D01*
X172890609Y-66120814D01*
X172890602Y-66120827D01*
X172830264Y-66266498D01*
X172830261Y-66266510D01*
X172823661Y-66299691D01*
X172791276Y-66361602D01*
X172730561Y-66396176D01*
X172702044Y-66399500D01*
X171186670Y-66399500D01*
X171186654Y-66399499D01*
X171179058Y-66399499D01*
X171020943Y-66399499D01*
X170958877Y-66416130D01*
X170868214Y-66440423D01*
X170868209Y-66440426D01*
X170731290Y-66519475D01*
X170731282Y-66519481D01*
X169785339Y-67465425D01*
X169724016Y-67498910D01*
X169721850Y-67499361D01*
X169566508Y-67530261D01*
X169566498Y-67530264D01*
X169420827Y-67590602D01*
X169420814Y-67590609D01*
X169289711Y-67678210D01*
X169289707Y-67678213D01*
X169178213Y-67789707D01*
X169178210Y-67789711D01*
X169090609Y-67920814D01*
X169090602Y-67920827D01*
X169030264Y-68066498D01*
X169030261Y-68066510D01*
X168999500Y-68221153D01*
X168999500Y-68378846D01*
X169013914Y-68451309D01*
X169007687Y-68520900D01*
X168964824Y-68576078D01*
X168898934Y-68599322D01*
X168892297Y-68599500D01*
X161579766Y-68599500D01*
X161512727Y-68579815D01*
X161510875Y-68578602D01*
X161379185Y-68490609D01*
X161379172Y-68490602D01*
X161233501Y-68430264D01*
X161233489Y-68430261D01*
X161078845Y-68399500D01*
X161078842Y-68399500D01*
X160921158Y-68399500D01*
X160921155Y-68399500D01*
X160766510Y-68430261D01*
X160760676Y-68432031D01*
X160759873Y-68429385D01*
X160702056Y-68435396D01*
X160639687Y-68403902D01*
X160604245Y-68343689D01*
X160600500Y-68313444D01*
X160600500Y-65007702D01*
X160620185Y-64940663D01*
X160672989Y-64894908D01*
X160742147Y-64884964D01*
X160748667Y-64886080D01*
X160805435Y-64897372D01*
X160821157Y-64900500D01*
X160821158Y-64900500D01*
X160978844Y-64900500D01*
X160978845Y-64900499D01*
X161133497Y-64869737D01*
X161279179Y-64809394D01*
X161410289Y-64721789D01*
X161495260Y-64636817D01*
X161556581Y-64603334D01*
X161582940Y-64600500D01*
X167325501Y-64600500D01*
X167392540Y-64620185D01*
X167438295Y-64672989D01*
X167449501Y-64724500D01*
X167449501Y-64897876D01*
X167455908Y-64957483D01*
X167506202Y-65092328D01*
X167506206Y-65092335D01*
X167592452Y-65207544D01*
X167592455Y-65207547D01*
X167707664Y-65293793D01*
X167707671Y-65293797D01*
X167842517Y-65344091D01*
X167842516Y-65344091D01*
X167849444Y-65344835D01*
X167902127Y-65350500D01*
X169697872Y-65350499D01*
X169757483Y-65344091D01*
X169892331Y-65293796D01*
X170007546Y-65207546D01*
X170093796Y-65092331D01*
X170144091Y-64957483D01*
X170150500Y-64897873D01*
X170150499Y-63102128D01*
X170144091Y-63042517D01*
X170136045Y-63020945D01*
X170093797Y-62907671D01*
X170093793Y-62907664D01*
X170007547Y-62792455D01*
X170007544Y-62792452D01*
X169892335Y-62706206D01*
X169892328Y-62706202D01*
X169757482Y-62655908D01*
X169757483Y-62655908D01*
X169697883Y-62649501D01*
X169697881Y-62649500D01*
X169697873Y-62649500D01*
X169697864Y-62649500D01*
X167902129Y-62649500D01*
X167902123Y-62649501D01*
X167842516Y-62655908D01*
X167707671Y-62706202D01*
X167707664Y-62706206D01*
X167592455Y-62792452D01*
X167592452Y-62792455D01*
X167506206Y-62907664D01*
X167506202Y-62907671D01*
X167455908Y-63042517D01*
X167449537Y-63101782D01*
X167449501Y-63102123D01*
X167449500Y-63102135D01*
X167449500Y-63275500D01*
X167429815Y-63342539D01*
X167377011Y-63388294D01*
X167325500Y-63399500D01*
X161325316Y-63399500D01*
X161277864Y-63390061D01*
X161133501Y-63330264D01*
X161133489Y-63330261D01*
X160978845Y-63299500D01*
X160978842Y-63299500D01*
X160821158Y-63299500D01*
X160821155Y-63299500D01*
X160748691Y-63313914D01*
X160679100Y-63307687D01*
X160623922Y-63264824D01*
X160600678Y-63198934D01*
X160600500Y-63192297D01*
X160600500Y-60831941D01*
X160620185Y-60764902D01*
X160672989Y-60719147D01*
X160742147Y-60709203D01*
X160805703Y-60738228D01*
X160812181Y-60744260D01*
X160889707Y-60821786D01*
X160889711Y-60821789D01*
X161020814Y-60909390D01*
X161020827Y-60909397D01*
X161166498Y-60969735D01*
X161166503Y-60969737D01*
X161296982Y-60995691D01*
X161321153Y-61000499D01*
X161321156Y-61000500D01*
X161321158Y-61000500D01*
X161478844Y-61000500D01*
X161478845Y-61000499D01*
X161633497Y-60969737D01*
X161779179Y-60909394D01*
X161779185Y-60909390D01*
X161910875Y-60821398D01*
X161977553Y-60800520D01*
X161979766Y-60800500D01*
X166220234Y-60800500D01*
X166287273Y-60820185D01*
X166289125Y-60821398D01*
X166420814Y-60909390D01*
X166420827Y-60909397D01*
X166566498Y-60969735D01*
X166566503Y-60969737D01*
X166696982Y-60995691D01*
X166721153Y-61000499D01*
X166721156Y-61000500D01*
X166882152Y-61000500D01*
X166949191Y-61020185D01*
X166994946Y-61072989D01*
X167003769Y-61100308D01*
X167030261Y-61233491D01*
X167030264Y-61233501D01*
X167090602Y-61379172D01*
X167090609Y-61379185D01*
X167178210Y-61510288D01*
X167178213Y-61510292D01*
X167289707Y-61621786D01*
X167289711Y-61621789D01*
X167420814Y-61709390D01*
X167420827Y-61709397D01*
X167527817Y-61753713D01*
X167566503Y-61769737D01*
X167656090Y-61787557D01*
X167721153Y-61800499D01*
X167721156Y-61800500D01*
X167721158Y-61800500D01*
X167878844Y-61800500D01*
X167878845Y-61800499D01*
X168033497Y-61769737D01*
X168154829Y-61719480D01*
X168179172Y-61709397D01*
X168179172Y-61709396D01*
X168179179Y-61709394D01*
X168310289Y-61621789D01*
X168421789Y-61510289D01*
X168509394Y-61379179D01*
X168569737Y-61233497D01*
X168600500Y-61078842D01*
X168600500Y-60921158D01*
X168600500Y-60921155D01*
X168600499Y-60921153D01*
X168583061Y-60833489D01*
X168569737Y-60766503D01*
X168542392Y-60700486D01*
X168509397Y-60620827D01*
X168509390Y-60620814D01*
X168421398Y-60489125D01*
X168400520Y-60422447D01*
X168400500Y-60420234D01*
X168400500Y-59579765D01*
X168420185Y-59512726D01*
X168421398Y-59510874D01*
X168509390Y-59379185D01*
X168509390Y-59379184D01*
X168509394Y-59379179D01*
X168569737Y-59233497D01*
X168600500Y-59078842D01*
X168600500Y-58921158D01*
X168600500Y-58921155D01*
X168600499Y-58921153D01*
X168592781Y-58882351D01*
X168569737Y-58766503D01*
X168530572Y-58671951D01*
X168523104Y-58602483D01*
X168554379Y-58540004D01*
X168614468Y-58504352D01*
X168645134Y-58500500D01*
X170399903Y-58500500D01*
X170466942Y-58520185D01*
G37*
%TD.AperFunction*%
%TA.AperFunction,Conductor*%
G36*
X186350000Y-55993393D02*
G01*
X186369805Y-55989454D01*
X186369817Y-55989451D01*
X186538145Y-55919728D01*
X186538158Y-55919721D01*
X186689652Y-55818495D01*
X186689656Y-55818492D01*
X186818492Y-55689656D01*
X186818495Y-55689652D01*
X186919721Y-55538158D01*
X186919728Y-55538145D01*
X186960939Y-55438653D01*
X187004780Y-55384249D01*
X187071074Y-55362184D01*
X187138773Y-55379463D01*
X187186384Y-55430600D01*
X187199500Y-55486105D01*
X187199500Y-55913330D01*
X187199499Y-55913348D01*
X187199499Y-56079054D01*
X187199498Y-56079054D01*
X187240424Y-56231789D01*
X187240425Y-56231790D01*
X187261455Y-56268214D01*
X187261456Y-56268216D01*
X187319475Y-56368709D01*
X187319481Y-56368717D01*
X187438349Y-56487585D01*
X187438355Y-56487590D01*
X187565425Y-56614660D01*
X187598910Y-56675983D01*
X187599361Y-56678149D01*
X187630261Y-56833491D01*
X187630264Y-56833501D01*
X187690602Y-56979172D01*
X187690609Y-56979185D01*
X187778210Y-57110288D01*
X187778213Y-57110292D01*
X187889707Y-57221786D01*
X187889711Y-57221789D01*
X188020814Y-57309390D01*
X188020827Y-57309397D01*
X188132129Y-57355499D01*
X188166503Y-57369737D01*
X188260645Y-57388463D01*
X188300691Y-57396429D01*
X188362602Y-57428814D01*
X188397176Y-57489529D01*
X188400500Y-57518046D01*
X188400500Y-65355279D01*
X188380815Y-65422318D01*
X188328011Y-65468073D01*
X188258853Y-65478017D01*
X188229049Y-65469841D01*
X188171309Y-65445925D01*
X188133497Y-65430263D01*
X188133495Y-65430262D01*
X188133491Y-65430261D01*
X188000308Y-65403769D01*
X187938397Y-65371384D01*
X187903823Y-65310668D01*
X187900500Y-65282152D01*
X187900500Y-63020945D01*
X187900499Y-63020937D01*
X187898924Y-63015057D01*
X187898924Y-63015058D01*
X187874174Y-62922691D01*
X187859577Y-62868215D01*
X187820482Y-62800501D01*
X187780520Y-62731284D01*
X187668716Y-62619480D01*
X187668715Y-62619479D01*
X187664385Y-62615149D01*
X187664374Y-62615139D01*
X186887590Y-61838355D01*
X186887588Y-61838352D01*
X186768717Y-61719481D01*
X186768716Y-61719480D01*
X186681904Y-61669360D01*
X186681904Y-61669359D01*
X186681900Y-61669358D01*
X186631785Y-61640423D01*
X186479057Y-61599499D01*
X186479054Y-61599499D01*
X186400097Y-61599499D01*
X186333058Y-61579814D01*
X186312416Y-61563180D01*
X186128717Y-61379481D01*
X186128716Y-61379480D01*
X186041904Y-61329360D01*
X186041904Y-61329359D01*
X186041900Y-61329358D01*
X185991785Y-61300423D01*
X185839057Y-61259499D01*
X185680943Y-61259499D01*
X185673347Y-61259499D01*
X185673331Y-61259500D01*
X185585719Y-61259500D01*
X185518680Y-61239815D01*
X185475235Y-61191795D01*
X185455052Y-61152185D01*
X185455051Y-61152184D01*
X185330109Y-60980213D01*
X185179786Y-60829890D01*
X185007820Y-60704951D01*
X185007115Y-60704591D01*
X184999054Y-60700485D01*
X184948259Y-60652512D01*
X184931463Y-60584692D01*
X184953999Y-60518556D01*
X184999054Y-60479515D01*
X185007816Y-60475051D01*
X185094138Y-60412335D01*
X185179786Y-60350109D01*
X185179788Y-60350106D01*
X185179792Y-60350104D01*
X185330104Y-60199792D01*
X185330106Y-60199788D01*
X185330109Y-60199786D01*
X185455048Y-60027820D01*
X185455047Y-60027820D01*
X185455051Y-60027816D01*
X185551557Y-59838412D01*
X185617246Y-59636243D01*
X185650500Y-59426287D01*
X185650500Y-59213713D01*
X185617246Y-59003757D01*
X185551557Y-58801588D01*
X185455051Y-58612184D01*
X185455049Y-58612181D01*
X185455048Y-58612179D01*
X185330109Y-58440213D01*
X185179794Y-58289898D01*
X185179788Y-58289893D01*
X185118672Y-58245490D01*
X185076006Y-58190161D01*
X185070027Y-58120547D01*
X185102632Y-58058752D01*
X185103802Y-58057565D01*
X185682952Y-57478416D01*
X185738872Y-57394724D01*
X185765084Y-57355495D01*
X185821658Y-57218913D01*
X185833473Y-57159516D01*
X185850500Y-57073920D01*
X185850500Y-55680268D01*
X185870185Y-55613229D01*
X185871398Y-55611377D01*
X185892912Y-55579179D01*
X185920167Y-55538389D01*
X185989933Y-55369958D01*
X185998193Y-55328428D01*
X186050272Y-55350000D01*
X186149728Y-55350000D01*
X186241614Y-55311940D01*
X186311940Y-55241614D01*
X186350000Y-55149728D01*
X186350000Y-55993393D01*
G37*
%TD.AperFunction*%
%TA.AperFunction,Conductor*%
G36*
X172968834Y-50007759D02*
G01*
X173024767Y-50049631D01*
X173049184Y-50115095D01*
X173049500Y-50123941D01*
X173049500Y-51716000D01*
X173029815Y-51783039D01*
X172977011Y-51828794D01*
X172925500Y-51840000D01*
X172810000Y-51840000D01*
X172810000Y-52200753D01*
X172806677Y-52229265D01*
X172805909Y-52232515D01*
X172800714Y-52280836D01*
X172799500Y-52292127D01*
X172799500Y-53308153D01*
X172799501Y-53340000D01*
X172799501Y-54387876D01*
X172805908Y-54447484D01*
X172806674Y-54450721D01*
X172810000Y-54479246D01*
X172810000Y-54840000D01*
X172957828Y-54840000D01*
X172957844Y-54839999D01*
X173017372Y-54833598D01*
X173017375Y-54833597D01*
X173060949Y-54817345D01*
X173130640Y-54812359D01*
X173147611Y-54817342D01*
X173192517Y-54834091D01*
X173252127Y-54840500D01*
X173810903Y-54840499D01*
X173877942Y-54860183D01*
X173923697Y-54912987D01*
X173933641Y-54982146D01*
X173904616Y-55045702D01*
X173898584Y-55052180D01*
X173552805Y-55397958D01*
X173491482Y-55431443D01*
X173439885Y-55429372D01*
X173439472Y-55431451D01*
X173278845Y-55399500D01*
X173278842Y-55399500D01*
X173121158Y-55399500D01*
X173121155Y-55399500D01*
X172966510Y-55430261D01*
X172966498Y-55430264D01*
X172820827Y-55490602D01*
X172820814Y-55490609D01*
X172689711Y-55578210D01*
X172689707Y-55578213D01*
X172578213Y-55689707D01*
X172578210Y-55689711D01*
X172490609Y-55820814D01*
X172490602Y-55820827D01*
X172430264Y-55966498D01*
X172430261Y-55966510D01*
X172399500Y-56121153D01*
X172399500Y-56278846D01*
X172430261Y-56433489D01*
X172430264Y-56433501D01*
X172490602Y-56579172D01*
X172490609Y-56579185D01*
X172578210Y-56710288D01*
X172578213Y-56710292D01*
X172689707Y-56821786D01*
X172689711Y-56821789D01*
X172820814Y-56909390D01*
X172820827Y-56909397D01*
X172966498Y-56969735D01*
X172966503Y-56969737D01*
X173121153Y-57000499D01*
X173121156Y-57000500D01*
X173121158Y-57000500D01*
X173278844Y-57000500D01*
X173278845Y-57000499D01*
X173433497Y-56969737D01*
X173579179Y-56909394D01*
X173710289Y-56821789D01*
X173727304Y-56804772D01*
X173733822Y-56800385D01*
X173736530Y-56796429D01*
X173749797Y-56789632D01*
X173766760Y-56778214D01*
X173774631Y-56774890D01*
X173831785Y-56759577D01*
X173881904Y-56730639D01*
X173968716Y-56680520D01*
X174080520Y-56568716D01*
X174080520Y-56568714D01*
X174090728Y-56558507D01*
X174090729Y-56558504D01*
X174814662Y-55834572D01*
X174829127Y-55826357D01*
X174839313Y-55815468D01*
X174866746Y-55804992D01*
X174871952Y-55802036D01*
X174878028Y-55800500D01*
X174878842Y-55800500D01*
X175033497Y-55769737D01*
X175086381Y-55747831D01*
X175095111Y-55745625D01*
X175121379Y-55746623D01*
X175147515Y-55743814D01*
X175155739Y-55747930D01*
X175164930Y-55748280D01*
X175186488Y-55763321D01*
X175209995Y-55775088D01*
X175214688Y-55782997D01*
X175222230Y-55788260D01*
X175232233Y-55812568D01*
X175245648Y-55835177D01*
X175247453Y-55849553D01*
X175248820Y-55852873D01*
X175248257Y-55855950D01*
X175249500Y-55865844D01*
X175249500Y-58882351D01*
X175229815Y-58949390D01*
X175177011Y-58995145D01*
X175107853Y-59005089D01*
X175101310Y-59003969D01*
X175078842Y-58999500D01*
X174921158Y-58999500D01*
X174921155Y-58999500D01*
X174766510Y-59030261D01*
X174766498Y-59030264D01*
X174620827Y-59090602D01*
X174620814Y-59090609D01*
X174489711Y-59178210D01*
X174489707Y-59178213D01*
X174378213Y-59289707D01*
X174378210Y-59289711D01*
X174290609Y-59420814D01*
X174290602Y-59420827D01*
X174230264Y-59566498D01*
X174230262Y-59566504D01*
X174223337Y-59601318D01*
X174190950Y-59663228D01*
X174130233Y-59697800D01*
X174060464Y-59694059D01*
X174014039Y-59664804D01*
X172398490Y-58049255D01*
X172366396Y-57993668D01*
X172359577Y-57968216D01*
X172281037Y-57832179D01*
X172280524Y-57831290D01*
X172280518Y-57831282D01*
X172096819Y-57647583D01*
X172063334Y-57586260D01*
X172060500Y-57559902D01*
X172060500Y-54964000D01*
X172080185Y-54896961D01*
X172132989Y-54851206D01*
X172184500Y-54840000D01*
X172310000Y-54840000D01*
X172310000Y-54399167D01*
X172310427Y-54391188D01*
X172310322Y-54391183D01*
X172310497Y-54387898D01*
X172310500Y-54387873D01*
X172310499Y-52292128D01*
X172310498Y-52292127D01*
X172310321Y-52288804D01*
X172310426Y-52288798D01*
X172310000Y-52280836D01*
X172310000Y-51840000D01*
X172184500Y-51840000D01*
X172117461Y-51820315D01*
X172071706Y-51767511D01*
X172060500Y-51716000D01*
X172060500Y-50454500D01*
X172080185Y-50387461D01*
X172132989Y-50341706D01*
X172184500Y-50330500D01*
X172290844Y-50330500D01*
X172290845Y-50330499D01*
X172445497Y-50299737D01*
X172591179Y-50239394D01*
X172722289Y-50151789D01*
X172758983Y-50115095D01*
X172837819Y-50036260D01*
X172899142Y-50002775D01*
X172968834Y-50007759D01*
G37*
%TD.AperFunction*%
%TA.AperFunction,Conductor*%
G36*
X184678883Y-47164787D02*
G01*
X184694088Y-47164136D01*
X184711726Y-47174431D01*
X184731320Y-47180185D01*
X184742216Y-47192228D01*
X184754430Y-47199358D01*
X184774765Y-47228205D01*
X184794947Y-47267814D01*
X184794948Y-47267815D01*
X184919890Y-47439786D01*
X185070213Y-47590109D01*
X185242182Y-47715050D01*
X185250946Y-47719516D01*
X185301742Y-47767491D01*
X185318536Y-47835312D01*
X185295998Y-47901447D01*
X185250946Y-47940484D01*
X185242182Y-47944949D01*
X185070213Y-48069890D01*
X184919890Y-48220213D01*
X184794951Y-48392179D01*
X184698444Y-48581585D01*
X184698443Y-48581587D01*
X184698443Y-48581588D01*
X184686131Y-48619479D01*
X184632753Y-48783760D01*
X184599500Y-48993713D01*
X184599500Y-49206287D01*
X184603298Y-49230264D01*
X184631781Y-49410104D01*
X184632754Y-49416243D01*
X184685381Y-49578213D01*
X184698444Y-49618414D01*
X184794951Y-49807820D01*
X184919890Y-49979786D01*
X185033818Y-50093714D01*
X185067303Y-50155037D01*
X185062319Y-50224729D01*
X185020447Y-50280662D01*
X184989471Y-50297577D01*
X184857912Y-50346646D01*
X184857906Y-50346649D01*
X184742812Y-50432809D01*
X184742809Y-50432812D01*
X184656649Y-50547906D01*
X184656645Y-50547913D01*
X184606403Y-50682620D01*
X184606401Y-50682627D01*
X184600000Y-50742155D01*
X184600000Y-51390000D01*
X185516988Y-51390000D01*
X185484075Y-51447007D01*
X185450000Y-51574174D01*
X185450000Y-51705826D01*
X185484075Y-51832993D01*
X185516988Y-51890000D01*
X184600000Y-51890000D01*
X184600000Y-52537844D01*
X184606401Y-52597372D01*
X184606403Y-52597379D01*
X184656645Y-52732086D01*
X184656649Y-52732093D01*
X184742809Y-52847187D01*
X184742812Y-52847190D01*
X184857906Y-52933350D01*
X184857913Y-52933354D01*
X184992620Y-52983596D01*
X184992627Y-52983598D01*
X185052155Y-52989999D01*
X185052172Y-52990000D01*
X185700000Y-52990000D01*
X185700000Y-52073012D01*
X185757007Y-52105925D01*
X185884174Y-52140000D01*
X186015826Y-52140000D01*
X186142993Y-52105925D01*
X186200000Y-52073012D01*
X186200000Y-52990000D01*
X186847828Y-52990000D01*
X186847844Y-52989999D01*
X186907372Y-52983598D01*
X186907379Y-52983596D01*
X187032167Y-52937054D01*
X187101858Y-52932070D01*
X187163182Y-52965555D01*
X187196666Y-53026878D01*
X187199500Y-53053236D01*
X187199500Y-54713894D01*
X187179815Y-54780933D01*
X187127011Y-54826688D01*
X187057853Y-54836632D01*
X186994297Y-54807607D01*
X186960939Y-54761347D01*
X186919726Y-54661850D01*
X186919721Y-54661841D01*
X186818495Y-54510347D01*
X186818492Y-54510343D01*
X186689656Y-54381507D01*
X186689652Y-54381504D01*
X186538158Y-54280278D01*
X186538149Y-54280273D01*
X186369812Y-54210546D01*
X186350000Y-54206604D01*
X186350000Y-55050272D01*
X186311940Y-54958386D01*
X186241614Y-54888060D01*
X186149728Y-54850000D01*
X186050272Y-54850000D01*
X185998193Y-54871571D01*
X185989934Y-54830047D01*
X185989933Y-54830046D01*
X185989933Y-54830042D01*
X185988544Y-54826688D01*
X185920169Y-54661614D01*
X185870897Y-54587873D01*
X185850020Y-54521196D01*
X185850000Y-54518983D01*
X185850000Y-54206605D01*
X185849999Y-54206604D01*
X185830187Y-54210546D01*
X185661839Y-54280278D01*
X185658972Y-54281811D01*
X185657300Y-54282158D01*
X185656221Y-54282606D01*
X185656136Y-54282401D01*
X185590568Y-54296045D01*
X185542086Y-54281808D01*
X185538390Y-54279833D01*
X185369962Y-54210068D01*
X185369952Y-54210065D01*
X185191156Y-54174500D01*
X185191154Y-54174500D01*
X185008846Y-54174500D01*
X185008843Y-54174500D01*
X184941014Y-54187992D01*
X184871423Y-54181765D01*
X184816245Y-54138902D01*
X184793001Y-54073012D01*
X184795205Y-54042187D01*
X184824029Y-53897284D01*
X184824029Y-53739600D01*
X184824029Y-53739597D01*
X184824028Y-53739595D01*
X184819381Y-53716231D01*
X184793266Y-53584945D01*
X184783863Y-53562243D01*
X184732926Y-53439269D01*
X184732919Y-53439256D01*
X184645318Y-53308153D01*
X184645315Y-53308149D01*
X184533821Y-53196655D01*
X184533817Y-53196652D01*
X184402714Y-53109051D01*
X184402701Y-53109044D01*
X184257030Y-53048706D01*
X184257018Y-53048703D01*
X184102374Y-53017942D01*
X184102371Y-53017942D01*
X183944687Y-53017942D01*
X183944684Y-53017942D01*
X183790040Y-53048702D01*
X183790030Y-53048705D01*
X183785549Y-53050562D01*
X183738099Y-53060000D01*
X182990000Y-53060000D01*
X182990000Y-53951373D01*
X182970315Y-54018412D01*
X182953681Y-54039054D01*
X182766612Y-54226122D01*
X182760360Y-54230349D01*
X182757799Y-54234127D01*
X182730653Y-54250437D01*
X182727646Y-54252471D01*
X182726948Y-54252768D01*
X182661611Y-54279833D01*
X182658086Y-54282187D01*
X182648714Y-54286192D01*
X182619162Y-54289699D01*
X182590039Y-54295761D01*
X182583724Y-54293906D01*
X182579332Y-54294428D01*
X182569955Y-54289863D01*
X182541547Y-54281521D01*
X182534589Y-54277802D01*
X182505359Y-54256123D01*
X182464397Y-54215160D01*
X182464374Y-54215139D01*
X182462298Y-54213063D01*
X182428813Y-54151740D01*
X182433797Y-54082048D01*
X182462298Y-54037700D01*
X182490000Y-54009998D01*
X182490000Y-53060000D01*
X181350000Y-53060000D01*
X181350000Y-53557841D01*
X181350474Y-53562243D01*
X181338070Y-53631003D01*
X181290460Y-53682141D01*
X181227185Y-53699500D01*
X179014499Y-53699500D01*
X178947460Y-53679815D01*
X178901705Y-53627011D01*
X178890499Y-53575500D01*
X178890499Y-52292129D01*
X178890498Y-52292123D01*
X178890497Y-52292116D01*
X178884091Y-52232517D01*
X178884090Y-52232515D01*
X178835480Y-52102184D01*
X178835479Y-52102183D01*
X178833796Y-52097669D01*
X178833794Y-52097666D01*
X178833793Y-52097664D01*
X178807211Y-52062155D01*
X181350000Y-52062155D01*
X181350000Y-52560000D01*
X182490000Y-52560000D01*
X182990000Y-52560000D01*
X184130000Y-52560000D01*
X184130000Y-52062172D01*
X184129999Y-52062155D01*
X184123598Y-52002627D01*
X184123597Y-52002623D01*
X184078597Y-51881972D01*
X184078596Y-51881971D01*
X184078596Y-51881969D01*
X184073353Y-51867911D01*
X184073350Y-51867906D01*
X183987190Y-51752812D01*
X183987187Y-51752809D01*
X183872093Y-51666649D01*
X183872086Y-51666645D01*
X183737379Y-51616403D01*
X183737372Y-51616401D01*
X183677844Y-51610000D01*
X182990000Y-51610000D01*
X182990000Y-52560000D01*
X182490000Y-52560000D01*
X182490000Y-51610000D01*
X181802155Y-51610000D01*
X181742627Y-51616401D01*
X181742620Y-51616403D01*
X181607913Y-51666645D01*
X181607906Y-51666649D01*
X181492812Y-51752809D01*
X181492809Y-51752812D01*
X181406649Y-51867906D01*
X181406645Y-51867913D01*
X181356403Y-52002620D01*
X181356401Y-52002627D01*
X181350000Y-52062155D01*
X178807211Y-52062155D01*
X178747547Y-51982455D01*
X178747544Y-51982452D01*
X178632335Y-51896206D01*
X178632328Y-51896202D01*
X178497482Y-51845908D01*
X178497483Y-51845908D01*
X178437883Y-51839501D01*
X178437881Y-51839500D01*
X178437873Y-51839500D01*
X178437865Y-51839500D01*
X177674500Y-51839500D01*
X177665814Y-51836949D01*
X177656853Y-51838238D01*
X177632812Y-51827259D01*
X177607461Y-51819815D01*
X177601533Y-51812974D01*
X177593297Y-51809213D01*
X177579007Y-51786978D01*
X177561706Y-51767011D01*
X177559418Y-51756496D01*
X177555523Y-51750435D01*
X177550500Y-51715500D01*
X177550500Y-51550097D01*
X177570185Y-51483058D01*
X177586819Y-51462416D01*
X177720178Y-51329057D01*
X178014662Y-51034572D01*
X178075983Y-51001089D01*
X178078150Y-51000638D01*
X178136085Y-50989113D01*
X178233497Y-50969737D01*
X178379179Y-50909394D01*
X178510289Y-50821789D01*
X178621789Y-50710289D01*
X178709394Y-50579179D01*
X178769737Y-50433497D01*
X178800500Y-50278842D01*
X178800500Y-50121158D01*
X178800500Y-50121155D01*
X178800499Y-50121153D01*
X178781312Y-50024691D01*
X178787539Y-49955100D01*
X178830402Y-49899922D01*
X178896292Y-49876678D01*
X178902929Y-49876500D01*
X180663331Y-49876500D01*
X180663347Y-49876501D01*
X180670943Y-49876501D01*
X180829054Y-49876501D01*
X180829057Y-49876501D01*
X180981785Y-49835577D01*
X180981787Y-49835575D01*
X180981789Y-49835575D01*
X180981790Y-49835574D01*
X181032640Y-49806216D01*
X181032641Y-49806215D01*
X181118716Y-49756520D01*
X181230520Y-49644716D01*
X181230520Y-49644714D01*
X181240724Y-49634511D01*
X181240727Y-49634506D01*
X183678416Y-47196819D01*
X183739739Y-47163334D01*
X183766097Y-47160500D01*
X184664281Y-47160500D01*
X184678883Y-47164787D01*
G37*
%TD.AperFunction*%
%TD*%
M02*
