M48
; DRILL file {KiCad 9.0.0} date 2025-04-17T10:48:14-0400
; FORMAT={-:-/ absolute / inch / decimal}
; #@! TF.CreationDate,2025-04-17T10:48:14-04:00
; #@! TF.GenerationSoftware,Kicad,Pcbnew,9.0.0
; #@! TF.FileFunction,Plated,1,2,PTH
FMAT,2
INCH
; #@! TA.AperFunction,Plated,PTH,ViaDrill
T1C0.0118
; #@! TA.AperFunction,Plated,PTH,ComponentDrill
T2C0.0197
; #@! TA.AperFunction,Plated,PTH,ComponentDrill
T3C0.0394
%
G90
G05
T1
X5.3071Y-3.0787
X5.3543Y-3.2047
X5.4134Y-1.6024
X5.4134Y-2.7992
X5.4173Y-3.1732
X5.4528Y-1.6965
X5.4567Y-1.6457
X5.4724Y-2.5512
X5.4724Y-2.7362
X5.4724Y-3.2992
X5.5039Y-2.5906
X5.5039Y-2.6457
X5.5433Y-2.9606
X5.5748Y-3.2205
X5.5906Y-2.9213
X5.5906Y-2.9764
X5.7717Y-2.7323
X5.7717Y-2.8346
X5.7717Y-2.9567
X5.7835Y-2.0236
X5.8268Y-3.2913
X6.1417Y-2.3858
X6.1535Y-2.0472
X6.1575Y-1.9685
X6.1575Y-3.2756
X6.1732Y-3.0157
X6.1732Y-3.3701
X6.185Y-1.5787
X6.189Y-2.8031
X6.2362Y-1.9764
X6.2598Y-2.3701
X6.2913Y-3.2795
X6.2953Y-1.8248
X6.3307Y-2.1732
X6.3346Y-2.5236
X6.3386Y-2.7244
X6.3543Y-2.3701
X6.5453Y-1.8248
X6.5512Y-3.2362
X6.5669Y-1.6969
X6.5669Y-2.3701
X6.5827Y-2.2795
X6.5827Y-3.4882
X6.6024Y-3.1614
X6.6063Y-2.3228
X6.6063Y-2.4016
X6.6102Y-2.1614
X6.6142Y-1.7598
X6.6299Y-2.7795
X6.6535Y-2.4252
X6.6614Y-2.1732
X6.685Y-2.689
X6.6929Y-2.4252
X6.6929Y-2.9134
X6.7Y-1.8642
X6.71Y-1.77
X6.71Y-1.9114
X6.7165Y-3.2598
X6.7165Y-3.5197
X6.7244Y-2.0079
X6.7283Y-1.8504
X6.7323Y-2.7953
X6.7559Y-2.4173
X6.7559Y-3.5906
X6.774Y-2.0409
X6.78Y-1.95
X6.7874Y-2.1772
X6.8189Y-2.2126
X6.8268Y-1.8701
X6.8346Y-2.2638
X6.8346Y-2.6181
X6.8465Y-2.3346
X6.8622Y-2.4016
X6.878Y-2.7638
X6.8819Y-2.1654
X6.8898Y-2.3543
X6.8937Y-2.1969
X6.8976Y-1.5512
X6.9213Y-3.1181
X6.93Y-1.95
X6.9528Y-2.4646
X6.9882Y-2.1732
X7.0Y-1.94
X7.0079Y-1.9764
X7.0118Y-2.0276
X7.0394Y-3.189
X7.0394Y-3.2598
X7.0551Y-2.1772
X7.063Y-2.0945
X7.0748Y-1.9016
X7.0906Y-2.0197
X7.16Y-1.67
X7.1614Y-1.5984
X7.245Y-2.1188
X7.249Y-1.562
X7.3228Y-3.2677
X7.3425Y-2.5551
X7.3701Y-2.7835
X7.3976Y-2.6063
X7.4173Y-2.2283
X7.4173Y-3.0669
X7.4409Y-1.8071
T2
X7.1299Y-2.1693
X7.1693Y-2.1693
X7.2087Y-2.1693
X7.248Y-2.1693
X7.2874Y-2.1693
X7.3268Y-2.1693
T3
X5.0984Y-1.6047
X5.0984Y-1.7047
X5.0984Y-1.8047
X5.0984Y-1.9047
X5.0984Y-2.0047
X5.0984Y-2.1047
X5.0984Y-2.2047
X5.0984Y-2.3047
X5.0984Y-2.4047
X5.0984Y-2.5047
X5.0984Y-2.863
X5.0984Y-2.963
X5.0984Y-3.063
X5.0984Y-3.163
X5.0984Y-3.263
X5.0984Y-3.363
X5.0984Y-3.463
X5.0984Y-3.563
X5.0984Y-3.663
X5.0984Y-3.763
X5.3134Y-2.6362
X5.3134Y-2.7362
X5.4134Y-2.6362
X5.4134Y-2.7362
X5.6283Y-3.6417
X5.6283Y-3.7417
X5.7283Y-3.6417
X5.7283Y-3.7417
X6.6457Y-2.5197
X6.726Y-1.6827
X6.7898Y-2.9118
X6.7898Y-3.0118
X6.8071Y-2.5197
X6.8898Y-2.9118
X6.8898Y-3.0118
X7.0409Y-1.6831
X7.1441Y-2.9118
X7.1441Y-3.0118
X7.1559Y-2.3354
X7.1559Y-2.4354
X7.1559Y-2.5354
X7.1559Y-2.6354
X7.2441Y-2.9118
X7.2441Y-3.0118
X7.2559Y-2.3354
X7.2559Y-2.4354
X7.2559Y-2.5354
X7.2559Y-2.6354
X7.3209Y-1.8331
X7.3209Y-1.9331
X7.3209Y-2.0331
M30
