%TF.GenerationSoftware,KiCad,Pcbnew,9.0.3*%
%TF.CreationDate,2025-08-19T17:15:27-04:00*%
%TF.ProjectId,PicoTag,5069636f-5461-4672-9e6b-696361645f70,rev?*%
%TF.SameCoordinates,Original*%
%TF.FileFunction,Copper,L2,Bot*%
%TF.FilePolarity,Positive*%
%FSLAX46Y46*%
G04 Gerber Fmt 4.6, Leading zero omitted, Abs format (unit mm)*
G04 Created by KiCad (PCBNEW 9.0.3) date 2025-08-19 17:15:27*
%MOMM*%
%LPD*%
G01*
G04 APERTURE LIST*
%TA.AperFunction,SMDPad,CuDef*%
%ADD10R,1.780000X1.400000*%
%TD*%
%TA.AperFunction,SMDPad,CuDef*%
%ADD11R,1.270000X2.290000*%
%TD*%
%TA.AperFunction,SMDPad,CuDef*%
%ADD12R,1.200000X1.400000*%
%TD*%
%TA.AperFunction,SMDPad,CuDef*%
%ADD13R,0.700000X2.000000*%
%TD*%
%TA.AperFunction,ComponentPad*%
%ADD14C,1.000000*%
%TD*%
%TA.AperFunction,ComponentPad*%
%ADD15R,1.700000X1.700000*%
%TD*%
%TA.AperFunction,ComponentPad*%
%ADD16O,1.700000X1.700000*%
%TD*%
%TA.AperFunction,ComponentPad*%
%ADD17R,0.850000X0.850000*%
%TD*%
%TA.AperFunction,ComponentPad*%
%ADD18O,0.850000X0.850000*%
%TD*%
%TA.AperFunction,ViaPad*%
%ADD19C,0.600000*%
%TD*%
%TA.AperFunction,Conductor*%
%ADD20C,0.200000*%
%TD*%
%TA.AperFunction,Conductor*%
%ADD21C,0.250000*%
%TD*%
%TA.AperFunction,Conductor*%
%ADD22C,0.500000*%
%TD*%
G04 APERTURE END LIST*
D10*
%TO.P,Card1,13,GND*%
%TO.N,GND*%
X186300000Y-52820000D03*
D11*
%TO.P,Card1,12,GND*%
X187060000Y-43170000D03*
%TO.P,Card1,11,GND*%
X171570000Y-43160000D03*
D12*
%TO.P,Card1,10,GND*%
X171540000Y-52820000D03*
D13*
%TO.P,Card1,9,CD*%
%TO.N,MMC_CD*%
X172820000Y-53360000D03*
%TO.P,Card1,8,DAT1(RSV)*%
%TO.N,unconnected-(Card1-DAT1(RSV)-Pad8)*%
X173920000Y-53350000D03*
%TO.P,Card1,7,DAT0(D0)*%
%TO.N,SPI_MISO*%
X175020000Y-53350000D03*
%TO.P,Card1,6,VSS*%
%TO.N,GND*%
X176120000Y-53350000D03*
%TO.P,Card1,5,CLK(SCLK)*%
%TO.N,SPI_CLK*%
X177210000Y-53350000D03*
%TO.P,Card1,4,VDD*%
%TO.N,3V3*%
X178310000Y-53350000D03*
%TO.P,Card1,3,CMD(DI)*%
%TO.N,SPI_MOSI*%
X179410000Y-53350000D03*
%TO.P,Card1,2,CDDAT3(CS)*%
%TO.N,MMC_CS*%
X180510000Y-53350000D03*
%TO.P,Card1,1,DAT2(RSV)*%
%TO.N,unconnected-(Card1-DAT2(RSV)-Pad1)*%
X181600000Y-53350000D03*
D14*
%TO.P,Card1,*%
%TO.N,*%
X182400000Y-42760000D03*
X174400000Y-42750000D03*
%TD*%
D15*
%TO.P,J4,1,Pin_1*%
%TO.N,GND*%
X185950000Y-51640000D03*
D16*
%TO.P,J4,2,Pin_2*%
%TO.N,{slash}WP*%
X185950000Y-49100000D03*
%TO.P,J4,3,Pin_3*%
%TO.N,3V3*%
X185950000Y-46560000D03*
%TD*%
D17*
%TO.P,J11,1,Pin_1*%
%TO.N,SPI_MISO*%
X181100000Y-55100000D03*
D18*
%TO.P,J11,2,Pin_2*%
%TO.N,SPI_MOSI*%
X182100000Y-55100000D03*
%TO.P,J11,3,Pin_3*%
%TO.N,SPI_CLK*%
X183100000Y-55100000D03*
%TO.P,J11,4,Pin_4*%
%TO.N,EXT_SPI_CS*%
X184100000Y-55100000D03*
%TO.P,J11,5,Pin_5*%
%TO.N,3V3*%
X185100000Y-55100000D03*
%TO.P,J11,6,Pin_6*%
%TO.N,GND*%
X186100000Y-55100000D03*
%TD*%
D15*
%TO.P,J8,1,Pin_1*%
%TO.N,3V3*%
X134960000Y-66960000D03*
D16*
%TO.P,J8,2,Pin_2*%
X137500000Y-66960000D03*
%TO.P,J8,3,Pin_3*%
%TO.N,GND*%
X134960000Y-69500000D03*
%TO.P,J8,4,Pin_4*%
X137500000Y-69500000D03*
%TD*%
D15*
%TO.P,J7,1,Pin_1*%
%TO.N,3V3*%
X172460000Y-73960000D03*
D16*
%TO.P,J7,2,Pin_2*%
X175000000Y-73960000D03*
%TO.P,J7,3,Pin_3*%
X172460000Y-76500000D03*
%TO.P,J7,4,Pin_4*%
X175000000Y-76500000D03*
%TD*%
D15*
%TO.P,J2,1,Pin_1*%
%TO.N,CH1*%
X129500000Y-40760000D03*
D16*
%TO.P,J2,2,Pin_2*%
%TO.N,CH2*%
X129500000Y-43300000D03*
%TO.P,J2,3,Pin_3*%
%TO.N,CH3*%
X129500000Y-45840000D03*
%TO.P,J2,4,Pin_4*%
%TO.N,CH4*%
X129500000Y-48380000D03*
%TO.P,J2,5,Pin_5*%
%TO.N,CH5*%
X129500000Y-50920000D03*
%TO.P,J2,6,Pin_6*%
%TO.N,CH6*%
X129500000Y-53460000D03*
%TO.P,J2,7,Pin_7*%
%TO.N,CH7*%
X129500000Y-56000000D03*
%TO.P,J2,8,Pin_8*%
%TO.N,CH8*%
X129500000Y-58540000D03*
%TO.P,J2,9,Pin_9*%
%TO.N,GND*%
X129500000Y-61080000D03*
%TO.P,J2,10,Pin_10*%
X129500000Y-63620000D03*
%TD*%
D15*
%TO.P,J1,1,Pin_1*%
%TO.N,CH9*%
X129500000Y-72720000D03*
D16*
%TO.P,J1,2,Pin_2*%
%TO.N,CH10*%
X129500000Y-75260000D03*
%TO.P,J1,3,Pin_3*%
%TO.N,CH11*%
X129500000Y-77800000D03*
%TO.P,J1,4,Pin_4*%
%TO.N,CH12*%
X129500000Y-80340000D03*
%TO.P,J1,5,Pin_5*%
%TO.N,CH13*%
X129500000Y-82880000D03*
%TO.P,J1,6,Pin_6*%
%TO.N,CH14*%
X129500000Y-85420000D03*
%TO.P,J1,7,Pin_7*%
%TO.N,CH15*%
X129500000Y-87960000D03*
%TO.P,J1,8,Pin_8*%
%TO.N,CH16*%
X129500000Y-90500000D03*
%TO.P,J1,9,Pin_9*%
%TO.N,GND*%
X129500000Y-93040000D03*
%TO.P,J1,10,Pin_10*%
X129500000Y-95580000D03*
%TD*%
D15*
%TO.P,J6,1,Pin_1*%
%TO.N,GND*%
X181460000Y-73960000D03*
D16*
%TO.P,J6,2,Pin_2*%
X184000000Y-73960000D03*
%TO.P,J6,3,Pin_3*%
X181460000Y-76500000D03*
%TO.P,J6,4,Pin_4*%
X184000000Y-76500000D03*
%TD*%
D15*
%TO.P,J3,1,Pin_1*%
%TO.N,FLASH_CS*%
X181760000Y-59320000D03*
D16*
%TO.P,J3,2,Pin_2*%
%TO.N,3V3*%
X184300000Y-59320000D03*
%TO.P,J3,3,Pin_3*%
%TO.N,SPI_MISO*%
X181760000Y-61860000D03*
%TO.P,J3,4,Pin_4*%
%TO.N,3V3*%
X184300000Y-61860000D03*
%TO.P,J3,5,Pin_5*%
%TO.N,{slash}WP*%
X181760000Y-64400000D03*
%TO.P,J3,6,Pin_6*%
%TO.N,SPI_CLK*%
X184300000Y-64400000D03*
%TO.P,J3,7,Pin_7*%
%TO.N,GND*%
X181760000Y-66940000D03*
%TO.P,J3,8,Pin_8*%
%TO.N,SPI_MOSI*%
X184300000Y-66940000D03*
%TD*%
D15*
%TO.P,J9,1,Pin_1*%
%TO.N,+5V*%
X142960000Y-92500000D03*
D16*
%TO.P,J9,2,Pin_2*%
X145500000Y-92500000D03*
%TO.P,J9,3,Pin_3*%
X142960000Y-95040000D03*
%TO.P,J9,4,Pin_4*%
X145500000Y-95040000D03*
%TD*%
D19*
%TO.N,GND*%
X167950000Y-83800000D03*
X176800000Y-40950000D03*
X175900000Y-44850000D03*
%TO.N,*%
X189400000Y-28550000D03*
X210450000Y-33600000D03*
X208200000Y-21550000D03*
%TO.N,GND*%
X171900000Y-68100000D03*
X175099000Y-64600000D03*
X175000000Y-67700000D03*
X173600000Y-61800000D03*
X187900000Y-48650000D03*
X187550000Y-47500000D03*
X161100000Y-80750000D03*
X161050000Y-78550000D03*
X161050000Y-76650000D03*
X167600000Y-75800000D03*
X167400000Y-72550000D03*
X169650000Y-53250000D03*
%TO.N,SPI_MOSI*%
X178700000Y-56750000D03*
%TO.N,3V3*%
X181953215Y-41398231D03*
%TO.N,GND*%
X173900000Y-59300000D03*
X175250000Y-55300000D03*
X171600000Y-61400000D03*
X176508027Y-54917024D03*
%TO.N,SPI_MOSI*%
X181000000Y-50400000D03*
X179750000Y-51500000D03*
X182750000Y-52850000D03*
%TO.N,3V3*%
X176022000Y-49530000D03*
X170600000Y-82800000D03*
X158400000Y-50200000D03*
X177800000Y-49276000D03*
X138500000Y-43090000D03*
X156400000Y-50000000D03*
X178800000Y-81000000D03*
X178350000Y-54700000D03*
X176866116Y-56000001D03*
X187900000Y-66200000D03*
X173640264Y-55030320D03*
X173200000Y-56200000D03*
X138600000Y-41800000D03*
X171000000Y-71000000D03*
X178800000Y-82800000D03*
%TO.N,{slash}WP*%
X188400000Y-56600000D03*
%TO.N,SPI_CLK*%
X173600000Y-66500000D03*
X187200000Y-70700000D03*
X184023529Y-53818442D03*
X176600000Y-62600000D03*
X169800000Y-68300000D03*
X168400000Y-70600000D03*
X167700000Y-80300000D03*
X186500000Y-64900000D03*
X179200000Y-55300000D03*
%TO.N,GND*%
X168000000Y-44700000D03*
X172850000Y-57400000D03*
X139800000Y-67200000D03*
X137500000Y-40700000D03*
X170800000Y-51000000D03*
X157100000Y-40100000D03*
X139000000Y-69500000D03*
X170000000Y-74000000D03*
X167900000Y-54900000D03*
X142000000Y-74200000D03*
X146900000Y-51400000D03*
X170434000Y-44958000D03*
X142000000Y-75600000D03*
X170000000Y-61600000D03*
X141600000Y-81800000D03*
X156300000Y-52000000D03*
X166800000Y-43100000D03*
X139800000Y-65800000D03*
X169000000Y-61600000D03*
X146600000Y-69400000D03*
X166150000Y-47900000D03*
X175800000Y-79200000D03*
X171600000Y-91200000D03*
X140800000Y-75200000D03*
X181900000Y-40600000D03*
X146600000Y-72000000D03*
X146600000Y-75100000D03*
X137500000Y-71100000D03*
X172060000Y-51839998D03*
X174700000Y-70200000D03*
X139000000Y-64800000D03*
%TO.N,FLASH_CS*%
X170180000Y-47350000D03*
X175000000Y-59800000D03*
X170434000Y-48550000D03*
X161000000Y-69200000D03*
%TO.N,MMC_CD*%
X172060000Y-50350000D03*
X169200000Y-55200000D03*
X167800000Y-59000000D03*
X167800000Y-61000000D03*
X170860000Y-50150000D03*
%TO.N,MMC_CS*%
X166250000Y-46350000D03*
X179750000Y-50200000D03*
X159900000Y-46350000D03*
%TO.N,CH14*%
X139000000Y-83800000D03*
X148000000Y-83600000D03*
%TO.N,CH10*%
X166800000Y-60200000D03*
X161400000Y-60200000D03*
X156000000Y-60600000D03*
X159000000Y-60200000D03*
%TO.N,CH11*%
X137600000Y-80600000D03*
X134800000Y-78200000D03*
%TO.N,CH12*%
X136000000Y-81400000D03*
%TO.N,LED*%
X159800000Y-83300000D03*
X186000000Y-83000000D03*
%TO.N,+5V*%
X188400000Y-77900000D03*
X189000000Y-45900000D03*
X184124265Y-39675735D03*
X175200000Y-39400000D03*
%TO.N,RESET*%
X156800000Y-85600000D03*
X156400000Y-83200000D03*
X156800000Y-76600000D03*
X157200000Y-71200000D03*
%TO.N,BTN1*%
X170600000Y-89400000D03*
X158650000Y-84800000D03*
X167200000Y-88600000D03*
X158950000Y-62750000D03*
%TO.N,BTN2*%
X166400000Y-82200000D03*
X160800000Y-55200000D03*
%TO.N,EXT_SPI_CS*%
X170100000Y-58900000D03*
X173800000Y-58350000D03*
X171950000Y-60150000D03*
X175450000Y-58700000D03*
%TO.N,SPI_MISO*%
X177150000Y-80400000D03*
X177050000Y-77000000D03*
X173900000Y-83400000D03*
X167400000Y-87550000D03*
X174300000Y-61000000D03*
X170900000Y-47000000D03*
X176350000Y-70000000D03*
X169000000Y-87550000D03*
X180100000Y-64000000D03*
X179700000Y-48300000D03*
X172212000Y-49530000D03*
%TD*%
D20*
%TO.N,GND*%
X170450000Y-43500000D02*
X170450000Y-44942000D01*
X170790000Y-43160000D02*
X170450000Y-43500000D01*
X170450000Y-44942000D02*
X170434000Y-44958000D01*
X171570000Y-43160000D02*
X170790000Y-43160000D01*
X175000000Y-64699000D02*
X175099000Y-64600000D01*
X175000000Y-67700000D02*
X175000000Y-64699000D01*
%TO.N,FLASH_CS*%
X175699000Y-60499000D02*
X175000000Y-59800000D01*
X175699000Y-67951000D02*
X175699000Y-63151398D01*
X175573000Y-62174602D02*
X175699000Y-62048602D01*
X174450000Y-69200000D02*
X175699000Y-67951000D01*
X175699000Y-63151398D02*
X175573000Y-63025398D01*
X175573000Y-63025398D02*
X175573000Y-62174602D01*
X161000000Y-69200000D02*
X174450000Y-69200000D01*
X175699000Y-62048602D02*
X175699000Y-60499000D01*
%TO.N,SPI_MOSI*%
X176100000Y-59350000D02*
X178700000Y-56750000D01*
X176100000Y-62214702D02*
X176100000Y-59350000D01*
X175974000Y-62340702D02*
X176100000Y-62214702D01*
X175974000Y-62859298D02*
X175974000Y-62340702D01*
X176100000Y-62985298D02*
X175974000Y-62859298D01*
X176100000Y-68000000D02*
X176100000Y-62985298D01*
X177900000Y-69800000D02*
X176100000Y-68000000D01*
X178050000Y-69800000D02*
X177900000Y-69800000D01*
X184300000Y-69100000D02*
X184300000Y-66940000D01*
X178050000Y-69800000D02*
X183600000Y-69800000D01*
X183600000Y-69800000D02*
X184300000Y-69100000D01*
%TO.N,3V3*%
X183350000Y-46444000D02*
X183466000Y-46560000D01*
X182948231Y-41398231D02*
X183350000Y-41800000D01*
X183350000Y-41800000D02*
X183350000Y-46444000D01*
X181953215Y-41398231D02*
X182948231Y-41398231D01*
%TO.N,GND*%
X172850000Y-57400000D02*
X174750000Y-57400000D01*
X172850000Y-57400000D02*
X172850000Y-58250000D01*
X174750000Y-57400000D02*
X175600000Y-56550000D01*
X172850000Y-58250000D02*
X173900000Y-59300000D01*
X175600000Y-56550000D02*
X175600000Y-55650000D01*
X175600000Y-55650000D02*
X175250000Y-55300000D01*
D21*
X176508027Y-54684376D02*
X176120000Y-54296349D01*
X176508027Y-54917024D02*
X176508027Y-54684376D01*
X176120000Y-54296349D02*
X176120000Y-53350000D01*
D20*
%TO.N,SPI_MOSI*%
X179410000Y-51840000D02*
X179750000Y-51500000D01*
X181000000Y-50400000D02*
X182200000Y-51600000D01*
X182200000Y-51850000D02*
X182750000Y-52400000D01*
X182200000Y-51600000D02*
X182200000Y-51850000D01*
X182750000Y-52400000D02*
X182750000Y-52850000D01*
X179410000Y-53350000D02*
X179410000Y-51840000D01*
%TO.N,3V3*%
X175000000Y-73960000D02*
X175000000Y-76500000D01*
X170600000Y-80400000D02*
X172460000Y-78540000D01*
X177800000Y-51200000D02*
X178310000Y-51710000D01*
X137668000Y-50038000D02*
X137700000Y-50070000D01*
X180750000Y-49276000D02*
X183466000Y-46560000D01*
X186100000Y-62200000D02*
X185760000Y-61860000D01*
X173640264Y-55030320D02*
X173640264Y-55959736D01*
X138600000Y-41800000D02*
X138600000Y-42990000D01*
X155400000Y-49000000D02*
X156400000Y-50000000D01*
X172460000Y-76500000D02*
X175000000Y-76500000D01*
X137700000Y-50070000D02*
X137700000Y-66760000D01*
X173400000Y-56200000D02*
X173200000Y-56200000D01*
X176022000Y-49530000D02*
X177546000Y-49530000D01*
X173970584Y-54700000D02*
X175566115Y-54700000D01*
X148800000Y-49000000D02*
X155400000Y-49000000D01*
X158200000Y-50000000D02*
X156400000Y-50000000D01*
D21*
X176130000Y-49530000D02*
X176022000Y-49530000D01*
D20*
X176259084Y-55518024D02*
X176384139Y-55518024D01*
X175907027Y-55165967D02*
X176259084Y-55518024D01*
X175566115Y-54700000D02*
X175907027Y-55040912D01*
X137700000Y-66760000D02*
X137500000Y-66960000D01*
X170600000Y-82800000D02*
X170600000Y-80400000D01*
X172460000Y-73960000D02*
X172460000Y-72460000D01*
X173640264Y-55959736D02*
X173400000Y-56200000D01*
X178350000Y-54700000D02*
X178350000Y-53390000D01*
X185950000Y-46560000D02*
X183466000Y-46560000D01*
X177800000Y-49276000D02*
X180750000Y-49276000D01*
X176384139Y-55518024D02*
X176866116Y-56000001D01*
D22*
X184300000Y-57800000D02*
X184300000Y-59320000D01*
D20*
X172460000Y-73960000D02*
X175000000Y-73960000D01*
X137668000Y-43922000D02*
X138500000Y-43090000D01*
X172460000Y-72460000D02*
X171000000Y-71000000D01*
X177546000Y-49530000D02*
X177800000Y-49276000D01*
X186400000Y-62200000D02*
X186100000Y-62200000D01*
D22*
X185100000Y-57000000D02*
X184300000Y-57800000D01*
D20*
X185760000Y-61860000D02*
X184300000Y-61860000D01*
X137668000Y-50038000D02*
X137668000Y-43922000D01*
X158400000Y-50200000D02*
X158200000Y-50000000D01*
X172460000Y-78540000D02*
X172460000Y-76500000D01*
X187900000Y-66200000D02*
X187300000Y-65600000D01*
X178800000Y-82800000D02*
X178800000Y-81000000D01*
D21*
X178310000Y-53350000D02*
X178310000Y-51710000D01*
D22*
X185100000Y-55100000D02*
X185100000Y-57000000D01*
D20*
X177800000Y-49276000D02*
X177800000Y-51200000D01*
X187300000Y-63100000D02*
X186400000Y-62200000D01*
X147762000Y-50038000D02*
X148800000Y-49000000D01*
X137668000Y-50038000D02*
X147762000Y-50038000D01*
X134960000Y-66960000D02*
X137500000Y-66960000D01*
X173640264Y-55030320D02*
X173970584Y-54700000D01*
X178350000Y-53390000D02*
X178310000Y-53350000D01*
X138600000Y-42990000D02*
X138500000Y-43090000D01*
X175907027Y-55040912D02*
X175907027Y-55165967D01*
X187300000Y-65600000D02*
X187300000Y-63100000D01*
%TO.N,{slash}WP*%
X187800000Y-56000000D02*
X187800000Y-49800000D01*
X187100000Y-49100000D02*
X185950000Y-49100000D01*
X188400000Y-56600000D02*
X187800000Y-56000000D01*
X187800000Y-49800000D02*
X187100000Y-49100000D01*
%TO.N,SPI_CLK*%
X182851040Y-55950000D02*
X183100000Y-55701040D01*
X183100000Y-55100000D02*
X183374000Y-54826000D01*
X167700000Y-80300000D02*
X168400000Y-79600000D01*
X179850000Y-55950000D02*
X179200000Y-55300000D01*
X176600000Y-62600000D02*
X176600000Y-62400000D01*
X171100000Y-67000000D02*
X173100000Y-67000000D01*
X169800000Y-68300000D02*
X171100000Y-67000000D01*
X179850000Y-55950000D02*
X182851040Y-55950000D01*
D21*
X177400000Y-55650000D02*
X178850000Y-55650000D01*
D20*
X173100000Y-67000000D02*
X173600000Y-66500000D01*
X186500000Y-64900000D02*
X186500000Y-70000000D01*
X183799280Y-54374000D02*
X183800000Y-54374000D01*
D21*
X177210000Y-53350000D02*
X177210000Y-55460000D01*
D20*
X176600000Y-62400000D02*
X179300000Y-59700000D01*
X179300000Y-55400000D02*
X179200000Y-55300000D01*
X183374000Y-54826000D02*
X183374000Y-54799280D01*
X168400000Y-79600000D02*
X168400000Y-70600000D01*
D21*
X178850000Y-55650000D02*
X179200000Y-55300000D01*
D20*
X186500000Y-70000000D02*
X187200000Y-70700000D01*
X183100000Y-55701040D02*
X183100000Y-55100000D01*
X183800000Y-54374000D02*
X183800000Y-54050000D01*
X179300000Y-59700000D02*
X179300000Y-55400000D01*
X183800000Y-54050000D02*
X183791971Y-54050000D01*
D21*
X177210000Y-55460000D02*
X177400000Y-55650000D01*
D20*
X183791971Y-54050000D02*
X184023529Y-53818442D01*
X183374000Y-54799280D02*
X183799280Y-54374000D01*
%TO.N,GND*%
X168850000Y-51350000D02*
X169200000Y-51000000D01*
X169200000Y-51000000D02*
X170800000Y-51000000D01*
X167980000Y-54820000D02*
X167900000Y-54900000D01*
X167980000Y-52220000D02*
X168850000Y-51350000D01*
X167980000Y-52810000D02*
X167980000Y-54820000D01*
X167980000Y-52810000D02*
X167980000Y-52220000D01*
%TO.N,FLASH_CS*%
X170180000Y-47350000D02*
X170180000Y-48296000D01*
X170180000Y-48296000D02*
X170434000Y-48550000D01*
D21*
%TO.N,MMC_CD*%
X170860000Y-50150000D02*
X168600000Y-50150000D01*
X172820000Y-53360000D02*
X172820000Y-51110000D01*
X168600000Y-50150000D02*
X166200000Y-52550000D01*
X172820000Y-51110000D02*
X172060000Y-50350000D01*
X167200000Y-56150000D02*
X168250000Y-56150000D01*
X166200000Y-55150000D02*
X167200000Y-56150000D01*
X166200000Y-52550000D02*
X166200000Y-55150000D01*
D20*
X167800000Y-61000000D02*
X167800000Y-59000000D01*
D21*
X168250000Y-56150000D02*
X169200000Y-55200000D01*
D20*
X169260000Y-55140000D02*
X169200000Y-55200000D01*
%TO.N,MMC_CS*%
X159900000Y-46350000D02*
X166250000Y-46350000D01*
X180550000Y-53310000D02*
X180510000Y-53350000D01*
X179750000Y-50200000D02*
X180550000Y-51000000D01*
X180550000Y-51000000D02*
X180550000Y-53310000D01*
%TO.N,CH14*%
X139000000Y-83800000D02*
X147400000Y-83800000D01*
X147800000Y-83800000D02*
X148000000Y-83600000D01*
X147400000Y-83800000D02*
X147800000Y-83800000D01*
%TO.N,CH10*%
X156400000Y-60200000D02*
X156000000Y-60600000D01*
X166800000Y-60200000D02*
X161400000Y-60200000D01*
X159000000Y-60200000D02*
X156400000Y-60200000D01*
%TO.N,CH11*%
X137200000Y-80600000D02*
X137600000Y-80600000D01*
X134800000Y-78200000D02*
X137200000Y-80600000D01*
%TO.N,CH12*%
X135800000Y-81200000D02*
X130360000Y-81200000D01*
X136000000Y-81400000D02*
X135800000Y-81200000D01*
X130360000Y-81200000D02*
X129500000Y-80340000D01*
D21*
%TO.N,LED*%
X162600000Y-92600000D02*
X161600000Y-91600000D01*
X159800000Y-89800000D02*
X159800000Y-83300000D01*
X186000000Y-83000000D02*
X186000000Y-90500000D01*
X186000000Y-90500000D02*
X183900000Y-92600000D01*
X161600000Y-91600000D02*
X159800000Y-89800000D01*
X183900000Y-92600000D02*
X162600000Y-92600000D01*
D22*
%TO.N,+5V*%
X175200000Y-39400000D02*
X183848530Y-39400000D01*
D21*
X181600000Y-93400000D02*
X184000000Y-93400000D01*
D22*
X183848530Y-39400000D02*
X184124265Y-39675735D01*
D21*
X145500000Y-92500000D02*
X146400000Y-93400000D01*
D22*
X189151000Y-77149000D02*
X188400000Y-77900000D01*
D21*
X146400000Y-93400000D02*
X181600000Y-93400000D01*
X187100000Y-79200000D02*
X188200000Y-78100000D01*
X184000000Y-93400000D02*
X187100000Y-90300000D01*
X187100000Y-90300000D02*
X187100000Y-79200000D01*
D22*
X189000000Y-45900000D02*
X189151000Y-46051000D01*
X189151000Y-46051000D02*
X189151000Y-77149000D01*
D21*
X188200000Y-78100000D02*
X188400000Y-77900000D01*
D20*
%TO.N,RESET*%
X156800000Y-76600000D02*
X156800000Y-71600000D01*
X156800000Y-71600000D02*
X157200000Y-71200000D01*
X156800000Y-85600000D02*
X156400000Y-85200000D01*
X156400000Y-85200000D02*
X156400000Y-83200000D01*
%TO.N,BTN1*%
X158100000Y-84550000D02*
X158350000Y-84800000D01*
X158350000Y-84800000D02*
X158650000Y-84800000D01*
X157300000Y-77800000D02*
X157050000Y-78050000D01*
X157050000Y-78050000D02*
X157050000Y-82450000D01*
X169800000Y-88600000D02*
X170600000Y-89400000D01*
X158950000Y-76150000D02*
X157300000Y-77800000D01*
X157050000Y-83500000D02*
X158100000Y-84550000D01*
X157050000Y-82450000D02*
X157050000Y-83500000D01*
X158950000Y-62750000D02*
X158950000Y-76150000D01*
X167200000Y-88600000D02*
X169800000Y-88600000D01*
%TO.N,BTN2*%
X161200000Y-82200000D02*
X161000000Y-82200000D01*
X161000000Y-82200000D02*
X160000000Y-81200000D01*
X160000000Y-56000000D02*
X160800000Y-55200000D01*
X160000000Y-81200000D02*
X160000000Y-56000000D01*
X166400000Y-82200000D02*
X161200000Y-82200000D01*
%TO.N,EXT_SPI_CS*%
X170100000Y-58900000D02*
X170700000Y-58900000D01*
X175450000Y-58700000D02*
X175400000Y-58700000D01*
X175050000Y-58350000D02*
X173800000Y-58350000D01*
X170700000Y-58900000D02*
X171950000Y-60150000D01*
X175400000Y-58700000D02*
X175050000Y-58350000D01*
%TO.N,SPI_MISO*%
X174000000Y-60700000D02*
X174300000Y-61000000D01*
X169250000Y-46600000D02*
X165100000Y-50750000D01*
D21*
X175020000Y-46530000D02*
X175550000Y-46000000D01*
D20*
X171460000Y-49530000D02*
X171460000Y-47560000D01*
X174000000Y-60500000D02*
X174000000Y-60700000D01*
X172000000Y-47000000D02*
X170900000Y-47000000D01*
X177050000Y-77000000D02*
X177050000Y-70700000D01*
D21*
X175550000Y-46000000D02*
X175600000Y-46000000D01*
D20*
X170500000Y-46600000D02*
X169250000Y-46600000D01*
X171460000Y-47560000D02*
X170900000Y-47000000D01*
X177050000Y-70700000D02*
X176350000Y-70000000D01*
X179400000Y-48000000D02*
X179400000Y-46300000D01*
X170999000Y-57499000D02*
X171875000Y-58375000D01*
X173000000Y-46000000D02*
X172000000Y-47000000D01*
X167648943Y-57499000D02*
X170999000Y-57499000D01*
X166299943Y-56150000D02*
X167648943Y-57499000D01*
X171800000Y-58300000D02*
X171875000Y-58375000D01*
X176900000Y-80400000D02*
X177150000Y-80400000D01*
X173900000Y-83400000D02*
X176900000Y-80400000D01*
X175600000Y-46000000D02*
X173000000Y-46000000D01*
X172212000Y-49530000D02*
X171460000Y-49530000D01*
D21*
X175020000Y-53350000D02*
X175020000Y-46530000D01*
D20*
X179100000Y-46000000D02*
X175600000Y-46000000D01*
X179700000Y-48300000D02*
X179400000Y-48000000D01*
X180100000Y-64000000D02*
X180100000Y-63520000D01*
X171875000Y-58375000D02*
X174000000Y-60500000D01*
X170900000Y-47000000D02*
X170500000Y-46600000D01*
X167400000Y-87550000D02*
X169000000Y-87550000D01*
X180100000Y-63520000D02*
X181760000Y-61860000D01*
X165100000Y-50750000D02*
X165100000Y-56150000D01*
X165100000Y-56150000D02*
X166299943Y-56150000D01*
X179400000Y-46300000D02*
X179100000Y-46000000D01*
%TD*%
%TA.AperFunction,Conductor*%
%TO.N,GND*%
G36*
X129750000Y-95146988D02*
G01*
X129692993Y-95114075D01*
X129565826Y-95080000D01*
X129434174Y-95080000D01*
X129307007Y-95114075D01*
X129250000Y-95146988D01*
X129250000Y-93473012D01*
X129307007Y-93505925D01*
X129434174Y-93540000D01*
X129565826Y-93540000D01*
X129692993Y-93505925D01*
X129750000Y-93473012D01*
X129750000Y-95146988D01*
G37*
%TD.AperFunction*%
%TA.AperFunction,Conductor*%
G36*
X137034075Y-69307007D02*
G01*
X137000000Y-69434174D01*
X137000000Y-69565826D01*
X137034075Y-69692993D01*
X137066988Y-69750000D01*
X135393012Y-69750000D01*
X135425925Y-69692993D01*
X135460000Y-69565826D01*
X135460000Y-69434174D01*
X135425925Y-69307007D01*
X135393012Y-69250000D01*
X137066988Y-69250000D01*
X137034075Y-69307007D01*
G37*
%TD.AperFunction*%
%TA.AperFunction,Conductor*%
G36*
X129750000Y-63186988D02*
G01*
X129692993Y-63154075D01*
X129565826Y-63120000D01*
X129434174Y-63120000D01*
X129307007Y-63154075D01*
X129250000Y-63186988D01*
X129250000Y-61513012D01*
X129307007Y-61545925D01*
X129434174Y-61580000D01*
X129565826Y-61580000D01*
X129692993Y-61545925D01*
X129750000Y-61513012D01*
X129750000Y-63186988D01*
G37*
%TD.AperFunction*%
%TA.AperFunction,Conductor*%
G36*
X174344985Y-39009761D02*
G01*
X174376856Y-39017940D01*
X174378362Y-39019561D01*
X174380484Y-39020185D01*
X174402008Y-39045025D01*
X174424401Y-39069139D01*
X174424791Y-39071318D01*
X174426239Y-39072989D01*
X174430919Y-39105537D01*
X174436717Y-39137915D01*
X174435984Y-39140768D01*
X174436183Y-39142147D01*
X174431159Y-39160411D01*
X174432031Y-39160676D01*
X174430261Y-39166510D01*
X174399500Y-39321153D01*
X174399500Y-39478846D01*
X174430261Y-39633489D01*
X174430264Y-39633501D01*
X174490602Y-39779172D01*
X174490609Y-39779185D01*
X174578210Y-39910288D01*
X174578213Y-39910292D01*
X174689707Y-40021786D01*
X174689711Y-40021789D01*
X174820814Y-40109390D01*
X174820827Y-40109397D01*
X174920060Y-40150500D01*
X174966503Y-40169737D01*
X175098153Y-40195924D01*
X175121153Y-40200499D01*
X175121156Y-40200500D01*
X175121158Y-40200500D01*
X175278844Y-40200500D01*
X175278845Y-40200499D01*
X175355152Y-40185320D01*
X175433488Y-40169739D01*
X175433489Y-40169738D01*
X175433497Y-40169737D01*
X175457155Y-40159937D01*
X175504604Y-40150500D01*
X183415589Y-40150500D01*
X183482628Y-40170185D01*
X183503270Y-40186819D01*
X183613972Y-40297521D01*
X183613976Y-40297524D01*
X183745079Y-40385125D01*
X183745092Y-40385132D01*
X183865008Y-40434802D01*
X183890768Y-40445472D01*
X184045418Y-40476234D01*
X184045421Y-40476235D01*
X184045423Y-40476235D01*
X184203109Y-40476235D01*
X184203110Y-40476234D01*
X184357762Y-40445472D01*
X184503444Y-40385129D01*
X184634554Y-40297524D01*
X184746054Y-40186024D01*
X184833659Y-40054914D01*
X184894002Y-39909232D01*
X184924765Y-39754577D01*
X184924765Y-39596893D01*
X184924765Y-39596890D01*
X184924764Y-39596888D01*
X184909965Y-39522488D01*
X184894002Y-39442238D01*
X184858068Y-39355485D01*
X184833662Y-39296562D01*
X184833655Y-39296549D01*
X184764727Y-39193391D01*
X184743849Y-39126713D01*
X184762334Y-39059333D01*
X184814312Y-39012643D01*
X184867829Y-39000500D01*
X187129449Y-39000500D01*
X187196488Y-39020185D01*
X187242243Y-39072989D01*
X187252187Y-39142147D01*
X187223162Y-39205703D01*
X187202337Y-39224815D01*
X187022490Y-39355483D01*
X187022488Y-39355485D01*
X187022487Y-39355485D01*
X186855485Y-39522487D01*
X186855485Y-39522488D01*
X186855483Y-39522490D01*
X186833713Y-39552454D01*
X186716657Y-39713566D01*
X186609433Y-39924003D01*
X186536446Y-40148631D01*
X186499500Y-40381902D01*
X186499500Y-40618097D01*
X186536446Y-40851368D01*
X186609433Y-41075996D01*
X186661515Y-41178211D01*
X186714208Y-41281627D01*
X186716659Y-41286436D01*
X186746940Y-41328115D01*
X186770420Y-41393921D01*
X186754594Y-41461975D01*
X186704489Y-41510670D01*
X186646622Y-41525000D01*
X186377155Y-41525000D01*
X186317627Y-41531401D01*
X186317620Y-41531403D01*
X186182913Y-41581645D01*
X186182906Y-41581649D01*
X186067812Y-41667809D01*
X186067809Y-41667812D01*
X185981649Y-41782906D01*
X185981645Y-41782913D01*
X185931403Y-41917620D01*
X185931401Y-41917627D01*
X185925000Y-41977155D01*
X185925000Y-42920000D01*
X188195000Y-42920000D01*
X188195000Y-42094224D01*
X188214685Y-42027185D01*
X188267489Y-41981430D01*
X188299593Y-41971753D01*
X188351368Y-41963553D01*
X188575992Y-41890568D01*
X188786433Y-41783343D01*
X188977510Y-41644517D01*
X189144517Y-41477510D01*
X189275183Y-41297664D01*
X189330512Y-41255000D01*
X189400126Y-41249021D01*
X189461920Y-41281627D01*
X189496278Y-41342466D01*
X189499500Y-41370551D01*
X189499500Y-45054865D01*
X189479815Y-45121904D01*
X189427011Y-45167659D01*
X189357853Y-45177603D01*
X189328048Y-45169427D01*
X189323780Y-45167659D01*
X189233497Y-45130263D01*
X189233494Y-45130262D01*
X189233491Y-45130261D01*
X189078845Y-45099500D01*
X189078842Y-45099500D01*
X188921158Y-45099500D01*
X188921155Y-45099500D01*
X188766510Y-45130261D01*
X188766498Y-45130264D01*
X188620827Y-45190602D01*
X188620814Y-45190609D01*
X188489711Y-45278210D01*
X188489707Y-45278213D01*
X188378213Y-45389707D01*
X188378210Y-45389711D01*
X188290609Y-45520814D01*
X188290602Y-45520827D01*
X188230264Y-45666498D01*
X188230261Y-45666510D01*
X188199500Y-45821153D01*
X188199500Y-45978846D01*
X188230261Y-46133489D01*
X188230264Y-46133501D01*
X188290602Y-46279172D01*
X188290609Y-46279185D01*
X188379602Y-46412371D01*
X188400480Y-46479048D01*
X188400500Y-46481262D01*
X188400500Y-49251901D01*
X188394262Y-49273143D01*
X188392684Y-49295230D01*
X188384609Y-49306016D01*
X188380815Y-49318940D01*
X188364083Y-49333437D01*
X188350814Y-49351165D01*
X188338191Y-49355873D01*
X188328011Y-49364695D01*
X188306097Y-49367845D01*
X188285351Y-49375585D01*
X188272186Y-49372721D01*
X188258853Y-49374639D01*
X188238713Y-49365441D01*
X188217078Y-49360736D01*
X188199348Y-49347464D01*
X188195297Y-49345614D01*
X188188822Y-49339586D01*
X188168716Y-49319480D01*
X188168713Y-49319478D01*
X187587590Y-48738355D01*
X187587588Y-48738352D01*
X187468717Y-48619481D01*
X187468716Y-48619480D01*
X187429606Y-48596900D01*
X187375161Y-48565466D01*
X187375158Y-48565465D01*
X187364960Y-48559577D01*
X187331785Y-48540423D01*
X187205676Y-48506631D01*
X187201431Y-48505158D01*
X187176496Y-48487367D01*
X187150342Y-48471425D01*
X187146638Y-48466064D01*
X187144554Y-48464577D01*
X187143106Y-48460950D01*
X187131611Y-48444311D01*
X187105051Y-48392184D01*
X187071614Y-48346161D01*
X186980109Y-48220213D01*
X186829786Y-48069890D01*
X186657820Y-47944951D01*
X186657115Y-47944591D01*
X186649054Y-47940485D01*
X186598259Y-47892512D01*
X186581463Y-47824692D01*
X186603999Y-47758556D01*
X186649054Y-47719515D01*
X186657816Y-47715051D01*
X186734462Y-47659365D01*
X186829786Y-47590109D01*
X186829788Y-47590106D01*
X186829792Y-47590104D01*
X186980104Y-47439792D01*
X186980106Y-47439788D01*
X186980109Y-47439786D01*
X187105048Y-47267820D01*
X187105047Y-47267820D01*
X187105051Y-47267816D01*
X187201557Y-47078412D01*
X187267246Y-46876243D01*
X187300500Y-46666287D01*
X187300500Y-46453713D01*
X187267246Y-46243757D01*
X187201557Y-46041588D01*
X187105051Y-45852184D01*
X187105049Y-45852181D01*
X187105048Y-45852179D01*
X186980109Y-45680213D01*
X186829786Y-45529890D01*
X186657820Y-45404951D01*
X186468414Y-45308444D01*
X186468413Y-45308443D01*
X186468412Y-45308443D01*
X186266243Y-45242754D01*
X186266241Y-45242753D01*
X186266240Y-45242753D01*
X186104957Y-45217208D01*
X186056287Y-45209500D01*
X185843713Y-45209500D01*
X185795042Y-45217208D01*
X185633760Y-45242753D01*
X185431585Y-45308444D01*
X185242179Y-45404951D01*
X185070213Y-45529890D01*
X184919890Y-45680213D01*
X184794948Y-45852184D01*
X184794947Y-45852185D01*
X184774765Y-45891795D01*
X184726791Y-45942591D01*
X184664281Y-45959500D01*
X184074500Y-45959500D01*
X184007461Y-45939815D01*
X183961706Y-45887011D01*
X183950500Y-45835500D01*
X183950500Y-44362844D01*
X185925000Y-44362844D01*
X185931401Y-44422372D01*
X185931403Y-44422379D01*
X185981645Y-44557086D01*
X185981649Y-44557093D01*
X186067809Y-44672187D01*
X186067812Y-44672190D01*
X186182906Y-44758350D01*
X186182913Y-44758354D01*
X186317620Y-44808596D01*
X186317627Y-44808598D01*
X186377155Y-44814999D01*
X186377172Y-44815000D01*
X186810000Y-44815000D01*
X187310000Y-44815000D01*
X187742828Y-44815000D01*
X187742844Y-44814999D01*
X187802372Y-44808598D01*
X187802379Y-44808596D01*
X187937086Y-44758354D01*
X187937093Y-44758350D01*
X188052187Y-44672190D01*
X188052190Y-44672187D01*
X188138350Y-44557093D01*
X188138354Y-44557086D01*
X188188596Y-44422379D01*
X188188598Y-44422372D01*
X188194999Y-44362844D01*
X188195000Y-44362827D01*
X188195000Y-43420000D01*
X187310000Y-43420000D01*
X187310000Y-44815000D01*
X186810000Y-44815000D01*
X186810000Y-43420000D01*
X185925000Y-43420000D01*
X185925000Y-44362844D01*
X183950500Y-44362844D01*
X183950500Y-41720945D01*
X183950499Y-41720938D01*
X183946592Y-41706358D01*
X183909577Y-41568215D01*
X183880639Y-41518095D01*
X183830520Y-41431284D01*
X183718716Y-41319480D01*
X183718715Y-41319479D01*
X183714385Y-41315149D01*
X183714374Y-41315139D01*
X183435821Y-41036586D01*
X183435819Y-41036583D01*
X183316948Y-40917712D01*
X183316940Y-40917706D01*
X183214462Y-40858541D01*
X183214459Y-40858540D01*
X183180018Y-40838655D01*
X183180017Y-40838654D01*
X183180016Y-40838654D01*
X183027288Y-40797730D01*
X182869174Y-40797730D01*
X182861578Y-40797730D01*
X182861562Y-40797731D01*
X182532981Y-40797731D01*
X182465942Y-40778046D01*
X182464090Y-40776833D01*
X182332400Y-40688840D01*
X182332387Y-40688833D01*
X182186716Y-40628495D01*
X182186704Y-40628492D01*
X182032060Y-40597731D01*
X182032057Y-40597731D01*
X181874373Y-40597731D01*
X181874370Y-40597731D01*
X181719725Y-40628492D01*
X181719713Y-40628495D01*
X181574042Y-40688833D01*
X181574029Y-40688840D01*
X181442926Y-40776441D01*
X181442922Y-40776444D01*
X181331428Y-40887938D01*
X181331425Y-40887942D01*
X181243824Y-41019045D01*
X181243817Y-41019058D01*
X181183479Y-41164729D01*
X181183476Y-41164741D01*
X181152715Y-41319384D01*
X181152715Y-41477077D01*
X181183476Y-41631720D01*
X181183479Y-41631732D01*
X181243817Y-41777403D01*
X181243824Y-41777416D01*
X181331425Y-41908519D01*
X181331428Y-41908523D01*
X181442922Y-42020017D01*
X181442926Y-42020020D01*
X181511429Y-42065793D01*
X181556234Y-42119405D01*
X181564941Y-42188730D01*
X181545641Y-42237784D01*
X181513373Y-42286077D01*
X181513364Y-42286093D01*
X181437950Y-42468160D01*
X181437947Y-42468170D01*
X181399500Y-42661456D01*
X181399500Y-42661459D01*
X181399500Y-42858541D01*
X181399500Y-42858543D01*
X181399499Y-42858543D01*
X181437947Y-43051829D01*
X181437950Y-43051839D01*
X181513364Y-43233907D01*
X181513371Y-43233920D01*
X181622860Y-43397781D01*
X181622863Y-43397785D01*
X181762214Y-43537136D01*
X181762218Y-43537139D01*
X181926079Y-43646628D01*
X181926092Y-43646635D01*
X182084025Y-43712052D01*
X182108165Y-43722051D01*
X182108169Y-43722051D01*
X182108170Y-43722052D01*
X182301456Y-43760500D01*
X182301459Y-43760500D01*
X182498543Y-43760500D01*
X182574191Y-43745452D01*
X182601308Y-43740058D01*
X182670899Y-43746285D01*
X182726077Y-43789147D01*
X182749322Y-43855037D01*
X182749500Y-43861675D01*
X182749500Y-46364939D01*
X182749499Y-46364943D01*
X182749499Y-46375911D01*
X182739380Y-46410366D01*
X182729814Y-46442943D01*
X182729812Y-46442945D01*
X182729811Y-46442949D01*
X182729804Y-46442954D01*
X182713180Y-46463585D01*
X180712181Y-48464584D01*
X180650858Y-48498069D01*
X180581166Y-48493085D01*
X180525233Y-48451213D01*
X180500816Y-48385749D01*
X180500500Y-48376903D01*
X180500500Y-48221155D01*
X180500499Y-48221153D01*
X180472234Y-48079057D01*
X180469737Y-48066503D01*
X180419389Y-47944951D01*
X180409397Y-47920827D01*
X180409390Y-47920814D01*
X180321789Y-47789711D01*
X180321786Y-47789707D01*
X180210292Y-47678213D01*
X180210288Y-47678210D01*
X180079185Y-47590609D01*
X180079169Y-47590601D01*
X180077038Y-47589718D01*
X180076094Y-47588957D01*
X180073809Y-47587736D01*
X180074040Y-47587302D01*
X180022638Y-47545873D01*
X180000579Y-47479577D01*
X180000500Y-47475161D01*
X180000500Y-46220945D01*
X180000500Y-46220943D01*
X179976624Y-46131835D01*
X179959577Y-46068215D01*
X179919904Y-45999500D01*
X179889182Y-45946287D01*
X179880521Y-45931285D01*
X179764385Y-45815149D01*
X179764374Y-45815139D01*
X179587590Y-45638355D01*
X179587588Y-45638352D01*
X179468717Y-45519481D01*
X179468716Y-45519480D01*
X179379634Y-45468049D01*
X179331785Y-45440423D01*
X179179057Y-45399499D01*
X179020943Y-45399499D01*
X179013347Y-45399499D01*
X179013331Y-45399500D01*
X175799505Y-45399500D01*
X175775314Y-45397117D01*
X175661610Y-45374500D01*
X175661606Y-45374500D01*
X175611607Y-45374500D01*
X175488393Y-45374500D01*
X175431000Y-45385916D01*
X175430999Y-45385915D01*
X175374685Y-45397117D01*
X175350494Y-45399500D01*
X173086670Y-45399500D01*
X173086654Y-45399499D01*
X173079058Y-45399499D01*
X172920943Y-45399499D01*
X172844579Y-45419961D01*
X172768214Y-45440423D01*
X172768209Y-45440426D01*
X172631290Y-45519475D01*
X172631282Y-45519481D01*
X171787584Y-46363181D01*
X171760656Y-46377884D01*
X171734838Y-46394477D01*
X171728637Y-46395368D01*
X171726261Y-46396666D01*
X171699903Y-46399500D01*
X171479766Y-46399500D01*
X171412727Y-46379815D01*
X171410875Y-46378602D01*
X171279185Y-46290609D01*
X171279172Y-46290602D01*
X171133501Y-46230264D01*
X171133491Y-46230261D01*
X170978151Y-46199362D01*
X170929974Y-46178436D01*
X170921789Y-46172553D01*
X170868716Y-46119480D01*
X170768476Y-46061607D01*
X170731785Y-46040423D01*
X170731784Y-46040422D01*
X170731783Y-46040422D01*
X170675881Y-46025443D01*
X170579057Y-45999499D01*
X170420943Y-45999499D01*
X170413347Y-45999499D01*
X170413331Y-45999500D01*
X169170942Y-45999500D01*
X169018216Y-46040422D01*
X168981522Y-46061608D01*
X168981521Y-46061607D01*
X168881287Y-46119477D01*
X168881282Y-46119481D01*
X164619481Y-50381282D01*
X164619479Y-50381285D01*
X164604797Y-50406716D01*
X164579519Y-50450500D01*
X164569361Y-50468094D01*
X164569359Y-50468096D01*
X164540425Y-50518209D01*
X164540424Y-50518210D01*
X164540341Y-50518520D01*
X164499499Y-50670943D01*
X164499499Y-50670945D01*
X164499499Y-50839046D01*
X164499500Y-50839059D01*
X164499500Y-56070943D01*
X164499500Y-56229057D01*
X164539727Y-56379184D01*
X164540423Y-56381783D01*
X164540426Y-56381790D01*
X164619475Y-56518709D01*
X164619479Y-56518714D01*
X164619480Y-56518716D01*
X164731284Y-56630520D01*
X164731286Y-56630521D01*
X164731290Y-56630524D01*
X164865166Y-56707816D01*
X164868216Y-56709577D01*
X165020943Y-56750500D01*
X165999846Y-56750500D01*
X166066885Y-56770185D01*
X166087527Y-56786819D01*
X167164082Y-57863374D01*
X167164092Y-57863385D01*
X167168422Y-57867715D01*
X167168423Y-57867716D01*
X167280227Y-57979520D01*
X167348457Y-58018912D01*
X167417158Y-58058577D01*
X167422928Y-58060123D01*
X167435110Y-58066868D01*
X167454935Y-58086928D01*
X167476895Y-58104621D01*
X167479167Y-58111445D01*
X167484224Y-58116562D01*
X167490056Y-58144153D01*
X167498966Y-58170913D01*
X167497187Y-58177883D01*
X167498675Y-58184921D01*
X167488665Y-58211284D01*
X167481692Y-58238614D01*
X167476427Y-58243516D01*
X167473874Y-58250241D01*
X167451200Y-58267007D01*
X167430559Y-58286228D01*
X167422513Y-58289904D01*
X167420829Y-58290601D01*
X167420814Y-58290609D01*
X167289711Y-58378210D01*
X167289707Y-58378213D01*
X167178213Y-58489707D01*
X167178210Y-58489711D01*
X167090609Y-58620814D01*
X167090602Y-58620827D01*
X167030264Y-58766498D01*
X167030261Y-58766510D01*
X166999500Y-58921153D01*
X166999500Y-59078846D01*
X167030261Y-59233489D01*
X167032031Y-59239324D01*
X167030751Y-59239712D01*
X167037480Y-59302388D01*
X167006196Y-59364863D01*
X166946101Y-59400506D01*
X166891263Y-59401970D01*
X166878845Y-59399500D01*
X166878842Y-59399500D01*
X166721158Y-59399500D01*
X166721155Y-59399500D01*
X166566510Y-59430261D01*
X166566498Y-59430264D01*
X166420827Y-59490602D01*
X166420814Y-59490609D01*
X166289125Y-59578602D01*
X166222447Y-59599480D01*
X166220234Y-59599500D01*
X161979766Y-59599500D01*
X161912727Y-59579815D01*
X161910875Y-59578602D01*
X161779185Y-59490609D01*
X161779172Y-59490602D01*
X161633501Y-59430264D01*
X161633489Y-59430261D01*
X161478845Y-59399500D01*
X161478842Y-59399500D01*
X161321158Y-59399500D01*
X161321155Y-59399500D01*
X161166510Y-59430261D01*
X161166498Y-59430264D01*
X161020827Y-59490602D01*
X161020814Y-59490609D01*
X160889711Y-59578210D01*
X160889707Y-59578213D01*
X160812181Y-59655740D01*
X160750858Y-59689225D01*
X160681166Y-59684241D01*
X160625233Y-59642369D01*
X160600816Y-59576905D01*
X160600500Y-59568059D01*
X160600500Y-56300097D01*
X160620185Y-56233058D01*
X160636819Y-56212416D01*
X160724328Y-56124907D01*
X160814662Y-56034572D01*
X160875983Y-56001089D01*
X160878150Y-56000638D01*
X160936085Y-55989113D01*
X161033497Y-55969737D01*
X161179179Y-55909394D01*
X161310289Y-55821789D01*
X161421789Y-55710289D01*
X161509394Y-55579179D01*
X161569737Y-55433497D01*
X161600500Y-55278842D01*
X161600500Y-55121158D01*
X161600500Y-55121155D01*
X161600499Y-55121153D01*
X161586400Y-55050272D01*
X161569737Y-54966503D01*
X161566375Y-54958386D01*
X161509397Y-54820827D01*
X161509390Y-54820814D01*
X161421789Y-54689711D01*
X161421786Y-54689707D01*
X161310292Y-54578213D01*
X161310288Y-54578210D01*
X161179185Y-54490609D01*
X161179172Y-54490602D01*
X161033501Y-54430264D01*
X161033489Y-54430261D01*
X160878845Y-54399500D01*
X160878842Y-54399500D01*
X160721158Y-54399500D01*
X160721155Y-54399500D01*
X160566510Y-54430261D01*
X160566498Y-54430264D01*
X160420827Y-54490602D01*
X160420814Y-54490609D01*
X160289711Y-54578210D01*
X160289707Y-54578213D01*
X160178213Y-54689707D01*
X160178210Y-54689711D01*
X160090609Y-54820814D01*
X160090602Y-54820827D01*
X160030264Y-54966498D01*
X160030261Y-54966508D01*
X159999361Y-55121850D01*
X159966976Y-55183761D01*
X159965425Y-55185339D01*
X159519481Y-55631282D01*
X159519477Y-55631287D01*
X159473106Y-55711606D01*
X159440424Y-55768211D01*
X159440423Y-55768212D01*
X159415868Y-55859851D01*
X159399499Y-55920943D01*
X159399499Y-55920945D01*
X159399499Y-56089046D01*
X159399500Y-56089059D01*
X159399500Y-59313444D01*
X159379815Y-59380483D01*
X159327011Y-59426238D01*
X159257853Y-59436182D01*
X159239575Y-59431202D01*
X159239324Y-59432031D01*
X159233500Y-59430264D01*
X159233497Y-59430263D01*
X159233492Y-59430262D01*
X159233489Y-59430261D01*
X159078845Y-59399500D01*
X159078842Y-59399500D01*
X158921158Y-59399500D01*
X158921155Y-59399500D01*
X158766510Y-59430261D01*
X158766498Y-59430264D01*
X158620827Y-59490602D01*
X158620814Y-59490609D01*
X158489125Y-59578602D01*
X158422447Y-59599480D01*
X158420234Y-59599500D01*
X156320941Y-59599500D01*
X156284017Y-59609393D01*
X156284018Y-59609394D01*
X156168214Y-59640423D01*
X156168209Y-59640426D01*
X156031290Y-59719475D01*
X156031282Y-59719481D01*
X155985336Y-59765427D01*
X155924013Y-59798911D01*
X155921848Y-59799362D01*
X155766508Y-59830261D01*
X155766498Y-59830264D01*
X155620827Y-59890602D01*
X155620814Y-59890609D01*
X155489711Y-59978210D01*
X155489707Y-59978213D01*
X155378213Y-60089707D01*
X155378210Y-60089711D01*
X155290609Y-60220814D01*
X155290602Y-60220827D01*
X155230264Y-60366498D01*
X155230261Y-60366510D01*
X155199500Y-60521153D01*
X155199500Y-60678846D01*
X155230261Y-60833489D01*
X155230264Y-60833501D01*
X155290602Y-60979172D01*
X155290609Y-60979185D01*
X155378210Y-61110288D01*
X155378213Y-61110292D01*
X155489707Y-61221786D01*
X155489711Y-61221789D01*
X155620814Y-61309390D01*
X155620827Y-61309397D01*
X155766498Y-61369735D01*
X155766503Y-61369737D01*
X155853325Y-61387007D01*
X155921153Y-61400499D01*
X155921156Y-61400500D01*
X155921158Y-61400500D01*
X156078844Y-61400500D01*
X156078845Y-61400499D01*
X156233497Y-61369737D01*
X156379179Y-61309394D01*
X156510289Y-61221789D01*
X156621789Y-61110289D01*
X156709394Y-60979179D01*
X156714037Y-60967969D01*
X156751698Y-60877048D01*
X156795538Y-60822644D01*
X156861833Y-60800579D01*
X156866259Y-60800500D01*
X158420234Y-60800500D01*
X158487273Y-60820185D01*
X158489125Y-60821398D01*
X158620814Y-60909390D01*
X158620827Y-60909397D01*
X158766498Y-60969735D01*
X158766503Y-60969737D01*
X158896982Y-60995691D01*
X158921153Y-61000499D01*
X158921156Y-61000500D01*
X158921158Y-61000500D01*
X159078844Y-61000500D01*
X159078845Y-61000499D01*
X159233497Y-60969737D01*
X159233509Y-60969731D01*
X159239324Y-60967969D01*
X159240158Y-60970720D01*
X159297359Y-60964497D01*
X159359878Y-60995691D01*
X159395608Y-61055734D01*
X159399500Y-61086555D01*
X159399500Y-61884155D01*
X159379815Y-61951194D01*
X159327011Y-61996949D01*
X159257853Y-62006893D01*
X159228048Y-61998716D01*
X159183501Y-61980264D01*
X159183489Y-61980261D01*
X159028845Y-61949500D01*
X159028842Y-61949500D01*
X158871158Y-61949500D01*
X158871155Y-61949500D01*
X158716510Y-61980261D01*
X158716498Y-61980264D01*
X158570827Y-62040602D01*
X158570814Y-62040609D01*
X158439711Y-62128210D01*
X158439707Y-62128213D01*
X158328213Y-62239707D01*
X158328210Y-62239711D01*
X158240609Y-62370814D01*
X158240602Y-62370827D01*
X158180264Y-62516498D01*
X158180261Y-62516510D01*
X158149500Y-62671153D01*
X158149500Y-62828846D01*
X158180261Y-62983489D01*
X158180264Y-62983501D01*
X158240602Y-63129172D01*
X158240609Y-63129185D01*
X158328602Y-63260874D01*
X158349480Y-63327551D01*
X158349500Y-63329765D01*
X158349500Y-75849903D01*
X158329815Y-75916942D01*
X158313181Y-75937584D01*
X157785960Y-76464804D01*
X157724637Y-76498289D01*
X157654945Y-76493305D01*
X157599012Y-76451433D01*
X157576662Y-76401315D01*
X157569738Y-76366508D01*
X157569737Y-76366507D01*
X157569737Y-76366503D01*
X157538092Y-76290104D01*
X157509397Y-76220827D01*
X157509390Y-76220814D01*
X157421398Y-76089125D01*
X157400520Y-76022447D01*
X157400500Y-76020234D01*
X157400500Y-72066259D01*
X157420185Y-71999220D01*
X157472989Y-71953465D01*
X157477048Y-71951698D01*
X157579172Y-71909397D01*
X157579172Y-71909396D01*
X157579179Y-71909394D01*
X157710289Y-71821789D01*
X157821789Y-71710289D01*
X157909394Y-71579179D01*
X157969737Y-71433497D01*
X158000500Y-71278842D01*
X158000500Y-71121158D01*
X158000500Y-71121155D01*
X158000499Y-71121153D01*
X157992148Y-71079172D01*
X157969737Y-70966503D01*
X157915091Y-70834574D01*
X157909397Y-70820827D01*
X157909390Y-70820814D01*
X157821789Y-70689711D01*
X157821786Y-70689707D01*
X157710292Y-70578213D01*
X157710288Y-70578210D01*
X157579185Y-70490609D01*
X157579172Y-70490602D01*
X157433501Y-70430264D01*
X157433489Y-70430261D01*
X157278845Y-70399500D01*
X157278842Y-70399500D01*
X157121158Y-70399500D01*
X157121155Y-70399500D01*
X156966510Y-70430261D01*
X156966498Y-70430264D01*
X156820827Y-70490602D01*
X156820814Y-70490609D01*
X156689711Y-70578210D01*
X156689707Y-70578213D01*
X156578213Y-70689707D01*
X156578210Y-70689711D01*
X156490609Y-70820814D01*
X156490602Y-70820827D01*
X156430264Y-70966498D01*
X156430261Y-70966508D01*
X156399362Y-71121848D01*
X156377374Y-71171481D01*
X156371912Y-71178851D01*
X156319480Y-71231284D01*
X156275115Y-71308127D01*
X156240423Y-71368215D01*
X156199499Y-71520943D01*
X156199499Y-71520945D01*
X156199499Y-71689046D01*
X156199500Y-71689059D01*
X156199500Y-76020234D01*
X156179815Y-76087273D01*
X156178602Y-76089125D01*
X156090609Y-76220814D01*
X156090602Y-76220827D01*
X156030264Y-76366498D01*
X156030261Y-76366510D01*
X155999500Y-76521153D01*
X155999500Y-76678846D01*
X156030261Y-76833489D01*
X156030264Y-76833501D01*
X156090602Y-76979172D01*
X156090609Y-76979185D01*
X156178210Y-77110288D01*
X156178213Y-77110292D01*
X156289707Y-77221786D01*
X156289711Y-77221789D01*
X156420814Y-77309390D01*
X156420827Y-77309397D01*
X156566498Y-77369735D01*
X156566503Y-77369737D01*
X156601315Y-77376661D01*
X156605516Y-77378859D01*
X156610260Y-77378788D01*
X156636176Y-77394896D01*
X156663223Y-77409044D01*
X156665571Y-77413167D01*
X156669601Y-77415672D01*
X156682696Y-77443238D01*
X156697799Y-77469759D01*
X156697545Y-77474497D01*
X156699581Y-77478783D01*
X156695693Y-77509049D01*
X156694061Y-77539529D01*
X156691117Y-77544680D01*
X156690681Y-77548083D01*
X156681483Y-77561546D01*
X156672050Y-77578059D01*
X156668599Y-77582164D01*
X156569480Y-77681284D01*
X156540228Y-77731951D01*
X156534779Y-77741388D01*
X156534778Y-77741390D01*
X156528908Y-77751557D01*
X156490423Y-77818215D01*
X156449499Y-77970943D01*
X156449499Y-77970945D01*
X156449499Y-78139046D01*
X156449500Y-78139059D01*
X156449500Y-82275500D01*
X156429815Y-82342539D01*
X156377011Y-82388294D01*
X156325500Y-82399500D01*
X156321155Y-82399500D01*
X156166510Y-82430261D01*
X156166498Y-82430264D01*
X156020827Y-82490602D01*
X156020814Y-82490609D01*
X155889711Y-82578210D01*
X155889707Y-82578213D01*
X155778213Y-82689707D01*
X155778210Y-82689711D01*
X155690609Y-82820814D01*
X155690602Y-82820827D01*
X155630264Y-82966498D01*
X155630261Y-82966510D01*
X155599500Y-83121153D01*
X155599500Y-83278846D01*
X155630261Y-83433489D01*
X155630264Y-83433501D01*
X155690602Y-83579172D01*
X155690609Y-83579185D01*
X155778602Y-83710874D01*
X155799480Y-83777551D01*
X155799500Y-83779765D01*
X155799500Y-85113330D01*
X155799499Y-85113348D01*
X155799499Y-85279054D01*
X155799498Y-85279054D01*
X155808785Y-85313713D01*
X155840423Y-85431785D01*
X155869360Y-85481904D01*
X155919480Y-85568716D01*
X155972210Y-85621446D01*
X155977865Y-85629185D01*
X155986579Y-85653401D01*
X155998911Y-85675985D01*
X155999362Y-85678151D01*
X156030261Y-85833491D01*
X156030264Y-85833501D01*
X156090602Y-85979172D01*
X156090609Y-85979185D01*
X156178210Y-86110288D01*
X156178213Y-86110292D01*
X156289707Y-86221786D01*
X156289711Y-86221789D01*
X156420814Y-86309390D01*
X156420827Y-86309397D01*
X156566498Y-86369735D01*
X156566503Y-86369737D01*
X156721153Y-86400499D01*
X156721156Y-86400500D01*
X156721158Y-86400500D01*
X156878844Y-86400500D01*
X156878845Y-86400499D01*
X157033497Y-86369737D01*
X157179179Y-86309394D01*
X157310289Y-86221789D01*
X157421789Y-86110289D01*
X157509394Y-85979179D01*
X157569737Y-85833497D01*
X157600500Y-85678842D01*
X157600500Y-85521158D01*
X157600500Y-85521155D01*
X157600499Y-85521153D01*
X157580734Y-85421789D01*
X157569737Y-85366503D01*
X157533515Y-85279054D01*
X157509397Y-85220827D01*
X157509390Y-85220814D01*
X157421789Y-85089711D01*
X157421786Y-85089707D01*
X157310292Y-84978213D01*
X157310288Y-84978210D01*
X157179185Y-84890609D01*
X157179175Y-84890604D01*
X157077047Y-84848301D01*
X157022644Y-84804460D01*
X157000579Y-84738166D01*
X157000500Y-84733740D01*
X157000500Y-84599097D01*
X157020185Y-84532058D01*
X157072989Y-84486303D01*
X157142147Y-84476359D01*
X157205703Y-84505384D01*
X157212181Y-84511416D01*
X157619481Y-84918716D01*
X157869478Y-85168713D01*
X157869480Y-85168716D01*
X157981284Y-85280520D01*
X158018956Y-85302269D01*
X158028592Y-85310923D01*
X158029616Y-85312580D01*
X158033421Y-85315500D01*
X158139707Y-85421786D01*
X158139711Y-85421789D01*
X158270814Y-85509390D01*
X158270827Y-85509397D01*
X158414038Y-85568716D01*
X158416503Y-85569737D01*
X158571153Y-85600499D01*
X158571156Y-85600500D01*
X158571158Y-85600500D01*
X158728844Y-85600500D01*
X158728845Y-85600499D01*
X158883497Y-85569737D01*
X158950631Y-85541929D01*
X159003048Y-85520218D01*
X159072517Y-85512749D01*
X159134996Y-85544024D01*
X159170648Y-85604113D01*
X159174500Y-85634779D01*
X159174500Y-89861611D01*
X159198535Y-89982444D01*
X159198540Y-89982461D01*
X159245685Y-90096280D01*
X159245687Y-90096283D01*
X159245688Y-90096286D01*
X159279915Y-90147509D01*
X159314142Y-90198733D01*
X159401267Y-90285858D01*
X159401269Y-90285859D01*
X159411232Y-90295822D01*
X161208331Y-92092922D01*
X161208337Y-92092927D01*
X161678228Y-92562819D01*
X161711713Y-92624142D01*
X161706729Y-92693834D01*
X161664857Y-92749767D01*
X161599393Y-92774184D01*
X161590547Y-92774500D01*
X146969042Y-92774500D01*
X146902003Y-92754815D01*
X146856248Y-92702011D01*
X146846304Y-92632853D01*
X146846550Y-92631225D01*
X146850500Y-92606287D01*
X146850500Y-92393713D01*
X146817246Y-92183757D01*
X146751557Y-91981588D01*
X146655051Y-91792184D01*
X146655049Y-91792181D01*
X146655048Y-91792179D01*
X146530109Y-91620213D01*
X146379786Y-91469890D01*
X146207820Y-91344951D01*
X146018414Y-91248444D01*
X146018413Y-91248443D01*
X146018412Y-91248443D01*
X145816243Y-91182754D01*
X145816241Y-91182753D01*
X145816240Y-91182753D01*
X145654957Y-91157208D01*
X145606287Y-91149500D01*
X145393713Y-91149500D01*
X145345042Y-91157208D01*
X145183760Y-91182753D01*
X144981585Y-91248444D01*
X144792179Y-91344951D01*
X144620215Y-91469889D01*
X144506673Y-91583431D01*
X144445350Y-91616915D01*
X144375658Y-91611931D01*
X144319725Y-91570059D01*
X144302810Y-91539082D01*
X144253797Y-91407671D01*
X144253793Y-91407664D01*
X144167547Y-91292455D01*
X144167544Y-91292452D01*
X144052335Y-91206206D01*
X144052328Y-91206202D01*
X143917482Y-91155908D01*
X143917483Y-91155908D01*
X143857883Y-91149501D01*
X143857881Y-91149500D01*
X143857873Y-91149500D01*
X143857864Y-91149500D01*
X142062129Y-91149500D01*
X142062123Y-91149501D01*
X142002516Y-91155908D01*
X141867671Y-91206202D01*
X141867664Y-91206206D01*
X141752455Y-91292452D01*
X141752452Y-91292455D01*
X141666206Y-91407664D01*
X141666202Y-91407671D01*
X141615908Y-91542517D01*
X141609501Y-91602116D01*
X141609500Y-91602135D01*
X141609500Y-93397870D01*
X141609501Y-93397876D01*
X141615908Y-93457483D01*
X141666202Y-93592328D01*
X141666206Y-93592335D01*
X141752452Y-93707544D01*
X141752455Y-93707547D01*
X141867664Y-93793793D01*
X141867671Y-93793797D01*
X141999082Y-93842810D01*
X142055016Y-93884681D01*
X142079433Y-93950145D01*
X142064582Y-94018418D01*
X142043431Y-94046673D01*
X141929889Y-94160215D01*
X141804951Y-94332179D01*
X141708444Y-94521585D01*
X141642753Y-94723760D01*
X141609500Y-94933713D01*
X141609500Y-95146286D01*
X141634491Y-95304076D01*
X141642754Y-95356243D01*
X141678257Y-95465511D01*
X141708444Y-95558414D01*
X141804951Y-95747820D01*
X141929890Y-95919786D01*
X142080213Y-96070109D01*
X142252179Y-96195048D01*
X142252181Y-96195049D01*
X142252184Y-96195051D01*
X142441588Y-96291557D01*
X142643757Y-96357246D01*
X142853713Y-96390500D01*
X142853714Y-96390500D01*
X143066286Y-96390500D01*
X143066287Y-96390500D01*
X143276243Y-96357246D01*
X143478412Y-96291557D01*
X143667816Y-96195051D01*
X143801098Y-96098217D01*
X143839786Y-96070109D01*
X143839788Y-96070106D01*
X143839792Y-96070104D01*
X143990104Y-95919792D01*
X143990106Y-95919788D01*
X143990109Y-95919786D01*
X144115048Y-95747820D01*
X144115047Y-95747820D01*
X144115051Y-95747816D01*
X144119514Y-95739054D01*
X144167488Y-95688259D01*
X144235308Y-95671463D01*
X144301444Y-95693999D01*
X144340486Y-95739056D01*
X144344951Y-95747820D01*
X144469890Y-95919786D01*
X144620213Y-96070109D01*
X144792179Y-96195048D01*
X144792181Y-96195049D01*
X144792184Y-96195051D01*
X144981588Y-96291557D01*
X145183757Y-96357246D01*
X145393713Y-96390500D01*
X145393714Y-96390500D01*
X145606286Y-96390500D01*
X145606287Y-96390500D01*
X145816243Y-96357246D01*
X146018412Y-96291557D01*
X146207816Y-96195051D01*
X146341098Y-96098217D01*
X146379786Y-96070109D01*
X146379788Y-96070106D01*
X146379792Y-96070104D01*
X146530104Y-95919792D01*
X146530106Y-95919788D01*
X146530109Y-95919786D01*
X146655048Y-95747820D01*
X146655047Y-95747820D01*
X146655051Y-95747816D01*
X146751557Y-95558412D01*
X146817246Y-95356243D01*
X146850500Y-95146287D01*
X146850500Y-94933713D01*
X146842294Y-94881902D01*
X185499500Y-94881902D01*
X185499500Y-95118097D01*
X185536446Y-95351368D01*
X185609433Y-95575996D01*
X185696983Y-95747820D01*
X185716657Y-95786433D01*
X185855483Y-95977510D01*
X186022490Y-96144517D01*
X186213567Y-96283343D01*
X186312991Y-96334002D01*
X186424003Y-96390566D01*
X186424005Y-96390566D01*
X186424008Y-96390568D01*
X186495469Y-96413787D01*
X186648631Y-96463553D01*
X186881903Y-96500500D01*
X186881908Y-96500500D01*
X187118097Y-96500500D01*
X187351368Y-96463553D01*
X187575992Y-96390568D01*
X187576126Y-96390500D01*
X187641390Y-96357246D01*
X187786433Y-96283343D01*
X187977510Y-96144517D01*
X188144517Y-95977510D01*
X188283343Y-95786433D01*
X188390568Y-95575992D01*
X188463553Y-95351368D01*
X188475738Y-95274433D01*
X188500500Y-95118097D01*
X188500500Y-94881902D01*
X188463553Y-94648631D01*
X188404391Y-94466550D01*
X188390568Y-94424008D01*
X188390566Y-94424005D01*
X188390566Y-94424003D01*
X188325778Y-94296850D01*
X188283343Y-94213567D01*
X188144517Y-94022490D01*
X187977510Y-93855483D01*
X187786433Y-93716657D01*
X187756817Y-93701567D01*
X187575996Y-93609433D01*
X187351368Y-93536446D01*
X187118097Y-93499500D01*
X187118092Y-93499500D01*
X186881908Y-93499500D01*
X186881903Y-93499500D01*
X186648631Y-93536446D01*
X186424003Y-93609433D01*
X186213566Y-93716657D01*
X186114762Y-93788443D01*
X186022490Y-93855483D01*
X186022488Y-93855485D01*
X186022487Y-93855485D01*
X185855485Y-94022487D01*
X185855485Y-94022488D01*
X185855483Y-94022490D01*
X185852554Y-94026522D01*
X185716657Y-94213566D01*
X185609433Y-94424003D01*
X185536446Y-94648631D01*
X185499500Y-94881902D01*
X146842294Y-94881902D01*
X146817246Y-94723757D01*
X146751557Y-94521588D01*
X146655051Y-94332184D01*
X146575278Y-94222385D01*
X146551799Y-94156578D01*
X146567625Y-94088525D01*
X146617731Y-94039830D01*
X146675597Y-94025500D01*
X184061608Y-94025500D01*
X184061608Y-94025499D01*
X184140055Y-94009896D01*
X184182452Y-94001463D01*
X184215792Y-93987652D01*
X184296286Y-93954312D01*
X184347509Y-93920084D01*
X184348445Y-93919459D01*
X184360271Y-93911556D01*
X184398733Y-93885858D01*
X184485858Y-93798733D01*
X184485859Y-93798731D01*
X184492925Y-93791665D01*
X184492928Y-93791661D01*
X187498729Y-90785860D01*
X187498733Y-90785858D01*
X187585858Y-90698733D01*
X187647629Y-90606287D01*
X187654312Y-90596286D01*
X187701463Y-90482451D01*
X187725500Y-90361607D01*
X187725500Y-90238393D01*
X187725500Y-79510451D01*
X187745185Y-79443412D01*
X187761815Y-79422774D01*
X188458797Y-78725791D01*
X188520118Y-78692308D01*
X188522128Y-78691889D01*
X188633497Y-78669737D01*
X188779179Y-78609394D01*
X188910289Y-78521789D01*
X189021789Y-78410289D01*
X189109394Y-78279179D01*
X189119192Y-78255521D01*
X189123823Y-78248590D01*
X189124921Y-78243547D01*
X189146065Y-78215300D01*
X189287822Y-78073544D01*
X189349142Y-78040062D01*
X189418834Y-78045046D01*
X189474767Y-78086918D01*
X189499184Y-78152382D01*
X189499500Y-78161228D01*
X189499500Y-95995572D01*
X189499184Y-96004419D01*
X189484869Y-96204557D01*
X189482351Y-96222068D01*
X189440646Y-96413787D01*
X189435662Y-96430763D01*
X189367090Y-96614609D01*
X189359740Y-96630701D01*
X189265711Y-96802904D01*
X189256146Y-96817789D01*
X189138558Y-96974867D01*
X189126972Y-96988237D01*
X188988237Y-97126972D01*
X188974867Y-97138558D01*
X188817789Y-97256146D01*
X188802904Y-97265711D01*
X188630701Y-97359740D01*
X188614609Y-97367090D01*
X188430763Y-97435662D01*
X188413787Y-97440646D01*
X188222068Y-97482351D01*
X188204557Y-97484869D01*
X188023779Y-97497799D01*
X188004417Y-97499184D01*
X187995572Y-97499500D01*
X129004428Y-97499500D01*
X128995582Y-97499184D01*
X128973622Y-97497613D01*
X128795442Y-97484869D01*
X128777931Y-97482351D01*
X128586212Y-97440646D01*
X128569236Y-97435662D01*
X128385390Y-97367090D01*
X128369298Y-97359740D01*
X128197095Y-97265711D01*
X128182210Y-97256146D01*
X128025132Y-97138558D01*
X128011762Y-97126972D01*
X127873027Y-96988237D01*
X127861441Y-96974867D01*
X127810809Y-96907231D01*
X127743849Y-96817784D01*
X127734288Y-96802904D01*
X127640259Y-96630701D01*
X127632909Y-96614609D01*
X127590348Y-96500500D01*
X127564334Y-96430755D01*
X127559355Y-96413797D01*
X127517647Y-96222063D01*
X127515130Y-96204556D01*
X127514450Y-96195051D01*
X127500816Y-96004418D01*
X127500500Y-95995572D01*
X127500500Y-71822135D01*
X128149500Y-71822135D01*
X128149500Y-73617870D01*
X128149501Y-73617876D01*
X128155908Y-73677483D01*
X128206202Y-73812328D01*
X128206206Y-73812335D01*
X128292452Y-73927544D01*
X128292455Y-73927547D01*
X128407664Y-74013793D01*
X128407671Y-74013797D01*
X128539082Y-74062810D01*
X128595016Y-74104681D01*
X128619433Y-74170145D01*
X128604582Y-74238418D01*
X128583431Y-74266673D01*
X128469889Y-74380215D01*
X128344951Y-74552179D01*
X128248444Y-74741585D01*
X128182753Y-74943760D01*
X128154917Y-75119514D01*
X128149500Y-75153713D01*
X128149500Y-75366287D01*
X128182754Y-75576243D01*
X128197147Y-75620541D01*
X128248444Y-75778414D01*
X128344951Y-75967820D01*
X128469890Y-76139786D01*
X128620213Y-76290109D01*
X128792182Y-76415050D01*
X128800946Y-76419516D01*
X128851742Y-76467491D01*
X128868536Y-76535312D01*
X128845998Y-76601447D01*
X128800946Y-76640484D01*
X128792182Y-76644949D01*
X128620213Y-76769890D01*
X128469890Y-76920213D01*
X128344951Y-77092179D01*
X128248444Y-77281585D01*
X128182753Y-77483760D01*
X128155623Y-77655052D01*
X128149500Y-77693713D01*
X128149500Y-77906287D01*
X128182754Y-78116243D01*
X128239622Y-78291265D01*
X128248444Y-78318414D01*
X128344951Y-78507820D01*
X128469890Y-78679786D01*
X128620213Y-78830109D01*
X128792182Y-78955050D01*
X128800946Y-78959516D01*
X128851742Y-79007491D01*
X128868536Y-79075312D01*
X128845998Y-79141447D01*
X128800946Y-79180484D01*
X128792182Y-79184949D01*
X128620213Y-79309890D01*
X128469890Y-79460213D01*
X128344951Y-79632179D01*
X128248444Y-79821585D01*
X128182753Y-80023760D01*
X128150047Y-80230261D01*
X128149500Y-80233713D01*
X128149500Y-80446287D01*
X128156377Y-80489707D01*
X128181564Y-80648735D01*
X128182754Y-80656243D01*
X128232806Y-80810288D01*
X128248444Y-80858414D01*
X128344951Y-81047820D01*
X128469890Y-81219786D01*
X128620213Y-81370109D01*
X128792182Y-81495050D01*
X128800946Y-81499516D01*
X128851742Y-81547491D01*
X128868536Y-81615312D01*
X128845998Y-81681447D01*
X128800946Y-81720484D01*
X128792182Y-81724949D01*
X128620213Y-81849890D01*
X128469890Y-82000213D01*
X128344951Y-82172179D01*
X128248444Y-82361585D01*
X128182753Y-82563760D01*
X128149500Y-82773713D01*
X128149500Y-82986286D01*
X128178044Y-83166510D01*
X128182754Y-83196243D01*
X128242195Y-83379184D01*
X128248444Y-83398414D01*
X128344951Y-83587820D01*
X128469890Y-83759786D01*
X128620213Y-83910109D01*
X128792182Y-84035050D01*
X128800946Y-84039516D01*
X128851742Y-84087491D01*
X128868536Y-84155312D01*
X128845998Y-84221447D01*
X128800946Y-84260484D01*
X128792182Y-84264949D01*
X128620213Y-84389890D01*
X128469890Y-84540213D01*
X128344951Y-84712179D01*
X128248444Y-84901585D01*
X128182753Y-85103760D01*
X128149500Y-85313713D01*
X128149500Y-85526286D01*
X128173662Y-85678842D01*
X128182754Y-85736243D01*
X128214355Y-85833501D01*
X128248444Y-85938414D01*
X128344951Y-86127820D01*
X128469890Y-86299786D01*
X128620213Y-86450109D01*
X128792182Y-86575050D01*
X128800946Y-86579516D01*
X128851742Y-86627491D01*
X128868536Y-86695312D01*
X128845998Y-86761447D01*
X128800946Y-86800484D01*
X128792182Y-86804949D01*
X128620213Y-86929890D01*
X128469890Y-87080213D01*
X128344951Y-87252179D01*
X128248444Y-87441585D01*
X128182753Y-87643760D01*
X128149500Y-87853713D01*
X128149500Y-88066286D01*
X128176752Y-88238352D01*
X128182754Y-88276243D01*
X128212081Y-88366503D01*
X128248444Y-88478414D01*
X128344951Y-88667820D01*
X128469890Y-88839786D01*
X128620213Y-88990109D01*
X128792182Y-89115050D01*
X128800946Y-89119516D01*
X128851742Y-89167491D01*
X128868536Y-89235312D01*
X128845998Y-89301447D01*
X128800946Y-89340484D01*
X128792182Y-89344949D01*
X128620213Y-89469890D01*
X128469890Y-89620213D01*
X128344951Y-89792179D01*
X128248444Y-89981585D01*
X128182753Y-90183760D01*
X128149500Y-90393713D01*
X128149500Y-90606286D01*
X128182753Y-90816239D01*
X128248444Y-91018414D01*
X128344951Y-91207820D01*
X128469890Y-91379786D01*
X128620213Y-91530109D01*
X128792179Y-91655048D01*
X128792181Y-91655049D01*
X128792184Y-91655051D01*
X128801493Y-91659794D01*
X128852290Y-91707766D01*
X128869087Y-91775587D01*
X128846552Y-91841722D01*
X128801502Y-91880762D01*
X128792443Y-91885378D01*
X128620540Y-92010272D01*
X128620535Y-92010276D01*
X128470276Y-92160535D01*
X128470272Y-92160540D01*
X128345379Y-92332442D01*
X128248904Y-92521782D01*
X128183242Y-92723870D01*
X128183242Y-92723873D01*
X128172769Y-92790000D01*
X129066988Y-92790000D01*
X129034075Y-92847007D01*
X129000000Y-92974174D01*
X129000000Y-93105826D01*
X129034075Y-93232993D01*
X129066988Y-93290000D01*
X128172769Y-93290000D01*
X128183242Y-93356126D01*
X128183242Y-93356129D01*
X128248904Y-93558217D01*
X128345379Y-93747557D01*
X128470272Y-93919459D01*
X128470276Y-93919464D01*
X128620535Y-94069723D01*
X128620540Y-94069727D01*
X128792444Y-94194622D01*
X128802048Y-94199516D01*
X128852844Y-94247491D01*
X128869638Y-94315312D01*
X128847100Y-94381447D01*
X128802048Y-94420484D01*
X128792444Y-94425377D01*
X128620540Y-94550272D01*
X128620535Y-94550276D01*
X128470276Y-94700535D01*
X128470272Y-94700540D01*
X128345379Y-94872442D01*
X128248904Y-95061782D01*
X128183242Y-95263870D01*
X128183242Y-95263873D01*
X128172769Y-95330000D01*
X129066988Y-95330000D01*
X129034075Y-95387007D01*
X129000000Y-95514174D01*
X129000000Y-95645826D01*
X129034075Y-95772993D01*
X129066988Y-95830000D01*
X128172769Y-95830000D01*
X128183242Y-95896126D01*
X128183242Y-95896129D01*
X128248904Y-96098217D01*
X128345379Y-96287557D01*
X128470272Y-96459459D01*
X128470276Y-96459464D01*
X128620535Y-96609723D01*
X128620540Y-96609727D01*
X128792442Y-96734620D01*
X128981782Y-96831095D01*
X129183871Y-96896757D01*
X129250000Y-96907231D01*
X129250000Y-96013012D01*
X129307007Y-96045925D01*
X129434174Y-96080000D01*
X129565826Y-96080000D01*
X129692993Y-96045925D01*
X129750000Y-96013012D01*
X129750000Y-96907230D01*
X129816126Y-96896757D01*
X129816129Y-96896757D01*
X130018217Y-96831095D01*
X130207557Y-96734620D01*
X130379459Y-96609727D01*
X130379464Y-96609723D01*
X130529723Y-96459464D01*
X130529727Y-96459459D01*
X130654620Y-96287557D01*
X130751095Y-96098217D01*
X130816757Y-95896129D01*
X130816757Y-95896126D01*
X130827231Y-95830000D01*
X129933012Y-95830000D01*
X129965925Y-95772993D01*
X130000000Y-95645826D01*
X130000000Y-95514174D01*
X129965925Y-95387007D01*
X129933012Y-95330000D01*
X130827231Y-95330000D01*
X130816757Y-95263873D01*
X130816757Y-95263870D01*
X130751095Y-95061782D01*
X130654620Y-94872442D01*
X130529727Y-94700540D01*
X130529723Y-94700535D01*
X130379464Y-94550276D01*
X130379459Y-94550272D01*
X130264225Y-94466550D01*
X130184686Y-94412651D01*
X130167171Y-94391414D01*
X130147157Y-94372512D01*
X130146510Y-94369902D01*
X136675500Y-94369902D01*
X136675500Y-94606097D01*
X136712446Y-94839368D01*
X136785433Y-95063996D01*
X136850222Y-95191150D01*
X136892657Y-95274433D01*
X137031483Y-95465510D01*
X137198490Y-95632517D01*
X137389567Y-95771343D01*
X137419183Y-95786433D01*
X137600003Y-95878566D01*
X137600005Y-95878566D01*
X137600008Y-95878568D01*
X137720412Y-95917689D01*
X137824631Y-95951553D01*
X138057903Y-95988500D01*
X138057908Y-95988500D01*
X138294097Y-95988500D01*
X138527368Y-95951553D01*
X138751992Y-95878568D01*
X138962433Y-95771343D01*
X139153510Y-95632517D01*
X139320517Y-95465510D01*
X139459343Y-95274433D01*
X139566568Y-95063992D01*
X139639553Y-94839368D01*
X139647043Y-94792076D01*
X139676500Y-94606097D01*
X139676500Y-94369902D01*
X139639553Y-94136631D01*
X139601143Y-94018418D01*
X139566568Y-93912008D01*
X139566566Y-93912005D01*
X139566566Y-93912003D01*
X139508849Y-93798729D01*
X139459343Y-93701567D01*
X139320517Y-93510490D01*
X139153510Y-93343483D01*
X138962433Y-93204657D01*
X138751996Y-93097433D01*
X138527368Y-93024446D01*
X138294097Y-92987500D01*
X138294092Y-92987500D01*
X138057908Y-92987500D01*
X138057903Y-92987500D01*
X137824631Y-93024446D01*
X137600003Y-93097433D01*
X137389566Y-93204657D01*
X137280550Y-93283862D01*
X137198490Y-93343483D01*
X137198488Y-93343485D01*
X137198487Y-93343485D01*
X137031485Y-93510487D01*
X137031485Y-93510488D01*
X137031483Y-93510490D01*
X137017233Y-93530104D01*
X136892657Y-93701566D01*
X136785433Y-93912003D01*
X136712446Y-94136631D01*
X136675500Y-94369902D01*
X130146510Y-94369902D01*
X130145257Y-94364843D01*
X130140231Y-94358748D01*
X130136977Y-94331410D01*
X130130361Y-94304692D01*
X130132908Y-94297215D01*
X130131975Y-94289368D01*
X130144018Y-94264610D01*
X130152897Y-94238556D01*
X130159460Y-94232869D01*
X130162540Y-94226538D01*
X130176748Y-94217888D01*
X130197954Y-94199514D01*
X130207558Y-94194620D01*
X130379459Y-94069727D01*
X130379464Y-94069723D01*
X130529723Y-93919464D01*
X130529727Y-93919459D01*
X130654620Y-93747557D01*
X130751095Y-93558217D01*
X130816757Y-93356129D01*
X130816757Y-93356126D01*
X130827231Y-93290000D01*
X129933012Y-93290000D01*
X129965925Y-93232993D01*
X130000000Y-93105826D01*
X130000000Y-92974174D01*
X129965925Y-92847007D01*
X129933012Y-92790000D01*
X130827231Y-92790000D01*
X130816757Y-92723873D01*
X130816757Y-92723870D01*
X130751095Y-92521782D01*
X130654620Y-92332442D01*
X130529727Y-92160540D01*
X130529723Y-92160535D01*
X130379464Y-92010276D01*
X130379459Y-92010272D01*
X130207555Y-91885377D01*
X130198500Y-91880763D01*
X130147706Y-91832788D01*
X130130912Y-91764966D01*
X130153451Y-91698832D01*
X130198508Y-91659793D01*
X130207816Y-91655051D01*
X130306393Y-91583431D01*
X130379786Y-91530109D01*
X130379788Y-91530106D01*
X130379792Y-91530104D01*
X130530104Y-91379792D01*
X130530106Y-91379788D01*
X130530109Y-91379786D01*
X130655048Y-91207820D01*
X130655047Y-91207820D01*
X130655051Y-91207816D01*
X130751557Y-91018412D01*
X130817246Y-90816243D01*
X130850500Y-90606287D01*
X130850500Y-90393713D01*
X130817246Y-90183757D01*
X130751557Y-89981588D01*
X130655051Y-89792184D01*
X130655049Y-89792181D01*
X130655048Y-89792179D01*
X130530109Y-89620213D01*
X130379786Y-89469890D01*
X130207820Y-89344951D01*
X130207115Y-89344591D01*
X130199054Y-89340485D01*
X130148259Y-89292512D01*
X130131463Y-89224692D01*
X130153999Y-89158556D01*
X130199054Y-89119515D01*
X130207816Y-89115051D01*
X130229789Y-89099086D01*
X130379786Y-88990109D01*
X130379788Y-88990106D01*
X130379792Y-88990104D01*
X130530104Y-88839792D01*
X130530106Y-88839788D01*
X130530109Y-88839786D01*
X130655048Y-88667820D01*
X130655047Y-88667820D01*
X130655051Y-88667816D01*
X130751557Y-88478412D01*
X130817246Y-88276243D01*
X130850500Y-88066287D01*
X130850500Y-87853713D01*
X130817246Y-87643757D01*
X130751557Y-87441588D01*
X130655051Y-87252184D01*
X130655049Y-87252181D01*
X130655048Y-87252179D01*
X130530109Y-87080213D01*
X130379786Y-86929890D01*
X130207820Y-86804951D01*
X130207115Y-86804591D01*
X130199054Y-86800485D01*
X130148259Y-86752512D01*
X130131463Y-86684692D01*
X130153999Y-86618556D01*
X130199054Y-86579515D01*
X130207816Y-86575051D01*
X130229789Y-86559086D01*
X130379786Y-86450109D01*
X130379788Y-86450106D01*
X130379792Y-86450104D01*
X130530104Y-86299792D01*
X130530106Y-86299788D01*
X130530109Y-86299786D01*
X130655048Y-86127820D01*
X130655047Y-86127820D01*
X130655051Y-86127816D01*
X130751557Y-85938412D01*
X130817246Y-85736243D01*
X130850500Y-85526287D01*
X130850500Y-85313713D01*
X130817246Y-85103757D01*
X130751557Y-84901588D01*
X130655051Y-84712184D01*
X130655049Y-84712181D01*
X130655048Y-84712179D01*
X130530109Y-84540213D01*
X130379786Y-84389890D01*
X130207820Y-84264951D01*
X130207115Y-84264591D01*
X130199054Y-84260485D01*
X130148259Y-84212512D01*
X130131463Y-84144692D01*
X130153999Y-84078556D01*
X130199054Y-84039515D01*
X130207816Y-84035051D01*
X130256748Y-83999500D01*
X130379786Y-83910109D01*
X130379788Y-83910106D01*
X130379792Y-83910104D01*
X130530104Y-83759792D01*
X130558177Y-83721153D01*
X138199500Y-83721153D01*
X138199500Y-83878846D01*
X138230261Y-84033489D01*
X138230264Y-84033501D01*
X138290602Y-84179172D01*
X138290609Y-84179185D01*
X138378210Y-84310288D01*
X138378213Y-84310292D01*
X138489707Y-84421786D01*
X138489711Y-84421789D01*
X138620814Y-84509390D01*
X138620827Y-84509397D01*
X138695225Y-84540213D01*
X138766503Y-84569737D01*
X138914105Y-84599097D01*
X138921153Y-84600499D01*
X138921156Y-84600500D01*
X138921158Y-84600500D01*
X139078844Y-84600500D01*
X139078845Y-84600499D01*
X139233497Y-84569737D01*
X139346166Y-84523067D01*
X139379172Y-84509397D01*
X139379172Y-84509396D01*
X139379179Y-84509394D01*
X139413737Y-84486303D01*
X139510875Y-84421398D01*
X139577553Y-84400520D01*
X139579766Y-84400500D01*
X147320943Y-84400500D01*
X147720939Y-84400500D01*
X147720943Y-84400501D01*
X147879057Y-84400501D01*
X147884987Y-84398911D01*
X147899137Y-84398781D01*
X147905314Y-84400533D01*
X147915004Y-84400850D01*
X147915098Y-84399903D01*
X147921156Y-84400500D01*
X147921158Y-84400500D01*
X148078844Y-84400500D01*
X148078845Y-84400499D01*
X148233497Y-84369737D01*
X148379179Y-84309394D01*
X148510289Y-84221789D01*
X148621789Y-84110289D01*
X148709394Y-83979179D01*
X148769737Y-83833497D01*
X148800500Y-83678842D01*
X148800500Y-83521158D01*
X148800500Y-83521155D01*
X148800499Y-83521153D01*
X148797233Y-83504735D01*
X148769737Y-83366503D01*
X148737929Y-83289711D01*
X148709397Y-83220827D01*
X148709390Y-83220814D01*
X148621789Y-83089711D01*
X148621786Y-83089707D01*
X148510292Y-82978213D01*
X148510288Y-82978210D01*
X148379185Y-82890609D01*
X148379172Y-82890602D01*
X148233501Y-82830264D01*
X148233489Y-82830261D01*
X148078845Y-82799500D01*
X148078842Y-82799500D01*
X147921158Y-82799500D01*
X147921155Y-82799500D01*
X147766510Y-82830261D01*
X147766498Y-82830264D01*
X147620827Y-82890602D01*
X147620814Y-82890609D01*
X147489711Y-82978210D01*
X147489707Y-82978213D01*
X147378213Y-83089707D01*
X147378207Y-83089715D01*
X147341675Y-83144390D01*
X147288063Y-83189196D01*
X147238573Y-83199500D01*
X139579766Y-83199500D01*
X139512727Y-83179815D01*
X139510875Y-83178602D01*
X139379185Y-83090609D01*
X139379172Y-83090602D01*
X139233501Y-83030264D01*
X139233489Y-83030261D01*
X139078845Y-82999500D01*
X139078842Y-82999500D01*
X138921158Y-82999500D01*
X138921155Y-82999500D01*
X138766510Y-83030261D01*
X138766498Y-83030264D01*
X138620827Y-83090602D01*
X138620814Y-83090609D01*
X138489711Y-83178210D01*
X138489707Y-83178213D01*
X138378213Y-83289707D01*
X138378210Y-83289711D01*
X138290609Y-83420814D01*
X138290602Y-83420827D01*
X138230264Y-83566498D01*
X138230261Y-83566510D01*
X138199500Y-83721153D01*
X130558177Y-83721153D01*
X130566070Y-83710289D01*
X130615554Y-83642181D01*
X130642733Y-83604769D01*
X130655051Y-83587816D01*
X130751557Y-83398412D01*
X130817246Y-83196243D01*
X130850500Y-82986287D01*
X130850500Y-82773713D01*
X130817246Y-82563757D01*
X130751557Y-82361588D01*
X130655051Y-82172184D01*
X130655049Y-82172181D01*
X130655048Y-82172179D01*
X130528054Y-81997385D01*
X130504574Y-81931578D01*
X130520400Y-81863525D01*
X130570506Y-81814830D01*
X130628372Y-81800500D01*
X135238573Y-81800500D01*
X135305612Y-81820185D01*
X135341675Y-81855610D01*
X135378207Y-81910284D01*
X135378213Y-81910292D01*
X135489707Y-82021786D01*
X135489711Y-82021789D01*
X135620814Y-82109390D01*
X135620827Y-82109397D01*
X135705599Y-82144510D01*
X135766503Y-82169737D01*
X135916131Y-82199500D01*
X135921153Y-82200499D01*
X135921156Y-82200500D01*
X135921158Y-82200500D01*
X136078844Y-82200500D01*
X136078845Y-82200499D01*
X136233497Y-82169737D01*
X136379179Y-82109394D01*
X136510289Y-82021789D01*
X136621789Y-81910289D01*
X136709394Y-81779179D01*
X136769737Y-81633497D01*
X136797276Y-81495050D01*
X136800500Y-81478843D01*
X136800500Y-81321156D01*
X136795673Y-81296892D01*
X136795968Y-81293585D01*
X136794584Y-81290567D01*
X136799060Y-81259032D01*
X136801899Y-81227300D01*
X136803936Y-81224677D01*
X136804403Y-81221391D01*
X136825216Y-81197283D01*
X136844762Y-81172122D01*
X136847893Y-81171017D01*
X136850063Y-81168504D01*
X136880614Y-81159473D01*
X136910651Y-81148877D01*
X136914830Y-81149360D01*
X136917067Y-81148699D01*
X136928235Y-81150910D01*
X136952011Y-81153659D01*
X136964045Y-81157169D01*
X136968216Y-81159577D01*
X137018439Y-81173034D01*
X137019731Y-81173411D01*
X137032186Y-81181384D01*
X137072691Y-81204770D01*
X137089707Y-81221786D01*
X137089711Y-81221789D01*
X137220814Y-81309390D01*
X137220827Y-81309397D01*
X137366498Y-81369735D01*
X137366503Y-81369737D01*
X137516131Y-81399500D01*
X137521153Y-81400499D01*
X137521156Y-81400500D01*
X137521158Y-81400500D01*
X137678844Y-81400500D01*
X137678845Y-81400499D01*
X137833497Y-81369737D01*
X137979179Y-81309394D01*
X138110289Y-81221789D01*
X138221789Y-81110289D01*
X138309394Y-80979179D01*
X138369737Y-80833497D01*
X138400500Y-80678842D01*
X138400500Y-80521158D01*
X138400500Y-80521155D01*
X138400499Y-80521153D01*
X138394649Y-80491742D01*
X138369737Y-80366503D01*
X138350955Y-80321158D01*
X138309397Y-80220827D01*
X138309390Y-80220814D01*
X138221789Y-80089711D01*
X138221786Y-80089707D01*
X138110292Y-79978213D01*
X138110288Y-79978210D01*
X137979185Y-79890609D01*
X137979172Y-79890602D01*
X137833501Y-79830264D01*
X137833489Y-79830261D01*
X137678845Y-79799500D01*
X137678842Y-79799500D01*
X137521158Y-79799500D01*
X137521156Y-79799500D01*
X137360530Y-79831451D01*
X137360051Y-79829046D01*
X137300944Y-79829544D01*
X137247194Y-79797958D01*
X135634573Y-78185337D01*
X135601088Y-78124014D01*
X135600637Y-78121847D01*
X135599522Y-78116243D01*
X135569737Y-77966503D01*
X135544795Y-77906287D01*
X135509397Y-77820827D01*
X135509390Y-77820814D01*
X135421789Y-77689711D01*
X135421786Y-77689707D01*
X135310292Y-77578213D01*
X135310288Y-77578210D01*
X135179185Y-77490609D01*
X135179172Y-77490602D01*
X135033501Y-77430264D01*
X135033489Y-77430261D01*
X134878845Y-77399500D01*
X134878842Y-77399500D01*
X134721158Y-77399500D01*
X134721155Y-77399500D01*
X134566510Y-77430261D01*
X134566498Y-77430264D01*
X134420827Y-77490602D01*
X134420814Y-77490609D01*
X134289711Y-77578210D01*
X134289707Y-77578213D01*
X134178213Y-77689707D01*
X134178210Y-77689711D01*
X134090609Y-77820814D01*
X134090602Y-77820827D01*
X134030264Y-77966498D01*
X134030261Y-77966510D01*
X133999500Y-78121153D01*
X133999500Y-78278846D01*
X134030261Y-78433489D01*
X134030264Y-78433501D01*
X134090602Y-78579172D01*
X134090609Y-78579185D01*
X134178210Y-78710288D01*
X134178213Y-78710292D01*
X134289707Y-78821786D01*
X134289711Y-78821789D01*
X134420814Y-78909390D01*
X134420827Y-78909397D01*
X134541822Y-78959514D01*
X134566503Y-78969737D01*
X134631147Y-78982595D01*
X134721849Y-79000638D01*
X134783760Y-79033023D01*
X134785339Y-79034574D01*
X136138583Y-80387819D01*
X136148864Y-80406648D01*
X136163100Y-80422702D01*
X136165277Y-80436705D01*
X136172068Y-80449142D01*
X136170537Y-80470540D01*
X136173834Y-80491742D01*
X136168094Y-80504699D01*
X136167084Y-80518834D01*
X136154226Y-80536009D01*
X136145538Y-80555625D01*
X136133704Y-80563422D01*
X136125212Y-80574767D01*
X136105110Y-80582264D01*
X136087195Y-80594070D01*
X136064258Y-80597501D01*
X136059748Y-80599184D01*
X136052320Y-80599492D01*
X136051621Y-80599500D01*
X135921158Y-80599500D01*
X135913197Y-80601083D01*
X135901698Y-80601215D01*
X135896513Y-80599756D01*
X135884095Y-80600162D01*
X135879059Y-80599499D01*
X135879057Y-80599499D01*
X135720943Y-80599499D01*
X135713347Y-80599499D01*
X135713331Y-80599500D01*
X130971418Y-80599500D01*
X130904379Y-80579815D01*
X130858624Y-80527011D01*
X130848680Y-80457853D01*
X130848929Y-80456203D01*
X130850500Y-80446287D01*
X130850500Y-80233713D01*
X130817246Y-80023757D01*
X130751557Y-79821588D01*
X130655051Y-79632184D01*
X130655049Y-79632181D01*
X130655048Y-79632179D01*
X130530109Y-79460213D01*
X130379786Y-79309890D01*
X130207820Y-79184951D01*
X130207115Y-79184591D01*
X130199054Y-79180485D01*
X130148259Y-79132512D01*
X130131463Y-79064692D01*
X130153999Y-78998556D01*
X130199054Y-78959515D01*
X130207816Y-78955051D01*
X130270658Y-78909394D01*
X130379786Y-78830109D01*
X130379788Y-78830106D01*
X130379792Y-78830104D01*
X130530104Y-78679792D01*
X130530106Y-78679788D01*
X130530109Y-78679786D01*
X130655048Y-78507820D01*
X130655047Y-78507820D01*
X130655051Y-78507816D01*
X130751557Y-78318412D01*
X130817246Y-78116243D01*
X130850500Y-77906287D01*
X130850500Y-77693713D01*
X130817246Y-77483757D01*
X130751557Y-77281588D01*
X130655051Y-77092184D01*
X130655049Y-77092181D01*
X130655048Y-77092179D01*
X130530109Y-76920213D01*
X130379786Y-76769890D01*
X130207820Y-76644951D01*
X130207115Y-76644591D01*
X130199054Y-76640485D01*
X130148259Y-76592512D01*
X130131463Y-76524692D01*
X130153999Y-76458556D01*
X130199054Y-76419515D01*
X130207816Y-76415051D01*
X130237185Y-76393713D01*
X130379786Y-76290109D01*
X130379788Y-76290106D01*
X130379792Y-76290104D01*
X130530104Y-76139792D01*
X130530106Y-76139788D01*
X130530109Y-76139786D01*
X130655048Y-75967820D01*
X130655047Y-75967820D01*
X130655051Y-75967816D01*
X130751557Y-75778412D01*
X130817246Y-75576243D01*
X130850500Y-75366287D01*
X130850500Y-75153713D01*
X130817246Y-74943757D01*
X130751557Y-74741588D01*
X130655051Y-74552184D01*
X130655049Y-74552181D01*
X130655048Y-74552179D01*
X130530109Y-74380213D01*
X130416569Y-74266673D01*
X130383084Y-74205350D01*
X130388068Y-74135658D01*
X130429940Y-74079725D01*
X130460915Y-74062810D01*
X130592331Y-74013796D01*
X130707546Y-73927546D01*
X130793796Y-73812331D01*
X130844091Y-73677483D01*
X130850500Y-73617873D01*
X130850499Y-71822128D01*
X130844091Y-71762517D01*
X130824612Y-71710292D01*
X130793797Y-71627671D01*
X130793793Y-71627664D01*
X130707547Y-71512455D01*
X130707544Y-71512452D01*
X130592335Y-71426206D01*
X130592328Y-71426202D01*
X130457482Y-71375908D01*
X130457483Y-71375908D01*
X130397883Y-71369501D01*
X130397881Y-71369500D01*
X130397873Y-71369500D01*
X130397864Y-71369500D01*
X128602129Y-71369500D01*
X128602123Y-71369501D01*
X128542516Y-71375908D01*
X128407671Y-71426202D01*
X128407664Y-71426206D01*
X128292455Y-71512452D01*
X128292452Y-71512455D01*
X128206206Y-71627664D01*
X128206202Y-71627671D01*
X128155908Y-71762517D01*
X128149536Y-71821789D01*
X128149501Y-71822123D01*
X128149500Y-71822135D01*
X127500500Y-71822135D01*
X127500500Y-66062135D01*
X133609500Y-66062135D01*
X133609500Y-67857870D01*
X133609501Y-67857876D01*
X133615908Y-67917483D01*
X133666202Y-68052328D01*
X133666206Y-68052335D01*
X133752452Y-68167544D01*
X133752455Y-68167547D01*
X133867664Y-68253793D01*
X133867671Y-68253797D01*
X133903687Y-68267230D01*
X133999598Y-68303002D01*
X134055531Y-68344873D01*
X134079949Y-68410337D01*
X134065098Y-68478610D01*
X134043947Y-68506865D01*
X133930271Y-68620541D01*
X133805379Y-68792442D01*
X133708904Y-68981782D01*
X133643242Y-69183870D01*
X133643242Y-69183873D01*
X133632769Y-69250000D01*
X134526988Y-69250000D01*
X134494075Y-69307007D01*
X134460000Y-69434174D01*
X134460000Y-69565826D01*
X134494075Y-69692993D01*
X134526988Y-69750000D01*
X133632769Y-69750000D01*
X133643242Y-69816126D01*
X133643242Y-69816129D01*
X133708904Y-70018217D01*
X133805379Y-70207557D01*
X133930272Y-70379459D01*
X133930276Y-70379464D01*
X134080535Y-70529723D01*
X134080540Y-70529727D01*
X134252442Y-70654620D01*
X134441782Y-70751095D01*
X134643871Y-70816757D01*
X134710000Y-70827231D01*
X134710000Y-69933012D01*
X134767007Y-69965925D01*
X134894174Y-70000000D01*
X135025826Y-70000000D01*
X135152993Y-69965925D01*
X135210000Y-69933012D01*
X135210000Y-70827230D01*
X135276126Y-70816757D01*
X135276129Y-70816757D01*
X135478217Y-70751095D01*
X135667557Y-70654620D01*
X135839459Y-70529727D01*
X135839464Y-70529723D01*
X135989723Y-70379464D01*
X135989727Y-70379459D01*
X136114620Y-70207558D01*
X136119514Y-70197954D01*
X136167488Y-70147157D01*
X136235308Y-70130361D01*
X136301444Y-70152897D01*
X136340486Y-70197954D01*
X136345379Y-70207558D01*
X136470272Y-70379459D01*
X136470276Y-70379464D01*
X136620535Y-70529723D01*
X136620540Y-70529727D01*
X136792442Y-70654620D01*
X136981782Y-70751095D01*
X137183871Y-70816757D01*
X137250000Y-70827231D01*
X137250000Y-69933012D01*
X137307007Y-69965925D01*
X137434174Y-70000000D01*
X137565826Y-70000000D01*
X137692993Y-69965925D01*
X137750000Y-69933012D01*
X137750000Y-70827230D01*
X137816126Y-70816757D01*
X137816129Y-70816757D01*
X138018217Y-70751095D01*
X138207557Y-70654620D01*
X138379459Y-70529727D01*
X138379464Y-70529723D01*
X138529723Y-70379464D01*
X138529727Y-70379459D01*
X138654620Y-70207557D01*
X138751095Y-70018217D01*
X138816757Y-69816129D01*
X138816757Y-69816126D01*
X138827231Y-69750000D01*
X137933012Y-69750000D01*
X137965925Y-69692993D01*
X138000000Y-69565826D01*
X138000000Y-69434174D01*
X137965925Y-69307007D01*
X137933012Y-69250000D01*
X138827231Y-69250000D01*
X138816757Y-69183873D01*
X138816757Y-69183870D01*
X138751095Y-68981782D01*
X138654620Y-68792442D01*
X138529727Y-68620540D01*
X138529723Y-68620535D01*
X138379464Y-68470276D01*
X138379459Y-68470272D01*
X138207555Y-68345377D01*
X138198500Y-68340763D01*
X138147706Y-68292788D01*
X138130912Y-68224966D01*
X138153451Y-68158832D01*
X138198508Y-68119793D01*
X138207816Y-68115051D01*
X138294147Y-68052328D01*
X138379786Y-67990109D01*
X138379788Y-67990106D01*
X138379792Y-67990104D01*
X138530104Y-67839792D01*
X138530106Y-67839788D01*
X138530109Y-67839786D01*
X138655048Y-67667820D01*
X138655047Y-67667820D01*
X138655051Y-67667816D01*
X138751557Y-67478412D01*
X138817246Y-67276243D01*
X138850500Y-67066287D01*
X138850500Y-66853713D01*
X138817246Y-66643757D01*
X138751557Y-66441588D01*
X138655051Y-66252184D01*
X138655049Y-66252181D01*
X138655048Y-66252179D01*
X138530109Y-66080213D01*
X138379794Y-65929898D01*
X138379792Y-65929896D01*
X138351613Y-65909422D01*
X138308949Y-65854094D01*
X138300500Y-65809106D01*
X138300500Y-53408104D01*
X138320185Y-53341065D01*
X138372989Y-53295310D01*
X138442147Y-53285366D01*
X138505703Y-53314391D01*
X138542431Y-53369785D01*
X138609433Y-53575996D01*
X138704255Y-53762093D01*
X138716657Y-53786433D01*
X138855483Y-53977510D01*
X139022490Y-54144517D01*
X139213567Y-54283343D01*
X139312991Y-54334002D01*
X139424003Y-54390566D01*
X139424005Y-54390566D01*
X139424008Y-54390568D01*
X139544412Y-54429689D01*
X139648631Y-54463553D01*
X139881903Y-54500500D01*
X139881908Y-54500500D01*
X140118097Y-54500500D01*
X140351368Y-54463553D01*
X140370049Y-54457483D01*
X140575992Y-54390568D01*
X140786433Y-54283343D01*
X140977510Y-54144517D01*
X141144517Y-53977510D01*
X141283343Y-53786433D01*
X141390568Y-53575992D01*
X141463553Y-53351368D01*
X141465545Y-53338794D01*
X141500500Y-53118097D01*
X141500500Y-52881902D01*
X141463553Y-52648631D01*
X141405780Y-52470827D01*
X141390568Y-52424008D01*
X141390566Y-52424005D01*
X141390566Y-52424003D01*
X141326770Y-52298798D01*
X141283343Y-52213567D01*
X141144517Y-52022490D01*
X140977510Y-51855483D01*
X140786433Y-51716657D01*
X140752058Y-51699142D01*
X140575996Y-51609433D01*
X140351368Y-51536446D01*
X140118097Y-51499500D01*
X140118092Y-51499500D01*
X139881908Y-51499500D01*
X139881903Y-51499500D01*
X139648631Y-51536446D01*
X139424003Y-51609433D01*
X139213566Y-51716657D01*
X139132043Y-51775888D01*
X139022490Y-51855483D01*
X139022488Y-51855485D01*
X139022487Y-51855485D01*
X138855485Y-52022487D01*
X138855485Y-52022488D01*
X138855483Y-52022490D01*
X138825221Y-52064142D01*
X138716657Y-52213566D01*
X138609433Y-52424003D01*
X138542431Y-52630214D01*
X138502993Y-52687889D01*
X138438634Y-52715087D01*
X138369788Y-52703172D01*
X138318312Y-52655928D01*
X138300500Y-52591895D01*
X138300500Y-50762500D01*
X138320185Y-50695461D01*
X138372989Y-50649706D01*
X138424500Y-50638500D01*
X147675331Y-50638500D01*
X147675347Y-50638501D01*
X147682943Y-50638501D01*
X147841054Y-50638501D01*
X147841057Y-50638501D01*
X147993785Y-50597577D01*
X148050783Y-50564669D01*
X148130716Y-50518520D01*
X148242520Y-50406716D01*
X148242520Y-50406714D01*
X148252724Y-50396511D01*
X148252727Y-50396506D01*
X149012417Y-49636819D01*
X149073740Y-49603334D01*
X149100098Y-49600500D01*
X155099903Y-49600500D01*
X155166942Y-49620185D01*
X155187584Y-49636819D01*
X155565425Y-50014660D01*
X155598910Y-50075983D01*
X155599361Y-50078149D01*
X155630261Y-50233491D01*
X155630264Y-50233501D01*
X155690602Y-50379172D01*
X155690609Y-50379185D01*
X155778210Y-50510288D01*
X155778213Y-50510292D01*
X155889707Y-50621786D01*
X155889711Y-50621789D01*
X156020814Y-50709390D01*
X156020827Y-50709397D01*
X156148594Y-50762319D01*
X156166503Y-50769737D01*
X156294438Y-50795185D01*
X156321153Y-50800499D01*
X156321156Y-50800500D01*
X156321158Y-50800500D01*
X156478844Y-50800500D01*
X156478845Y-50800499D01*
X156633497Y-50769737D01*
X156777021Y-50710288D01*
X156779172Y-50709397D01*
X156779172Y-50709396D01*
X156779179Y-50709394D01*
X156836725Y-50670943D01*
X156910875Y-50621398D01*
X156977553Y-50600520D01*
X156979766Y-50600500D01*
X157638573Y-50600500D01*
X157705612Y-50620185D01*
X157741675Y-50655610D01*
X157778207Y-50710284D01*
X157778213Y-50710292D01*
X157889707Y-50821786D01*
X157889711Y-50821789D01*
X158020814Y-50909390D01*
X158020827Y-50909397D01*
X158120060Y-50950500D01*
X158166503Y-50969737D01*
X158312285Y-50998735D01*
X158321153Y-51000499D01*
X158321156Y-51000500D01*
X158321158Y-51000500D01*
X158478844Y-51000500D01*
X158478845Y-51000499D01*
X158633497Y-50969737D01*
X158779179Y-50909394D01*
X158910289Y-50821789D01*
X159021789Y-50710289D01*
X159109394Y-50579179D01*
X159169737Y-50433497D01*
X159200500Y-50278842D01*
X159200500Y-50121158D01*
X159200500Y-50121155D01*
X159200499Y-50121153D01*
X159186094Y-50048735D01*
X159169737Y-49966503D01*
X159140611Y-49896185D01*
X159109397Y-49820827D01*
X159109390Y-49820814D01*
X159021789Y-49689711D01*
X159021786Y-49689707D01*
X158910292Y-49578213D01*
X158910288Y-49578210D01*
X158779185Y-49490609D01*
X158779172Y-49490602D01*
X158633501Y-49430264D01*
X158633489Y-49430261D01*
X158478845Y-49399500D01*
X158478842Y-49399500D01*
X158321158Y-49399500D01*
X158321157Y-49399500D01*
X158315095Y-49400097D01*
X158315058Y-49399725D01*
X158299137Y-49401218D01*
X158284985Y-49401087D01*
X158279057Y-49399499D01*
X158120943Y-49399499D01*
X158120939Y-49399500D01*
X156979766Y-49399500D01*
X156912727Y-49379815D01*
X156910875Y-49378602D01*
X156779185Y-49290609D01*
X156779172Y-49290602D01*
X156633501Y-49230264D01*
X156633491Y-49230261D01*
X156478151Y-49199362D01*
X156416241Y-49166977D01*
X156414662Y-49165426D01*
X155887590Y-48638355D01*
X155887588Y-48638352D01*
X155768717Y-48519481D01*
X155768716Y-48519480D01*
X155681904Y-48469360D01*
X155681904Y-48469359D01*
X155681900Y-48469358D01*
X155631785Y-48440423D01*
X155479057Y-48399499D01*
X155320943Y-48399499D01*
X155313347Y-48399499D01*
X155313331Y-48399500D01*
X148886670Y-48399500D01*
X148886654Y-48399499D01*
X148879058Y-48399499D01*
X148720943Y-48399499D01*
X148644579Y-48419961D01*
X148568214Y-48440423D01*
X148568209Y-48440426D01*
X148431290Y-48519475D01*
X148431282Y-48519481D01*
X147549584Y-49401181D01*
X147488261Y-49434666D01*
X147461903Y-49437500D01*
X138392500Y-49437500D01*
X138325461Y-49417815D01*
X138279706Y-49365011D01*
X138268500Y-49313500D01*
X138268500Y-46271153D01*
X159099500Y-46271153D01*
X159099500Y-46428846D01*
X159130261Y-46583489D01*
X159130264Y-46583501D01*
X159190602Y-46729172D01*
X159190609Y-46729185D01*
X159278210Y-46860288D01*
X159278213Y-46860292D01*
X159389707Y-46971786D01*
X159389711Y-46971789D01*
X159520814Y-47059390D01*
X159520827Y-47059397D01*
X159655820Y-47115312D01*
X159666503Y-47119737D01*
X159821153Y-47150499D01*
X159821156Y-47150500D01*
X159821158Y-47150500D01*
X159978844Y-47150500D01*
X159978845Y-47150499D01*
X160133497Y-47119737D01*
X160279179Y-47059394D01*
X160368796Y-46999514D01*
X160410875Y-46971398D01*
X160477553Y-46950520D01*
X160479766Y-46950500D01*
X165670234Y-46950500D01*
X165737273Y-46970185D01*
X165739125Y-46971398D01*
X165870814Y-47059390D01*
X165870827Y-47059397D01*
X166005820Y-47115312D01*
X166016503Y-47119737D01*
X166171153Y-47150499D01*
X166171156Y-47150500D01*
X166171158Y-47150500D01*
X166328844Y-47150500D01*
X166328845Y-47150499D01*
X166483497Y-47119737D01*
X166629179Y-47059394D01*
X166760289Y-46971789D01*
X166871789Y-46860289D01*
X166959394Y-46729179D01*
X167019737Y-46583497D01*
X167050500Y-46428842D01*
X167050500Y-46271158D01*
X167050500Y-46271155D01*
X167050499Y-46271153D01*
X167045050Y-46243760D01*
X167019737Y-46116503D01*
X166995719Y-46058517D01*
X166959397Y-45970827D01*
X166959390Y-45970814D01*
X166871789Y-45839711D01*
X166871786Y-45839707D01*
X166760292Y-45728213D01*
X166760288Y-45728210D01*
X166629185Y-45640609D01*
X166629172Y-45640602D01*
X166483501Y-45580264D01*
X166483489Y-45580261D01*
X166328845Y-45549500D01*
X166328842Y-45549500D01*
X166171158Y-45549500D01*
X166171155Y-45549500D01*
X166016510Y-45580261D01*
X166016498Y-45580264D01*
X165870827Y-45640602D01*
X165870814Y-45640609D01*
X165739125Y-45728602D01*
X165672447Y-45749480D01*
X165670234Y-45749500D01*
X160479766Y-45749500D01*
X160412727Y-45729815D01*
X160410875Y-45728602D01*
X160279185Y-45640609D01*
X160279172Y-45640602D01*
X160133501Y-45580264D01*
X160133489Y-45580261D01*
X159978845Y-45549500D01*
X159978842Y-45549500D01*
X159821158Y-45549500D01*
X159821155Y-45549500D01*
X159666510Y-45580261D01*
X159666498Y-45580264D01*
X159520827Y-45640602D01*
X159520814Y-45640609D01*
X159389711Y-45728210D01*
X159389707Y-45728213D01*
X159278213Y-45839707D01*
X159278210Y-45839711D01*
X159190609Y-45970814D01*
X159190602Y-45970827D01*
X159130264Y-46116498D01*
X159130261Y-46116510D01*
X159099500Y-46271153D01*
X138268500Y-46271153D01*
X138268500Y-44352844D01*
X170435000Y-44352844D01*
X170441401Y-44412372D01*
X170441403Y-44412379D01*
X170491645Y-44547086D01*
X170491649Y-44547093D01*
X170577809Y-44662187D01*
X170577812Y-44662190D01*
X170692906Y-44748350D01*
X170692913Y-44748354D01*
X170827620Y-44798596D01*
X170827627Y-44798598D01*
X170887155Y-44804999D01*
X170887172Y-44805000D01*
X171320000Y-44805000D01*
X171820000Y-44805000D01*
X172252828Y-44805000D01*
X172252844Y-44804999D01*
X172312372Y-44798598D01*
X172312379Y-44798596D01*
X172447086Y-44748354D01*
X172447093Y-44748350D01*
X172562187Y-44662190D01*
X172562190Y-44662187D01*
X172648350Y-44547093D01*
X172648354Y-44547086D01*
X172698596Y-44412379D01*
X172698598Y-44412372D01*
X172704999Y-44352844D01*
X172705000Y-44352827D01*
X172705000Y-43410000D01*
X171820000Y-43410000D01*
X171820000Y-44805000D01*
X171320000Y-44805000D01*
X171320000Y-43410000D01*
X170435000Y-43410000D01*
X170435000Y-44352844D01*
X138268500Y-44352844D01*
X138268500Y-44222097D01*
X138288185Y-44155058D01*
X138304819Y-44134416D01*
X138514665Y-43924570D01*
X138575984Y-43891088D01*
X138578151Y-43890637D01*
X138578840Y-43890500D01*
X138578842Y-43890500D01*
X138733497Y-43859737D01*
X138879179Y-43799394D01*
X139010289Y-43711789D01*
X139121789Y-43600289D01*
X139209394Y-43469179D01*
X139269737Y-43323497D01*
X139300500Y-43168842D01*
X139300500Y-43011158D01*
X139300500Y-43011155D01*
X139300499Y-43011153D01*
X139295050Y-42983760D01*
X139269737Y-42856503D01*
X139266439Y-42848541D01*
X139209939Y-42712136D01*
X139200500Y-42664684D01*
X139200500Y-42379765D01*
X139220185Y-42312726D01*
X139221398Y-42310874D01*
X139243085Y-42278418D01*
X139309394Y-42179179D01*
X139310853Y-42175658D01*
X139337130Y-42112218D01*
X139369737Y-42033497D01*
X139382019Y-41971750D01*
X139382933Y-41967155D01*
X170435000Y-41967155D01*
X170435000Y-42910000D01*
X171320000Y-42910000D01*
X171820000Y-42910000D01*
X172705000Y-42910000D01*
X172705000Y-42848543D01*
X173399499Y-42848543D01*
X173437947Y-43041829D01*
X173437950Y-43041839D01*
X173513364Y-43223907D01*
X173513371Y-43223920D01*
X173622860Y-43387781D01*
X173622863Y-43387785D01*
X173762214Y-43527136D01*
X173762218Y-43527139D01*
X173926079Y-43636628D01*
X173926092Y-43636635D01*
X174074641Y-43698165D01*
X174108165Y-43712051D01*
X174108169Y-43712051D01*
X174108170Y-43712052D01*
X174301456Y-43750500D01*
X174301459Y-43750500D01*
X174498543Y-43750500D01*
X174641572Y-43722049D01*
X174691835Y-43712051D01*
X174832655Y-43653721D01*
X174873907Y-43636635D01*
X174873907Y-43636634D01*
X174873914Y-43636632D01*
X175037782Y-43527139D01*
X175177139Y-43387782D01*
X175286632Y-43223914D01*
X175362051Y-43041835D01*
X175388275Y-42910000D01*
X175400500Y-42848543D01*
X175400500Y-42651456D01*
X175362052Y-42458170D01*
X175362051Y-42458169D01*
X175362051Y-42458165D01*
X175346329Y-42420208D01*
X175286635Y-42276092D01*
X175286628Y-42276079D01*
X175177139Y-42112218D01*
X175177136Y-42112214D01*
X175037785Y-41972863D01*
X175037781Y-41972860D01*
X174873920Y-41863371D01*
X174873907Y-41863364D01*
X174691839Y-41787950D01*
X174691829Y-41787947D01*
X174498543Y-41749500D01*
X174498541Y-41749500D01*
X174301459Y-41749500D01*
X174301457Y-41749500D01*
X174108170Y-41787947D01*
X174108160Y-41787950D01*
X173926092Y-41863364D01*
X173926079Y-41863371D01*
X173762218Y-41972860D01*
X173762214Y-41972863D01*
X173622863Y-42112214D01*
X173622860Y-42112218D01*
X173513371Y-42276079D01*
X173513364Y-42276092D01*
X173437950Y-42458160D01*
X173437947Y-42458170D01*
X173399500Y-42651456D01*
X173399500Y-42651459D01*
X173399500Y-42848541D01*
X173399500Y-42848543D01*
X173399499Y-42848543D01*
X172705000Y-42848543D01*
X172705000Y-41967172D01*
X172704999Y-41967155D01*
X172698598Y-41907627D01*
X172698596Y-41907620D01*
X172648354Y-41772913D01*
X172648350Y-41772906D01*
X172562190Y-41657812D01*
X172562187Y-41657809D01*
X172447093Y-41571649D01*
X172447086Y-41571645D01*
X172312379Y-41521403D01*
X172312372Y-41521401D01*
X172252844Y-41515000D01*
X171820000Y-41515000D01*
X171820000Y-42910000D01*
X171320000Y-42910000D01*
X171320000Y-41515000D01*
X170887155Y-41515000D01*
X170827627Y-41521401D01*
X170827620Y-41521403D01*
X170692913Y-41571645D01*
X170692906Y-41571649D01*
X170577812Y-41657809D01*
X170577809Y-41657812D01*
X170491649Y-41772906D01*
X170491645Y-41772913D01*
X170441403Y-41907620D01*
X170441401Y-41907627D01*
X170435000Y-41967155D01*
X139382933Y-41967155D01*
X139388403Y-41939660D01*
X139388403Y-41939659D01*
X139400500Y-41878844D01*
X139400500Y-41721155D01*
X139400499Y-41721153D01*
X139387912Y-41657873D01*
X139369737Y-41566503D01*
X139355198Y-41531403D01*
X139309397Y-41420827D01*
X139309390Y-41420814D01*
X139221789Y-41289711D01*
X139221786Y-41289707D01*
X139110292Y-41178213D01*
X139110288Y-41178210D01*
X138979185Y-41090609D01*
X138979172Y-41090602D01*
X138833501Y-41030264D01*
X138833489Y-41030261D01*
X138678845Y-40999500D01*
X138678842Y-40999500D01*
X138521158Y-40999500D01*
X138521155Y-40999500D01*
X138366510Y-41030261D01*
X138366498Y-41030264D01*
X138220827Y-41090602D01*
X138220814Y-41090609D01*
X138089711Y-41178210D01*
X138089707Y-41178213D01*
X137978213Y-41289707D01*
X137978210Y-41289711D01*
X137890609Y-41420814D01*
X137890602Y-41420827D01*
X137830264Y-41566498D01*
X137830261Y-41566510D01*
X137799500Y-41721153D01*
X137799500Y-41878846D01*
X137830261Y-42033489D01*
X137830264Y-42033501D01*
X137890602Y-42179172D01*
X137890609Y-42179185D01*
X137978602Y-42310874D01*
X137984252Y-42328920D01*
X137994477Y-42344830D01*
X137998928Y-42375789D01*
X137999480Y-42377551D01*
X137999500Y-42379765D01*
X137999500Y-42407059D01*
X137979815Y-42474098D01*
X137963181Y-42494740D01*
X137878213Y-42579707D01*
X137878210Y-42579711D01*
X137790609Y-42710814D01*
X137790602Y-42710827D01*
X137730264Y-42856498D01*
X137730261Y-42856508D01*
X137699362Y-43011848D01*
X137666977Y-43073759D01*
X137665426Y-43075337D01*
X137302584Y-43438179D01*
X137302577Y-43438186D01*
X137299286Y-43441478D01*
X137299284Y-43441480D01*
X137187480Y-43553284D01*
X137160342Y-43600289D01*
X137154542Y-43610334D01*
X137154541Y-43610336D01*
X137133584Y-43646635D01*
X137108423Y-43690215D01*
X137067499Y-43842943D01*
X137067499Y-43842945D01*
X137067499Y-44011046D01*
X137067500Y-44011059D01*
X137067500Y-49951330D01*
X137067499Y-49951348D01*
X137067499Y-49958943D01*
X137067499Y-50117057D01*
X137092989Y-50212184D01*
X137095275Y-50220716D01*
X137099500Y-50252810D01*
X137099500Y-65580039D01*
X137079815Y-65647078D01*
X137027011Y-65692833D01*
X137013821Y-65697969D01*
X136981586Y-65708443D01*
X136792179Y-65804951D01*
X136620215Y-65929889D01*
X136506673Y-66043431D01*
X136445350Y-66076915D01*
X136375658Y-66071931D01*
X136319725Y-66030059D01*
X136302810Y-65999082D01*
X136253797Y-65867671D01*
X136253793Y-65867664D01*
X136167547Y-65752455D01*
X136167544Y-65752452D01*
X136052335Y-65666206D01*
X136052328Y-65666202D01*
X135917482Y-65615908D01*
X135917483Y-65615908D01*
X135857883Y-65609501D01*
X135857881Y-65609500D01*
X135857873Y-65609500D01*
X135857864Y-65609500D01*
X134062129Y-65609500D01*
X134062123Y-65609501D01*
X134002516Y-65615908D01*
X133867671Y-65666202D01*
X133867664Y-65666206D01*
X133752455Y-65752452D01*
X133752452Y-65752455D01*
X133666206Y-65867664D01*
X133666202Y-65867671D01*
X133615908Y-66002517D01*
X133609501Y-66062116D01*
X133609500Y-66062135D01*
X127500500Y-66062135D01*
X127500500Y-40504427D01*
X127500816Y-40495581D01*
X127505213Y-40434108D01*
X127515130Y-40295436D01*
X127517646Y-40277938D01*
X127559356Y-40086199D01*
X127564333Y-40069248D01*
X127632911Y-39885385D01*
X127640256Y-39869303D01*
X127644170Y-39862135D01*
X128149500Y-39862135D01*
X128149500Y-41657870D01*
X128149501Y-41657876D01*
X128155908Y-41717483D01*
X128206202Y-41852328D01*
X128206206Y-41852335D01*
X128292452Y-41967544D01*
X128292455Y-41967547D01*
X128407664Y-42053793D01*
X128407671Y-42053797D01*
X128539082Y-42102810D01*
X128595016Y-42144681D01*
X128619433Y-42210145D01*
X128604582Y-42278418D01*
X128583431Y-42306673D01*
X128469889Y-42420215D01*
X128344951Y-42592179D01*
X128248444Y-42781585D01*
X128182753Y-42983760D01*
X128149500Y-43193713D01*
X128149500Y-43406286D01*
X128180227Y-43600292D01*
X128182754Y-43616243D01*
X128242262Y-43799390D01*
X128248444Y-43818414D01*
X128344951Y-44007820D01*
X128469890Y-44179786D01*
X128620213Y-44330109D01*
X128792182Y-44455050D01*
X128800946Y-44459516D01*
X128851742Y-44507491D01*
X128868536Y-44575312D01*
X128845998Y-44641447D01*
X128800946Y-44680484D01*
X128792182Y-44684949D01*
X128620213Y-44809890D01*
X128469890Y-44960213D01*
X128344951Y-45132179D01*
X128248444Y-45321585D01*
X128182753Y-45523760D01*
X128149500Y-45733713D01*
X128149500Y-45946286D01*
X128176459Y-46116503D01*
X128182754Y-46156243D01*
X128226412Y-46290609D01*
X128248444Y-46358414D01*
X128344951Y-46547820D01*
X128469890Y-46719786D01*
X128620213Y-46870109D01*
X128792182Y-46995050D01*
X128800946Y-46999516D01*
X128851742Y-47047491D01*
X128868536Y-47115312D01*
X128845998Y-47181447D01*
X128800946Y-47220484D01*
X128792182Y-47224949D01*
X128620213Y-47349890D01*
X128469890Y-47500213D01*
X128344951Y-47672179D01*
X128248444Y-47861585D01*
X128182753Y-48063760D01*
X128156140Y-48231787D01*
X128149500Y-48273713D01*
X128149500Y-48486287D01*
X128156073Y-48527785D01*
X128179468Y-48675500D01*
X128182754Y-48696243D01*
X128223162Y-48820606D01*
X128248444Y-48898414D01*
X128344951Y-49087820D01*
X128469890Y-49259786D01*
X128620213Y-49410109D01*
X128792182Y-49535050D01*
X128800946Y-49539516D01*
X128851742Y-49587491D01*
X128868536Y-49655312D01*
X128845998Y-49721447D01*
X128800946Y-49760484D01*
X128792182Y-49764949D01*
X128620213Y-49889890D01*
X128469890Y-50040213D01*
X128344951Y-50212179D01*
X128248444Y-50401585D01*
X128182753Y-50603760D01*
X128152435Y-50795185D01*
X128149500Y-50813713D01*
X128149500Y-51026287D01*
X128153271Y-51050097D01*
X128181968Y-51231284D01*
X128182754Y-51236243D01*
X128246291Y-51431790D01*
X128248444Y-51438414D01*
X128344951Y-51627820D01*
X128469890Y-51799786D01*
X128620213Y-51950109D01*
X128792182Y-52075050D01*
X128800946Y-52079516D01*
X128851742Y-52127491D01*
X128868536Y-52195312D01*
X128845998Y-52261447D01*
X128800946Y-52300484D01*
X128792182Y-52304949D01*
X128620213Y-52429890D01*
X128469890Y-52580213D01*
X128344951Y-52752179D01*
X128248444Y-52941585D01*
X128182753Y-53143760D01*
X128156717Y-53308149D01*
X128149500Y-53353713D01*
X128149500Y-53566287D01*
X128154469Y-53597662D01*
X128180511Y-53762086D01*
X128182754Y-53776243D01*
X128248150Y-53977511D01*
X128248444Y-53978414D01*
X128344951Y-54167820D01*
X128469890Y-54339786D01*
X128620213Y-54490109D01*
X128792182Y-54615050D01*
X128800946Y-54619516D01*
X128851742Y-54667491D01*
X128868536Y-54735312D01*
X128845998Y-54801447D01*
X128800946Y-54840484D01*
X128792182Y-54844949D01*
X128620213Y-54969890D01*
X128469890Y-55120213D01*
X128344951Y-55292179D01*
X128248444Y-55481585D01*
X128248443Y-55481587D01*
X128248443Y-55481588D01*
X128245513Y-55490606D01*
X128182753Y-55683760D01*
X128149500Y-55893713D01*
X128149500Y-56106286D01*
X128181738Y-56309833D01*
X128182754Y-56316243D01*
X128247824Y-56516508D01*
X128248444Y-56518414D01*
X128344951Y-56707820D01*
X128469890Y-56879786D01*
X128620213Y-57030109D01*
X128792182Y-57155050D01*
X128800946Y-57159516D01*
X128851742Y-57207491D01*
X128868536Y-57275312D01*
X128845998Y-57341447D01*
X128800946Y-57380484D01*
X128792182Y-57384949D01*
X128620213Y-57509890D01*
X128469890Y-57660213D01*
X128344951Y-57832179D01*
X128248444Y-58021585D01*
X128248443Y-58021587D01*
X128248443Y-58021588D01*
X128236368Y-58058752D01*
X128182753Y-58223760D01*
X128151998Y-58417942D01*
X128149500Y-58433713D01*
X128149500Y-58646287D01*
X128154807Y-58679795D01*
X128168541Y-58766510D01*
X128182754Y-58856243D01*
X128244599Y-59046582D01*
X128248444Y-59058414D01*
X128344951Y-59247820D01*
X128469890Y-59419786D01*
X128620213Y-59570109D01*
X128792179Y-59695048D01*
X128792181Y-59695049D01*
X128792184Y-59695051D01*
X128801493Y-59699794D01*
X128852290Y-59747766D01*
X128869087Y-59815587D01*
X128846552Y-59881722D01*
X128801502Y-59920762D01*
X128792443Y-59925378D01*
X128620540Y-60050272D01*
X128620535Y-60050276D01*
X128470276Y-60200535D01*
X128470272Y-60200540D01*
X128345379Y-60372442D01*
X128248904Y-60561782D01*
X128183242Y-60763870D01*
X128183242Y-60763873D01*
X128172769Y-60830000D01*
X129066988Y-60830000D01*
X129034075Y-60887007D01*
X129000000Y-61014174D01*
X129000000Y-61145826D01*
X129034075Y-61272993D01*
X129066988Y-61330000D01*
X128172769Y-61330000D01*
X128183242Y-61396126D01*
X128183242Y-61396129D01*
X128248904Y-61598217D01*
X128345379Y-61787557D01*
X128470272Y-61959459D01*
X128470276Y-61959464D01*
X128620535Y-62109723D01*
X128620540Y-62109727D01*
X128792444Y-62234622D01*
X128802048Y-62239516D01*
X128852844Y-62287491D01*
X128869638Y-62355312D01*
X128847100Y-62421447D01*
X128802048Y-62460484D01*
X128792444Y-62465377D01*
X128620540Y-62590272D01*
X128620535Y-62590276D01*
X128470276Y-62740535D01*
X128470272Y-62740540D01*
X128345379Y-62912442D01*
X128248904Y-63101782D01*
X128183242Y-63303870D01*
X128183242Y-63303873D01*
X128172769Y-63370000D01*
X129066988Y-63370000D01*
X129034075Y-63427007D01*
X129000000Y-63554174D01*
X129000000Y-63685826D01*
X129034075Y-63812993D01*
X129066988Y-63870000D01*
X128172769Y-63870000D01*
X128183242Y-63936126D01*
X128183242Y-63936129D01*
X128248904Y-64138217D01*
X128345379Y-64327557D01*
X128470272Y-64499459D01*
X128470276Y-64499464D01*
X128620535Y-64649723D01*
X128620540Y-64649727D01*
X128792442Y-64774620D01*
X128981782Y-64871095D01*
X129183871Y-64936757D01*
X129250000Y-64947231D01*
X129250000Y-64053012D01*
X129307007Y-64085925D01*
X129434174Y-64120000D01*
X129565826Y-64120000D01*
X129692993Y-64085925D01*
X129750000Y-64053012D01*
X129750000Y-64947230D01*
X129816126Y-64936757D01*
X129816129Y-64936757D01*
X130018217Y-64871095D01*
X130207557Y-64774620D01*
X130379459Y-64649727D01*
X130379464Y-64649723D01*
X130529723Y-64499464D01*
X130529727Y-64499459D01*
X130654620Y-64327557D01*
X130751095Y-64138217D01*
X130816757Y-63936129D01*
X130816757Y-63936126D01*
X130827231Y-63870000D01*
X129933012Y-63870000D01*
X129965925Y-63812993D01*
X130000000Y-63685826D01*
X130000000Y-63554174D01*
X129965925Y-63427007D01*
X129933012Y-63370000D01*
X130827231Y-63370000D01*
X130816757Y-63303873D01*
X130816757Y-63303870D01*
X130751095Y-63101782D01*
X130654620Y-62912442D01*
X130529727Y-62740540D01*
X130529723Y-62740535D01*
X130379464Y-62590276D01*
X130379459Y-62590272D01*
X130207558Y-62465379D01*
X130197954Y-62460486D01*
X130147157Y-62412512D01*
X130130361Y-62344692D01*
X130152897Y-62278556D01*
X130197954Y-62239514D01*
X130207558Y-62234620D01*
X130379459Y-62109727D01*
X130379464Y-62109723D01*
X130529723Y-61959464D01*
X130529727Y-61959459D01*
X130654620Y-61787557D01*
X130751095Y-61598217D01*
X130816757Y-61396129D01*
X130816757Y-61396126D01*
X130827231Y-61330000D01*
X129933012Y-61330000D01*
X129965925Y-61272993D01*
X130000000Y-61145826D01*
X130000000Y-61014174D01*
X129965925Y-60887007D01*
X129933012Y-60830000D01*
X130827231Y-60830000D01*
X130816757Y-60763873D01*
X130816757Y-60763870D01*
X130751095Y-60561782D01*
X130654620Y-60372442D01*
X130529727Y-60200540D01*
X130529723Y-60200535D01*
X130379464Y-60050276D01*
X130379459Y-60050272D01*
X130207555Y-59925377D01*
X130198500Y-59920763D01*
X130147706Y-59872788D01*
X130130912Y-59804966D01*
X130153451Y-59738832D01*
X130198508Y-59699793D01*
X130207816Y-59695051D01*
X130320273Y-59613347D01*
X130379786Y-59570109D01*
X130379788Y-59570106D01*
X130379792Y-59570104D01*
X130530104Y-59419792D01*
X130530106Y-59419788D01*
X130530109Y-59419786D01*
X130655048Y-59247820D01*
X130655047Y-59247820D01*
X130655051Y-59247816D01*
X130751557Y-59058412D01*
X130817246Y-58856243D01*
X130850500Y-58646287D01*
X130850500Y-58433713D01*
X130817246Y-58223757D01*
X130751557Y-58021588D01*
X130655051Y-57832184D01*
X130655049Y-57832181D01*
X130655048Y-57832179D01*
X130530109Y-57660213D01*
X130379786Y-57509890D01*
X130207820Y-57384951D01*
X130207115Y-57384591D01*
X130199054Y-57380485D01*
X130148259Y-57332512D01*
X130131463Y-57264692D01*
X130153999Y-57198556D01*
X130199054Y-57159515D01*
X130207816Y-57155051D01*
X130269426Y-57110289D01*
X130379786Y-57030109D01*
X130379788Y-57030106D01*
X130379792Y-57030104D01*
X130530104Y-56879792D01*
X130530106Y-56879788D01*
X130530109Y-56879786D01*
X130641811Y-56726040D01*
X130655051Y-56707816D01*
X130751557Y-56518412D01*
X130817246Y-56316243D01*
X130850500Y-56106287D01*
X130850500Y-55893713D01*
X130817246Y-55683757D01*
X130751557Y-55481588D01*
X130655051Y-55292184D01*
X130655049Y-55292181D01*
X130655048Y-55292179D01*
X130530109Y-55120213D01*
X130379786Y-54969890D01*
X130207820Y-54844951D01*
X130206132Y-54844091D01*
X130199054Y-54840485D01*
X130148259Y-54792512D01*
X130131463Y-54724692D01*
X130153999Y-54658556D01*
X130199054Y-54619515D01*
X130207816Y-54615051D01*
X130258524Y-54578210D01*
X130379786Y-54490109D01*
X130379788Y-54490106D01*
X130379792Y-54490104D01*
X130530104Y-54339792D01*
X130530106Y-54339788D01*
X130530109Y-54339786D01*
X130655048Y-54167820D01*
X130655047Y-54167820D01*
X130655051Y-54167816D01*
X130751557Y-53978412D01*
X130817246Y-53776243D01*
X130850500Y-53566287D01*
X130850500Y-53353713D01*
X130817246Y-53143757D01*
X130751557Y-52941588D01*
X130655051Y-52752184D01*
X130655049Y-52752181D01*
X130655048Y-52752179D01*
X130530109Y-52580213D01*
X130379786Y-52429890D01*
X130207820Y-52304951D01*
X130202279Y-52302128D01*
X130199054Y-52300485D01*
X130148259Y-52252512D01*
X130131463Y-52184692D01*
X130153999Y-52118556D01*
X130199054Y-52079515D01*
X130207816Y-52075051D01*
X130280161Y-52022490D01*
X130379786Y-51950109D01*
X130379788Y-51950106D01*
X130379792Y-51950104D01*
X130530104Y-51799792D01*
X130530106Y-51799788D01*
X130530109Y-51799786D01*
X130655048Y-51627820D01*
X130655047Y-51627820D01*
X130655051Y-51627816D01*
X130751557Y-51438412D01*
X130817246Y-51236243D01*
X130850500Y-51026287D01*
X130850500Y-50813713D01*
X130817246Y-50603757D01*
X130751557Y-50401588D01*
X130655051Y-50212184D01*
X130655049Y-50212181D01*
X130655048Y-50212179D01*
X130530109Y-50040213D01*
X130379786Y-49889890D01*
X130207820Y-49764951D01*
X130204966Y-49763497D01*
X130199054Y-49760485D01*
X130148259Y-49712512D01*
X130131463Y-49644692D01*
X130153999Y-49578556D01*
X130199054Y-49539515D01*
X130207816Y-49535051D01*
X130268995Y-49490602D01*
X130379786Y-49410109D01*
X130379788Y-49410106D01*
X130379792Y-49410104D01*
X130530104Y-49259792D01*
X130530106Y-49259788D01*
X130530109Y-49259786D01*
X130655048Y-49087820D01*
X130655047Y-49087820D01*
X130655051Y-49087816D01*
X130751557Y-48898412D01*
X130817246Y-48696243D01*
X130850500Y-48486287D01*
X130850500Y-48273713D01*
X130843859Y-48231786D01*
X130819669Y-48079057D01*
X130817246Y-48063757D01*
X130751557Y-47861588D01*
X130655051Y-47672184D01*
X130655049Y-47672181D01*
X130655048Y-47672179D01*
X130530109Y-47500213D01*
X130379786Y-47349890D01*
X130207820Y-47224951D01*
X130207115Y-47224591D01*
X130199054Y-47220485D01*
X130148259Y-47172512D01*
X130131463Y-47104692D01*
X130153999Y-47038556D01*
X130199054Y-46999515D01*
X130207816Y-46995051D01*
X130269136Y-46950500D01*
X130379786Y-46870109D01*
X130379788Y-46870106D01*
X130379792Y-46870104D01*
X130530104Y-46719792D01*
X130530106Y-46719788D01*
X130530109Y-46719786D01*
X130655048Y-46547820D01*
X130655047Y-46547820D01*
X130655051Y-46547816D01*
X130751557Y-46358412D01*
X130817246Y-46156243D01*
X130850500Y-45946287D01*
X130850500Y-45733713D01*
X130817246Y-45523757D01*
X130751557Y-45321588D01*
X130655051Y-45132184D01*
X130655049Y-45132181D01*
X130655048Y-45132179D01*
X130530109Y-44960213D01*
X130379786Y-44809890D01*
X130207820Y-44684951D01*
X130207115Y-44684591D01*
X130199054Y-44680485D01*
X130148259Y-44632512D01*
X130131463Y-44564692D01*
X130153999Y-44498556D01*
X130199054Y-44459515D01*
X130207816Y-44455051D01*
X130229789Y-44439086D01*
X130379786Y-44330109D01*
X130379788Y-44330106D01*
X130379792Y-44330104D01*
X130530104Y-44179792D01*
X130530106Y-44179788D01*
X130530109Y-44179786D01*
X130655048Y-44007820D01*
X130655047Y-44007820D01*
X130655051Y-44007816D01*
X130751557Y-43818412D01*
X130817246Y-43616243D01*
X130850500Y-43406287D01*
X130850500Y-43193713D01*
X130817246Y-42983757D01*
X130751557Y-42781588D01*
X130655051Y-42592184D01*
X130655049Y-42592181D01*
X130655048Y-42592179D01*
X130530109Y-42420213D01*
X130416569Y-42306673D01*
X130383084Y-42245350D01*
X130388068Y-42175658D01*
X130429940Y-42119725D01*
X130460915Y-42102810D01*
X130592331Y-42053796D01*
X130707546Y-41967546D01*
X130793796Y-41852331D01*
X130844091Y-41717483D01*
X130850500Y-41657873D01*
X130850499Y-39862128D01*
X130844091Y-39802517D01*
X130835386Y-39779179D01*
X130793797Y-39667671D01*
X130793793Y-39667664D01*
X130707547Y-39552455D01*
X130707544Y-39552452D01*
X130592335Y-39466206D01*
X130592328Y-39466202D01*
X130457482Y-39415908D01*
X130457483Y-39415908D01*
X130397883Y-39409501D01*
X130397881Y-39409500D01*
X130397873Y-39409500D01*
X130397864Y-39409500D01*
X128602129Y-39409500D01*
X128602123Y-39409501D01*
X128542516Y-39415908D01*
X128407671Y-39466202D01*
X128407664Y-39466206D01*
X128292455Y-39552452D01*
X128292452Y-39552455D01*
X128206206Y-39667664D01*
X128206202Y-39667671D01*
X128155908Y-39802517D01*
X128149501Y-39862116D01*
X128149501Y-39862123D01*
X128149500Y-39862135D01*
X127644170Y-39862135D01*
X127734297Y-39697079D01*
X127743845Y-39682222D01*
X127861448Y-39525123D01*
X127873020Y-39511769D01*
X128011769Y-39373020D01*
X128025123Y-39361448D01*
X128182221Y-39243845D01*
X128197089Y-39234291D01*
X128369298Y-39140258D01*
X128385385Y-39132911D01*
X128569248Y-39064333D01*
X128586199Y-39059356D01*
X128777938Y-39017646D01*
X128795436Y-39015130D01*
X128995582Y-39000816D01*
X129004428Y-39000500D01*
X129065892Y-39000500D01*
X174313445Y-39000500D01*
X174344985Y-39009761D01*
G37*
%TD.AperFunction*%
%TA.AperFunction,Conductor*%
G36*
X183534075Y-76307007D02*
G01*
X183500000Y-76434174D01*
X183500000Y-76565826D01*
X183534075Y-76692993D01*
X183566988Y-76750000D01*
X181893012Y-76750000D01*
X181925925Y-76692993D01*
X181960000Y-76565826D01*
X181960000Y-76434174D01*
X181925925Y-76307007D01*
X181893012Y-76250000D01*
X183566988Y-76250000D01*
X183534075Y-76307007D01*
G37*
%TD.AperFunction*%
%TA.AperFunction,Conductor*%
G36*
X181710000Y-76066988D02*
G01*
X181652993Y-76034075D01*
X181525826Y-76000000D01*
X181394174Y-76000000D01*
X181267007Y-76034075D01*
X181210000Y-76066988D01*
X181210000Y-74393012D01*
X181267007Y-74425925D01*
X181394174Y-74460000D01*
X181525826Y-74460000D01*
X181652993Y-74425925D01*
X181710000Y-74393012D01*
X181710000Y-76066988D01*
G37*
%TD.AperFunction*%
%TA.AperFunction,Conductor*%
G36*
X184250000Y-76066988D02*
G01*
X184192993Y-76034075D01*
X184065826Y-76000000D01*
X183934174Y-76000000D01*
X183807007Y-76034075D01*
X183750000Y-76066988D01*
X183750000Y-74393012D01*
X183807007Y-74425925D01*
X183934174Y-74460000D01*
X184065826Y-74460000D01*
X184192993Y-74425925D01*
X184250000Y-74393012D01*
X184250000Y-76066988D01*
G37*
%TD.AperFunction*%
%TA.AperFunction,Conductor*%
G36*
X183534075Y-73767007D02*
G01*
X183500000Y-73894174D01*
X183500000Y-74025826D01*
X183534075Y-74152993D01*
X183566988Y-74210000D01*
X181893012Y-74210000D01*
X181925925Y-74152993D01*
X181960000Y-74025826D01*
X181960000Y-73894174D01*
X181925925Y-73767007D01*
X181893012Y-73710000D01*
X183566988Y-73710000D01*
X183534075Y-73767007D01*
G37*
%TD.AperFunction*%
%TA.AperFunction,Conductor*%
G36*
X185668905Y-65000107D02*
G01*
X185712357Y-65054822D01*
X185719077Y-65077264D01*
X185730261Y-65133491D01*
X185730264Y-65133501D01*
X185790602Y-65279172D01*
X185790609Y-65279185D01*
X185792592Y-65282152D01*
X185873854Y-65403769D01*
X185878602Y-65410874D01*
X185899480Y-65477551D01*
X185899500Y-65479765D01*
X185899500Y-69913330D01*
X185899499Y-69913348D01*
X185899499Y-70079054D01*
X185899498Y-70079054D01*
X185899499Y-70079057D01*
X185940423Y-70231785D01*
X185968560Y-70280519D01*
X186019479Y-70368714D01*
X186019481Y-70368717D01*
X186138349Y-70487585D01*
X186138355Y-70487590D01*
X186365425Y-70714660D01*
X186398910Y-70775983D01*
X186399361Y-70778149D01*
X186430261Y-70933491D01*
X186430264Y-70933501D01*
X186490602Y-71079172D01*
X186490609Y-71079185D01*
X186578210Y-71210288D01*
X186578213Y-71210292D01*
X186689707Y-71321786D01*
X186689711Y-71321789D01*
X186820814Y-71409390D01*
X186820827Y-71409397D01*
X186966498Y-71469735D01*
X186966503Y-71469737D01*
X187121153Y-71500499D01*
X187121156Y-71500500D01*
X187121158Y-71500500D01*
X187278844Y-71500500D01*
X187278845Y-71500499D01*
X187433497Y-71469737D01*
X187579179Y-71409394D01*
X187710289Y-71321789D01*
X187821789Y-71210289D01*
X187909394Y-71079179D01*
X187969737Y-70933497D01*
X188000500Y-70778842D01*
X188000500Y-70621158D01*
X188000500Y-70621155D01*
X188000499Y-70621153D01*
X187982312Y-70529723D01*
X187969737Y-70466503D01*
X187969735Y-70466498D01*
X187909397Y-70320827D01*
X187909390Y-70320814D01*
X187821789Y-70189711D01*
X187821786Y-70189707D01*
X187710292Y-70078213D01*
X187710288Y-70078210D01*
X187579185Y-69990609D01*
X187579172Y-69990602D01*
X187433501Y-69930264D01*
X187433491Y-69930261D01*
X187278149Y-69899361D01*
X187261392Y-69890595D01*
X187242914Y-69886576D01*
X187217877Y-69867833D01*
X187216238Y-69866976D01*
X187214660Y-69865425D01*
X187136819Y-69787584D01*
X187103334Y-69726261D01*
X187100500Y-69699903D01*
X187100500Y-66831941D01*
X187120185Y-66764902D01*
X187172989Y-66719147D01*
X187242147Y-66709203D01*
X187305703Y-66738228D01*
X187312181Y-66744260D01*
X187389707Y-66821786D01*
X187389711Y-66821789D01*
X187520814Y-66909390D01*
X187520827Y-66909397D01*
X187642235Y-66959685D01*
X187666503Y-66969737D01*
X187821153Y-67000499D01*
X187821156Y-67000500D01*
X187821158Y-67000500D01*
X187978844Y-67000500D01*
X187978845Y-67000499D01*
X188133497Y-66969737D01*
X188205289Y-66940000D01*
X188229048Y-66930159D01*
X188298517Y-66922690D01*
X188360996Y-66953965D01*
X188396648Y-67014054D01*
X188400500Y-67044720D01*
X188400500Y-76786770D01*
X188380815Y-76853809D01*
X188364181Y-76874451D01*
X188084704Y-77153927D01*
X188044478Y-77180806D01*
X188020826Y-77190603D01*
X188020814Y-77190609D01*
X187889711Y-77278210D01*
X187889707Y-77278213D01*
X187778213Y-77389707D01*
X187778210Y-77389711D01*
X187690609Y-77520814D01*
X187690602Y-77520827D01*
X187630264Y-77666498D01*
X187630261Y-77666508D01*
X187608141Y-77777714D01*
X187575756Y-77839625D01*
X187574205Y-77841203D01*
X187136567Y-78278842D01*
X186701270Y-78714139D01*
X186701267Y-78714142D01*
X186657705Y-78757703D01*
X186614144Y-78801264D01*
X186614142Y-78801267D01*
X186594874Y-78830104D01*
X186594873Y-78830106D01*
X186594872Y-78830105D01*
X186545689Y-78903712D01*
X186545685Y-78903719D01*
X186524424Y-78955050D01*
X186498538Y-79017544D01*
X186498535Y-79017556D01*
X186474500Y-79138389D01*
X186474500Y-82144510D01*
X186454815Y-82211549D01*
X186402011Y-82257304D01*
X186332853Y-82267248D01*
X186303048Y-82259071D01*
X186233501Y-82230264D01*
X186233489Y-82230261D01*
X186078845Y-82199500D01*
X186078842Y-82199500D01*
X185921158Y-82199500D01*
X185921155Y-82199500D01*
X185766510Y-82230261D01*
X185766498Y-82230264D01*
X185620827Y-82290602D01*
X185620814Y-82290609D01*
X185489711Y-82378210D01*
X185489707Y-82378213D01*
X185378213Y-82489707D01*
X185378210Y-82489711D01*
X185290609Y-82620814D01*
X185290602Y-82620827D01*
X185230264Y-82766498D01*
X185230261Y-82766510D01*
X185199500Y-82921153D01*
X185199500Y-83078846D01*
X185230261Y-83233489D01*
X185230264Y-83233501D01*
X185290602Y-83379172D01*
X185290609Y-83379184D01*
X185353602Y-83473459D01*
X185374480Y-83540136D01*
X185374500Y-83542350D01*
X185374500Y-90189547D01*
X185354815Y-90256586D01*
X185338181Y-90277228D01*
X183677229Y-91938181D01*
X183615906Y-91971666D01*
X183589548Y-91974500D01*
X162910453Y-91974500D01*
X162843414Y-91954815D01*
X162822772Y-91938181D01*
X162092927Y-91208337D01*
X162092925Y-91208334D01*
X160461819Y-89577228D01*
X160428334Y-89515905D01*
X160425500Y-89489547D01*
X160425500Y-88521153D01*
X166399500Y-88521153D01*
X166399500Y-88678846D01*
X166430261Y-88833489D01*
X166430264Y-88833501D01*
X166490602Y-88979172D01*
X166490609Y-88979185D01*
X166578210Y-89110288D01*
X166578213Y-89110292D01*
X166689707Y-89221786D01*
X166689711Y-89221789D01*
X166820814Y-89309390D01*
X166820827Y-89309397D01*
X166966498Y-89369735D01*
X166966503Y-89369737D01*
X167121153Y-89400499D01*
X167121156Y-89400500D01*
X167121158Y-89400500D01*
X167278844Y-89400500D01*
X167278845Y-89400499D01*
X167433497Y-89369737D01*
X167579179Y-89309394D01*
X167670399Y-89248443D01*
X167710875Y-89221398D01*
X167777553Y-89200520D01*
X167779766Y-89200500D01*
X169499903Y-89200500D01*
X169566942Y-89220185D01*
X169587584Y-89236819D01*
X169765425Y-89414660D01*
X169798910Y-89475983D01*
X169799361Y-89478149D01*
X169830261Y-89633491D01*
X169830264Y-89633501D01*
X169890602Y-89779172D01*
X169890609Y-89779185D01*
X169978210Y-89910288D01*
X169978213Y-89910292D01*
X170089707Y-90021786D01*
X170089711Y-90021789D01*
X170220814Y-90109390D01*
X170220827Y-90109397D01*
X170312839Y-90147509D01*
X170366503Y-90169737D01*
X170512275Y-90198733D01*
X170521153Y-90200499D01*
X170521156Y-90200500D01*
X170521158Y-90200500D01*
X170678844Y-90200500D01*
X170678845Y-90200499D01*
X170833497Y-90169737D01*
X170979179Y-90109394D01*
X171110289Y-90021789D01*
X171221789Y-89910289D01*
X171309394Y-89779179D01*
X171369737Y-89633497D01*
X171400500Y-89478842D01*
X171400500Y-89321158D01*
X171400500Y-89321155D01*
X171400499Y-89321153D01*
X171382367Y-89230000D01*
X171369737Y-89166503D01*
X171366445Y-89158556D01*
X171309397Y-89020827D01*
X171309390Y-89020814D01*
X171221789Y-88889711D01*
X171221786Y-88889707D01*
X171110292Y-88778213D01*
X171110288Y-88778210D01*
X170979185Y-88690609D01*
X170979172Y-88690602D01*
X170833501Y-88630264D01*
X170833491Y-88630261D01*
X170678149Y-88599361D01*
X170616238Y-88566976D01*
X170614660Y-88565425D01*
X170287590Y-88238355D01*
X170287588Y-88238352D01*
X170168717Y-88119481D01*
X170168716Y-88119480D01*
X170076582Y-88066287D01*
X170076581Y-88066286D01*
X170031783Y-88040422D01*
X169962295Y-88021803D01*
X169879057Y-87999499D01*
X169865845Y-87999499D01*
X169798806Y-87979814D01*
X169753051Y-87927010D01*
X169743107Y-87857852D01*
X169751284Y-87828046D01*
X169769737Y-87783497D01*
X169800500Y-87628842D01*
X169800500Y-87471158D01*
X169800500Y-87471155D01*
X169800499Y-87471153D01*
X169794618Y-87441588D01*
X169769737Y-87316503D01*
X169769735Y-87316498D01*
X169709397Y-87170827D01*
X169709390Y-87170814D01*
X169621789Y-87039711D01*
X169621786Y-87039707D01*
X169510292Y-86928213D01*
X169510288Y-86928210D01*
X169379185Y-86840609D01*
X169379172Y-86840602D01*
X169233501Y-86780264D01*
X169233489Y-86780261D01*
X169078845Y-86749500D01*
X169078842Y-86749500D01*
X168921158Y-86749500D01*
X168921155Y-86749500D01*
X168766510Y-86780261D01*
X168766498Y-86780264D01*
X168620827Y-86840602D01*
X168620814Y-86840609D01*
X168489125Y-86928602D01*
X168422447Y-86949480D01*
X168420234Y-86949500D01*
X167979766Y-86949500D01*
X167912727Y-86929815D01*
X167910875Y-86928602D01*
X167779185Y-86840609D01*
X167779172Y-86840602D01*
X167633501Y-86780264D01*
X167633489Y-86780261D01*
X167478845Y-86749500D01*
X167478842Y-86749500D01*
X167321158Y-86749500D01*
X167321155Y-86749500D01*
X167166510Y-86780261D01*
X167166498Y-86780264D01*
X167020827Y-86840602D01*
X167020814Y-86840609D01*
X166889711Y-86928210D01*
X166889707Y-86928213D01*
X166778213Y-87039707D01*
X166778210Y-87039711D01*
X166690609Y-87170814D01*
X166690602Y-87170827D01*
X166630264Y-87316498D01*
X166630261Y-87316510D01*
X166599500Y-87471153D01*
X166599500Y-87628846D01*
X166630261Y-87783489D01*
X166630264Y-87783501D01*
X166672998Y-87886670D01*
X166680467Y-87956139D01*
X166649192Y-88018618D01*
X166646118Y-88021803D01*
X166578213Y-88089707D01*
X166578210Y-88089711D01*
X166490609Y-88220814D01*
X166490602Y-88220827D01*
X166430264Y-88366498D01*
X166430261Y-88366510D01*
X166399500Y-88521153D01*
X160425500Y-88521153D01*
X160425500Y-83842350D01*
X160445185Y-83775311D01*
X160446398Y-83773459D01*
X160481344Y-83721158D01*
X160509394Y-83679179D01*
X160569737Y-83533497D01*
X160600500Y-83378842D01*
X160600500Y-83221158D01*
X160600500Y-83221155D01*
X160600499Y-83221153D01*
X160585230Y-83144390D01*
X160569737Y-83066503D01*
X160556062Y-83033489D01*
X160509397Y-82920827D01*
X160509390Y-82920814D01*
X160466888Y-82857206D01*
X160446010Y-82790529D01*
X160464494Y-82723149D01*
X160516473Y-82676458D01*
X160585443Y-82665282D01*
X160631988Y-82680926D01*
X160768216Y-82759577D01*
X160920943Y-82800501D01*
X160920945Y-82800501D01*
X161086654Y-82800501D01*
X161086670Y-82800500D01*
X161120943Y-82800500D01*
X165820234Y-82800500D01*
X165887273Y-82820185D01*
X165889125Y-82821398D01*
X166020814Y-82909390D01*
X166020827Y-82909397D01*
X166158683Y-82966498D01*
X166166503Y-82969737D01*
X166316131Y-82999500D01*
X166321153Y-83000499D01*
X166321156Y-83000500D01*
X166321158Y-83000500D01*
X166478844Y-83000500D01*
X166478845Y-83000499D01*
X166633497Y-82969737D01*
X166751592Y-82920821D01*
X166779172Y-82909397D01*
X166779172Y-82909396D01*
X166779179Y-82909394D01*
X166910289Y-82821789D01*
X167021789Y-82710289D01*
X167109394Y-82579179D01*
X167169737Y-82433497D01*
X167200500Y-82278842D01*
X167200500Y-82121158D01*
X167200500Y-82121155D01*
X167200499Y-82121153D01*
X167180734Y-82021789D01*
X167169737Y-81966503D01*
X167146451Y-81910284D01*
X167109397Y-81820827D01*
X167109390Y-81820814D01*
X167021789Y-81689711D01*
X167021786Y-81689707D01*
X166910292Y-81578213D01*
X166910288Y-81578210D01*
X166779185Y-81490609D01*
X166779172Y-81490602D01*
X166633501Y-81430264D01*
X166633489Y-81430261D01*
X166478845Y-81399500D01*
X166478842Y-81399500D01*
X166321158Y-81399500D01*
X166321155Y-81399500D01*
X166166510Y-81430261D01*
X166166498Y-81430264D01*
X166020827Y-81490602D01*
X166020814Y-81490609D01*
X165889125Y-81578602D01*
X165822447Y-81599480D01*
X165820234Y-81599500D01*
X161300098Y-81599500D01*
X161233059Y-81579815D01*
X161212417Y-81563181D01*
X160636819Y-80987583D01*
X160603334Y-80926260D01*
X160600500Y-80899902D01*
X160600500Y-70086555D01*
X160620185Y-70019516D01*
X160672989Y-69973761D01*
X160742147Y-69963817D01*
X160760411Y-69968840D01*
X160760676Y-69967969D01*
X160766492Y-69969732D01*
X160766503Y-69969737D01*
X160918644Y-70000000D01*
X160921153Y-70000499D01*
X160921156Y-70000500D01*
X160921158Y-70000500D01*
X161078844Y-70000500D01*
X161078845Y-70000499D01*
X161233497Y-69969737D01*
X161379179Y-69909394D01*
X161393090Y-69900099D01*
X161510875Y-69821398D01*
X161577553Y-69800520D01*
X161579766Y-69800500D01*
X167768059Y-69800500D01*
X167835098Y-69820185D01*
X167880853Y-69872989D01*
X167890797Y-69942147D01*
X167861772Y-70005703D01*
X167855740Y-70012181D01*
X167778213Y-70089707D01*
X167778210Y-70089711D01*
X167690609Y-70220814D01*
X167690602Y-70220827D01*
X167630264Y-70366498D01*
X167630261Y-70366510D01*
X167599500Y-70521153D01*
X167599500Y-70678846D01*
X167630261Y-70833489D01*
X167630264Y-70833501D01*
X167690602Y-70979172D01*
X167690609Y-70979185D01*
X167778602Y-71110874D01*
X167799480Y-71177551D01*
X167799500Y-71179765D01*
X167799500Y-79299903D01*
X167790855Y-79329340D01*
X167784332Y-79359331D01*
X167780576Y-79364347D01*
X167779815Y-79366942D01*
X167763185Y-79387579D01*
X167707353Y-79443412D01*
X167685339Y-79465426D01*
X167624015Y-79498910D01*
X167621850Y-79499361D01*
X167466508Y-79530261D01*
X167466498Y-79530264D01*
X167320827Y-79590602D01*
X167320814Y-79590609D01*
X167189711Y-79678210D01*
X167189707Y-79678213D01*
X167078213Y-79789707D01*
X167078210Y-79789711D01*
X166990609Y-79920814D01*
X166990602Y-79920827D01*
X166930264Y-80066498D01*
X166930261Y-80066510D01*
X166899500Y-80221153D01*
X166899500Y-80378846D01*
X166930261Y-80533489D01*
X166930264Y-80533501D01*
X166990602Y-80679172D01*
X166990609Y-80679185D01*
X167078210Y-80810288D01*
X167078213Y-80810292D01*
X167189707Y-80921786D01*
X167189711Y-80921789D01*
X167320814Y-81009390D01*
X167320827Y-81009397D01*
X167413590Y-81047820D01*
X167466503Y-81069737D01*
X167621153Y-81100499D01*
X167621156Y-81100500D01*
X167621158Y-81100500D01*
X167778844Y-81100500D01*
X167778845Y-81100499D01*
X167933497Y-81069737D01*
X168079179Y-81009394D01*
X168210289Y-80921789D01*
X168321789Y-80810289D01*
X168409394Y-80679179D01*
X168469737Y-80533497D01*
X168494969Y-80406648D01*
X168500638Y-80378150D01*
X168533023Y-80316239D01*
X168534525Y-80314709D01*
X168758506Y-80090727D01*
X168758511Y-80090724D01*
X168768714Y-80080520D01*
X168768716Y-80080520D01*
X168880520Y-79968716D01*
X168959577Y-79831784D01*
X168994294Y-79702218D01*
X169000500Y-79679058D01*
X169000500Y-79520943D01*
X169000500Y-71179765D01*
X169020185Y-71112726D01*
X169021398Y-71110874D01*
X169042799Y-71078846D01*
X169109394Y-70979179D01*
X169114643Y-70966508D01*
X169132244Y-70924014D01*
X169169737Y-70833497D01*
X169200500Y-70678842D01*
X169200500Y-70521158D01*
X169200500Y-70521155D01*
X169200499Y-70521153D01*
X169192417Y-70480521D01*
X169169737Y-70366503D01*
X169134121Y-70280518D01*
X169109397Y-70220827D01*
X169109390Y-70220814D01*
X169021789Y-70089711D01*
X169021786Y-70089707D01*
X168944260Y-70012181D01*
X168910775Y-69950858D01*
X168915759Y-69881166D01*
X168957631Y-69825233D01*
X169023095Y-69800816D01*
X169031941Y-69800500D01*
X174363331Y-69800500D01*
X174363347Y-69800501D01*
X174370943Y-69800501D01*
X174529054Y-69800501D01*
X174529057Y-69800501D01*
X174681785Y-69759577D01*
X174731904Y-69730639D01*
X174818716Y-69680520D01*
X174930520Y-69568716D01*
X174930520Y-69568714D01*
X174940728Y-69558507D01*
X174940729Y-69558504D01*
X175787322Y-68711912D01*
X175848641Y-68678430D01*
X175918333Y-68683414D01*
X175962680Y-68711915D01*
X176256509Y-69005744D01*
X176289994Y-69067067D01*
X176285010Y-69136759D01*
X176243138Y-69192692D01*
X176193020Y-69215042D01*
X176116508Y-69230261D01*
X176116498Y-69230264D01*
X175970827Y-69290602D01*
X175970814Y-69290609D01*
X175839711Y-69378210D01*
X175839707Y-69378213D01*
X175728213Y-69489707D01*
X175728210Y-69489711D01*
X175640609Y-69620814D01*
X175640602Y-69620827D01*
X175580264Y-69766498D01*
X175580261Y-69766510D01*
X175549500Y-69921153D01*
X175549500Y-70078846D01*
X175580261Y-70233489D01*
X175580264Y-70233501D01*
X175640602Y-70379172D01*
X175640609Y-70379185D01*
X175728210Y-70510288D01*
X175728213Y-70510292D01*
X175839707Y-70621786D01*
X175839711Y-70621789D01*
X175970814Y-70709390D01*
X175970827Y-70709397D01*
X176108683Y-70766498D01*
X176116503Y-70769737D01*
X176158793Y-70778149D01*
X176271849Y-70800638D01*
X176288605Y-70809402D01*
X176307085Y-70813423D01*
X176332123Y-70832167D01*
X176333760Y-70833023D01*
X176335339Y-70834574D01*
X176413181Y-70912416D01*
X176446666Y-70973739D01*
X176449500Y-71000097D01*
X176449500Y-73313575D01*
X176429815Y-73380614D01*
X176377011Y-73426369D01*
X176307853Y-73436313D01*
X176244297Y-73407288D01*
X176215015Y-73369870D01*
X176186331Y-73313575D01*
X176155051Y-73252184D01*
X176147023Y-73241134D01*
X176030109Y-73080213D01*
X175879786Y-72929890D01*
X175707820Y-72804951D01*
X175518414Y-72708444D01*
X175518413Y-72708443D01*
X175518412Y-72708443D01*
X175316243Y-72642754D01*
X175316241Y-72642753D01*
X175316240Y-72642753D01*
X175154957Y-72617208D01*
X175106287Y-72609500D01*
X174893713Y-72609500D01*
X174845042Y-72617208D01*
X174683760Y-72642753D01*
X174481585Y-72708444D01*
X174292179Y-72804951D01*
X174120215Y-72929889D01*
X174006673Y-73043431D01*
X173945350Y-73076915D01*
X173875658Y-73071931D01*
X173819725Y-73030059D01*
X173802810Y-72999082D01*
X173753797Y-72867671D01*
X173753793Y-72867664D01*
X173667547Y-72752455D01*
X173667544Y-72752452D01*
X173552335Y-72666206D01*
X173552328Y-72666202D01*
X173417482Y-72615908D01*
X173417483Y-72615908D01*
X173357883Y-72609501D01*
X173357881Y-72609500D01*
X173357873Y-72609500D01*
X173357865Y-72609500D01*
X173184501Y-72609500D01*
X173117462Y-72589815D01*
X173071707Y-72537011D01*
X173060501Y-72485500D01*
X173060501Y-72380945D01*
X173060501Y-72380943D01*
X173019577Y-72228215D01*
X172940520Y-72091284D01*
X171834573Y-70985337D01*
X171801088Y-70924014D01*
X171800637Y-70921847D01*
X171783061Y-70833489D01*
X171769737Y-70766503D01*
X171737929Y-70689711D01*
X171709397Y-70620827D01*
X171709390Y-70620814D01*
X171621789Y-70489711D01*
X171621786Y-70489707D01*
X171510292Y-70378213D01*
X171510288Y-70378210D01*
X171379185Y-70290609D01*
X171379172Y-70290602D01*
X171233501Y-70230264D01*
X171233489Y-70230261D01*
X171078845Y-70199500D01*
X171078842Y-70199500D01*
X170921158Y-70199500D01*
X170921155Y-70199500D01*
X170766510Y-70230261D01*
X170766498Y-70230264D01*
X170620827Y-70290602D01*
X170620814Y-70290609D01*
X170489711Y-70378210D01*
X170489707Y-70378213D01*
X170378213Y-70489707D01*
X170378210Y-70489711D01*
X170290609Y-70620814D01*
X170290602Y-70620827D01*
X170230264Y-70766498D01*
X170230261Y-70766510D01*
X170199500Y-70921153D01*
X170199500Y-71078846D01*
X170230261Y-71233489D01*
X170230264Y-71233501D01*
X170290602Y-71379172D01*
X170290609Y-71379185D01*
X170378210Y-71510288D01*
X170378213Y-71510292D01*
X170489707Y-71621786D01*
X170489711Y-71621789D01*
X170620814Y-71709390D01*
X170620827Y-71709397D01*
X170749070Y-71762516D01*
X170766503Y-71769737D01*
X170831147Y-71782595D01*
X170921849Y-71800638D01*
X170983760Y-71833023D01*
X170985339Y-71834574D01*
X171558959Y-72408194D01*
X171592444Y-72469517D01*
X171587460Y-72539209D01*
X171545588Y-72595142D01*
X171509367Y-72612078D01*
X171509785Y-72613198D01*
X171367671Y-72666202D01*
X171367664Y-72666206D01*
X171252455Y-72752452D01*
X171252452Y-72752455D01*
X171166206Y-72867664D01*
X171166202Y-72867671D01*
X171115908Y-73002517D01*
X171109501Y-73062116D01*
X171109500Y-73062135D01*
X171109500Y-74857870D01*
X171109501Y-74857876D01*
X171115908Y-74917483D01*
X171166202Y-75052328D01*
X171166206Y-75052335D01*
X171252452Y-75167544D01*
X171252455Y-75167547D01*
X171367664Y-75253793D01*
X171367671Y-75253797D01*
X171499082Y-75302810D01*
X171555016Y-75344681D01*
X171579433Y-75410145D01*
X171564582Y-75478418D01*
X171543431Y-75506673D01*
X171429889Y-75620215D01*
X171304951Y-75792179D01*
X171208444Y-75981585D01*
X171142753Y-76183760D01*
X171109500Y-76393713D01*
X171109500Y-76606287D01*
X171119534Y-76669644D01*
X171133907Y-76760390D01*
X171142754Y-76816243D01*
X171195697Y-76979185D01*
X171208444Y-77018414D01*
X171304951Y-77207820D01*
X171429890Y-77379786D01*
X171580213Y-77530109D01*
X171752184Y-77655051D01*
X171752184Y-77655052D01*
X171791793Y-77675233D01*
X171842590Y-77723206D01*
X171859500Y-77785718D01*
X171859500Y-78239902D01*
X171839815Y-78306941D01*
X171823181Y-78327583D01*
X170119481Y-80031282D01*
X170119475Y-80031290D01*
X170075064Y-80108214D01*
X170075064Y-80108215D01*
X170040423Y-80168215D01*
X169999499Y-80320943D01*
X169999499Y-80320945D01*
X169999499Y-80489046D01*
X169999500Y-80489059D01*
X169999500Y-82220234D01*
X169979815Y-82287273D01*
X169978602Y-82289125D01*
X169890609Y-82420814D01*
X169890602Y-82420827D01*
X169830264Y-82566498D01*
X169830261Y-82566510D01*
X169799500Y-82721153D01*
X169799500Y-82878846D01*
X169830261Y-83033489D01*
X169830264Y-83033501D01*
X169890602Y-83179172D01*
X169890609Y-83179185D01*
X169978210Y-83310288D01*
X169978213Y-83310292D01*
X170089707Y-83421786D01*
X170089711Y-83421789D01*
X170220814Y-83509390D01*
X170220827Y-83509397D01*
X170295039Y-83540136D01*
X170366503Y-83569737D01*
X170521153Y-83600499D01*
X170521156Y-83600500D01*
X170521158Y-83600500D01*
X170678844Y-83600500D01*
X170678845Y-83600499D01*
X170833497Y-83569737D01*
X170979179Y-83509394D01*
X171110289Y-83421789D01*
X171210925Y-83321153D01*
X173099500Y-83321153D01*
X173099500Y-83478846D01*
X173130261Y-83633489D01*
X173130264Y-83633501D01*
X173190602Y-83779172D01*
X173190609Y-83779185D01*
X173278210Y-83910288D01*
X173278213Y-83910292D01*
X173389707Y-84021786D01*
X173389711Y-84021789D01*
X173520814Y-84109390D01*
X173520827Y-84109397D01*
X173663379Y-84168443D01*
X173666503Y-84169737D01*
X173821153Y-84200499D01*
X173821156Y-84200500D01*
X173821158Y-84200500D01*
X173978844Y-84200500D01*
X173978845Y-84200499D01*
X174133497Y-84169737D01*
X174279179Y-84109394D01*
X174410289Y-84021789D01*
X174521789Y-83910289D01*
X174609394Y-83779179D01*
X174669737Y-83633497D01*
X174695350Y-83504735D01*
X174700638Y-83478150D01*
X174733023Y-83416239D01*
X174734518Y-83414716D01*
X176922181Y-81227053D01*
X176983502Y-81193570D01*
X177034053Y-81193119D01*
X177071157Y-81200500D01*
X177071158Y-81200500D01*
X177228844Y-81200500D01*
X177228845Y-81200499D01*
X177383497Y-81169737D01*
X177529179Y-81109394D01*
X177660289Y-81021789D01*
X177771789Y-80910289D01*
X177772397Y-80909378D01*
X177772839Y-80909008D01*
X177775653Y-80905581D01*
X177776303Y-80906114D01*
X177826010Y-80864573D01*
X177895334Y-80855866D01*
X177958362Y-80886020D01*
X177995082Y-80945463D01*
X177999500Y-80978269D01*
X177999500Y-81078846D01*
X178030261Y-81233489D01*
X178030264Y-81233501D01*
X178090602Y-81379172D01*
X178090609Y-81379185D01*
X178178602Y-81510874D01*
X178199480Y-81577551D01*
X178199500Y-81579765D01*
X178199500Y-82220234D01*
X178179815Y-82287273D01*
X178178602Y-82289125D01*
X178090609Y-82420814D01*
X178090602Y-82420827D01*
X178030264Y-82566498D01*
X178030261Y-82566510D01*
X177999500Y-82721153D01*
X177999500Y-82878846D01*
X178030261Y-83033489D01*
X178030264Y-83033501D01*
X178090602Y-83179172D01*
X178090609Y-83179185D01*
X178178210Y-83310288D01*
X178178213Y-83310292D01*
X178289707Y-83421786D01*
X178289711Y-83421789D01*
X178420814Y-83509390D01*
X178420827Y-83509397D01*
X178495039Y-83540136D01*
X178566503Y-83569737D01*
X178721153Y-83600499D01*
X178721156Y-83600500D01*
X178721158Y-83600500D01*
X178878844Y-83600500D01*
X178878845Y-83600499D01*
X179033497Y-83569737D01*
X179179179Y-83509394D01*
X179310289Y-83421789D01*
X179421789Y-83310289D01*
X179509394Y-83179179D01*
X179569737Y-83033497D01*
X179600500Y-82878842D01*
X179600500Y-82721158D01*
X179600500Y-82721155D01*
X179600499Y-82721153D01*
X179594244Y-82689707D01*
X179569737Y-82566503D01*
X179569735Y-82566498D01*
X179509397Y-82420827D01*
X179509390Y-82420814D01*
X179421398Y-82289125D01*
X179400520Y-82222447D01*
X179400500Y-82220234D01*
X179400500Y-81579765D01*
X179420185Y-81512726D01*
X179421398Y-81510874D01*
X179442801Y-81478843D01*
X179509394Y-81379179D01*
X179569737Y-81233497D01*
X179600500Y-81078842D01*
X179600500Y-80921158D01*
X179600500Y-80921155D01*
X179600499Y-80921153D01*
X179598083Y-80909008D01*
X179569737Y-80766503D01*
X179533569Y-80679185D01*
X179509397Y-80620827D01*
X179509390Y-80620814D01*
X179421789Y-80489711D01*
X179421786Y-80489707D01*
X179310292Y-80378213D01*
X179310288Y-80378210D01*
X179179185Y-80290609D01*
X179179172Y-80290602D01*
X179033501Y-80230264D01*
X179033489Y-80230261D01*
X178878845Y-80199500D01*
X178878842Y-80199500D01*
X178721158Y-80199500D01*
X178721155Y-80199500D01*
X178566510Y-80230261D01*
X178566498Y-80230264D01*
X178420827Y-80290602D01*
X178420814Y-80290609D01*
X178289711Y-80378210D01*
X178289707Y-80378213D01*
X178178213Y-80489707D01*
X178178206Y-80489716D01*
X178177597Y-80490628D01*
X178177155Y-80490997D01*
X178174347Y-80494419D01*
X178173697Y-80493886D01*
X178123982Y-80535429D01*
X178054656Y-80544132D01*
X177991631Y-80513973D01*
X177954916Y-80454527D01*
X177950500Y-80421730D01*
X177950500Y-80321155D01*
X177950499Y-80321153D01*
X177932419Y-80230261D01*
X177919737Y-80166503D01*
X177887929Y-80089711D01*
X177859397Y-80020827D01*
X177859390Y-80020814D01*
X177771789Y-79889711D01*
X177771786Y-79889707D01*
X177660292Y-79778213D01*
X177660288Y-79778210D01*
X177529185Y-79690609D01*
X177529172Y-79690602D01*
X177383501Y-79630264D01*
X177383489Y-79630261D01*
X177228845Y-79599500D01*
X177228842Y-79599500D01*
X177071158Y-79599500D01*
X177071155Y-79599500D01*
X176916510Y-79630261D01*
X176916498Y-79630264D01*
X176770827Y-79690602D01*
X176770814Y-79690609D01*
X176639711Y-79778210D01*
X176639707Y-79778213D01*
X176528217Y-79889704D01*
X176528214Y-79889706D01*
X176468860Y-79978534D01*
X176453440Y-79997322D01*
X173885339Y-82565425D01*
X173824016Y-82598910D01*
X173821850Y-82599361D01*
X173666508Y-82630261D01*
X173666498Y-82630264D01*
X173520827Y-82690602D01*
X173520814Y-82690609D01*
X173389711Y-82778210D01*
X173389707Y-82778213D01*
X173278213Y-82889707D01*
X173278210Y-82889711D01*
X173190609Y-83020814D01*
X173190602Y-83020827D01*
X173130264Y-83166498D01*
X173130261Y-83166510D01*
X173099500Y-83321153D01*
X171210925Y-83321153D01*
X171221789Y-83310289D01*
X171281345Y-83221158D01*
X171309390Y-83179185D01*
X171309390Y-83179184D01*
X171309394Y-83179179D01*
X171369737Y-83033497D01*
X171400500Y-82878842D01*
X171400500Y-82721158D01*
X171400500Y-82721155D01*
X171400499Y-82721153D01*
X171394244Y-82689707D01*
X171369737Y-82566503D01*
X171369735Y-82566498D01*
X171309397Y-82420827D01*
X171309390Y-82420814D01*
X171221398Y-82289125D01*
X171200520Y-82222447D01*
X171200500Y-82220234D01*
X171200500Y-80700096D01*
X171220185Y-80633057D01*
X171236814Y-80612420D01*
X172818506Y-79030727D01*
X172818511Y-79030724D01*
X172828714Y-79020520D01*
X172828716Y-79020520D01*
X172940520Y-78908716D01*
X173002998Y-78800500D01*
X173019577Y-78771785D01*
X173060500Y-78619058D01*
X173060500Y-78460943D01*
X173060500Y-77785718D01*
X173080185Y-77718679D01*
X173128207Y-77675233D01*
X173167815Y-77655052D01*
X173167815Y-77655051D01*
X173167816Y-77655051D01*
X173285598Y-77569478D01*
X173339786Y-77530109D01*
X173339788Y-77530106D01*
X173339792Y-77530104D01*
X173490104Y-77379792D01*
X173490106Y-77379788D01*
X173490109Y-77379786D01*
X173615048Y-77207820D01*
X173615047Y-77207820D01*
X173615051Y-77207816D01*
X173619514Y-77199055D01*
X173667488Y-77148259D01*
X173735308Y-77131463D01*
X173801444Y-77153999D01*
X173840486Y-77199056D01*
X173844951Y-77207820D01*
X173969890Y-77379786D01*
X174120213Y-77530109D01*
X174292179Y-77655048D01*
X174292181Y-77655049D01*
X174292184Y-77655051D01*
X174481588Y-77751557D01*
X174683757Y-77817246D01*
X174893713Y-77850500D01*
X174893714Y-77850500D01*
X175106286Y-77850500D01*
X175106287Y-77850500D01*
X175316243Y-77817246D01*
X175518412Y-77751557D01*
X175707816Y-77655051D01*
X175753602Y-77621786D01*
X175879786Y-77530109D01*
X175879788Y-77530106D01*
X175879792Y-77530104D01*
X176030104Y-77379792D01*
X176030555Y-77379172D01*
X176097876Y-77286511D01*
X176153206Y-77243844D01*
X176222819Y-77237865D01*
X176284614Y-77270470D01*
X176312756Y-77311943D01*
X176340602Y-77379173D01*
X176340609Y-77379185D01*
X176428210Y-77510288D01*
X176428213Y-77510292D01*
X176539707Y-77621786D01*
X176539711Y-77621789D01*
X176670814Y-77709390D01*
X176670827Y-77709397D01*
X176772607Y-77751555D01*
X176816503Y-77769737D01*
X176971153Y-77800499D01*
X176971156Y-77800500D01*
X176971158Y-77800500D01*
X177128844Y-77800500D01*
X177128845Y-77800499D01*
X177283497Y-77769737D01*
X177406763Y-77718679D01*
X177429172Y-77709397D01*
X177429172Y-77709396D01*
X177429179Y-77709394D01*
X177560289Y-77621789D01*
X177671789Y-77510289D01*
X177759394Y-77379179D01*
X177819737Y-77233497D01*
X177850500Y-77078842D01*
X177850500Y-76921158D01*
X177850500Y-76921155D01*
X177850499Y-76921153D01*
X177829608Y-76816129D01*
X177819737Y-76766503D01*
X177803760Y-76727930D01*
X177759397Y-76620827D01*
X177759390Y-76620814D01*
X177671398Y-76489125D01*
X177650520Y-76422447D01*
X177650500Y-76420234D01*
X177650500Y-73062155D01*
X180110000Y-73062155D01*
X180110000Y-73710000D01*
X181026988Y-73710000D01*
X180994075Y-73767007D01*
X180960000Y-73894174D01*
X180960000Y-74025826D01*
X180994075Y-74152993D01*
X181026988Y-74210000D01*
X180110000Y-74210000D01*
X180110000Y-74857844D01*
X180116401Y-74917372D01*
X180116403Y-74917379D01*
X180166645Y-75052086D01*
X180166649Y-75052093D01*
X180252809Y-75167187D01*
X180252812Y-75167190D01*
X180367906Y-75253350D01*
X180367913Y-75253354D01*
X180499986Y-75302614D01*
X180555920Y-75344485D01*
X180580337Y-75409949D01*
X180565486Y-75478222D01*
X180544335Y-75506477D01*
X180430271Y-75620541D01*
X180305379Y-75792442D01*
X180208904Y-75981782D01*
X180143242Y-76183870D01*
X180143242Y-76183873D01*
X180132769Y-76250000D01*
X181026988Y-76250000D01*
X180994075Y-76307007D01*
X180960000Y-76434174D01*
X180960000Y-76565826D01*
X180994075Y-76692993D01*
X181026988Y-76750000D01*
X180132769Y-76750000D01*
X180143242Y-76816126D01*
X180143242Y-76816129D01*
X180208904Y-77018217D01*
X180305379Y-77207557D01*
X180430272Y-77379459D01*
X180430276Y-77379464D01*
X180580535Y-77529723D01*
X180580540Y-77529727D01*
X180752442Y-77654620D01*
X180941782Y-77751095D01*
X181143871Y-77816757D01*
X181210000Y-77827231D01*
X181210000Y-76933012D01*
X181267007Y-76965925D01*
X181394174Y-77000000D01*
X181525826Y-77000000D01*
X181652993Y-76965925D01*
X181710000Y-76933012D01*
X181710000Y-77827230D01*
X181776126Y-77816757D01*
X181776129Y-77816757D01*
X181978217Y-77751095D01*
X182167557Y-77654620D01*
X182339459Y-77529727D01*
X182339464Y-77529723D01*
X182489723Y-77379464D01*
X182489727Y-77379459D01*
X182614620Y-77207558D01*
X182619514Y-77197954D01*
X182667488Y-77147157D01*
X182735308Y-77130361D01*
X182801444Y-77152897D01*
X182840486Y-77197954D01*
X182845379Y-77207558D01*
X182970272Y-77379459D01*
X182970276Y-77379464D01*
X183120535Y-77529723D01*
X183120540Y-77529727D01*
X183292442Y-77654620D01*
X183481782Y-77751095D01*
X183683871Y-77816757D01*
X183750000Y-77827231D01*
X183750000Y-76933012D01*
X183807007Y-76965925D01*
X183934174Y-77000000D01*
X184065826Y-77000000D01*
X184192993Y-76965925D01*
X184250000Y-76933012D01*
X184250000Y-77827230D01*
X184316126Y-77816757D01*
X184316129Y-77816757D01*
X184518217Y-77751095D01*
X184707557Y-77654620D01*
X184879459Y-77529727D01*
X184879464Y-77529723D01*
X185029723Y-77379464D01*
X185029727Y-77379459D01*
X185154620Y-77207557D01*
X185251095Y-77018217D01*
X185316757Y-76816129D01*
X185316757Y-76816126D01*
X185327231Y-76750000D01*
X184433012Y-76750000D01*
X184465925Y-76692993D01*
X184500000Y-76565826D01*
X184500000Y-76434174D01*
X184465925Y-76307007D01*
X184433012Y-76250000D01*
X185327231Y-76250000D01*
X185316757Y-76183873D01*
X185316757Y-76183870D01*
X185251095Y-75981782D01*
X185154620Y-75792442D01*
X185029727Y-75620540D01*
X185029723Y-75620535D01*
X184879464Y-75470276D01*
X184879459Y-75470272D01*
X184707558Y-75345379D01*
X184697954Y-75340486D01*
X184647157Y-75292512D01*
X184630361Y-75224692D01*
X184652897Y-75158556D01*
X184697954Y-75119514D01*
X184707558Y-75114620D01*
X184879459Y-74989727D01*
X184879464Y-74989723D01*
X185029723Y-74839464D01*
X185029727Y-74839459D01*
X185154620Y-74667557D01*
X185251095Y-74478217D01*
X185316757Y-74276129D01*
X185316757Y-74276126D01*
X185327231Y-74210000D01*
X184433012Y-74210000D01*
X184465925Y-74152993D01*
X184500000Y-74025826D01*
X184500000Y-73894174D01*
X184465925Y-73767007D01*
X184433012Y-73710000D01*
X185327231Y-73710000D01*
X185316757Y-73643873D01*
X185316757Y-73643870D01*
X185251095Y-73441782D01*
X185154620Y-73252442D01*
X185029727Y-73080540D01*
X185029723Y-73080535D01*
X184879464Y-72930276D01*
X184879459Y-72930272D01*
X184707557Y-72805379D01*
X184518215Y-72708903D01*
X184316124Y-72643241D01*
X184250000Y-72632768D01*
X184250000Y-73526988D01*
X184192993Y-73494075D01*
X184065826Y-73460000D01*
X183934174Y-73460000D01*
X183807007Y-73494075D01*
X183750000Y-73526988D01*
X183750000Y-72632768D01*
X183749999Y-72632768D01*
X183683875Y-72643241D01*
X183481784Y-72708903D01*
X183292442Y-72805379D01*
X183120541Y-72930271D01*
X183006477Y-73044335D01*
X182945154Y-73077819D01*
X182875462Y-73072835D01*
X182819529Y-73030963D01*
X182802614Y-72999986D01*
X182753354Y-72867913D01*
X182753350Y-72867906D01*
X182667190Y-72752812D01*
X182667187Y-72752809D01*
X182552093Y-72666649D01*
X182552086Y-72666645D01*
X182417379Y-72616403D01*
X182417372Y-72616401D01*
X182357844Y-72610000D01*
X181710000Y-72610000D01*
X181710000Y-73526988D01*
X181652993Y-73494075D01*
X181525826Y-73460000D01*
X181394174Y-73460000D01*
X181267007Y-73494075D01*
X181210000Y-73526988D01*
X181210000Y-72610000D01*
X180562155Y-72610000D01*
X180502627Y-72616401D01*
X180502620Y-72616403D01*
X180367913Y-72666645D01*
X180367906Y-72666649D01*
X180252812Y-72752809D01*
X180252809Y-72752812D01*
X180166649Y-72867906D01*
X180166645Y-72867913D01*
X180116403Y-73002620D01*
X180116401Y-73002627D01*
X180110000Y-73062155D01*
X177650500Y-73062155D01*
X177650500Y-70620943D01*
X177650467Y-70620821D01*
X177629267Y-70541700D01*
X177630930Y-70471850D01*
X177670093Y-70413988D01*
X177734321Y-70386484D01*
X177781132Y-70389832D01*
X177820942Y-70400500D01*
X177820943Y-70400500D01*
X177970943Y-70400500D01*
X183513331Y-70400500D01*
X183513347Y-70400501D01*
X183520943Y-70400501D01*
X183679054Y-70400501D01*
X183679057Y-70400501D01*
X183831785Y-70359577D01*
X183898912Y-70320821D01*
X183968716Y-70280520D01*
X184080520Y-70168716D01*
X184080520Y-70168714D01*
X184090724Y-70158511D01*
X184090728Y-70158506D01*
X184658506Y-69590728D01*
X184658511Y-69590724D01*
X184668714Y-69580520D01*
X184668716Y-69580520D01*
X184780520Y-69468716D01*
X184859577Y-69331784D01*
X184900500Y-69179057D01*
X184900500Y-68225718D01*
X184920185Y-68158679D01*
X184968207Y-68115233D01*
X185007815Y-68095052D01*
X185007815Y-68095051D01*
X185007816Y-68095051D01*
X185099193Y-68028661D01*
X185179786Y-67970109D01*
X185179788Y-67970106D01*
X185179792Y-67970104D01*
X185330104Y-67819792D01*
X185330106Y-67819788D01*
X185330109Y-67819786D01*
X185455048Y-67647820D01*
X185455050Y-67647817D01*
X185455051Y-67647816D01*
X185551557Y-67458412D01*
X185617246Y-67256243D01*
X185650500Y-67046287D01*
X185650500Y-66833713D01*
X185617246Y-66623757D01*
X185551557Y-66421588D01*
X185455051Y-66232184D01*
X185455049Y-66232181D01*
X185455048Y-66232179D01*
X185330109Y-66060213D01*
X185179786Y-65909890D01*
X185007820Y-65784951D01*
X184999600Y-65780763D01*
X184999054Y-65780485D01*
X184948259Y-65732512D01*
X184931463Y-65664692D01*
X184953999Y-65598556D01*
X184999054Y-65559515D01*
X185007816Y-65555051D01*
X185113845Y-65478017D01*
X185179786Y-65430109D01*
X185179788Y-65430106D01*
X185179792Y-65430104D01*
X185330104Y-65279792D01*
X185330106Y-65279788D01*
X185330109Y-65279786D01*
X185455048Y-65107820D01*
X185455047Y-65107820D01*
X185455051Y-65107816D01*
X185486975Y-65045160D01*
X185534949Y-64994365D01*
X185602770Y-64977570D01*
X185668905Y-65000107D01*
G37*
%TD.AperFunction*%
%TA.AperFunction,Conductor*%
G36*
X183731630Y-55954906D02*
G01*
X183732136Y-55954815D01*
X183766330Y-55963543D01*
X183830042Y-55989933D01*
X183830046Y-55989933D01*
X183830047Y-55989934D01*
X184008843Y-56025500D01*
X184008846Y-56025500D01*
X184191155Y-56025500D01*
X184196584Y-56024419D01*
X184201303Y-56023481D01*
X184270895Y-56029705D01*
X184326074Y-56072566D01*
X184349322Y-56138455D01*
X184349500Y-56145097D01*
X184349500Y-56637770D01*
X184329815Y-56704809D01*
X184313181Y-56725451D01*
X183717049Y-57321582D01*
X183717049Y-57321583D01*
X183717048Y-57321584D01*
X183705719Y-57338539D01*
X183694390Y-57355495D01*
X183634914Y-57444508D01*
X183578343Y-57581082D01*
X183578340Y-57581092D01*
X183549500Y-57726079D01*
X183549500Y-58132779D01*
X183529815Y-58199818D01*
X183498385Y-58233097D01*
X183420211Y-58289893D01*
X183306673Y-58403431D01*
X183245350Y-58436915D01*
X183175658Y-58431931D01*
X183119725Y-58390059D01*
X183102810Y-58359082D01*
X183053797Y-58227671D01*
X183053793Y-58227664D01*
X182967547Y-58112455D01*
X182967544Y-58112452D01*
X182852335Y-58026206D01*
X182852328Y-58026202D01*
X182717482Y-57975908D01*
X182717483Y-57975908D01*
X182657883Y-57969501D01*
X182657881Y-57969500D01*
X182657873Y-57969500D01*
X182657864Y-57969500D01*
X180862129Y-57969500D01*
X180862123Y-57969501D01*
X180802516Y-57975908D01*
X180667671Y-58026202D01*
X180667664Y-58026206D01*
X180552455Y-58112452D01*
X180552452Y-58112455D01*
X180466206Y-58227664D01*
X180466202Y-58227671D01*
X180415908Y-58362517D01*
X180409501Y-58422116D01*
X180409500Y-58422135D01*
X180409500Y-60217870D01*
X180409501Y-60217876D01*
X180415908Y-60277483D01*
X180466202Y-60412328D01*
X180466206Y-60412335D01*
X180552452Y-60527544D01*
X180552455Y-60527547D01*
X180667664Y-60613793D01*
X180667671Y-60613797D01*
X180799082Y-60662810D01*
X180855016Y-60704681D01*
X180879433Y-60770145D01*
X180864582Y-60838418D01*
X180843431Y-60866673D01*
X180729889Y-60980215D01*
X180604951Y-61152179D01*
X180508444Y-61341585D01*
X180442753Y-61543760D01*
X180427443Y-61640424D01*
X180409500Y-61753713D01*
X180409500Y-61966287D01*
X180421270Y-62040602D01*
X180442754Y-62176244D01*
X180442754Y-62176247D01*
X180456491Y-62218523D01*
X180458486Y-62288364D01*
X180426241Y-62344522D01*
X179731286Y-63039478D01*
X179619481Y-63151282D01*
X179619477Y-63151287D01*
X179595677Y-63192512D01*
X179578774Y-63221789D01*
X179540423Y-63288215D01*
X179499499Y-63440943D01*
X179499499Y-63440945D01*
X179497396Y-63448794D01*
X179494973Y-63448144D01*
X179480663Y-63486038D01*
X179390612Y-63620809D01*
X179390602Y-63620827D01*
X179330264Y-63766498D01*
X179330261Y-63766510D01*
X179299500Y-63921153D01*
X179299500Y-64078846D01*
X179330261Y-64233489D01*
X179330264Y-64233501D01*
X179390602Y-64379172D01*
X179390609Y-64379185D01*
X179478210Y-64510288D01*
X179478213Y-64510292D01*
X179589707Y-64621786D01*
X179589711Y-64621789D01*
X179720814Y-64709390D01*
X179720827Y-64709397D01*
X179863635Y-64768549D01*
X179866503Y-64769737D01*
X180021153Y-64800499D01*
X180021156Y-64800500D01*
X180021158Y-64800500D01*
X180178844Y-64800500D01*
X180178845Y-64800499D01*
X180224831Y-64791352D01*
X180339472Y-64768549D01*
X180339760Y-64770000D01*
X180402275Y-64769437D01*
X180461392Y-64806679D01*
X180486346Y-64850405D01*
X180508444Y-64918416D01*
X180604951Y-65107820D01*
X180729890Y-65279786D01*
X180880213Y-65430109D01*
X181052179Y-65555048D01*
X181052181Y-65555049D01*
X181052184Y-65555051D01*
X181061493Y-65559794D01*
X181112290Y-65607766D01*
X181129087Y-65675587D01*
X181106552Y-65741722D01*
X181061502Y-65780762D01*
X181052443Y-65785378D01*
X180880540Y-65910272D01*
X180880535Y-65910276D01*
X180730276Y-66060535D01*
X180730272Y-66060540D01*
X180605379Y-66232442D01*
X180508904Y-66421782D01*
X180443242Y-66623870D01*
X180443242Y-66623873D01*
X180432769Y-66690000D01*
X181326988Y-66690000D01*
X181294075Y-66747007D01*
X181260000Y-66874174D01*
X181260000Y-67005826D01*
X181294075Y-67132993D01*
X181326988Y-67190000D01*
X180432769Y-67190000D01*
X180443242Y-67256126D01*
X180443242Y-67256129D01*
X180508904Y-67458217D01*
X180605379Y-67647557D01*
X180730272Y-67819459D01*
X180730276Y-67819464D01*
X180880535Y-67969723D01*
X180880540Y-67969727D01*
X181052442Y-68094620D01*
X181241782Y-68191095D01*
X181443871Y-68256757D01*
X181510000Y-68267231D01*
X181510000Y-67373012D01*
X181567007Y-67405925D01*
X181694174Y-67440000D01*
X181825826Y-67440000D01*
X181952993Y-67405925D01*
X182010000Y-67373012D01*
X182010000Y-68267230D01*
X182076126Y-68256757D01*
X182076129Y-68256757D01*
X182278217Y-68191095D01*
X182467557Y-68094620D01*
X182639459Y-67969727D01*
X182639464Y-67969723D01*
X182789723Y-67819464D01*
X182789727Y-67819459D01*
X182914620Y-67647558D01*
X182919232Y-67638507D01*
X182967205Y-67587709D01*
X183035025Y-67570912D01*
X183101161Y-67593447D01*
X183140204Y-67638504D01*
X183144949Y-67647817D01*
X183269890Y-67819786D01*
X183420213Y-67970109D01*
X183592184Y-68095051D01*
X183592184Y-68095052D01*
X183631793Y-68115233D01*
X183682590Y-68163206D01*
X183699500Y-68225718D01*
X183699500Y-68799903D01*
X183679815Y-68866942D01*
X183663181Y-68887584D01*
X183387584Y-69163181D01*
X183326261Y-69196666D01*
X183299903Y-69199500D01*
X178200097Y-69199500D01*
X178133058Y-69179815D01*
X178112416Y-69163181D01*
X176736819Y-67787584D01*
X176703334Y-67726261D01*
X176700500Y-67699903D01*
X176700500Y-63497955D01*
X176720185Y-63430916D01*
X176772989Y-63385161D01*
X176800303Y-63376339D01*
X176833497Y-63369737D01*
X176979179Y-63309394D01*
X177110289Y-63221789D01*
X177221789Y-63110289D01*
X177309394Y-62979179D01*
X177369737Y-62833497D01*
X177400500Y-62678842D01*
X177400500Y-62521158D01*
X177400500Y-62521155D01*
X177399903Y-62515093D01*
X177402388Y-62514848D01*
X177407645Y-62456154D01*
X177435349Y-62413885D01*
X179780520Y-60068716D01*
X179859577Y-59931784D01*
X179900501Y-59779057D01*
X179900501Y-59620942D01*
X179900501Y-59613347D01*
X179900500Y-59613329D01*
X179900500Y-56674500D01*
X179920185Y-56607461D01*
X179972989Y-56561706D01*
X180024500Y-56550500D01*
X182764371Y-56550500D01*
X182764387Y-56550501D01*
X182771983Y-56550501D01*
X182930094Y-56550501D01*
X182930097Y-56550501D01*
X183082825Y-56509577D01*
X183108795Y-56494583D01*
X183133131Y-56480533D01*
X183133142Y-56480525D01*
X183133154Y-56480519D01*
X183219756Y-56430520D01*
X183331560Y-56318716D01*
X183331560Y-56318715D01*
X183348988Y-56301287D01*
X183348993Y-56301280D01*
X183580520Y-56069756D01*
X183611496Y-56016102D01*
X183612048Y-56015576D01*
X183612239Y-56014831D01*
X183637275Y-55991521D01*
X183662058Y-55967891D01*
X183662813Y-55967745D01*
X183663377Y-55967221D01*
X183697075Y-55961140D01*
X183730665Y-55954666D01*
X183731630Y-55954906D01*
G37*
%TD.AperFunction*%
%TA.AperFunction,Conductor*%
G36*
X169536098Y-58119185D02*
G01*
X169581853Y-58171989D01*
X169591797Y-58241147D01*
X169562772Y-58304703D01*
X169556740Y-58311181D01*
X169478213Y-58389707D01*
X169478210Y-58389711D01*
X169390609Y-58520814D01*
X169390602Y-58520827D01*
X169330264Y-58666498D01*
X169330261Y-58666510D01*
X169299500Y-58821153D01*
X169299500Y-58978846D01*
X169330261Y-59133489D01*
X169330264Y-59133501D01*
X169390602Y-59279172D01*
X169390609Y-59279185D01*
X169478210Y-59410288D01*
X169478213Y-59410292D01*
X169589707Y-59521786D01*
X169589711Y-59521789D01*
X169720814Y-59609390D01*
X169720827Y-59609397D01*
X169866498Y-59669735D01*
X169866503Y-59669737D01*
X170007584Y-59697800D01*
X170021153Y-59700499D01*
X170021156Y-59700500D01*
X170021158Y-59700500D01*
X170178844Y-59700500D01*
X170178845Y-59700499D01*
X170333497Y-59669737D01*
X170459894Y-59617381D01*
X170529363Y-59609913D01*
X170591842Y-59641188D01*
X170595027Y-59644262D01*
X171115425Y-60164660D01*
X171148910Y-60225983D01*
X171149361Y-60228149D01*
X171180261Y-60383491D01*
X171180264Y-60383501D01*
X171240602Y-60529172D01*
X171240609Y-60529185D01*
X171328210Y-60660288D01*
X171328213Y-60660292D01*
X171439707Y-60771786D01*
X171439711Y-60771789D01*
X171570814Y-60859390D01*
X171570827Y-60859397D01*
X171716498Y-60919735D01*
X171716503Y-60919737D01*
X171871153Y-60950499D01*
X171871156Y-60950500D01*
X171871158Y-60950500D01*
X172028844Y-60950500D01*
X172028845Y-60950499D01*
X172183497Y-60919737D01*
X172329179Y-60859394D01*
X172460289Y-60771789D01*
X172571789Y-60660289D01*
X172659394Y-60529179D01*
X172660071Y-60527546D01*
X172699026Y-60433497D01*
X172719737Y-60383497D01*
X172723802Y-60363056D01*
X172726662Y-60348685D01*
X172759047Y-60286774D01*
X172819762Y-60252200D01*
X172889532Y-60255939D01*
X172935960Y-60285195D01*
X173365137Y-60714372D01*
X173394949Y-60762413D01*
X173399499Y-60775899D01*
X173399499Y-60779057D01*
X173440423Y-60931785D01*
X173462335Y-60969737D01*
X173480096Y-61000500D01*
X173482887Y-61005334D01*
X173499500Y-61067334D01*
X173499500Y-61078846D01*
X173530261Y-61233489D01*
X173530264Y-61233501D01*
X173590602Y-61379172D01*
X173590609Y-61379185D01*
X173678210Y-61510288D01*
X173678213Y-61510292D01*
X173789707Y-61621786D01*
X173789711Y-61621789D01*
X173920814Y-61709390D01*
X173920827Y-61709397D01*
X174066498Y-61769735D01*
X174066503Y-61769737D01*
X174156090Y-61787557D01*
X174221153Y-61800499D01*
X174221156Y-61800500D01*
X174221158Y-61800500D01*
X174378844Y-61800500D01*
X174378845Y-61800499D01*
X174533497Y-61769737D01*
X174654829Y-61719480D01*
X174679172Y-61709397D01*
X174679172Y-61709396D01*
X174679179Y-61709394D01*
X174810289Y-61621789D01*
X174834072Y-61598006D01*
X174886819Y-61545260D01*
X174906255Y-61534647D01*
X174922989Y-61520147D01*
X174936320Y-61518230D01*
X174948142Y-61511775D01*
X174970228Y-61513354D01*
X174992147Y-61510203D01*
X175004398Y-61515798D01*
X175017834Y-61516759D01*
X175035560Y-61530029D01*
X175055703Y-61539228D01*
X175062985Y-61550559D01*
X175073767Y-61558631D01*
X175081504Y-61579376D01*
X175093477Y-61598006D01*
X175096628Y-61619924D01*
X175098184Y-61624095D01*
X175098500Y-61632941D01*
X175098500Y-61762233D01*
X175081887Y-61824232D01*
X175043567Y-61890605D01*
X175043567Y-61890606D01*
X175013423Y-61942817D01*
X174972499Y-62095545D01*
X174972499Y-62095547D01*
X174972499Y-62263648D01*
X174972500Y-62263661D01*
X174972500Y-62938728D01*
X174972499Y-62938746D01*
X174972499Y-63104452D01*
X174972498Y-63104452D01*
X174979122Y-63129172D01*
X175013423Y-63257183D01*
X175031340Y-63288215D01*
X175081888Y-63375768D01*
X175081895Y-63375795D01*
X175098500Y-63437766D01*
X175098500Y-67650902D01*
X175078815Y-67717941D01*
X175062181Y-67738583D01*
X174237584Y-68563181D01*
X174176261Y-68596666D01*
X174149903Y-68599500D01*
X170707703Y-68599500D01*
X170687489Y-68593564D01*
X170666450Y-68592437D01*
X170654635Y-68583917D01*
X170640664Y-68579815D01*
X170626870Y-68563896D01*
X170609778Y-68551571D01*
X170604444Y-68538015D01*
X170594909Y-68527011D01*
X170591910Y-68506158D01*
X170584197Y-68486553D01*
X170585526Y-68461755D01*
X170584965Y-68457853D01*
X170586086Y-68451309D01*
X170600638Y-68378150D01*
X170633022Y-68316239D01*
X170634513Y-68314721D01*
X171312417Y-67636819D01*
X171373740Y-67603334D01*
X171400098Y-67600500D01*
X173013331Y-67600500D01*
X173013347Y-67600501D01*
X173020943Y-67600501D01*
X173179054Y-67600501D01*
X173179057Y-67600501D01*
X173331785Y-67559577D01*
X173382558Y-67530263D01*
X173468716Y-67480520D01*
X173580520Y-67368716D01*
X173580521Y-67368714D01*
X173614662Y-67334572D01*
X173675983Y-67301089D01*
X173678150Y-67300638D01*
X173736085Y-67289113D01*
X173833497Y-67269737D01*
X173979179Y-67209394D01*
X174110289Y-67121789D01*
X174221789Y-67010289D01*
X174309394Y-66879179D01*
X174369737Y-66733497D01*
X174400500Y-66578842D01*
X174400500Y-66421158D01*
X174400500Y-66421155D01*
X174400499Y-66421153D01*
X174388653Y-66361602D01*
X174369737Y-66266503D01*
X174359380Y-66241499D01*
X174309397Y-66120827D01*
X174309390Y-66120814D01*
X174221789Y-65989711D01*
X174221786Y-65989707D01*
X174110292Y-65878213D01*
X174110288Y-65878210D01*
X173979185Y-65790609D01*
X173979172Y-65790602D01*
X173833501Y-65730264D01*
X173833489Y-65730261D01*
X173678845Y-65699500D01*
X173678842Y-65699500D01*
X173521158Y-65699500D01*
X173521155Y-65699500D01*
X173366510Y-65730261D01*
X173366498Y-65730264D01*
X173220827Y-65790602D01*
X173220814Y-65790609D01*
X173089711Y-65878210D01*
X173089707Y-65878213D01*
X172978213Y-65989707D01*
X172978210Y-65989711D01*
X172890609Y-66120814D01*
X172890602Y-66120827D01*
X172830264Y-66266498D01*
X172830261Y-66266510D01*
X172823661Y-66299691D01*
X172791276Y-66361602D01*
X172730561Y-66396176D01*
X172702044Y-66399500D01*
X171186670Y-66399500D01*
X171186654Y-66399499D01*
X171179058Y-66399499D01*
X171020943Y-66399499D01*
X170944579Y-66419961D01*
X170868214Y-66440423D01*
X170868209Y-66440426D01*
X170731290Y-66519475D01*
X170731282Y-66519481D01*
X169785339Y-67465425D01*
X169724016Y-67498910D01*
X169721850Y-67499361D01*
X169566508Y-67530261D01*
X169566498Y-67530264D01*
X169420827Y-67590602D01*
X169420814Y-67590609D01*
X169289711Y-67678210D01*
X169289707Y-67678213D01*
X169178213Y-67789707D01*
X169178210Y-67789711D01*
X169090609Y-67920814D01*
X169090602Y-67920827D01*
X169030264Y-68066498D01*
X169030261Y-68066510D01*
X168999500Y-68221153D01*
X168999500Y-68378846D01*
X169013914Y-68451309D01*
X169007687Y-68520900D01*
X168964824Y-68576078D01*
X168898934Y-68599322D01*
X168892297Y-68599500D01*
X161579766Y-68599500D01*
X161512727Y-68579815D01*
X161510875Y-68578602D01*
X161379185Y-68490609D01*
X161379172Y-68490602D01*
X161233501Y-68430264D01*
X161233489Y-68430261D01*
X161078845Y-68399500D01*
X161078842Y-68399500D01*
X160921158Y-68399500D01*
X160921155Y-68399500D01*
X160766510Y-68430261D01*
X160760676Y-68432031D01*
X160759873Y-68429385D01*
X160702056Y-68435396D01*
X160639687Y-68403902D01*
X160604245Y-68343689D01*
X160600500Y-68313444D01*
X160600500Y-60831941D01*
X160620185Y-60764902D01*
X160672989Y-60719147D01*
X160742147Y-60709203D01*
X160805703Y-60738228D01*
X160812181Y-60744260D01*
X160889707Y-60821786D01*
X160889711Y-60821789D01*
X161020814Y-60909390D01*
X161020827Y-60909397D01*
X161166498Y-60969735D01*
X161166503Y-60969737D01*
X161296982Y-60995691D01*
X161321153Y-61000499D01*
X161321156Y-61000500D01*
X161321158Y-61000500D01*
X161478844Y-61000500D01*
X161478845Y-61000499D01*
X161633497Y-60969737D01*
X161779179Y-60909394D01*
X161779185Y-60909390D01*
X161910875Y-60821398D01*
X161977553Y-60800520D01*
X161979766Y-60800500D01*
X166220234Y-60800500D01*
X166287273Y-60820185D01*
X166289125Y-60821398D01*
X166420814Y-60909390D01*
X166420827Y-60909397D01*
X166566498Y-60969735D01*
X166566503Y-60969737D01*
X166696982Y-60995691D01*
X166721153Y-61000499D01*
X166721156Y-61000500D01*
X166882152Y-61000500D01*
X166949191Y-61020185D01*
X166994946Y-61072989D01*
X167003769Y-61100308D01*
X167030261Y-61233491D01*
X167030264Y-61233501D01*
X167090602Y-61379172D01*
X167090609Y-61379185D01*
X167178210Y-61510288D01*
X167178213Y-61510292D01*
X167289707Y-61621786D01*
X167289711Y-61621789D01*
X167420814Y-61709390D01*
X167420827Y-61709397D01*
X167566498Y-61769735D01*
X167566503Y-61769737D01*
X167656090Y-61787557D01*
X167721153Y-61800499D01*
X167721156Y-61800500D01*
X167721158Y-61800500D01*
X167878844Y-61800500D01*
X167878845Y-61800499D01*
X168033497Y-61769737D01*
X168154829Y-61719480D01*
X168179172Y-61709397D01*
X168179172Y-61709396D01*
X168179179Y-61709394D01*
X168310289Y-61621789D01*
X168421789Y-61510289D01*
X168509394Y-61379179D01*
X168569737Y-61233497D01*
X168600500Y-61078842D01*
X168600500Y-60921158D01*
X168600500Y-60921155D01*
X168600499Y-60921153D01*
X168583061Y-60833489D01*
X168569737Y-60766503D01*
X168542392Y-60700486D01*
X168509397Y-60620827D01*
X168509390Y-60620814D01*
X168421398Y-60489125D01*
X168400520Y-60422447D01*
X168400500Y-60420234D01*
X168400500Y-59579765D01*
X168420185Y-59512726D01*
X168421398Y-59510874D01*
X168509390Y-59379185D01*
X168509390Y-59379184D01*
X168509394Y-59379179D01*
X168569737Y-59233497D01*
X168600500Y-59078842D01*
X168600500Y-58921158D01*
X168600500Y-58921155D01*
X168600499Y-58921153D01*
X168569737Y-58766503D01*
X168569496Y-58765921D01*
X168509397Y-58620827D01*
X168509390Y-58620814D01*
X168421789Y-58489711D01*
X168421786Y-58489707D01*
X168310292Y-58378213D01*
X168310288Y-58378210D01*
X168233052Y-58326602D01*
X168188247Y-58272989D01*
X168179540Y-58203664D01*
X168209695Y-58140637D01*
X168269138Y-58103918D01*
X168301943Y-58099500D01*
X169469059Y-58099500D01*
X169536098Y-58119185D01*
G37*
%TD.AperFunction*%
%TA.AperFunction,Conductor*%
G36*
X186350000Y-55993393D02*
G01*
X186369805Y-55989454D01*
X186369817Y-55989451D01*
X186538145Y-55919728D01*
X186538158Y-55919721D01*
X186689652Y-55818495D01*
X186689656Y-55818492D01*
X186818492Y-55689656D01*
X186818495Y-55689652D01*
X186919721Y-55538158D01*
X186919728Y-55538145D01*
X186960939Y-55438653D01*
X187004780Y-55384249D01*
X187071074Y-55362184D01*
X187138773Y-55379463D01*
X187186384Y-55430600D01*
X187199500Y-55486105D01*
X187199500Y-55913330D01*
X187199499Y-55913348D01*
X187199499Y-56079054D01*
X187199498Y-56079054D01*
X187240424Y-56231789D01*
X187240425Y-56231790D01*
X187262186Y-56269480D01*
X187262187Y-56269482D01*
X187319475Y-56368709D01*
X187319481Y-56368717D01*
X187438349Y-56487585D01*
X187438355Y-56487590D01*
X187565425Y-56614660D01*
X187598910Y-56675983D01*
X187599361Y-56678149D01*
X187630261Y-56833491D01*
X187630264Y-56833501D01*
X187690602Y-56979172D01*
X187690609Y-56979185D01*
X187778210Y-57110288D01*
X187778213Y-57110292D01*
X187889707Y-57221786D01*
X187889711Y-57221789D01*
X188020814Y-57309390D01*
X188020827Y-57309397D01*
X188166498Y-57369735D01*
X188166503Y-57369737D01*
X188260645Y-57388463D01*
X188300691Y-57396429D01*
X188362602Y-57428814D01*
X188397176Y-57489529D01*
X188400500Y-57518046D01*
X188400500Y-65355279D01*
X188380815Y-65422318D01*
X188328011Y-65468073D01*
X188258853Y-65478017D01*
X188229049Y-65469841D01*
X188171309Y-65445925D01*
X188133497Y-65430263D01*
X188133495Y-65430262D01*
X188133491Y-65430261D01*
X188000308Y-65403769D01*
X187938397Y-65371384D01*
X187903823Y-65310668D01*
X187900500Y-65282152D01*
X187900500Y-63020945D01*
X187900499Y-63020937D01*
X187898924Y-63015057D01*
X187898924Y-63015058D01*
X187878471Y-62938728D01*
X187859577Y-62868215D01*
X187828970Y-62815202D01*
X187780520Y-62731284D01*
X187668716Y-62619480D01*
X187668715Y-62619479D01*
X187664385Y-62615149D01*
X187664374Y-62615139D01*
X186887590Y-61838355D01*
X186887588Y-61838352D01*
X186768717Y-61719481D01*
X186768716Y-61719480D01*
X186657249Y-61655125D01*
X186657247Y-61655123D01*
X186640273Y-61645323D01*
X186631785Y-61640423D01*
X186479057Y-61599499D01*
X186479054Y-61599499D01*
X186400097Y-61599499D01*
X186333058Y-61579814D01*
X186312416Y-61563180D01*
X186128717Y-61379481D01*
X186128716Y-61379480D01*
X186041904Y-61329360D01*
X186041904Y-61329359D01*
X186041900Y-61329358D01*
X185991785Y-61300423D01*
X185839057Y-61259499D01*
X185680943Y-61259499D01*
X185673347Y-61259499D01*
X185673331Y-61259500D01*
X185585719Y-61259500D01*
X185518680Y-61239815D01*
X185475235Y-61191795D01*
X185455052Y-61152185D01*
X185455051Y-61152184D01*
X185330109Y-60980213D01*
X185179786Y-60829890D01*
X185007820Y-60704951D01*
X185007115Y-60704591D01*
X184999054Y-60700485D01*
X184948259Y-60652512D01*
X184931463Y-60584692D01*
X184953999Y-60518556D01*
X184999054Y-60479515D01*
X185007816Y-60475051D01*
X185094138Y-60412335D01*
X185179786Y-60350109D01*
X185179788Y-60350106D01*
X185179792Y-60350104D01*
X185330104Y-60199792D01*
X185330106Y-60199788D01*
X185330109Y-60199786D01*
X185455048Y-60027820D01*
X185455047Y-60027820D01*
X185455051Y-60027816D01*
X185551557Y-59838412D01*
X185617246Y-59636243D01*
X185650500Y-59426287D01*
X185650500Y-59213713D01*
X185617246Y-59003757D01*
X185551557Y-58801588D01*
X185455051Y-58612184D01*
X185455049Y-58612181D01*
X185455048Y-58612179D01*
X185330109Y-58440213D01*
X185179794Y-58289898D01*
X185179788Y-58289893D01*
X185118672Y-58245490D01*
X185076006Y-58190161D01*
X185070027Y-58120547D01*
X185102632Y-58058752D01*
X185103802Y-58057565D01*
X185682952Y-57478416D01*
X185735013Y-57400500D01*
X185765084Y-57355495D01*
X185821658Y-57218913D01*
X185833473Y-57159516D01*
X185850500Y-57073920D01*
X185850500Y-55680268D01*
X185870185Y-55613229D01*
X185871398Y-55611377D01*
X185892912Y-55579179D01*
X185920167Y-55538389D01*
X185989933Y-55369958D01*
X185998193Y-55328428D01*
X186050272Y-55350000D01*
X186149728Y-55350000D01*
X186241614Y-55311940D01*
X186311940Y-55241614D01*
X186350000Y-55149728D01*
X186350000Y-55993393D01*
G37*
%TD.AperFunction*%
%TA.AperFunction,Conductor*%
G36*
X174488770Y-58970185D02*
G01*
X174534525Y-59022989D01*
X174544469Y-59092147D01*
X174515444Y-59155703D01*
X174494373Y-59174292D01*
X174494419Y-59174347D01*
X174492880Y-59175609D01*
X174490621Y-59177603D01*
X174489708Y-59178212D01*
X174378213Y-59289707D01*
X174378210Y-59289711D01*
X174290609Y-59420814D01*
X174290602Y-59420827D01*
X174230264Y-59566498D01*
X174230262Y-59566504D01*
X174223337Y-59601318D01*
X174190950Y-59663228D01*
X174130233Y-59697800D01*
X174060464Y-59694059D01*
X174014039Y-59664804D01*
X173711416Y-59362181D01*
X173677931Y-59300858D01*
X173682915Y-59231166D01*
X173724787Y-59175233D01*
X173790251Y-59150816D01*
X173799097Y-59150500D01*
X173878844Y-59150500D01*
X173878845Y-59150499D01*
X174033497Y-59119737D01*
X174179179Y-59059394D01*
X174180649Y-59058412D01*
X174310875Y-58971398D01*
X174328921Y-58965747D01*
X174344831Y-58955523D01*
X174375792Y-58951071D01*
X174377553Y-58950520D01*
X174379766Y-58950500D01*
X174421731Y-58950500D01*
X174488770Y-58970185D01*
G37*
%TD.AperFunction*%
%TA.AperFunction,Conductor*%
G36*
X170384689Y-50795185D02*
G01*
X170386541Y-50796398D01*
X170480821Y-50859394D01*
X170480823Y-50859395D01*
X170480827Y-50859397D01*
X170611911Y-50913693D01*
X170626503Y-50919737D01*
X170781153Y-50950499D01*
X170781156Y-50950500D01*
X170781158Y-50950500D01*
X170938844Y-50950500D01*
X170938845Y-50950499D01*
X171093497Y-50919737D01*
X171239179Y-50859394D01*
X171273800Y-50836261D01*
X171340477Y-50815382D01*
X171407857Y-50833865D01*
X171433553Y-50856331D01*
X171433903Y-50855982D01*
X171549707Y-50971786D01*
X171549711Y-50971789D01*
X171680814Y-51059390D01*
X171680827Y-51059397D01*
X171768230Y-51095599D01*
X171826503Y-51119737D01*
X171937716Y-51141858D01*
X171954470Y-51150622D01*
X171972949Y-51154642D01*
X171997985Y-51173384D01*
X171999623Y-51174241D01*
X172001203Y-51175793D01*
X172158181Y-51332771D01*
X172191666Y-51394094D01*
X172194500Y-51420452D01*
X172194500Y-51496000D01*
X172174815Y-51563039D01*
X172122011Y-51608794D01*
X172070500Y-51620000D01*
X171790000Y-51620000D01*
X171790000Y-54020000D01*
X171845501Y-54020000D01*
X171912540Y-54039685D01*
X171958295Y-54092489D01*
X171969501Y-54144000D01*
X171969501Y-54407876D01*
X171975908Y-54467483D01*
X172026202Y-54602328D01*
X172026206Y-54602335D01*
X172112452Y-54717544D01*
X172112455Y-54717547D01*
X172227664Y-54803793D01*
X172227671Y-54803797D01*
X172243187Y-54809584D01*
X172362517Y-54854091D01*
X172422127Y-54860500D01*
X172715765Y-54860499D01*
X172782803Y-54880183D01*
X172828558Y-54932987D01*
X172839764Y-54984499D01*
X172839764Y-55109166D01*
X172868030Y-55251265D01*
X172870527Y-55263817D01*
X172876752Y-55278846D01*
X172895977Y-55325260D01*
X172903445Y-55394729D01*
X172872169Y-55457208D01*
X172828872Y-55487270D01*
X172820828Y-55490601D01*
X172820814Y-55490609D01*
X172689711Y-55578210D01*
X172689707Y-55578213D01*
X172578213Y-55689707D01*
X172578210Y-55689711D01*
X172490609Y-55820814D01*
X172490602Y-55820827D01*
X172430264Y-55966498D01*
X172430261Y-55966510D01*
X172399500Y-56121153D01*
X172399500Y-56278846D01*
X172430261Y-56433489D01*
X172430264Y-56433501D01*
X172490602Y-56579172D01*
X172490609Y-56579185D01*
X172578210Y-56710288D01*
X172578213Y-56710292D01*
X172689707Y-56821786D01*
X172689711Y-56821789D01*
X172820814Y-56909390D01*
X172820827Y-56909397D01*
X172966498Y-56969735D01*
X172966503Y-56969737D01*
X173121153Y-57000499D01*
X173121156Y-57000500D01*
X173121158Y-57000500D01*
X173278844Y-57000500D01*
X173278845Y-57000499D01*
X173433497Y-56969737D01*
X173579179Y-56909394D01*
X173710289Y-56821789D01*
X173821789Y-56710289D01*
X173909394Y-56579179D01*
X173927770Y-56534812D01*
X173954645Y-56494589D01*
X174120784Y-56328452D01*
X174199841Y-56191520D01*
X174240765Y-56038793D01*
X174240765Y-55880678D01*
X174240765Y-55873083D01*
X174240764Y-55873065D01*
X174240764Y-55610085D01*
X174245346Y-55593733D01*
X174244961Y-55578096D01*
X174257485Y-55550421D01*
X174258826Y-55545640D01*
X174261627Y-55541034D01*
X174262053Y-55540609D01*
X174349658Y-55409499D01*
X174366757Y-55368217D01*
X174371723Y-55360055D01*
X174390772Y-55342707D01*
X174406940Y-55322644D01*
X174416181Y-55319568D01*
X174423382Y-55313011D01*
X174448786Y-55308716D01*
X174473234Y-55300579D01*
X174477661Y-55300500D01*
X175226243Y-55300500D01*
X175293282Y-55320185D01*
X175339037Y-55372989D01*
X175346017Y-55392405D01*
X175347449Y-55397750D01*
X175347452Y-55397757D01*
X175367098Y-55431784D01*
X175367099Y-55431785D01*
X175426504Y-55534679D01*
X175426506Y-55534682D01*
X175426507Y-55534683D01*
X175538311Y-55646487D01*
X175538312Y-55646488D01*
X175890368Y-55998544D01*
X176013711Y-56069756D01*
X176021651Y-56074340D01*
X176069867Y-56124907D01*
X176081268Y-56157535D01*
X176096377Y-56233492D01*
X176096380Y-56233502D01*
X176156718Y-56379173D01*
X176156725Y-56379186D01*
X176244326Y-56510289D01*
X176244329Y-56510293D01*
X176355823Y-56621787D01*
X176355827Y-56621790D01*
X176486930Y-56709391D01*
X176486943Y-56709398D01*
X176608088Y-56759577D01*
X176632619Y-56769738D01*
X176787269Y-56800500D01*
X176787272Y-56800501D01*
X176787274Y-56800501D01*
X176944960Y-56800501D01*
X176944961Y-56800500D01*
X177099613Y-56769738D01*
X177212282Y-56723068D01*
X177245288Y-56709398D01*
X177245288Y-56709397D01*
X177245295Y-56709395D01*
X177376405Y-56621790D01*
X177487905Y-56510290D01*
X177575510Y-56379180D01*
X177586748Y-56352046D01*
X177599291Y-56336482D01*
X177607596Y-56318297D01*
X177620764Y-56309833D01*
X177630587Y-56297645D01*
X177649556Y-56291331D01*
X177666374Y-56280523D01*
X177693931Y-56276560D01*
X177696881Y-56275579D01*
X177701309Y-56275500D01*
X177844510Y-56275500D01*
X177911549Y-56295185D01*
X177957304Y-56347989D01*
X177967248Y-56417147D01*
X177959071Y-56446952D01*
X177930264Y-56516498D01*
X177930261Y-56516508D01*
X177899361Y-56671850D01*
X177866976Y-56733761D01*
X177865425Y-56735339D01*
X176314519Y-58286244D01*
X176253196Y-58319729D01*
X176183504Y-58314745D01*
X176127571Y-58272873D01*
X176123736Y-58267454D01*
X176071789Y-58189711D01*
X176071786Y-58189707D01*
X175960292Y-58078213D01*
X175960288Y-58078210D01*
X175829185Y-57990609D01*
X175829172Y-57990602D01*
X175683501Y-57930264D01*
X175683489Y-57930261D01*
X175528845Y-57899500D01*
X175528842Y-57899500D01*
X175499931Y-57899500D01*
X175483850Y-57895059D01*
X175468864Y-57895545D01*
X175447023Y-57884890D01*
X175436302Y-57881930D01*
X175423530Y-57874294D01*
X175418716Y-57869480D01*
X175325086Y-57815423D01*
X175324267Y-57814950D01*
X175324240Y-57814934D01*
X175281790Y-57790425D01*
X175281789Y-57790424D01*
X175253765Y-57782915D01*
X175129057Y-57749499D01*
X174970943Y-57749499D01*
X174963347Y-57749499D01*
X174963331Y-57749500D01*
X174379766Y-57749500D01*
X174312727Y-57729815D01*
X174310875Y-57728602D01*
X174179185Y-57640609D01*
X174179172Y-57640602D01*
X174033501Y-57580264D01*
X174033489Y-57580261D01*
X173878845Y-57549500D01*
X173878842Y-57549500D01*
X173721158Y-57549500D01*
X173721155Y-57549500D01*
X173566510Y-57580261D01*
X173566498Y-57580264D01*
X173420827Y-57640602D01*
X173420814Y-57640609D01*
X173289711Y-57728210D01*
X173289707Y-57728213D01*
X173178213Y-57839707D01*
X173178210Y-57839711D01*
X173090609Y-57970814D01*
X173090602Y-57970827D01*
X173030264Y-58116498D01*
X173030261Y-58116510D01*
X172999500Y-58271153D01*
X172999500Y-58350903D01*
X172979815Y-58417942D01*
X172927011Y-58463697D01*
X172857853Y-58473641D01*
X172794297Y-58444616D01*
X172787819Y-58438584D01*
X171486590Y-57137355D01*
X171486588Y-57137352D01*
X171367717Y-57018481D01*
X171367716Y-57018480D01*
X171269977Y-56962051D01*
X171269976Y-56962050D01*
X171230783Y-56939422D01*
X171174881Y-56924443D01*
X171078057Y-56898499D01*
X170919943Y-56898499D01*
X170912347Y-56898499D01*
X170912331Y-56898500D01*
X168664434Y-56898500D01*
X168631962Y-56888965D01*
X168599279Y-56880003D01*
X168598504Y-56879140D01*
X168597395Y-56878815D01*
X168575242Y-56853249D01*
X168552583Y-56828029D01*
X168552397Y-56826885D01*
X168551640Y-56826011D01*
X168546821Y-56792496D01*
X168541399Y-56759060D01*
X168541860Y-56757998D01*
X168541696Y-56756853D01*
X168555767Y-56726040D01*
X168569278Y-56694993D01*
X168570411Y-56693974D01*
X168570721Y-56693297D01*
X168595528Y-56671408D01*
X168606512Y-56664069D01*
X168648733Y-56635858D01*
X168735858Y-56548733D01*
X168735859Y-56548731D01*
X168742925Y-56541665D01*
X168742928Y-56541661D01*
X169258797Y-56025791D01*
X169320118Y-55992308D01*
X169322128Y-55991889D01*
X169433497Y-55969737D01*
X169579179Y-55909394D01*
X169710289Y-55821789D01*
X169821789Y-55710289D01*
X169909394Y-55579179D01*
X169969737Y-55433497D01*
X170000500Y-55278842D01*
X170000500Y-55121158D01*
X170000500Y-55121155D01*
X170000499Y-55121153D01*
X169986400Y-55050272D01*
X169969737Y-54966503D01*
X169966375Y-54958386D01*
X169909397Y-54820827D01*
X169909390Y-54820814D01*
X169821789Y-54689711D01*
X169821786Y-54689707D01*
X169710292Y-54578213D01*
X169710288Y-54578210D01*
X169579185Y-54490609D01*
X169579172Y-54490602D01*
X169433501Y-54430264D01*
X169433489Y-54430261D01*
X169278845Y-54399500D01*
X169278842Y-54399500D01*
X169121158Y-54399500D01*
X169121155Y-54399500D01*
X168966510Y-54430261D01*
X168966498Y-54430264D01*
X168820827Y-54490602D01*
X168820814Y-54490609D01*
X168689711Y-54578210D01*
X168689707Y-54578213D01*
X168578213Y-54689707D01*
X168578210Y-54689711D01*
X168490609Y-54820814D01*
X168490602Y-54820827D01*
X168430264Y-54966498D01*
X168430261Y-54966508D01*
X168408141Y-55077714D01*
X168375756Y-55139625D01*
X168374205Y-55141203D01*
X168027229Y-55488181D01*
X167965906Y-55521666D01*
X167939548Y-55524500D01*
X167510453Y-55524500D01*
X167443414Y-55504815D01*
X167422772Y-55488181D01*
X166861819Y-54927228D01*
X166828334Y-54865905D01*
X166825500Y-54839547D01*
X166825500Y-53567844D01*
X170440000Y-53567844D01*
X170446401Y-53627372D01*
X170446403Y-53627379D01*
X170496645Y-53762086D01*
X170496649Y-53762093D01*
X170582809Y-53877187D01*
X170582812Y-53877190D01*
X170697906Y-53963350D01*
X170697913Y-53963354D01*
X170832620Y-54013596D01*
X170832627Y-54013598D01*
X170892155Y-54019999D01*
X170892172Y-54020000D01*
X171290000Y-54020000D01*
X171290000Y-53070000D01*
X170440000Y-53070000D01*
X170440000Y-53567844D01*
X166825500Y-53567844D01*
X166825500Y-52860452D01*
X166845185Y-52793413D01*
X166861819Y-52772771D01*
X167562435Y-52072155D01*
X170440000Y-52072155D01*
X170440000Y-52570000D01*
X171290000Y-52570000D01*
X171290000Y-51620000D01*
X170892155Y-51620000D01*
X170832627Y-51626401D01*
X170832620Y-51626403D01*
X170697913Y-51676645D01*
X170697906Y-51676649D01*
X170582812Y-51762809D01*
X170582809Y-51762812D01*
X170496649Y-51877906D01*
X170496645Y-51877913D01*
X170446403Y-52012620D01*
X170446401Y-52012627D01*
X170440000Y-52072155D01*
X167562435Y-52072155D01*
X167653420Y-51981170D01*
X167850088Y-51784503D01*
X168822772Y-50811819D01*
X168884095Y-50778334D01*
X168910453Y-50775500D01*
X170317650Y-50775500D01*
X170384689Y-50795185D01*
G37*
%TD.AperFunction*%
%TA.AperFunction,Conductor*%
G36*
X186493039Y-52839685D02*
G01*
X186538794Y-52892489D01*
X186550000Y-52944000D01*
X186550000Y-54020000D01*
X187075500Y-54020000D01*
X187142539Y-54039685D01*
X187188294Y-54092489D01*
X187199500Y-54144000D01*
X187199500Y-54713894D01*
X187179815Y-54780933D01*
X187127011Y-54826688D01*
X187057853Y-54836632D01*
X186994297Y-54807607D01*
X186960939Y-54761347D01*
X186919726Y-54661850D01*
X186919721Y-54661841D01*
X186818495Y-54510347D01*
X186818492Y-54510343D01*
X186689656Y-54381507D01*
X186689652Y-54381504D01*
X186538158Y-54280278D01*
X186538149Y-54280273D01*
X186485730Y-54258561D01*
X186462631Y-54239947D01*
X186426759Y-54234134D01*
X186369816Y-54210547D01*
X186369812Y-54210546D01*
X186350000Y-54206604D01*
X186350000Y-55050272D01*
X186311940Y-54958386D01*
X186241614Y-54888060D01*
X186149728Y-54850000D01*
X186050272Y-54850000D01*
X185998193Y-54871571D01*
X185989934Y-54830047D01*
X185989933Y-54830046D01*
X185989933Y-54830042D01*
X185979062Y-54803796D01*
X185920169Y-54661614D01*
X185880560Y-54602335D01*
X185870896Y-54587872D01*
X185850020Y-54521196D01*
X185850000Y-54518983D01*
X185850000Y-54147956D01*
X185850265Y-54147956D01*
X185849307Y-54112270D01*
X185885491Y-54052500D01*
X185948245Y-54021780D01*
X185969179Y-54020000D01*
X186050000Y-54020000D01*
X186050000Y-52944000D01*
X186069685Y-52876961D01*
X186122489Y-52831206D01*
X186174000Y-52820000D01*
X186426000Y-52820000D01*
X186493039Y-52839685D01*
G37*
%TD.AperFunction*%
%TA.AperFunction,Conductor*%
G36*
X184731320Y-47180185D02*
G01*
X184774765Y-47228205D01*
X184794947Y-47267814D01*
X184794948Y-47267815D01*
X184919890Y-47439786D01*
X185070213Y-47590109D01*
X185242182Y-47715050D01*
X185250946Y-47719516D01*
X185301742Y-47767491D01*
X185318536Y-47835312D01*
X185295998Y-47901447D01*
X185250946Y-47940484D01*
X185242182Y-47944949D01*
X185070213Y-48069890D01*
X184919890Y-48220213D01*
X184794951Y-48392179D01*
X184698444Y-48581585D01*
X184698443Y-48581587D01*
X184698443Y-48581588D01*
X184686131Y-48619479D01*
X184632753Y-48783760D01*
X184626917Y-48820609D01*
X184599500Y-48993713D01*
X184599500Y-49206287D01*
X184603298Y-49230264D01*
X184631781Y-49410104D01*
X184632754Y-49416243D01*
X184695334Y-49608844D01*
X184698444Y-49618414D01*
X184794951Y-49807820D01*
X184919890Y-49979786D01*
X185033818Y-50093714D01*
X185067303Y-50155037D01*
X185062319Y-50224729D01*
X185020447Y-50280662D01*
X184989471Y-50297577D01*
X184857912Y-50346646D01*
X184857906Y-50346649D01*
X184742812Y-50432809D01*
X184742809Y-50432812D01*
X184656649Y-50547906D01*
X184656645Y-50547913D01*
X184606403Y-50682620D01*
X184606401Y-50682627D01*
X184600000Y-50742155D01*
X184600000Y-51390000D01*
X185516988Y-51390000D01*
X185484075Y-51447007D01*
X185450000Y-51574174D01*
X185450000Y-51705826D01*
X185484075Y-51832993D01*
X185516988Y-51890000D01*
X184600000Y-51890000D01*
X184600000Y-52537844D01*
X184606401Y-52597372D01*
X184606403Y-52597379D01*
X184656645Y-52732086D01*
X184656649Y-52732093D01*
X184742809Y-52847186D01*
X184860311Y-52935149D01*
X184902182Y-52991083D01*
X184910000Y-53034416D01*
X184910000Y-53295503D01*
X184890315Y-53362542D01*
X184837511Y-53408297D01*
X184768353Y-53418241D01*
X184704797Y-53389216D01*
X184682898Y-53364394D01*
X184645318Y-53308153D01*
X184645315Y-53308149D01*
X184533821Y-53196655D01*
X184533817Y-53196652D01*
X184402714Y-53109051D01*
X184402701Y-53109044D01*
X184257030Y-53048706D01*
X184257018Y-53048703D01*
X184102374Y-53017942D01*
X184102371Y-53017942D01*
X183944687Y-53017942D01*
X183944684Y-53017942D01*
X183790039Y-53048703D01*
X183790032Y-53048705D01*
X183717336Y-53078816D01*
X183647867Y-53086284D01*
X183585388Y-53055008D01*
X183549736Y-52994919D01*
X183548269Y-52940058D01*
X183550500Y-52928844D01*
X183550500Y-52771155D01*
X183550499Y-52771153D01*
X183539347Y-52715087D01*
X183519737Y-52616503D01*
X183500475Y-52570000D01*
X183459397Y-52470827D01*
X183459390Y-52470814D01*
X183371789Y-52339711D01*
X183367924Y-52335001D01*
X183369069Y-52334060D01*
X183340977Y-52285403D01*
X183336779Y-52269736D01*
X183336779Y-52269737D01*
X183309577Y-52168216D01*
X183280394Y-52117669D01*
X183230524Y-52031290D01*
X183230521Y-52031286D01*
X183230520Y-52031284D01*
X183118716Y-51919480D01*
X183118715Y-51919479D01*
X183114385Y-51915149D01*
X183114374Y-51915139D01*
X182836819Y-51637584D01*
X182803334Y-51576261D01*
X182800500Y-51549903D01*
X182800500Y-51520944D01*
X182797227Y-51508725D01*
X182797227Y-51508724D01*
X182773574Y-51420452D01*
X182759577Y-51368215D01*
X182730510Y-51317871D01*
X182715834Y-51292451D01*
X182715833Y-51292449D01*
X182680521Y-51231286D01*
X182680520Y-51231284D01*
X182568716Y-51119480D01*
X182568715Y-51119479D01*
X182564385Y-51115149D01*
X182564374Y-51115139D01*
X181834574Y-50385339D01*
X181801089Y-50324016D01*
X181800638Y-50321849D01*
X181782344Y-50229880D01*
X181769737Y-50166503D01*
X181762978Y-50150185D01*
X181709397Y-50020827D01*
X181709390Y-50020814D01*
X181621789Y-49889711D01*
X181621786Y-49889707D01*
X181510292Y-49778213D01*
X181510288Y-49778210D01*
X181388184Y-49696622D01*
X181343379Y-49643010D01*
X181334672Y-49573685D01*
X181364827Y-49510657D01*
X181369374Y-49505859D01*
X183678416Y-47196819D01*
X183739739Y-47163334D01*
X183766097Y-47160500D01*
X184664281Y-47160500D01*
X184731320Y-47180185D01*
G37*
%TD.AperFunction*%
%TA.AperFunction,Conductor*%
G36*
X177142539Y-50150185D02*
G01*
X177188294Y-50202989D01*
X177199500Y-50254500D01*
X177199500Y-51113330D01*
X177199499Y-51113348D01*
X177199499Y-51279054D01*
X177199498Y-51279054D01*
X177240423Y-51431787D01*
X177240425Y-51431790D01*
X177259411Y-51464675D01*
X177259416Y-51464682D01*
X177263228Y-51471284D01*
X177319480Y-51568716D01*
X177394683Y-51643919D01*
X177399879Y-51650804D01*
X177409292Y-51675745D01*
X177422068Y-51699142D01*
X177421439Y-51707929D01*
X177424551Y-51716173D01*
X177418985Y-51742242D01*
X177417084Y-51768834D01*
X177411803Y-51775888D01*
X177409964Y-51784503D01*
X177391188Y-51803425D01*
X177375212Y-51824767D01*
X177366957Y-51827845D01*
X177360752Y-51834100D01*
X177334723Y-51839868D01*
X177309748Y-51849184D01*
X177300902Y-51849500D01*
X176812129Y-51849500D01*
X176812123Y-51849501D01*
X176752517Y-51855908D01*
X176707616Y-51872655D01*
X176637924Y-51877638D01*
X176620953Y-51872654D01*
X176577383Y-51856404D01*
X176577372Y-51856401D01*
X176517844Y-51850000D01*
X176370000Y-51850000D01*
X176370000Y-52210753D01*
X176366677Y-52239265D01*
X176365909Y-52242515D01*
X176359676Y-52300486D01*
X176359500Y-52302127D01*
X176359500Y-53226001D01*
X176356950Y-53234686D01*
X176358239Y-53243647D01*
X176347261Y-53267683D01*
X176339817Y-53293039D01*
X176332974Y-53298967D01*
X176329214Y-53307203D01*
X176306982Y-53321489D01*
X176287013Y-53338794D01*
X176276497Y-53341081D01*
X176270436Y-53344977D01*
X176235501Y-53350000D01*
X175994499Y-53350000D01*
X175927460Y-53330315D01*
X175881705Y-53277511D01*
X175870499Y-53226000D01*
X175870499Y-52302129D01*
X175870321Y-52298804D01*
X175870426Y-52298798D01*
X175870000Y-52290836D01*
X175870000Y-51850000D01*
X175769500Y-51850000D01*
X175702461Y-51830315D01*
X175656706Y-51777511D01*
X175645500Y-51726000D01*
X175645500Y-50422386D01*
X175665185Y-50355347D01*
X175717989Y-50309592D01*
X175787147Y-50299648D01*
X175793686Y-50300767D01*
X175825796Y-50307155D01*
X175943155Y-50330500D01*
X175943158Y-50330500D01*
X176100844Y-50330500D01*
X176100845Y-50330499D01*
X176255497Y-50299737D01*
X176401179Y-50239394D01*
X176405534Y-50236484D01*
X176532875Y-50151398D01*
X176599553Y-50130520D01*
X176601766Y-50130500D01*
X177075500Y-50130500D01*
X177142539Y-50150185D01*
G37*
%TD.AperFunction*%
%TD*%
M02*
