%TF.GenerationSoftware,KiCad,Pcbnew,9.0.3*%
%TF.CreationDate,2025-08-19T17:20:28-04:00*%
%TF.ProjectId,PicoTag,5069636f-5461-4672-9e6b-696361645f70,rev?*%
%TF.SameCoordinates,Original*%
%TF.FileFunction,Soldermask,Bot*%
%TF.FilePolarity,Negative*%
%FSLAX46Y46*%
G04 Gerber Fmt 4.6, Leading zero omitted, Abs format (unit mm)*
G04 Created by KiCad (PCBNEW 9.0.3) date 2025-08-19 17:20:28*
%MOMM*%
%LPD*%
G01*
G04 APERTURE LIST*
%ADD10R,1.780000X1.400000*%
%ADD11R,1.270000X2.290000*%
%ADD12R,1.200000X1.400000*%
%ADD13R,0.700000X2.000000*%
%ADD14C,1.000000*%
%ADD15R,1.700000X1.700000*%
%ADD16O,1.700000X1.700000*%
%ADD17R,0.850000X0.850000*%
%ADD18O,0.850000X0.850000*%
G04 APERTURE END LIST*
D10*
%TO.C,Card1*%
X186300000Y-52820000D03*
D11*
X187060000Y-43170000D03*
X171570000Y-43160000D03*
D12*
X171540000Y-52820000D03*
D13*
X172820000Y-53360000D03*
X173920000Y-53350000D03*
X175020000Y-53350000D03*
X176120000Y-53350000D03*
X177210000Y-53350000D03*
X178310000Y-53350000D03*
X179410000Y-53350000D03*
X180510000Y-53350000D03*
X181600000Y-53350000D03*
D14*
X182400000Y-42760000D03*
X174400000Y-42750000D03*
%TD*%
D15*
%TO.C,J4*%
X185950000Y-51640000D03*
D16*
X185950000Y-49100000D03*
X185950000Y-46560000D03*
%TD*%
D17*
%TO.C,J11*%
X181100000Y-55100000D03*
D18*
X182100000Y-55100000D03*
X183100000Y-55100000D03*
X184100000Y-55100000D03*
X185100000Y-55100000D03*
X186100000Y-55100000D03*
%TD*%
D15*
%TO.C,J8*%
X134960000Y-66960000D03*
D16*
X137500000Y-66960000D03*
X134960000Y-69500000D03*
X137500000Y-69500000D03*
%TD*%
D15*
%TO.C,J7*%
X172460000Y-73960000D03*
D16*
X175000000Y-73960000D03*
X172460000Y-76500000D03*
X175000000Y-76500000D03*
%TD*%
D15*
%TO.C,J2*%
X129500000Y-40760000D03*
D16*
X129500000Y-43300000D03*
X129500000Y-45840000D03*
X129500000Y-48380000D03*
X129500000Y-50920000D03*
X129500000Y-53460000D03*
X129500000Y-56000000D03*
X129500000Y-58540000D03*
X129500000Y-61080000D03*
X129500000Y-63620000D03*
%TD*%
D15*
%TO.C,J1*%
X129500000Y-72720000D03*
D16*
X129500000Y-75260000D03*
X129500000Y-77800000D03*
X129500000Y-80340000D03*
X129500000Y-82880000D03*
X129500000Y-85420000D03*
X129500000Y-87960000D03*
X129500000Y-90500000D03*
X129500000Y-93040000D03*
X129500000Y-95580000D03*
%TD*%
D15*
%TO.C,J6*%
X181460000Y-73960000D03*
D16*
X184000000Y-73960000D03*
X181460000Y-76500000D03*
X184000000Y-76500000D03*
%TD*%
D15*
%TO.C,J3*%
X181760000Y-59320000D03*
D16*
X184300000Y-59320000D03*
X181760000Y-61860000D03*
X184300000Y-61860000D03*
X181760000Y-64400000D03*
X184300000Y-64400000D03*
X181760000Y-66940000D03*
X184300000Y-66940000D03*
%TD*%
D15*
%TO.C,J9*%
X142960000Y-92500000D03*
D16*
X145500000Y-92500000D03*
X142960000Y-95040000D03*
X145500000Y-95040000D03*
%TD*%
M02*
