<?xml version="1.0" encoding="UTF-8"?>
<!DOCTYPE svg PUBLIC "-//W3C//DTD SVG 1.1//EN" "http://www.w3.org/Graphics/SVG/1.1/DTD/svg11.dtd">
<!-- Creator: CorelDRAW 2023 -->
<svg xmlns="http://www.w3.org/2000/svg" xml:space="preserve" width="2in" height="1.51161in" version="1.1" style="shape-rendering:geometricPrecision; text-rendering:geometricPrecision; image-rendering:optimizeQuality; fill-rule:evenodd; clip-rule:evenodd"
viewBox="0 0 152.77 115.46"
 xmlns:xlink="http://www.w3.org/1999/xlink"
 xmlns:xodm="http://www.corel.com/coreldraw/odm/2003">
 <defs>
  <style type="text/css">
   <![CDATA[
    .fil4 {fill:#131313}
    .fil5 {fill:#171717}
    .fil2 {fill:#1F1F1F}
    .fil0 {fill:#202020}
    .fil12 {fill:#282828}
    .fil14 {fill:#2F2F2F}
    .fil24 {fill:#353535}
    .fil21 {fill:#393939}
    .fil20 {fill:#414242}
    .fil8 {fill:#454545}
    .fil32 {fill:#4A4A4A}
    .fil27 {fill:#4F4F4F}
    .fil42 {fill:#535454}
    .fil11 {fill:#5D5D5E}
    .fil16 {fill:#636363}
    .fil10 {fill:dimgray}
    .fil15 {fill:#6D6D6D}
    .fil17 {fill:#757676}
    .fil36 {fill:#7B7B7C}
    .fil37 {fill:#848485}
    .fil9 {fill:#898989}
    .fil34 {fill:#8F8F8F}
    .fil41 {fill:#919191}
    .fil40 {fill:#9A9A9A}
    .fil31 {fill:#A1A1A1}
    .fil6 {fill:#A3A3A3}
    .fil29 {fill:#B0B0B1}
    .fil1 {fill:#B5B5B5}
    .fil28 {fill:#B7B7B8}
    .fil3 {fill:#B8B8B8}
    .fil33 {fill:#BEBEBE}
    .fil13 {fill:#C3C3C4}
    .fil35 {fill:#C4C4C4}
    .fil39 {fill:#C7C7C7}
    .fil18 {fill:#CECECE}
    .fil7 {fill:#D2D2D3}
    .fil19 {fill:#D4D4D4}
    .fil25 {fill:#D7D7D7}
    .fil26 {fill:#D9D9D9}
    .fil23 {fill:gainsboro}
    .fil30 {fill:#E0E0E0}
    .fil38 {fill:#E4E4E4}
    .fil22 {fill:#EAEBEB}
   ]]>
  </style>
 </defs>
 <g id="Layer_x0020_1">
  <metadata id="CorelCorpID_0Corel-Layer"/>
  <g id="_2240421052752">
   <path class="fil0" d="M97.17 77.13l5.31 3.25c-0.03,0.03 -0.07,0.03 -0.09,0.08l-1.24 0.97 -2.55 -1.61c-1.32,-0.77 -2.32,-1.08 -2.2,-1.81 0.81,0.1 2.48,1.68 3.46,2.17 0.82,0.4 0.89,0.69 1.3,0.48 -0.31,-0.48 -4.03,-2.85 -4.46,-3.01l0.47 -0.52zm-2.67 -3.55c1.02,-0.05 -0.31,0.13 0.94,0.18 1.45,0.05 0.75,-0.04 2.73,0.78 -0.17,0.34 0.04,0.3 -0.6,0.67 -0,0 -0.22,0.1 -0.27,0.12l-1.27 0.73c-0.43,0.35 -0.27,0.27 -0.59,0.79 -0.62,0.98 -2.08,3.96 -0.99,4.41 -0.58,0.11 -0.46,0.12 -0.82,-0.13 -0.34,-0.25 -0.68,-0.35 -0.88,-0.6l0.34 -0.47c-0.42,-0.05 -1.03,-0.47 -1.44,-0.7 -0.71,-0.4 -0.94,-0.38 -0.74,-1.54 0.81,-0.1 2.02,0.65 2.6,1.34 0.02,0.02 0.05,0.06 0.07,0.09 0.12,-0.15 -0.01,0.09 0.18,-0.3l0.93 -1.94 -0.43 -0.32c-0.14,-0.1 -0.25,-0.16 -0.37,-0.26 -0.27,-0.21 -0.49,-0.36 -0.77,-0.57l0.72 -1.17c0.4,-0.61 0.87,-0.51 0.69,-1.09zm-18.03 1.58c-0.21,-0.29 -0.68,-0.84 -0.91,-1.02 -0.43,0.22 -0.11,-0.07 -0.14,0.35l0.37 1.75c-0.25,-0.24 -0.23,-0.27 -0.43,-0.49 -0.73,-0.79 -1.8,-2.08 -2.84,-1.48 -0.25,0.14 -0.45,0.23 -0.28,0.62 0.18,0.41 0.33,0.14 0.56,0.39 0.55,0.22 0.94,0.51 1.15,1.03 -0.47,0.62 -3.25,2.41 -4.15,3.13 -1.34,1.07 -2.82,2.09 -4.23,3.1 -0.85,0.61 -0.57,0.04 -2.24,1.42 -1.32,1.09 -2.41,2.21 -3.93,3.41 -0.63,0.5 -1.38,1.14 -1.92,1.69 0.49,-0.61 1.17,-1.16 1.7,-1.78 4.25,-4.98 3.88,-4.42 9.17,-8.48 1.39,-1.07 2.8,-1.89 3.9,-3.12l-0.34 -0.18c-0.2,-1.26 -0.35,-1.45 0.44,-2.34 0.24,-0.27 -0.07,-0.07 0.37,-0.32 0.16,-0.05 2.98,-2.22 3.42,-2.55 0.41,-0.31 1.3,-1.1 1.83,-1.14 0.64,-0.05 1.57,0.7 1.78,1.08 0.62,0.21 1.07,0.61 1.25,1.24 0.39,0.23 0.3,0.16 0.44,0.63 -0.21,0.34 -0.58,0.42 -0.89,0.7 -1.49,1.35 -0.94,1.1 -2.57,2.02 -0.04,0.02 -0.15,0.1 -0.19,0.12 -0.03,0.02 -0.07,0.06 -0.09,0.07 -0.02,0.02 -0.06,0.05 -0.09,0.07 0.08,0.48 0.31,1.08 0.42,1.7 0.79,-0.19 1.03,-0.69 1.6,-1.09l2.25 -1.58c0.23,-0.16 0.36,-0.25 0.46,0.41 0.06,0.38 0.05,0.6 -0.37,1.05l-0.3 0.25c-0.02,0.02 -0.06,0.04 -0.08,0.06l-3.62 2.62c-0.6,0.53 -0.84,1.34 -2.2,1.42 -0.61,0.03 -0.78,0.04 -0.91,-0.36 0.36,-0.44 1.12,-0.24 1.86,-0.26 0.55,-0.52 0.89,-1 0.63,-2.09 -0.25,-1.02 -0.6,-1.32 -0.87,-2.05zm5.7 -7.09c0.56,0.53 0.84,0.77 1.26,1.42 0.03,0.03 0.07,0.06 0.09,0.08l0.5 0.77c0.46,0.99 0.83,1.54 1.04,2.68l6.62 -4.91 0.32 1.64c-0.19,0.1 -0.44,0.19 -0.63,0.32 -0.09,0.06 -0.33,0.3 -0.43,0.38 -0.3,0.23 -0.2,0.12 -0.5,0.32 -0.14,0.09 -0.1,0.07 -0.24,0.17l-1.16 0.87c-0.13,0.1 -0.1,0.08 -0.23,0.18l-1.01 0.76c-0.02,0.02 -0.06,0.04 -0.08,0.06 -0.02,0.02 -0.06,0.04 -0.08,0.06 -0.05,0.04 -0.2,0.15 -0.23,0.17 -0.14,0.11 -0.09,0.07 -0.23,0.18l-0.3 0.25c-0.02,0.02 -0.05,0.04 -0.07,0.06l-1.02 0.75c-0.99,0.67 -0.71,0.85 -1.53,1.01 0.17,-1.32 0.22,-1.98 -0.15,-3.23 -0.51,-1.74 -0.99,-1.42 -1.16,-2.23 -0.78,-0.99 -2.77,-2.93 -5.04,-2.51l4.65 -3.32c4.01,-2.95 2.58,-2.03 5,-1.57 0.45,0.16 0.58,0.35 0.81,0.59 0.28,0.29 0.44,0.39 0.66,0.67l-0.34 0.32c-2.14,2.32 -4.79,3.77 -5.33,4.43 -0.91,-0.3 0.64,0.35 -0.31,-0.22l-0.9 -0.14zm1.41 -9.64c1.11,-0.23 2.99,-2.09 4.34,-2.39 1.33,-0.3 4.22,1.05 4.87,1.69 0.98,0.31 1.93,1.92 2.59,2.32l1.1 1.5c0.34,0.6 0.58,0.95 0.93,1.51 0.65,1.01 1.86,4.8 1.21,5.92 -0.34,0.59 0.03,-0.03 -0.41,0.43l-2.52 1.98c-0.03,0.01 -0.06,0.03 -0.09,0.05l-0.3 0.23c-0.22,0.2 -0.16,0.36 -0.92,0.57l0.42 -0.8c0.23,-0.41 0.19,-0.23 0.32,-0.66 0.19,-0.62 0.15,-1.19 0.07,-1.78 -0.13,-0.97 -0.49,-1.99 -0.83,-2.83 -0.85,-2.08 -1.38,-2.18 -1.99,-3.07 -0.94,-1.38 -0.99,-0.72 -1,-1.5 -0.44,-0.93 -3.77,-3.13 -5.63,-2.96 -0.49,-0.02 -0.3,-0.02 -0.56,0.15 0.68,0.13 2.89,0.65 3.28,1.17l0.14 0.25c0.26,0.38 0.29,0.27 0.66,0.55 0.21,0.16 0.43,0.42 0.62,0.62 0.5,0.54 0.89,0.77 0.8,1.43 -0.66,0.15 -1.08,-1.16 -3.5,-2.01 -0.75,-0.26 -1.58,-0.39 -2.38,-0.06 -1.36,0.57 -0.46,1.07 -1.7,1.04 -0.35,-0.57 -0.54,-1.37 -0.38,-2.15 0.12,-0.62 0.13,-0.43 0.64,-1.02l0.23 -0.19zm12.57 -2.14c0.78,0.3 1.59,0.97 1.79,1.86 -0.47,0.2 -1.72,0.54 -1.79,1.15 -0.47,-0.29 -0.6,-0.57 -1.08,-0.93 -0.23,-0.17 -0.06,-0.04 -0.34,-0.21l-0.76 -0.62c-0.56,-0.28 -1.34,-0.84 -1.9,-1.2 0.68,-1.55 3,-1.09 4.07,-0.06zm1.63 -0.16c-1.19,-0.86 -2.55,-1.57 -4.57,-1.58l6.4 -4.62c1.48,-1.04 18.55,-13.6 19.27,-13.84 0.6,-0.98 2.36,-0.5 3.2,0.03 0.46,0.29 0.98,0.67 1.32,1 0.29,0.27 0.82,0.86 1.07,0.92l0.63 0.77c1.07,1.2 1.42,3.05 1.95,4.41 0,0.58 0.15,1.14 -0.09,1.71 -0.24,0.56 -0.88,0.92 -1.35,1.25l-1.62 1.23c-0.02,0.02 -0.05,0.04 -0.08,0.06l-0.16 0.12c-0.03,0.02 -0.12,0.09 -0.15,0.12l-4.15 3.18c-0.02,0.02 -0.06,0.04 -0.08,0.06l-0.62 0.46c-0.02,0.02 -0.06,0.04 -0.08,0.05l-2.04 1.48c-0.2,0.16 -0.09,0.08 -0.22,0.19l-0.88 0.62c-0.03,0.02 -0.06,0.03 -0.09,0.05l-0.48 0.34c-0.12,0.1 -0.1,0.08 -0.22,0.18l-0.35 0.33c-0.02,0.02 -0.05,0.04 -0.07,0.06 -0.02,0.02 -0.05,0.04 -0.07,0.06l-1.11 0.8c-0.02,0.02 -0.05,0.04 -0.08,0.06 -0.14,0.11 -0.08,0.07 -0.22,0.18l-3.63 2.62c-0.02,0.02 -0.06,0.04 -0.08,0.05l-1.38 1.07c-0.02,0.02 -0.06,0.04 -0.08,0.05l-1.24 0.93c-0.14,0.1 -0.1,0.08 -0.23,0.18l-0.59 0.49c-0.02,0.02 -0.05,0.05 -0.07,0.06l-1.27 0.91c-0.02,0.02 -0.06,0.04 -0.08,0.06 -0.29,0.21 -0.5,0.33 -0.81,0.55 -0.07,0.05 -0.17,0.12 -0.24,0.17 -0.5,0.34 -0.85,0.83 -1.42,1.05 0.17,-1.89 -0.22,-2.69 -1.04,-4.43l-0.87 -1.31c-0.6,-0.75 -0.72,-1.52 -1.89,-1.66l-0.14 -0.47zm25.93 -20.14c0.29,-0.31 2.83,-2.1 4.02,-1.96 0.21,0.03 0.65,0.14 0.84,0.22l0.62 0.45c-0.88,0.28 -0.7,-0.39 -2.42,0.95l-1.71 1.31c-0.02,0.02 -0.08,0.09 -0.1,0.07 -0.02,-0.03 -0.06,0.05 -0.1,0.07 -0.37,-0.81 -0.57,-0.32 -1.15,-1.1zm-50.57 22.95l0.15 1.09c-0.4,0.21 -0.02,-0.02 -0.27,0.05 -0.22,0.06 -0.08,-0.03 -0.26,0.09l7.08 4.72c-0.65,0.23 -2.32,1.54 -2.81,2.01l-0.84 1.11c-0.82,-0.34 -2.36,-1.48 -3.14,-1.98 -0.9,-0.57 -2.79,-1.43 -3.19,-2 -0.2,-0.08 -0.66,-0.38 -0.76,-0.45 -0.8,0.08 -0.46,0.04 -0.88,0.49l-0.73 -0.14c-1.27,-0.02 -0.57,0.4 -0.55,0.43l0.11 0.66c-0.66,0 -0.68,0.03 -1.19,0.15 0.45,0.57 1.44,0.98 2.13,1.44 0.65,0.44 1.21,0.97 1.93,1.46 0.66,0.45 1.31,0.89 2.04,1.36l2.19 1.34c-0.28,0.37 -0.31,0.33 -0.65,0.5l-0.57 0.49c-0.74,-0.3 -1.98,-1.12 -2.66,-1.59l-7.53 -5.12c-0.02,0.02 -0.02,0.07 -0.02,0.08 -0.11,0.73 0.15,-0.04 -0.03,0.25 -0.14,0.23 -0.83,0.22 -0.84,0.19 -0.02,-0.03 -0.08,0.01 -0.11,0.03l7.43 5.11c0.89,0.59 1.6,1.19 2.53,1.68 -0.28,0.38 -0.23,0.16 -0.55,0.54 -0.69,0.82 -0.46,1.76 -0.27,2.58 -0.73,0.39 -1.6,1.13 -2.29,1.65 -0.8,0.6 -1.52,1.15 -2.31,1.77 -0.36,0.28 -0.75,0.52 -1.11,0.79 -4.8,3.63 -2.58,2.42 -5.12,4.92 -1.29,1.27 -3.4,4.05 -4.52,5.53 -0.25,0.33 -0.7,0.81 -0.81,1.22 1.45,-0.12 9.04,-3.61 10.82,-4.66 1.13,-0.67 1.9,-1.45 2.98,-2.18 1.23,-0.84 2.43,-1.92 3.58,-2.8 2.61,-2 1.73,-1.64 3.29,-1.39 0.39,0.06 0.9,0.06 1.3,0 1.04,-0.15 2.07,-1.24 3.15,-2.01 3.27,-2.29 0.79,-0.26 3.8,-0.54 1.76,-0.17 0.61,-1.23 2.86,0.13l2.51 1.56c1,0.69 1.33,0.06 2.19,0.53 1.88,1.03 2.55,3 5.48,1.04 0.46,0.24 0.71,0.45 1.18,0.72 0.48,0.28 0.8,0.5 1.24,0.8 3.31,2.25 1.87,0.46 3.23,1.38 4.31,2.9 10.65,5.93 15.75,6.7 5.57,0.84 11.14,0.36 14.26,-4.77 1.78,-2.93 -0.11,-7.92 -1.42,-8.91 0.44,0.89 0.59,0.55 1.11,2.12 0.51,1.56 1.3,3.44 0.23,5.45 -0.82,1.54 -0.84,1.53 -2.16,2.9 -2,2.07 -6.61,2.63 -9.38,2.39 -3.82,-0.34 -9.45,-2.53 -12.43,-4.23l-2.19 -1.21c-1.21,-0.7 -3.57,-2.44 -4.21,-2.32 0.69,-0.92 0.55,-1.07 3.02,0.79l1.66 1.05c3.43,1.82 5.51,3.16 9.54,4.33 5.37,1.56 10.78,1.69 14.49,-2.73 0.58,-0.69 0.64,-0.82 0.91,-1.89 -0.01,-0.01 -0.04,-0.01 -0.04,0 -0,0.01 -0.03,0 -0.04,-0 -0,-0 -0.03,-0.01 -0.03,-0.01 -0.03,-0.02 -0.01,0.29 -0.11,-0.14 -0.43,-0.22 -0.03,0.2 -0.07,-1.48 -0.01,-0.63 -0.08,-1.22 -0.34,-1.76 0,0.66 0.12,0.67 0.14,1.35 0.02,0.61 -0.04,1.02 -0.15,1.49 -0.56,2.55 -2.56,3.87 -4.88,4.62 -2.9,0.94 -7.79,0.43 -10.81,-0.74 -1.65,-0.64 -2.85,-1.14 -4.36,-1.89l-6.49 -3.69c-0.76,-0.57 0.06,-0.47 -0.98,-1.46l-3.84 -2.54c0,-0.68 0.56,-2.17 -0.81,-3.13 -0.44,-0.31 -0.79,-0.57 -1.3,-0.87 -0.45,-0.27 -1.02,-0.53 -1.28,-0.89 0.14,-0.54 0.6,-0.65 1.33,-1.25 1,-0.83 2.13,-1.41 2.33,-2.83 0.13,-0.9 -0.12,-1.55 -0.12,-2.43 2.21,-1.06 0.43,0.63 4.19,-2.19l22.35 -16.62c2.23,-1.68 2.16,-2.06 1.98,-4.27l2.43 -1.78c0.89,-0.7 1.51,-1.13 1.51,-2.7 3.98,-0.93 8.32,0.11 9.26,4.04 0.32,1.35 0.34,2.79 0.05,4.32 -0.25,1.35 -0.59,2.49 -1.03,3.59 -0.98,2.45 -1.84,3.82 -3.28,5.95 -0.32,0.47 -0.62,0.86 -0.98,1.33 -0.42,0.53 -0.74,0.83 -1.03,1.45 0.29,-0.36 0.6,-0.65 0.88,-1.05 0.33,-0.47 0.46,-0.5 0.89,-0.91 0.76,0.25 -0.32,0.18 0.94,-0.23 -0.06,0.43 0.07,0.54 -0.27,0.67l0.08 -0.3c0.45,-0.79 0.64,-0.7 1.12,-0.77 -0.11,0.39 0.02,0.48 -0.4,0.66 -0.07,-0.22 0.82,-1.24 1.06,-1.52 1.07,-1.28 0.65,-1.33 1.5,-1.6 -0.2,0.69 -2.78,4.45 -3.12,4.79 0.01,-0.34 0.12,-0.31 0.67,-0.41 -0.24,1.39 -2.16,2.39 -2.7,3.36 0.76,-0.82 1.74,-1.54 2.93,-3.06 1.56,-2 2.47,-2.92 3.7,-5.4 3.45,-6.95 3.56,-16.52 -5.19,-18.07 -2.18,-0.39 -3.73,-0.25 -5.63,0.2 -0.76,-0.51 -0.49,-0.91 -2.18,-1.9 -1.34,-0.78 -2.13,-0.65 -3.3,-0.18 -3.08,1.25 -3.15,2.02 -4.17,1.54 -1.06,-0.49 -2.31,-0.82 -3.35,-0.24 -0.45,0.25 -0.83,0.51 -1.23,0.81l-4.87 3.55c-2.31,1.53 -5.94,4.37 -8.39,6.13l-11 7.88c-0.31,0.21 -0.27,0.21 -0.53,0.42 -0.27,0.22 -0.35,0.24 -0.61,0.48 -0.69,0.63 -0.36,0.74 -0.71,1.47 -1.16,-0.1 -1.98,-0.92 -3.89,-0.36 -0.99,0.29 -2.11,1.19 -2.9,1.71 -1.08,0.72 -3.07,1.92 -2.67,4.15 0.16,0.88 0.39,1.11 0.77,1.68 -0.67,0.45 -0.89,0.82 -1.9,1.36 -0.66,-0.35 -1.29,-0.81 -1.9,-1.22l-2.76 -1.86c-0.91,-0.67 -1.87,-1.41 -2.86,-1.94z"/>
   <path class="fil0" d="M45.76 44.25c-0.64,1.26 -2.26,2.35 -3.1,4.14 -0.4,0.86 -0.77,1.57 -0.95,2.58 -0.11,0.6 -0.24,1.7 0.11,2.26 0.29,0.44 0.34,0.34 0.44,0.44 -0.96,-0.15 -1.13,-0.68 -1.99,-1.33 -1.54,-1.15 -2.69,-0.91 -1.17,-4.64l0.02 0.12c0.08,0.81 -0.17,1.9 0.09,2.16 0.39,0.4 0.48,-0.02 0.49,-0.02 0.12,-0.12 -0.17,0.01 0.12,-0.14 0.27,-0.14 1.06,0.74 1.09,0.68 0.01,-0.03 0.06,0.05 0.09,0.06 0.38,-0.6 0.59,-1.34 0.92,-1.99 0.34,-0.66 0.7,-1.18 0.99,-1.71 -0.02,-0.02 -0.06,-0.06 -0.07,-0.07l-0.45 -0.38c-0.53,-0.39 -1.05,-0.89 -1.66,-1 -0.48,0.36 -0.84,0.89 -1.05,1.54 0.06,-0.76 0.78,-1.89 1.11,-2.48 0.51,-0.89 0.91,-1.64 1.6,-1.94 0.41,-0.38 0.43,-0.48 0.82,-0.79 0.31,-0.25 0.61,-0.48 0.91,-0.72 1.61,-1.26 2.15,-1.92 4.18,-0.5 0.67,0.47 1.37,0.62 2.06,1.03 -1.22,0.12 -1.95,0.54 -2.7,1.1 -0.66,0.49 -1.47,1.1 -1.9,1.62zm-7.01 -4.34c-0.45,0.17 -1.01,0.57 -1.27,0.82 -0.19,0.18 -0.78,1.06 -1.01,0.51 -0.13,-0.31 0.26,-0.52 0.74,-1.05l1 -0.92c1.44,-1 2.13,-0.11 3.87,1.06 0.92,0.62 0.64,0.38 0.45,0.6 -0.08,0.09 -0.17,0.19 -0.18,0.16 -0.02,-0.03 -0.08,0.05 -0.11,0.08l0.74 -0.1c-0.41,0.52 -0.01,0.16 -0.56,0.52 -0.64,0.42 -1.16,0.48 -1.55,1.22l-3.05 -1.96c0.31,-0.29 0.72,-0.55 0.93,-0.96zm-19.83 -11.88c0.53,0.01 8.06,5.32 8.69,5.75 1.77,1.21 7.19,4.95 8.72,5.75l-0.61 0.76c-0.77,-0.4 -1.49,-1 -2.27,-1.51 -0.8,-0.53 -1.44,-0.94 -2.19,-1.47 -3.72,-2.66 -7.26,-4.76 -11.04,-7.55 -1.42,-1.04 -1.87,-1.01 -1.3,-1.72zm-6.25 -2.98c1.83,0.31 3.93,1.41 5.34,2.12 -0.21,0.32 -0.35,0.44 -0.62,0.74l-4.72 -2.86zm41.92 35.7c0.49,-0.2 0.83,-0.55 1.17,-0.84l0.08 -0.07c-0.83,0.22 -1.98,-0.85 -2.99,-1.62l-5.65 -3.86c-1.03,-0.65 -1.87,-1.28 -2.85,-1.88l0.12 -1.23c-0.06,-0.7 0.01,-0.14 -0.08,-0.2 0.52,0.12 6.2,4.02 7.51,4.88 0.34,0.22 0.75,0.41 1.05,0.6l0.82 -0.19 0.05 -1.53c-0.02,-0.27 -0.05,-0.47 -0.02,-0.75 0.02,-0.22 0.05,-0.23 0.06,-0.31 0.01,-0.04 0.03,-0.12 0.04,-0.15 0,-0.01 0.01,-0.05 0.01,-0.06 0.06,-0.3 -5.89,-4.02 -6.65,-4.44 -0.49,-0.27 -0.36,-0.3 -0.37,-0.4l-0.13 -0.39c-0.59,-0.68 -0.06,0.19 -1.1,-0.53 0.44,-0.15 0.43,-0.28 0.46,-0.31 0.52,-0.54 -0.5,0.25 0.11,-0.08l0.88 -0.59c0.52,-0.49 2.17,-2.35 2.96,-2.29 0.38,0.03 8.84,6.05 9.62,6.35 -0.2,-0.42 0,-0.25 -0.69,-0.68 0.42,-0.08 0.18,0.11 0.25,-0.39 0.27,0.09 0.55,0.32 0.77,0.47 0.17,0.11 0.21,0.2 0.44,0.23 0.03,0 0.07,0 0.1,0l0.2 -0.05c0.02,-0.04 0.08,-0.01 0.1,-0.04l-8.88 -5.84c0.18,-2.12 0.21,-2.35 -1.82,-3.88 -0.94,-0.71 -2.79,-2.03 -4.01,-1.96 -0.62,0.03 -2.34,0.83 -2.59,1.5 -0.74,-0.5 -3.08,-2.23 -3.94,-2.31 -0.66,-0.06 -0.86,-0.02 -1.28,0.21 -0.23,0.13 -0.86,0.51 -1.09,0.56 -0.5,0.11 -1.63,-0.77 -2.07,-1.08l-3.82 -2.56c-1.8,-1.34 -4.04,-2.58 -5.68,-3.82l-1.86 -1.26c-3.55,-2.47 -5.98,-4.6 -10.48,-5.41 -0.91,-0.16 -1.94,-0.29 -2.77,-0.49 0.12,0.45 3.86,4.95 4.78,5.81l17.27 11.92c0.58,0.4 1.01,0.76 1.57,1.14 -0.01,0.6 -0.83,2.26 0.68,3.4 0.53,0.4 2.25,1.74 2.85,1.9 -0.27,1.15 -0.75,1.81 -0.1,3.08 0.43,0.83 3.71,3.02 4.65,3.23 1.81,0.4 1.88,-0.95 2.95,-0.11 1.23,0.95 3.37,2.24 4.6,3.15l3.45 2.39c0.49,0.35 0.67,0.55 1.28,0.81z"/>
   <path class="fil1" d="M52.68 69.79l-0.95 -0.14c-0.14,-0.68 -0.32,-0.38 -0,-1.63 -0.73,0.1 -0.62,0.06 -1.06,0.43l-9.4 7.44c-0.6,0.7 -4.77,3.49 -5.94,4.22 -3.61,2.23 -4.63,3.02 -8.93,5.04 -0.03,0.01 -0.06,0.03 -0.09,0.04 -2.35,1.1 -2.53,1.09 -4.9,1.73 -0.42,0.11 -0.9,0.27 -1.38,0.39 -1.29,0.32 -3.66,0.34 -5.09,0.14 -1.75,-0.24 -3.44,-1.11 -4.23,-2.81 -0.21,-0.45 -0.25,-0.83 -0.43,-1.33 -1.27,-3.58 0.61,-6.38 1.24,-8.64l-0.52 2.52c-0.02,0.04 -0.1,0.29 -0.11,0.34 -0.54,2.58 -0.36,5.99 1.98,7.62 0.32,0.22 0.73,0.41 1.09,0.57 0.37,0.17 0.8,0.29 1.28,0.39 2.59,0.57 7.13,-0.44 9.46,-1.62l1.66 -0.78c0.55,-0.27 -0.03,-0.04 0.54,-0.24 0.88,-0.32 0.69,-0.36 2.18,-1.1 0.25,-0.12 0.32,-0.15 0.55,-0.27 0.43,-0.22 0.23,-0.12 0.51,-0.33 0.4,-0.29 0.61,-0.36 1.01,-0.61 2.05,-1.29 5,-3.14 6.88,-4.53 0.35,-0.26 1.61,-1.18 2,-1.28 0.4,-0.62 1.98,-1.54 2.87,-2.28 0.68,-0.56 3.68,-2.92 4.43,-3.27 0.56,-0.26 0.86,-0.61 1.49,-1.12 0.52,-0.42 0.96,-0.7 1.43,-1.17 0.86,-0.87 1.02,-0.66 1.32,-1.39l-0.68 -0.14c-0.09,0.48 0.21,0.16 -0.61,0.57 -0.03,0.01 -0.07,0.03 -0.09,0.04 -0.88,0.45 -0.44,0.47 -1.74,0.47l0 -0.68c0.29,-0 0,0.05 0.14,-0.27 -0.7,0.13 -2.8,2.04 -3.49,2.62 -0.58,0.49 -1.05,0.87 -1.64,1.35 -2.68,2.19 -5.8,4.36 -8.67,6.27l-3.66 2.31c-0.68,0.41 -1.19,0.74 -1.85,1.14 -2.87,1.74 -7.27,3.77 -10.69,4.24 -4,0.56 -6.42,-1.41 -5.97,-5.69 0.26,-2.44 1.96,-6.78 3.16,-8.78l2.16 -3.82c2.44,-4.12 3.91,-5.53 6.15,-8.79 0.39,-0.56 1.11,-1.21 1.28,-1.85l-1.93 1.6c-0.99,0.98 -2.77,2.27 -3.79,3.54 -0.6,0.75 -1.21,1.21 -1.77,1.9l-3.16 4.04c-2.15,2.85 -3.98,5.84 -5.35,9.17 -0.55,1.33 -1.02,2.76 -1.26,4.17 -0.78,4.57 0.97,9.05 6.15,9.78 6.12,0.86 11.8,-1.55 16.99,-4.41 3.09,-1.71 6.93,-4.29 9.92,-6.37 1.76,-1.22 4.4,-3.14 5.98,-4.47l0.15 -0.12c0.02,-0.02 0.05,-0.04 0.07,-0.06l1.54 -1.18c0.2,-0.15 0.37,-0.23 0.57,-0.38l3.18 -2.52z"/>
   <path class="fil2" d="M44.28 97.38l2.76 0.02c-0.11,1.67 -0.21,13.6 0.09,14.47l4.49 -0.02 -0.03 2.32 -7.29 0 -0.03 -16.79zm12.38 2.6c-0.23,0.87 -0.13,3.39 -0.04,4.45l4.3 0.07 0.02 2.34c-0.48,-0 -4.22,-0.19 -4.25,0.22 -0.01,0.06 -0.03,0.08 -0.04,0.11 -0.12,0.48 -0.17,4.16 0.09,4.65l4.67 0.04 -0.03 2.29 -7.37 -0.01 -0.01 -16.74 7.26 -0.02 -0.02 2.47 -4.57 0.13zm-14.41 -2.6l-0.02 2.5 -3.18 -0.04 -0.01 14.31 -2.59 0.02 -0 -14.28 -3.09 -0.03c-0.02,-0.43 -0.01,-0.86 -0.01,-1.29 -0.02,-1.45 -0.38,-1.19 3.05,-1.17 1.9,0.01 3.97,0.07 5.86,-0.02zm-19.14 0.02l8.62 0.02 -0.05 2.44 -2.94 0.04 0 14.26 -2.53 0.01 -0.06 -14.11c-0.15,-0.11 -0.08,-0.08 -0.35,-0.15l-2.7 -0.04 0.01 -2.47zm-1.24 1.18c0,2.8 0.56,2.44 3.12,2.44l0 13.31c0,1.35 1.64,0.95 4.07,0.95 0.3,0 0.81,-0.3 0.81,-0.95l0 -13.31 1.9 0c0.68,0 0.19,-0.14 0.73,-0.19 0.69,-0.06 0.01,0.19 0.63,0.19l2.04 0 0 12.08c0,2.65 0.81,2.17 4.21,2.17 0.42,0 0.81,-0.13 0.81,-0.54l0 -13.71c1.79,0 2.06,0.21 2.99,-0.41l0 11.54c0,1.12 -0.25,3.12 0.81,3.12l7.74 0c0.92,0 0.95,-0.44 0.95,-1.36l0.33 0.89c0.18,0.32 0.46,0.47 0.89,0.47l7.74 0c1.1,0 0.95,-2.1 0.95,-2.85 0,-2.23 -1.32,-1.77 -4.75,-1.77l0 -2.58c4.67,0 4.21,0.57 4.21,-3.67 0,-1.49 -2.11,-1.09 -4.21,-1.09l0 -2.31c5.23,0 4.62,0.54 4.62,-3.67 0,-0.56 -0.46,-1.22 -0.95,-1.22l-7.47 0c-0.65,0 -1.12,0.41 -1.21,0.96l-0.15 14.11c-1.23,-0.82 -2.37,-0.54 -4.48,-0.54 0,-1.82 0.26,-13.21 -0.23,-14.03 -0.47,-0.79 -1.82,-0.5 -3.57,-0.5 -0.55,0 -0.79,0.29 -1.09,0.54 -0.38,-0.25 -0.47,-0.54 -1.09,-0.54l-8.55 0c-0.62,0 -0.71,0.29 -1.09,0.54 -0.3,-0.2 -0.48,-0.54 -0.81,-0.54l-8.55 0c-1.25,0 -1.36,1.2 -1.36,2.44z"/>
   <path class="fil3" d="M58.66 36.12zm0 0zm0 0l-0.14 -0.14 0.14 0.14zm-0.14 -0.14l-0.14 -0.14 0.14 0.14zm-0.14 -0.14l-9.94 -7.17c-2.43,-1.63 -3.13,-1.94 -5.36,-3.19l-1.13 -0.64c0.13,0.5 1.53,1.6 2.34,2.41 2.01,2.01 2.29,1.93 3.94,3.4 0.25,0.22 0.36,0.39 0.62,0.6l2.06 1.61c0.46,0.35 0.9,0.73 1.36,1.09l5.43 4.21c0.68,0.53 4.87,3.74 5.43,4.48l0.99 -0.7c0.02,-0.02 0.08,-0.07 0.09,-0.11 0.4,0.77 -0.06,0.28 0.68,0.54 -0.1,-0.77 -0.1,-0.6 -0.45,-1.15l-0.5 -0.89c-0.4,-0.35 -0.54,-0.83 -0.84,-1.3l-2.28 -3.15c-0.18,-0.26 -0.24,-0.33 -0.46,-0.63l-3.88 -4.81c-0.38,-0.49 -0.62,-0.69 -1.05,-1.13l-1.99 -2.32c-0.38,-0.51 -0.64,-0.73 -1.06,-1.15l-5.37 -5.36c-0.42,-0.35 -0.84,-0.68 -1.21,-0.97 -0.83,-0.65 -1.43,-1.42 -2.28,-2.06l-2.41 -1.92c-0.73,-0.73 -1.59,-1.3 -2.38,-1.98 -1.22,-1.06 -6.21,-4.65 -7.59,-5.47l-2.33 -1.71c0.01,-0 0.05,-0.02 0.06,-0.03 0.31,-0.07 7.08,4.32 7.39,4.54 0.85,0.62 1.7,1.17 2.58,1.77 0.5,0.34 0.74,0.68 1.24,1.06l8.36 6.82c0.45,0.45 0.76,0.61 1.23,1.08l2.17 2.17c0.45,0.45 0.6,0.73 1.01,1.16 1.39,1.44 1.28,1.08 2.6,2.81 0.97,1.28 3.53,3.93 4.45,5.31l4.45 6.3 0.82 1.31c0.54,0.64 -0.1,0.18 0.68,0.46 0,-0.38 -0.08,-2.23 0.12,-2.5l0.29 -0.21c-0.5,-0.44 -0.86,-1.1 -1.24,-1.61 -2.46,-3.31 -3.02,-4.27 -5.84,-7.74l-7.22 -7.72c-0.33,-0.27 -0.42,-0.3 -0.74,-0.61l-8.95 -7.34 -4.81 -3.34c-1.07,-0.79 -5.41,-3.3 -6.78,-4.09 -2.76,-1.6 -6.2,-3.28 -9.21,-4.37l-1.96 -0.76c-0.49,-0.21 -1.46,-0.67 -2,-0.72 0.32,0.48 2.3,1.59 2.83,1.93 5.15,3.3 9.08,6.42 13.89,10 3.17,2.36 5.19,4.37 7.88,6.52 0.45,0.36 0.73,0.77 1.18,1.13 1.76,1.4 5.39,5.28 7.25,7.14l3.46 3.74c0.37,0.37 4.21,4.61 4.38,5.26z"/>
   <path class="fil4" d="M135.22 101.56l0.01 2.85 4.28 0.06 0.05 2.37 -4.24 0.02c-0.26,0.66 -0.2,4.11 -0.05,4.97l4.97 0 0 2.35 -7.76 0.01 0 -16.85 7.64 0 -0.01 2.52c-5.57,0.09 -4.89,-0.62 -4.89,1.69zm-13.8 -4.21l8.82 -0.01 -0.04 2.54 -3.03 0.02 0.03 14.29 -2.86 0 -0.01 -14.23c-0.91,-0.22 -1.96,-0.06 -2.91,-0.06l0 -2.54zm-8.83 16.83c0.11,-1.67 0.05,-3.6 0.04,-5.29 -0.01,-1.47 -0.78,-2.83 -1.27,-4.09 -0.96,-2.48 -2.08,-4.98 -2.96,-7.45l3.2 0c0.41,0.79 0.87,2.84 1.19,3.81 0.41,1.26 0.73,2.61 1.26,3.78 0.4,-0.49 2.18,-6.5 2.47,-7.59l2.97 -0.01c-0.75,2.45 -1.98,5.18 -2.89,7.59 -0.49,1.32 -1.27,2.52 -1.26,4.08 0.01,1.72 0,3.44 0.02,5.17l-2.78 -0.01zm-5.46 -17.1c0,0.79 3.57,9.13 4.08,10.45 0.43,1.14 0.28,4.13 0.27,5.57 -0.01,2.61 0.07,2.17 3.94,2.17 1.5,0 1.09,-2.06 1.09,-4.21 0,-3.94 0.83,-4.45 2.22,-8.37l1.58 -3.85c0,2.47 0.26,2.17 2.85,2.17l0 13.03c0,1.67 2.07,1.22 4.07,1.22 0.66,0 1.09,-0.43 1.09,-1.09l0 -13.17c1.8,0 1.88,0.2 2.99,-0.54l0.03 13.82c0.09,0.46 0.42,0.98 1.06,0.98l7.88 0c1.38,0 1.09,-1.63 1.09,-3.12 0,-1.96 -2.2,-1.49 -4.89,-1.49l0 -2.58c4.85,0 4.21,0.64 4.21,-3.94 0,-1.17 -2.84,-0.81 -4.21,-0.81l0 -2.31c5.36,0 4.75,0.61 4.75,-3.67 0,-0.66 -0.39,-1.22 -1.09,-1.22l-7.74 0c-0.58,0 -0.83,0.22 -0.95,0.68 -0.38,-0.26 -0.72,-0.68 -1.36,-0.68l-8.69 0c-0.5,0 -0.66,0.21 -0.95,0.41 -1.03,-0.69 -2.25,-0.41 -4.34,-0.41 -0.65,0 -0.92,1.51 -1.16,2.37 -0.2,0.7 -0.72,2.29 -0.74,2.93l-0.27 0c0,-0.33 -1.03,-5.3 -1.9,-5.3l-3.94 0c-0.63,0 -0.95,0.32 -0.95,0.95z"/>
   <path class="fil5" d="M99.95 57.01c1.25,1.95 1.78,2.86 2.53,5.21 0.22,-0.27 0.03,0.03 0.14,-0.34 0.01,-0.04 0.02,-0.08 0.03,-0.12 0.01,-0.04 0.01,-0.08 0.02,-0.12 0.29,-1.06 0.94,-0.88 1.69,-1.4l9.85 -7.54c3.05,-2.44 3.32,-2.37 6.28,-4.44 1.52,-1.06 2.39,-2.04 3.88,-2.91 0.43,-0.25 1.24,-1.08 1.73,-0.9 0.01,0 0.03,0.03 0.04,0.03 0,0 0.03,0.02 0.04,0.02 0.19,-0.04 0.11,-0.14 0.13,-0.38 -0.21,-1.22 -0.37,-3.29 -1.8,-4.62 -0.77,0.24 -2.94,2.28 -3.78,2.87 -2,1.42 -6.6,4.58 -8.24,6.02 -0.88,0.77 -3.44,2.61 -4.61,3.26 -1.1,0.61 -2.91,2.23 -3.76,2.89l-3.65 2.74c-0.18,-0.1 -0.26,-0.19 -0.31,-0.22 -0.3,-0.18 -0.02,-0.14 -0.22,-0.07z"/>
   <path class="fil6" d="M107.66 18.85l-4.27 3.21c-0.4,0.27 -0.26,0.24 -0.88,0.34l0 -2.04 1.09 0 -0.14 -1.36c-0.45,-0.03 -0.01,-0.17 -1.03,0.6 -0.39,0.3 -0.63,0.49 -0.99,0.77l-6.13 4.87c-0.68,0.53 -1.35,1.1 -2.04,1.63l-2.01 1.66c-0.36,0.31 -0.59,0.5 -0.95,0.82l-2.54 2.07c-0.49,0.4 -0.23,0 -0.48,0.61 0.86,-0.16 0.16,-0.16 0.81,-0.2 0.61,-0.04 -0.15,0.18 0.41,-0.09 0.91,-0.44 1.05,-0.13 1.42,-0.5l0.06 -0.12c0,-0.02 0.01,-0.03 0.01,-0.05 0.06,0.62 -0.02,0.2 0.41,0.54 0.36,-0.48 0.5,0.39 0.95,-0.68l0.54 0.12c0.44,-0.23 0.41,-0.1 0.27,-0.46 1.03,-0.5 0.56,-0.4 1.07,-0.73 0.02,-0.01 0.06,-0.03 0.08,-0.05l3.21 -2.38c0.31,-0.26 0.51,-0.43 0.81,-0.68 0.32,-0.27 0.48,-0.41 0.81,-0.67l0.38 -0.32c0.05,-0.04 0.17,0.03 0.28,-0.26 -0.6,0.1 -0.19,-0.07 -0.41,0.54 0.81,0 1.68,0.18 1.9,-0.41 -0.09,-0.04 0.01,-0.24 -0.58,0.37l-1.23 1.19c-0.4,0.27 -0.42,0.18 -0.82,0.4 -0.08,0.04 -1.48,1.18 -1.6,1.46 -0.31,0.69 0.14,0.61 -0.57,1.28l-0.63 0.74c-0.31,0.34 -0.64,0.37 -1.31,1.29 -0.59,0.82 0.53,-0.15 -0.35,0.32 -0.94,0.51 0.04,0.18 -0.63,0.84l-0.96 0.95c-0.44,0.48 -0.41,0.22 -0.41,0.95 -0.22,0.2 0.08,-0.03 -0.54,0.14 -0.14,0.52 0.03,0.53 -0.27,1.09l-0.81 0 -0.15 0.8c-0.01,0.33 0.01,0.76 0.01,1.1 0.63,-0.17 1.68,-0.91 2.17,-1.36 0,0.25 -0.04,0.23 -0.24,0.42 -0.49,0.47 -2.33,2.1 -2.32,2.27l0.06 0.31c0.01,0.03 0.02,0.07 0.02,0.1 0.09,0.6 -0.07,0.54 -0.05,0.83 0.05,0.82 0.41,0.04 0,0.87 -0.01,0.02 -0.04,0.06 -0.05,0.1 0.68,-0.12 0.48,-0.18 1.39,-0.79 0.73,-0.49 3.17,-2.34 3.77,-2.61l-0.35 -0.46c0.21,-0.59 0.32,-0.27 0.68,-0.67l0.14 -0.24c0.01,-0.01 0.03,-0.05 0.04,-0.07 0.27,-0.4 0.42,-0.39 0.71,-1.11l0.4 -0.96c0.46,-0.54 -0.21,-1.41 0.76,-2.25l0.2 -0.12c0.72,-0.47 -0.34,-0.1 0.92,-0.47l1.25 -1.13c0.25,-0.33 0.14,-0.34 0.34,-0.67 -0.22,-0.63 0.3,0.5 -0.21,-0.27 -0.06,-0.1 -0.08,0 -0.21,-0.36 0.13,-0.09 0.1,-0.04 0.21,-0.17 0.2,-0.22 0.08,-0.12 0.16,-0.23l0.35 -0.38c0.61,-0.48 0.37,-0.49 0.79,-0.72 0.46,-0.25 0.64,-0.03 0.74,-0.57l0.12 -0.67c0.45,-1.2 0.08,-0.74 0.39,-1.21 0.26,-0.41 0.14,0.09 0.15,-0.27 0.01,-0.32 -0.01,0.28 -0.04,-0.22 -0.02,-0.32 -0.08,-0.13 0.08,-0.38l0.39 -0.29c0.39,-0.22 0.13,0.05 0.36,-0.27l0.22 -0.56c0.49,-1.52 5.96,-4.76 6.34,-6.15 -0.43,0.14 -1.2,0.75 -1.48,1.03z"/>
   <path class="fil7" d="M64.77 56.35l-1.04 0.99c-0.18,0.33 -0.14,0.01 -0.05,0.28 0,0.27 0.08,0.23 -0.13,0.23 0.22,-0.33 0.11,-0.25 0.42,-0.23l0.26 0.09c-0.2,0.5 0.02,0.04 -0.19,0.33 -0.14,0.21 -0.17,0.18 -0.24,0.3 -0.19,0.31 -0.11,0.42 -0.13,0.86 -0.03,0.74 -0.13,0.99 0.29,1.76l-0.23 -0.11c0.73,-0.26 2.08,-1.51 2.81,-1.99 0.25,-0.49 0.53,-0.61 1.03,-0.96 0.17,-0.12 0.52,-0.36 0.56,-0.39 0.38,-0.3 0.2,-0.27 0.64,-0.47 0.41,-0.25 0.29,-0.33 0.89,-0.51l12.22 -9.15c0.16,-0.11 0.25,-0.16 0.4,-0.29 0.46,-0.39 0.27,-0.19 0.28,-0.39l0.25 -1.14c0.24,-0.85 0.42,0.07 0.09,-0.4 -0.01,-0.01 -0.05,-0.05 -0.06,-0.06 -0.01,-0.01 -0.06,-0.03 -0.07,-0.08 -0.01,-0.05 -0.06,-0.05 -0.08,-0.09 0.02,-0.04 0.06,-0.08 0.08,-0.11l0.35 -0.76c0.26,-0.6 0.04,-0.11 0.11,-0.08l-1.63 -0.68 0.27 -0.49c0.12,-0.15 -0.21,-0.09 0.27,-0.19l-0.16 -0.28c-0.1,-1.05 0.09,-0.4 0.19,-0.53 0.2,-0.26 0.49,-0.36 0.64,-0.44 0.02,-0.01 0.06,-0.03 0.08,-0.05l0.33 -0.23c1.48,-0.9 0.08,-0.36 1.15,-1.15 0.03,-0.03 0.14,-0.08 0.18,-0.11l0.35 -0.27c0.34,-0.34 0.03,0.01 0.17,-0.28l0.63 -0.61c0.5,-0.26 0.24,-0.08 0.56,-0.57l0.72 -0.64c0.35,-0.35 -0.19,-0.16 0.7,-0.86 0.42,-0.33 0.25,-0.34 0.7,-0.63 1.09,-0.7 -0.51,0.53 0.3,-0.18l1.12 -1.01c0.02,-0.02 0.05,-0.05 0.07,-0.07 0.02,-0.02 0.05,-0.05 0.07,-0.07 0.45,-0.4 0.62,-0.37 0.96,-0.89 0.22,-0.33 0.33,-0.44 0.36,-0.9l-2.6 2.14c-0.32,0.26 -0.53,0.4 -0.83,0.68 -0.37,0.35 -0.52,0.43 -0.88,0.75l-2.58 2.43c-0.02,0.02 -0.05,0.04 -0.08,0.06 -0.02,0.02 -0.06,0.04 -0.08,0.06l-5.35 4.96c-0.25,0.2 -0.5,0.4 -0.84,0.66l-1.3 1.15c-0.19,0.15 -0.19,0.17 -0.37,0.32l-11.58 10.29z"/>
   <path class="fil4" d="M142.69 108.73l2.64 0.03c0.02,1.83 -0.03,3.42 2.1,3.24 1.59,-0.13 1.98,-1.9 1.54,-3.53 -0.58,-2.16 -5.11,-1.77 -6.08,-4.51 -0.42,-1.19 -0.35,-3.48 0.09,-4.58 1.25,-3.12 6.35,-2.32 7.5,-1.27 1.01,0.92 0.87,2.73 0.93,4.44l-2.34 -0.01c-0.01,-1.75 -0.1,-3.38 -2.27,-3.02 -1.56,0.26 -1.89,2.22 -1.27,3.55 1,2.14 5.29,1.63 5.97,4.61 0.29,1.28 0.21,3.62 -0.27,4.72 -0.54,1.24 -1.75,1.74 -3.42,1.84 -4.24,0.24 -5.26,-1.38 -5.11,-5.51zm-1.22 -6.9c0,2.15 0.67,3.88 2.11,4.68 1.36,0.75 4.27,1.58 4.27,2.52 0,1.09 0.07,0.86 -0.14,1.77 -1.87,0.16 -0.99,-0.81 -1.24,-2.16 -0.13,-0.69 -0.21,-0.14 -0.39,-0.83 -4.59,0 -4.48,-0.33 -4.48,2.58 0,0.78 0.11,1.5 0.32,2.13 1.26,3.84 8.65,3.81 10.28,0.6 0.71,-1.4 0.54,-3.11 0.54,-4.76 0,-2.78 -2.47,-3.87 -4.64,-4.73 -1.66,-0.66 -1.82,-1.4 -1.47,-2.87 0.36,-0.09 0.26,-0.14 0.54,-0.14 1.36,0 0.17,2.99 1.49,2.99 4.15,0 3.94,0.37 3.94,-2.58 0,-5.63 -5.9,-5.52 -8.25,-4.58 -2.13,0.85 -2.89,3.24 -2.89,5.4z"/>
   <path class="fil8" d="M126.31 44.13c-0.02,0.24 0.06,0.33 -0.13,0.38 -0,0 -0.03,-0.02 -0.04,-0.02 -0.01,-0 -0.03,-0.03 -0.04,-0.03 -0.48,-0.17 -1.3,0.65 -1.73,0.9 -1.48,0.87 -2.35,1.85 -3.88,2.91 -2.96,2.07 -3.23,2 -6.28,4.44l-9.85 7.54c-0.75,0.52 -1.4,0.34 -1.69,1.4 -0.01,0.04 -0.01,0.08 -0.02,0.12 -0.01,0.04 -0.02,0.08 -0.03,0.12 -0.11,0.37 0.08,0.07 -0.14,0.34 -0.75,-2.35 -1.28,-3.26 -2.53,-5.21 -0.49,-0.71 -0.45,-0.1 -0.85,-1.1 0.37,-0.13 0.5,-0.24 0.84,-0.51l1.5 -1.08c0.02,-0.02 0.06,-0.04 0.08,-0.06l9.93 -7.33c0.02,-0.02 0.05,-0.05 0.07,-0.06l0.51 -0.34c-0.22,0.1 -0.27,0.1 -0.43,0.17 -0.43,-0.2 -0.08,-0.16 -0.49,-0.48 -0.03,-0.02 -0.33,-0.12 -0.37,-0.13 -0.35,-0.08 -0.39,-0.38 -1.56,0.65 -0.32,0.28 -0.48,0.4 -0.81,0.68l-1.79 1.22c-1.02,0.58 -1.64,-0.34 -1.64,1.32l-1.09 0 0 1.09c-0.01,-0.01 -0.9,0.11 -0.27,-0.41 -0.27,0.38 -0.09,0.31 -0.51,0.52 -0.29,0.15 -0.86,-0.07 -1.38,-0.25 -0.4,-0.03 -2.08,1.38 -2.52,1.68 -0.82,0.56 -1.81,1.29 -2.56,1.78 0.28,0.43 0.56,0.57 1.05,0.87 0.34,0.21 0.74,0.52 0.97,0.64 -0.28,-0.15 -0.46,-0.45 -0.87,-0.34 -0.77,0.21 -0.01,0.57 0.01,0.58l0.14 0.47c1.17,0.14 1.29,0.91 1.89,1.66l0.87 1.31c0.82,1.74 1.21,2.54 1.04,4.43 0.57,-0.22 0.92,-0.71 1.42,-1.05 0.07,-0.05 0.17,-0.12 0.24,-0.17 0.31,-0.22 0.51,-0.34 0.81,-0.55 0.02,-0.02 0.06,-0.04 0.08,-0.06l1.27 -0.91c0.02,-0.02 0.05,-0.04 0.07,-0.06l0.59 -0.49c0.13,-0.1 0.09,-0.07 0.23,-0.18l1.24 -0.93c0.02,-0.02 0.06,-0.04 0.08,-0.05l1.38 -1.07c0.02,-0.02 0.06,-0.04 0.08,-0.05l3.63 -2.62c0.14,-0.11 0.08,-0.07 0.22,-0.18 0.02,-0.02 0.05,-0.04 0.08,-0.06l1.11 -0.8c0.02,-0.02 0.05,-0.04 0.07,-0.06 0.02,-0.02 0.05,-0.04 0.07,-0.06l0.35 -0.33c0.12,-0.11 0.1,-0.08 0.22,-0.18l0.48 -0.34c0.03,-0.02 0.06,-0.03 0.09,-0.05l0.88 -0.62c0.13,-0.11 0.02,-0.03 0.22,-0.19l2.04 -1.48c0.02,-0.02 0.06,-0.04 0.08,-0.05l0.62 -0.46c0.02,-0.02 0.06,-0.04 0.08,-0.06l4.15 -3.18c0.03,-0.02 0.12,-0.09 0.15,-0.12l0.16 -0.12c0.02,-0.02 0.05,-0.04 0.08,-0.06l1.62 -1.23c0.47,-0.34 1.11,-0.69 1.35,-1.25 0.24,-0.57 0.09,-1.13 0.09,-1.71l-0.5 0.55c-0.23,0.33 0.04,0.12 -0.23,0.36z"/>
   <path class="fil9" d="M107.67 15.89l0.45 -0.12c-0.02,0.21 0,0.05 -0.4,0.31 -0.94,0.62 -0.2,0.27 -0.42,1.01 -0.12,0.43 -0.07,0.13 -0.16,0.19l-0.21 1.06c-0.06,0.53 0.08,0.54 0.73,0.5 0.28,-0.28 1.06,-0.89 1.48,-1.03 -0.38,1.39 -5.85,4.64 -6.34,6.15l-0.22 0.56c-0.23,0.32 0.03,0.05 -0.36,0.27l-0.39 0.29c-0.16,0.25 -0.1,0.06 -0.08,0.38 0.03,0.5 0.06,-0.1 0.04,0.22 -0.02,0.36 0.11,-0.15 -0.15,0.27 -0.31,0.48 0.06,0.01 -0.39,1.21l-0.12 0.67c-0.1,0.54 -0.28,0.32 -0.74,0.57 -0.42,0.23 -0.18,0.24 -0.79,0.72l-0.35 0.38c-0.08,0.11 0.04,0.02 -0.16,0.23 -0.12,0.13 -0.08,0.08 -0.21,0.17 0.12,0.37 0.14,0.26 0.21,0.36 0.5,0.77 -0.02,-0.36 0.21,0.27 -0.2,0.33 -0.09,0.34 -0.34,0.67l-1.25 1.13c-1.26,0.38 -0.2,0.01 -0.92,0.47l-0.2 0.12c-0.97,0.84 -0.3,1.71 -0.76,2.25l-0.4 0.96c-0.29,0.72 -0.45,0.71 -0.71,1.11 -0.01,0.02 -0.03,0.05 -0.04,0.07l-0.14 0.24c-0.36,0.4 -0.47,0.08 -0.68,0.67l0.35 0.46 3.47 -2.5c0.48,-0.36 0.75,-0.52 1.28,-0.89 0.58,-0.34 0.07,-0.21 0.37,-0.72l0.25 -0.21c0.32,-0.23 0.37,-0.26 0.49,-0.69 0.16,-0.56 -0.16,0.05 0.36,-0.74l1.53 -2.11c0.35,-0.32 0.38,-0.56 0.4,-1.64 -0.48,-0.21 -0.6,-0.37 -0.46,-0.95 -0.54,0.11 -0.18,-0.02 -0.62,0.27 0.08,-0.3 0.04,-0.14 0.19,-0.35l2.07 -2c1.33,-1.11 4.83,-4.71 5.92,-5.62 0.28,-0.23 0.33,-0.22 0.6,-0.48 0.3,-0.28 0.33,-0.36 0.71,-0.65 0.01,-0.6 0.19,-0.52 0.44,-0.94 0.37,-0.64 0.09,-1.05 0.47,-1.4 0.67,-0.63 0.39,0.38 1.22,-1.06 0.69,-1.19 0.06,0.64 0.25,-0.31 0.01,-0.07 0.13,0.01 0.08,-0.56 -0.01,-0.11 -0.13,-0.3 0.06,-0.54 0.37,-0.49 -0.01,0.05 0.45,-0.36 0.55,-0.49 0.97,-2.13 0.98,-2.97l-0.54 -0.24 -3.32 2.35c-0.65,0.47 -2.93,1.88 -3.2,2.5z"/>
   <path class="fil10" d="M47.11 46.78c0.2,0.01 0.64,0.52 1.63,0.96l4.09 2.43c0.59,0.26 3,1.92 3.35,2.43l0.86 1.06c0.02,0.04 0.03,0.07 0.05,0.11 0,0.01 0.1,0.34 0.1,0.34 0,0 0.33,0.43 -0.32,0.89 0.28,-0.12 0.26,0.24 1.22,0.69 0.02,1.78 -0.46,1.23 -0.99,2.19l-0.36 0.41c-0.03,0.05 -0.1,0.02 -0.13,0.02 -0.76,0.05 -1.37,-0.12 -1.95,-0.53 -0.31,-0.22 -0.47,-0.41 -0.75,-0.58 -0.46,-0.28 -0.7,-0.2 -0.96,-0.67 -0.3,-0.19 -0.71,-0.38 -1.05,-0.6 -1.32,-0.86 -6.99,-4.76 -7.51,-4.88 0.1,0.06 0.02,-0.5 0.08,0.2l-0.12 1.23c0.98,0.6 1.81,1.23 2.85,1.88l5.65 3.86c1.01,0.77 2.16,1.84 2.99,1.62 0.43,-0.13 0.03,0.02 0.31,-0.12 0.48,-0.24 1.45,-1.23 1.93,-1.61 0.4,-0.32 0.75,-0.59 1.14,-0.91 0.4,-0.34 0.64,-0.66 1.06,-1.01 0.48,-0.49 0.96,-0.73 1.32,-1.32 -0.15,-0.21 -0.08,-0.15 -0.3,-0.34l-9.32 -6.3c-1.07,-0.74 -2.15,-1.55 -3.19,-2.18 0.22,-0.18 0.34,-0.18 0.5,-0.44 0.42,-0.01 2.8,1.7 3.29,2.05l9.46 6.43c0.2,0.13 0.03,0.04 0.28,0.17 0.38,-0.21 0.67,-0.42 0.97,-0.72 0.12,-0.12 0.3,-0.31 0.4,-0.41l0.49 -0.57c-0.64,-0.3 -1.16,-0.71 -1.72,-1.09 -0.54,-0.36 -1.05,-0.72 -1.58,-1.09 -0.02,0.03 -0.09,0 -0.1,0.04l-0.2 0.05c-0.02,-0 -0.07,0 -0.1,-0 -0.23,-0.03 -0.28,-0.12 -0.44,-0.23 -0.22,-0.15 -0.5,-0.38 -0.77,-0.47 -0.08,0.5 0.17,0.31 -0.25,0.39 0.69,0.44 0.49,0.26 0.69,0.68 -0.78,-0.29 -9.24,-6.32 -9.62,-6.35 -0.79,-0.06 -2.44,1.8 -2.96,2.29z"/>
   <path class="fil11" d="M68.77 57.04c0.02,0.04 0.08,0.17 0.09,0.21l0.12 0.34c0.01,0.02 0.02,0.06 0.03,0.08 0.29,0.53 1.03,0.71 1.45,1.26 0.31,-0.22 -0.3,-0.52 -1.33,-0.51 0.15,0.49 -0.11,0.34 0.75,0.97 0.75,0.55 2.13,1.37 2.21,2.13l-1.45 -0.62c-1.27,-0.63 -2.59,-1.56 -4.12,-2.03 -0.73,0.49 -2.09,1.74 -2.81,1.99 -0.24,0.31 -3.18,2.59 -3.55,2.75 -0.39,0.42 -0.19,0.01 -0.41,0.62 0.42,0.35 0.58,0.44 1,0.74 0.28,0.2 0.24,0.18 0.49,0.32 0.29,0.17 0.19,0.05 0.47,0.29 0.03,-0.02 0.09,-0.07 0.11,-0.03 0.01,0.03 0.7,0.04 0.84,-0.19 0.18,-0.28 -0.08,0.48 0.03,-0.25 0,-0.01 0,-0.06 0.02,-0.08l7.53 5.12c0.67,0.46 1.92,1.29 2.66,1.59l0.57 -0.49c-1.03,-0.32 -2.84,-1.67 -3.83,-2.39 -0.4,-0.3 -0.82,-0.55 -1.29,-0.88 -0.47,-0.33 -0.81,-0.49 -1.23,-0.81l-3.86 -2.55 0.27 -1.49c0.01,-0.03 0.05,-0.12 0.06,-0.15 0.01,-0.02 0.02,-0.06 0.03,-0.07l0.05 -0.16c0.04,-0.02 0.11,-0.08 0.13,-0.04 0.03,0.04 0.19,-0.05 0.26,-0.07 0.19,-0.05 0.31,-0.08 0.43,-0.11 2.2,-0.64 0.54,-0.43 2.22,-0.37 0.03,0 0.07,-0 0.11,-0 0.03,0 0.07,0 0.11,0.01 0.48,0.07 0.9,0.5 1.47,0.84 0.43,0.25 0.43,0.2 0.67,0.58 0.1,0.07 0.56,0.37 0.76,0.45l0.26 -0c-0.03,0.01 -0.3,-0.6 -0.05,-0.99 0.27,-0.41 -0.17,-0.05 0.28,-0.22 0.47,-0.17 0.96,0.17 1.21,0.33l4.62 2.98c0.6,0.4 0.48,0.16 0.84,0.77 0.49,-0.47 2.16,-1.77 2.81,-2.01l-7.08 -4.72c0.18,-0.12 0.04,-0.03 0.26,-0.09 0.25,-0.07 -0.13,0.16 0.27,-0.05l-0.15 -1.09 -3.48 -2.39c-0.6,0.18 -0.48,0.26 -0.89,0.51z"/>
   <path class="fil12" d="M66.67 100.47l1.3 7.66c0.17,0.81 0.46,1.79 0.46,2.66 0.6,0.13 1.65,0.22 2.58,0 0.08,-0.98 0.37,-2.28 0.51,-3.16l0.56 -2.93 0.97 6.09c1.92,0.16 0.8,0 2.44,0 0.12,-1.46 1.76,-9.37 1.76,-10.32 -0.34,-0.07 -0.4,-0.08 -0.73,-0.08l-1.31 0.08c0,1.29 -0.95,5.47 -0.95,7.06 -0.33,-0.48 -1.22,-6.43 -1.22,-7.06 -1.37,0 -0.66,-0.32 -2.04,0l-1.09 7.33c-0.02,-0.03 -0.05,-0.1 -0.05,-0.08 -0.09,0.28 -0.43,-2.1 -0.45,-2.27l-0.78 -4.91c-0.21,-0.32 0.03,-0.07 -0.94,-0.15 -0.35,-0.03 -0.73,-0.05 -1.04,0.07z"/>
   <path class="fil7" d="M76.31 41.41l-12.13 11.13 -0.49 0.57c-0.1,0.1 -0.27,0.29 -0.4,0.41 -0.3,0.3 -0.59,0.51 -0.97,0.72 -0.26,-0.13 -0.08,-0.04 -0.28,-0.17l-9.46 -6.43c-0.49,-0.36 -2.87,-2.06 -3.29,-2.05 -0.16,0.26 -0.28,0.27 -0.5,0.44 1.04,0.62 2.12,1.44 3.19,2.18l9.32 6.3c0.23,0.19 0.16,0.14 0.3,0.34 -0.35,0.6 -0.84,0.83 -1.32,1.32 0,-0.46 -0.08,-0.06 0.7,0.03 0.39,0.05 1.06,0.01 1.48,0.01l0.05 0.33c-0.13,0.42 -0.12,0.11 -0.18,0.08l0.14 0.54c0.36,-0.24 2.29,-1.87 2.44,-2.17 1.18,-0.9 2.46,-2.22 3.1,-2.72l6.84 -6.08c0.67,-0.67 1.25,-1.11 1.9,-1.76 1.2,-1.21 0.74,-0.65 1.55,-1.3 0.2,-0.16 0.25,-0.24 0.42,-0.39l1.57 -1.3c0.54,-0.51 0.23,-0.11 0.23,-0.44 -0.11,-0.39 -0.15,-0.32 -0,-0.14 -0.54,-0.13 -0.24,-0.16 -0.86,0.25 -0.7,0.45 -0.08,-0.12 -0.74,0.46l-0.48 0.3c-0.54,0.26 -0.13,0.25 -1.04,0.49l-0.54 -0.68c-0.98,0 -0.26,0.06 -0.54,-0.27z"/>
   <path class="fil2" d="M16.11 97.39l3.48 0.06c0.41,2.84 1.12,5.7 1.68,8.47l1.77 8.26 -2.58 -0.02 -0.63 -3.11 -4.02 0.09 -0.6 3.03 -2.62 -0.03 3.52 -16.76zm-4.7 16.94c0,1.34 2.03,0.95 3.8,0.95 1.18,0 1.16,-0.43 1.41,-1.85 0.28,-1.53 0.37,-1.14 2.12,-1.14 0.81,3.47 -0.05,2.99 4.21,2.99 1.11,0 1.29,-0.77 1.11,-1.64l-3.46 -16.37c-0,-0.01 -0.07,-0.28 -0.09,-0.32 -0.09,-0.26 -0.07,-0.17 -0.13,-0.28 -0.15,-0.3 -0.16,-0.05 -0.28,-0.53 -1.09,0 -2.18,0.01 -3.26,-0 -1.52,-0.01 -1.64,0.19 -1.91,1.48l-3.52 16.71z"/>
   <path class="fil9" d="M3.26 112.15c0,-0.71 -0.08,-5.34 0.02,-5.62 0.1,-0.31 3.56,-0.61 4.5,0.42 0.48,0.53 0.65,1.11 0.65,2.07 0.01,3.89 -1.31,3.41 -4.88,3.39l-0.29 -0.26zm0 -12.63c0.65,-0.36 0.57,-0.41 1.62,-0.41 2.66,-0 3.41,0.36 3.42,2.86 0.01,3.35 -1.87,3.29 -4.93,2.99 -0.27,-0.83 -0.11,-4.24 -0.11,-5.43zm4.75 6.11c0.33,-0.77 1.08,-0.37 1.55,-2.74 0.23,-1.19 0.02,-2.94 -0.41,-3.79 -0.87,-1.7 -5,-1.21 -7.52,-1.21l0.01 15.75c5.07,0 9.06,1.19 8.09,-5.41 -0.2,-1.37 -0.21,-1.81 -1.71,-2.6z"/>
   <path class="fil13" d="M92.19 30.62c-0.85,1.07 -1.32,0.93 -1.63,1.69 0.04,0.03 0.1,0.02 0.14,0.08 0.03,0.07 0.09,0.06 0.14,0.07 0.49,0.19 0.22,0.11 0.95,0.11l-0.54 0.27c-0.03,0.47 -0.14,0.57 -0.36,0.9 -0.34,0.53 -0.5,0.5 -0.96,0.89 -0.02,0.02 -0.05,0.05 -0.07,0.07 -0.02,0.02 -0.05,0.05 -0.07,0.07l-1.12 1.01c-0.8,0.71 0.79,-0.52 -0.3,0.18 -0.45,0.29 -0.27,0.29 -0.7,0.63 -0.89,0.7 -0.35,0.51 -0.7,0.86l-0.72 0.64c-0.32,0.49 -0.06,0.31 -0.56,0.57l-0.63 0.61c-0.14,0.29 0.17,-0.06 -0.17,0.28l-0.35 0.27c-0.03,0.02 -0.14,0.08 -0.18,0.11 -1.08,0.79 0.33,0.25 -1.15,1.15l-0.33 0.23c-0.02,0.02 -0.06,0.03 -0.08,0.05 -0.14,0.09 -0.44,0.18 -0.64,0.44 -0.1,0.14 -0.3,-0.51 -0.19,0.53l0.16 0.28c-0.48,0.09 -0.16,0.04 -0.27,0.19l-0.27 0.49 1.63 0.68c-0.07,-0.03 0.15,-0.51 -0.11,0.08l-0.35 0.76c-0.02,0.03 -0.06,0.07 -0.08,0.11 0.02,0.03 0.07,0.04 0.08,0.09 0.01,0.04 0.06,0.07 0.07,0.08 0.01,0.01 0.05,0.05 0.06,0.06 0.33,0.47 0.15,-0.45 -0.09,0.4l-0.25 1.14c0.66,-0.22 0.47,-0.19 0.95,-0.54 0.26,-0.19 0.54,-0.36 0.81,-0.54 0.59,-0.39 1.06,-0.79 1.65,-1.2l2.39 -1.68c0.2,-0.13 0.62,-0.38 0.7,-0.65 0.01,-0.03 0.04,-0.08 0.05,-0.1 0.41,-0.83 0.05,-0.05 -0,-0.87 -0.02,-0.29 0.15,-0.23 0.05,-0.83 -0,-0.03 -0.02,-0.07 -0.02,-0.1l-0.06 -0.31c-0.01,-0.17 1.83,-1.8 2.32,-2.27 0.2,-0.19 0.24,-0.17 0.24,-0.42 -0.49,0.45 -1.54,1.19 -2.17,1.36 0,-0.34 -0.02,-0.77 -0.01,-1.1l0.15 -0.8 0.81 0c0.3,-0.55 0.13,-0.57 0.27,-1.09 0.62,-0.16 0.33,0.06 0.54,-0.14 0,-0.72 -0.03,-0.47 0.41,-0.95l0.96 -0.95c0.67,-0.66 -0.31,-0.33 0.63,-0.84 0.88,-0.47 -0.24,0.5 0.35,-0.32 0.67,-0.92 1,-0.95 1.31,-1.29l0.63 -0.74c0.72,-0.67 0.27,-0.59 0.57,-1.28 0.13,-0.28 1.53,-1.41 1.6,-1.46 0.39,-0.23 0.42,-0.13 0.82,-0.4l1.23 -1.19c0.59,-0.61 0.48,-0.41 0.58,-0.37 -0.22,0.59 -1.09,0.41 -1.9,0.41 0.22,-0.61 -0.19,-0.44 0.41,-0.54 -0.11,0.29 -0.23,0.22 -0.28,0.26l-0.38 0.32c-0.33,0.26 -0.49,0.4 -0.81,0.67 -0.3,0.25 -0.51,0.42 -0.81,0.68l-3.21 2.38c-0.02,0.02 -0.06,0.03 -0.08,0.05 -0.51,0.33 -0.04,0.23 -1.07,0.73z"/>
   <path class="fil2" d="M1.14 97.37c5.89,0.1 9.25,-1.07 8.99,5.01 -0.11,2.61 -1.06,2.19 -1.5,3.23 1.35,0.68 1.64,1.7 1.65,3.69 0.01,2.31 -0.13,4.25 -2.68,4.71 -1.57,0.28 -4.71,0.18 -6.45,0.14l0 -14.35 -0 -2.43zm-1.14 -0.02l0 16.84c0,0.66 0.43,1.09 1.09,1.09 2.87,0 7.19,0.44 8.99,-1.06 0.31,-0.26 0.84,-1 1.01,-1.43 0.39,-0.99 0.83,-6.71 -0.77,-7.28 1.07,-2.02 0.95,-1.99 0.95,-4.48 0,-5.77 -5.43,-4.89 -10.18,-4.89 -0.7,0 -1.09,0.57 -1.09,1.22z"/>
   <path class="fil14" d="M119.89 37.42c-0.26,0.33 -0.27,0.16 -0.57,0.61l0.56 0.09c0.25,-0.3 1.15,-1.03 1.5,-1.19 0.24,0.25 0.56,0.44 0.85,0.66 1.05,0.78 0.71,0.85 0.91,0.57 -0.43,0.29 -0.9,0.71 -1.35,1.08 -1.8,1.5 -1.79,1.19 -2.9,1.98 -0.52,0.37 -0.88,0.65 -1.43,1.02l-5.43 4.31 -0.51 0.34c-0.02,0.02 -0.05,0.04 -0.07,0.06l-9.93 7.33c-0.02,0.02 -0.06,0.04 -0.08,0.06l-1.5 1.08c-0.34,0.27 -0.47,0.37 -0.84,0.51 0.4,1 0.37,0.39 0.85,1.1 0.19,-0.07 -0.08,-0.1 0.22,0.07 0.04,0.03 0.13,0.12 0.31,0.22l3.65 -2.74c0.85,-0.66 2.66,-2.28 3.76,-2.89 1.17,-0.65 3.73,-2.49 4.61,-3.26 1.64,-1.44 6.23,-4.6 8.24,-6.02 0.84,-0.59 3.01,-2.63 3.78,-2.87 1.43,1.32 1.59,3.4 1.8,4.62 0.26,-0.24 -0,-0.03 0.23,-0.36l0.5 -0.55c-0.53,-1.37 -0.87,-3.21 -1.95,-4.41l-0.63 -0.77c-0.19,0.58 0.07,0.05 -0.53,-0.09 -0.67,-0.15 -0.19,-0.01 -0.28,0.03 -0.2,0.08 0.43,0.01 -0.18,0.13 -0.28,-0.48 -1.48,-1.29 -2.08,-1.6 -0.67,0.3 -0.81,0.6 -1.49,0.91z"/>
   <path class="fil4" d="M105.19 105.5c0.62,0.72 1.57,0.35 1.63,3.25 0.12,6.08 -1.73,5.56 -9.31,5.43l0.01 -16.82c1.52,-0.03 3.07,-0.01 4.59,0 3.43,0.03 4.55,0.94 4.46,4.74 -0.06,2.91 -1.03,2.55 -1.38,3.39zm-8.79 -8.42l0 17.11c0,0.66 0.43,1.09 1.09,1.09l6.11 0c4.4,0 4.34,-3.64 4.34,-6.52 0,-1.49 -0.32,-2.79 -1.22,-3.39 0.64,-0.96 0.86,-0.87 0.96,-2.72 0.39,-7.59 -3.87,-6.52 -10.06,-6.52 -0.56,0 -1.22,0.46 -1.22,0.95z"/>
   <path class="fil15" d="M106.58 25.66c-0.18,0.44 0.01,0.13 -0.31,0.51 -0.09,0.11 -0.38,0.29 -0.39,0.62 -0.01,0.29 -0.3,0.19 0.16,0.09 0,1.44 -0.12,1.78 -0.51,2.95 -0.17,0.52 0.06,0.54 -0.58,0.58 0,0.58 -0.1,0.35 0.14,0.41 0.25,0.02 0.03,0.08 0.35,-0.07l13.23 -9.57c0.28,-0.2 0.4,-0.34 0.68,-0.54 2.91,-2.09 5.36,-4.17 8.09,-6.3 0.53,-0.41 1.07,-0.78 1.42,-1.3 -1.06,0.25 -8.53,4.61 -9.83,5.37l-9.76 5.58c-0.54,0.3 -0.77,0.51 -1.36,0.81l-1.07 0.57c-0.26,0.18 -0.2,0.14 -0.25,0.29z"/>
   <path class="fil16" d="M104.76 110.93c-0.5,1.75 -2.31,1.6 -4.3,1.58 -0.9,-0.01 -0.86,-0.03 -0.85,-1.99 0.02,-3.76 -0.49,-4.4 1.43,-4.5 1.47,-0.07 3.44,0.02 3.79,2.01 0.14,0.79 0.15,2.14 -0.07,2.89zm-4.86 -11.59c0.34,-0.29 3.43,-0.71 4.44,0.79 0.33,0.49 1.44,4.94 -2.64,4.99 -0.99,0.01 -1.96,0.31 -2.09,-0.59 -0.09,-0.7 0.01,-2.05 0,-2.83 -0.01,-1.03 -0.2,-1.94 0.29,-2.36zm-1.78 14.23c1.41,0.09 2.97,0.04 4.39,0.03 3.34,-0.03 3.99,-1.36 3.67,-5.37 -0.18,-2.23 -1.2,-1.62 -1.69,-2.73 0.31,-0.84 1.26,-0.79 1.44,-2.59 0.12,-1.16 0.1,-2.91 -0.45,-3.76 -0.62,-0.95 -1.67,-1.19 -3.1,-1.2 -1.26,-0.01 -3.05,-0.1 -4.25,0.02l-0.01 15.59z"/>
   <path class="fil17" d="M114.19 11.03l0.54 0.24c-0.01,0.83 -0.43,2.48 -0.98,2.97 -0.46,0.41 -0.08,-0.14 -0.45,0.36 -0.18,0.24 -0.07,0.43 -0.06,0.54 0.05,0.56 -0.06,0.49 -0.08,0.56 -0.19,0.95 0.44,-0.88 -0.25,0.31 -0.83,1.44 -0.56,0.43 -1.22,1.06 -0.38,0.36 -0.09,0.77 -0.47,1.4 -0.25,0.42 -0.43,0.35 -0.44,0.94 0.24,-0.46 0.78,-0.71 1.19,-1.12 1.81,-1.79 5.07,-4.5 6.58,-6.05l5.58 -5.01c0.02,-0.02 0.05,-0.05 0.07,-0.06l4.87 -4.5c0.53,-0.53 2.32,-2.11 2.48,-2.68 -0.43,0.23 -0.71,0.45 -1.09,0.67 -4.34,2.51 -12.41,7.43 -16.29,10.36z"/>
   <path class="fil18" d="M97.77 56.12c-0.02,-0.01 -0.77,-0.37 -0.01,-0.58 0.41,-0.11 0.59,0.19 0.87,0.34 -0.23,-0.12 -0.63,-0.43 -0.97,-0.64 -0.49,-0.3 -0.76,-0.44 -1.05,-0.87 0.75,-0.48 1.75,-1.22 2.56,-1.78 0.44,-0.3 2.12,-1.71 2.52,-1.68l2.16 -1.78c0.75,-0.55 1.47,-1.06 2.2,-1.6 1.51,-1.11 2.88,-2.1 4.39,-3.21l7.71 -5.6c1.05,-0.69 0.5,-0.65 1.16,-0.7 0.29,-0.45 0.3,-0.28 0.57,-0.61 -0.03,0.23 -0.39,0.41 -0.61,0.45 -0.37,0.06 0.43,0.23 -0.29,-0.03 -0.03,-0.01 -0.06,-0.03 -0.09,-0.04l-0.37 -0.32c-0.09,0.25 -1.54,1.14 -1.89,1.39 -0.98,0.71 -1.45,1.2 -2.32,1.33 0.34,-1.3 -0.16,-0.8 0.86,-1.6 0.44,-0.35 0.77,-0.59 1.24,-0.94 0.46,-0.35 0.85,-0.62 1.27,-0.91l1.18 -0.66c-0.72,0.24 -17.78,12.8 -19.27,13.84l-6.4 4.62c2.02,0.01 3.38,0.72 4.57,1.58z"/>
   <path class="fil19" d="M41.28 75.9c-0.17,-0.18 0.05,-0.1 -0.41,-0.14 0.02,-0.01 0.14,-0.13 0.15,-0.16 0.26,-0.76 0.05,-0.1 -0.02,-0.38l-0.36 -0.06c-0.48,-0.05 -0.54,-0.08 -0.59,0.2 -0.39,0.1 -1.65,1.02 -2,1.28 -1.88,1.4 -4.82,3.24 -6.88,4.53 -0.4,0.25 -0.62,0.32 -1.01,0.61 -0.28,0.21 -0.08,0.1 -0.51,0.33 -0.23,0.12 -0.3,0.15 -0.55,0.27 -1.49,0.74 -1.3,0.79 -2.18,1.1 -0.58,0.21 0.01,-0.03 -0.54,0.24l-1.66 0.78c-2.32,1.18 -6.86,2.18 -9.46,1.62 -0.47,-0.1 -0.9,-0.22 -1.28,-0.39 -0.35,-0.16 -0.77,-0.35 -1.09,-0.57 -2.34,-1.63 -2.52,-5.04 -1.98,-7.62 0.01,-0.05 0.09,-0.29 0.11,-0.34l0.52 -2.52c-0.64,2.26 -2.51,5.06 -1.24,8.64 0.18,0.5 0.22,0.88 0.43,1.33 0.79,1.7 2.48,2.57 4.23,2.81 1.43,0.2 3.8,0.18 5.09,-0.14 0.48,-0.12 0.96,-0.27 1.38,-0.39 2.36,-0.63 2.55,-0.62 4.9,-1.73 0.03,-0.01 0.06,-0.03 0.09,-0.04 4.3,-2.02 5.32,-2.8 8.93,-5.04 1.17,-0.73 5.33,-3.51 5.94,-4.22z"/>
   <path class="fil9" d="M15.75 109.44c-0.27,-0.2 0.15,-2.16 0.23,-2.56l1.54 -6.59c0.15,-0.6 -0.03,-0.86 0.4,-1.03 0.11,0.58 0.31,1.03 0.45,1.65 0.11,0.51 0.21,1.3 0.34,1.84 0.25,1.12 0.48,2.39 0.73,3.6l1.74 7.3 1.09 0c-0.04,-1.14 -0.99,-4.66 -1.2,-6.02l-1.16 -5.92c-0.12,-0.68 -0.28,-1.21 -0.39,-1.91 -0.13,-0.8 -0.21,-1.36 -0.64,-1.9l-2.3 0.01 -2.51 11.82c-0.23,0.95 -0.75,2.96 -0.76,4.05 1.71,-0.44 1.45,0.29 1.68,-1.12 0.46,-2.81 0.21,-1.87 4.93,-2.02 -0.12,-0.62 -0.16,-1.08 -0.37,-1.61 -1.97,0.33 1.21,0.58 -1.76,0.54 -0.68,-0.01 -1.36,-0 -2.04,-0l-0 -0.14z"/>
   <path class="fil20" d="M119.32 38.03c-0.66,0.05 -0.1,0 -1.16,0.7l-7.71 5.6c-1.51,1.11 -2.87,2.11 -4.39,3.21 -0.73,0.53 -1.46,1.04 -2.2,1.6l-2.16 1.78c0.52,0.18 1.09,0.4 1.38,0.25 0.43,-0.22 0.24,-0.14 0.51,-0.52 -0.62,0.52 0.26,0.4 0.27,0.41l0 -1.09 1.09 0c-0,-1.66 0.61,-0.74 1.64,-1.32l1.79 -1.22c0.33,-0.28 0.49,-0.39 0.81,-0.68 1.17,-1.03 1.21,-0.73 1.56,-0.65 0.03,0.01 0.34,0.1 0.37,0.13 0.4,0.32 0.05,0.28 0.49,0.48 0.16,-0.07 0.21,-0.07 0.43,-0.17l5.43 -4.31c0.54,-0.37 0.9,-0.65 1.43,-1.02 1.11,-0.79 1.11,-0.48 2.9,-1.98 0.45,-0.38 0.93,-0.8 1.35,-1.08 -0.2,0.28 0.14,0.22 -0.91,-0.57 -0.3,-0.22 -0.61,-0.4 -0.85,-0.66 -0.35,0.16 -1.25,0.89 -1.5,1.19l-0.56 -0.09z"/>
   <path class="fil12" d="M87.03 100.47c-0.04,0.42 -0.14,0.48 -0.14,0.95l0 8.96c0,0.6 0.63,0.41 2.04,0.41l0 -4.34 1.76 0c0,1.31 -0.15,3.12 0.14,4.34l1.9 0 0 -10.32c-1.05,-0.22 -0.94,-0.02 -1.9,0 -0.28,1.21 -0.14,2.8 -0.14,4.07 -2.24,0 -1.76,0.59 -1.76,-4.07 -1.55,-0.13 -0.07,-0.19 -1.9,0z"/>
   <path class="fil16" d="M144.69 109.54c-0.04,-0.02 -0.09,-0.09 -0.12,-0.05l-0.51 -0.12c-0.23,-0.02 -0.51,0 -0.74,0.01 -0.82,5.17 4.6,4.66 6.24,3.82 1.35,-0.69 1.52,-1.96 1.49,-3.9 -0.06,-4.27 -3.51,-3.25 -5.46,-5.2 -2.06,-2.06 -0.66,-6.52 2.83,-4.97 0.58,0.26 0.98,0.85 1.11,1.53 0.25,1.34 -0.45,1.71 1.22,1.66 0.19,-1.91 0.05,-3.36 -1.21,-4.08 -1.08,-0.62 -3.37,-0.62 -4.5,-0.06 -1.19,0.59 -1.76,1.63 -1.83,3.4 -0.27,6.57 7.29,2.42 6.43,8.88 -0.37,2.81 -3.54,2.58 -4.47,1.28 -0.58,-0.81 -0.29,-1.3 -0.48,-2.18z"/>
   <path class="fil9" d="M54.46 113.64l4.87 0c0.44,0.01 0.86,0.07 1.23,-0.06 0.36,-0.12 0.15,-0.01 0.39,-0.22l0 -0.68c-0.51,-0.43 -1.3,-0.27 -2.17,-0.27 -0.77,0 -1.54,0 -2.31,0 -0.1,-0.18 -0.27,-0.39 -0.41,-0.54 0,-1.62 -0.08,-3.44 -0.02,-5.03 0.02,-0.46 0.1,-0.47 0.48,-0.52 0.36,-0.05 0.93,-0.02 1.3,-0.02l1.91 0.01c0.28,-0.05 -0.04,0.04 0.27,-0.06 0.37,-0.13 0.14,-0 0.4,-0.22l0 -0.68c-0.26,-0.22 -0.01,-0.09 -0.4,-0.22l-3.54 -0.05c-0.62,-1.17 -0.41,-0.66 -0.41,-2.85 0,-2.08 -0.22,-1.74 0.41,-2.85l4.21 -0.05c0.01,-0.65 0.15,-0.64 0.11,-1.44l-6.35 -0.01 0.01 15.75z"/>
   <path class="fil13" d="M144.69 109.54c0.19,0.88 -0.1,1.37 0.48,2.18 0.93,1.3 4.1,1.53 4.47,-1.28 0.86,-6.46 -6.7,-2.31 -6.43,-8.88 0.07,-1.76 0.63,-2.8 1.83,-3.4 1.13,-0.56 3.42,-0.56 4.5,0.06 1.26,0.72 1.41,2.17 1.21,4.08 -1.67,0.05 -0.97,-0.31 -1.22,-1.66 -0.13,-0.68 -0.52,-1.27 -1.11,-1.53 -3.49,-1.54 -4.9,2.91 -2.83,4.97 1.95,1.95 5.41,0.93 5.46,5.2 0.03,1.95 -0.14,3.21 -1.49,3.9 -1.64,0.83 -7.06,1.35 -6.24,-3.82 0.23,-0.01 0.51,-0.03 0.74,-0.01l0.51 0.12c0.02,-0.04 0.08,0.03 0.12,0.05zm-2 -0.81c-0.15,4.13 0.86,5.75 5.11,5.51 1.67,-0.1 2.88,-0.6 3.42,-1.84 0.48,-1.1 0.57,-3.45 0.27,-4.72 -0.69,-2.98 -4.97,-2.48 -5.97,-4.61 -0.62,-1.33 -0.29,-3.29 1.27,-3.55 2.17,-0.36 2.27,1.27 2.27,3.02l2.34 0.01c-0.06,-1.71 0.08,-3.51 -0.93,-4.44 -1.15,-1.05 -6.25,-1.85 -7.5,1.27 -0.44,1.1 -0.52,3.39 -0.09,4.58 0.97,2.73 5.5,2.34 6.08,4.51 0.44,1.64 0.05,3.4 -1.54,3.53 -2.13,0.18 -2.08,-1.41 -2.1,-3.24l-2.64 -0.03z"/>
   <path class="fil16" d="M133.07 113.61c1.1,-0.01 2.18,-0.01 3.25,-0.01 0.94,0 2.7,0.17 3.25,-0.23l0 -0.68c-0.33,-0.22 -0.38,-0.22 -1.08,-0.22 -4.35,-0.01 -3.83,0.73 -3.84,-2.9 -0,-0.77 -0.29,-2.68 0.13,-3.17 0.34,-0.39 3.45,-0.05 4.28,-0.2l0 -1c-1.36,-0.28 -4.06,0.52 -4.37,-0.89 -0.22,-1.01 -0.17,-4.31 0.21,-4.99l4.54 -0.08 0.07 -1.28 -6.39 -0.03 -0.04 15.67z"/>
   <path class="fil21" d="M130.89 80.25c0.26,0.54 0.33,1.12 0.34,1.76 0.03,1.69 -0.36,1.26 0.07,1.48 0.1,0.43 0.08,0.12 0.11,0.14 0,0 0.03,0.01 0.03,0.01 0,0 0.03,0.01 0.04,0 0,-0.01 0.03,-0.01 0.04,-0 -0.28,1.07 -0.33,1.2 -0.91,1.89 -3.72,4.42 -9.13,4.29 -14.49,2.73 -4.03,-1.17 -6.12,-2.51 -9.54,-4.33l-1.66 -1.05c-2.47,-1.86 -2.34,-1.71 -3.02,-0.79 0.65,-0.12 3.01,1.62 4.21,2.32l2.19 1.21c2.97,1.71 8.6,3.9 12.43,4.23 2.78,0.24 7.38,-0.31 9.38,-2.39 1.32,-1.37 1.34,-1.36 2.16,-2.9 1.07,-2.01 0.28,-3.89 -0.23,-5.45 -0.52,-1.57 -0.67,-1.23 -1.11,-2.12 -0.93,-1.47 -4.49,-4.26 -6,-4.62 0.26,0.39 0.49,0.44 0.9,0.73l1.72 1.81c1.19,1.17 2.2,2.55 2.82,4.11l0.49 1.14c0.01,0.02 0.03,0.06 0.05,0.09z"/>
   <path class="fil13" d="M133.11 97.94l6.39 0.03 -0.07 1.28 -4.54 0.08c-0.38,0.69 -0.43,3.98 -0.21,4.99 0.31,1.41 3.01,0.61 4.37,0.89l-0 1c-0.82,0.15 -3.93,-0.19 -4.28,0.2 -0.42,0.48 -0.13,2.4 -0.13,3.17 0.01,3.63 -0.51,2.88 3.84,2.9 0.69,0 0.75,0.01 1.08,0.22l-0 0.68c-0.55,0.4 -2.31,0.23 -3.25,0.23 -1.07,-0.01 -2.15,0 -3.25,0.01l0.04 -15.67zm2.11 3.62c0,-2.31 -0.68,-1.6 4.89,-1.69l0.01 -2.52 -7.64 -0 -0 16.85 7.76 -0.01 -0 -2.35 -4.97 -0c-0.14,-0.87 -0.2,-4.31 0.05,-4.97l4.24 -0.02 -0.05 -2.37 -4.28 -0.06 -0.01 -2.85z"/>
   <path class="fil13" d="M87.3 32.04c-0.41,0.01 -2.44,1.87 -2.75,2.14l-2.74 2.42c-1.64,1.27 -3.79,3.5 -5.51,4.81 0.28,0.33 -0.44,0.27 0.54,0.27l0.54 0.68c0.91,-0.24 0.5,-0.22 1.04,-0.49l0.48 -0.3c0.66,-0.58 0.04,-0.01 0.74,-0.46 0.62,-0.41 0.32,-0.38 0.86,-0.25 -0.15,-0.18 -0.11,-0.25 0,0.14 0.47,-0.19 0.07,0 0.42,-0.24l3.89 -3.43c0.47,-0.36 1.06,-0.84 1.49,-1.25 0.25,-0.24 0.38,-0.33 0.66,-0.55l2.13 -1.94c0.52,-0.41 2.53,-2.06 2.81,-2.51l-0.54 -0.12c-0.46,1.07 -0.59,0.2 -0.95,0.68 -0.43,-0.34 -0.34,0.08 -0.41,-0.54 0.01,0.01 -0.01,0.03 -0.01,0.05l-0.06 0.12c-0.38,0.37 -0.51,0.06 -1.42,0.5 -0.57,0.27 0.2,0.05 -0.41,0.09 -0.64,0.04 0.05,0.03 -0.81,0.2z"/>
   <path class="fil22" d="M63.95 40.33c-0.48,0.27 -0.13,0.16 -0.27,-0.27 0.36,-0.14 0.31,-0.14 0.81,-0.14 -0.06,0.02 -0.08,0.35 -0.19,-0.15 -0.08,-0.36 0.03,-0.36 0.06,-0.4l-4.45 -6.3c-0.93,-1.38 -3.48,-4.04 -4.45,-5.31 -1.32,-1.73 -1.21,-1.37 -2.6,-2.81 -0.41,-0.43 -0.56,-0.71 -1.01,-1.16l-2.17 -2.17c-0.46,-0.47 -0.78,-0.64 -1.23,-1.08l-8.36 -6.82c-0.49,-0.38 -0.74,-0.73 -1.24,-1.06 -0.89,-0.6 -1.74,-1.15 -2.58,-1.77 -0.3,-0.22 -7.08,-4.61 -7.39,-4.54 -0.01,0 -0.05,0.02 -0.06,0.03l2.33 1.71c1.38,0.82 6.38,4.41 7.59,5.47 0.78,0.68 1.65,1.25 2.38,1.98l2.41 1.92c0.85,0.64 1.46,1.41 2.28,2.06 0.37,0.29 0.79,0.62 1.21,0.97l5.37 5.36c0.42,0.42 0.68,0.64 1.06,1.15l1.99 2.32c0.43,0.44 0.67,0.64 1.05,1.13l3.88 4.81c0.22,0.29 0.29,0.37 0.46,0.63l2.28 3.15c0.3,0.48 0.44,0.96 0.84,1.3z"/>
   <path class="fil20" d="M52.95 56.52c0.26,0.47 0.5,0.39 0.96,0.67 0.28,0.17 0.44,0.36 0.75,0.58 0.58,0.41 1.2,0.58 1.95,0.53 0.03,-0 0.11,0.02 0.13,-0.02l0.36 -0.41c0.53,-0.96 1.01,-0.4 0.99,-2.19 -0.96,-0.45 -0.93,-0.81 -1.22,-0.69 0.65,-0.46 0.32,-0.89 0.32,-0.89 -0,-0.01 -0.1,-0.33 -0.1,-0.34 -0.02,-0.04 -0.03,-0.07 -0.05,-0.11l-0.86 -1.06c-0.35,-0.5 -2.76,-2.17 -3.35,-2.43l-4.09 -2.43c-0.99,-0.44 -1.44,-0.95 -1.63,-0.96l-0.88 0.59c-0.61,0.33 0.41,-0.45 -0.11,0.08 -0.03,0.03 -0.02,0.16 -0.46,0.31 1.05,0.72 0.51,-0.15 1.1,0.53l0.13 0.39c0.01,0.1 -0.12,0.13 0.37,0.4 0.76,0.43 6.71,4.15 6.65,4.44 -0,0.01 -0.01,0.05 -0.01,0.06 -0.01,0.03 -0.03,0.11 -0.04,0.15 -0.02,0.08 -0.04,0.09 -0.06,0.31 -0.03,0.29 0,0.48 0.02,0.75l-0.05 1.53 -0.82 0.19z"/>
   <path class="fil23" d="M17.73 100.96c0.26,0.28 0.29,0.39 0.37,0.87l1.3 7.07 -3.26 0.06c0.03,-1.39 1.19,-6.62 1.59,-8zm-1.98 8.48l0 0.14c0.68,0 1.36,-0.01 2.04,0 2.97,0.04 -0.21,-0.22 1.76,-0.54 0.21,0.54 0.25,0.99 0.37,1.61 -4.72,0.15 -4.47,-0.79 -4.93,2.02 -0.23,1.41 0.03,0.68 -1.68,1.12 0.01,-1.09 0.52,-3.1 0.76,-4.05l2.51 -11.82 2.3 -0.01c0.43,0.53 0.51,1.09 0.64,1.9 0.11,0.7 0.27,1.23 0.39,1.91l1.16 5.92c0.22,1.36 1.16,4.88 1.2,6.02l-1.09 0 -1.74 -7.3c-0.25,-1.21 -0.48,-2.48 -0.73,-3.6 -0.12,-0.55 -0.22,-1.33 -0.34,-1.84 -0.14,-0.62 -0.34,-1.07 -0.45,-1.65 -0.42,0.17 -0.25,0.43 -0.4,1.03l-1.54 6.59c-0.08,0.4 -0.5,2.36 -0.23,2.56zm-3.17 4.71l2.62 0.03 0.6 -3.03 4.02 -0.09 0.63 3.11 2.58 0.02 -1.77 -8.26c-0.56,-2.77 -1.27,-5.63 -1.68,-8.47l-3.48 -0.06 -3.52 16.76z"/>
   <path class="fil16" d="M113.92 105.58c-0.73,-0.11 -2.43,-6.66 -2.68,-7.62l-1.8 -0.04c0.28,2.3 3.87,8.97 3.88,10.83 0.01,1.58 0.03,3.29 -0.05,4.85l1.46 0.02c0.07,-7.2 -0.57,-3.85 1.16,-8.5 0.54,-1.45 2.51,-6 2.63,-7.18l-1.51 0.05c-0.27,1.3 -0.89,2.83 -1.31,4.17 -0.34,1.08 -0.7,3.28 -1.78,3.42z"/>
   <path class="fil13" d="M109.44 97.92l1.8 0.04c0.25,0.96 1.95,7.51 2.68,7.62 1.08,-0.15 1.43,-2.34 1.78,-3.42 0.42,-1.33 1.04,-2.86 1.31,-4.17l1.51 -0.05c-0.12,1.18 -2.09,5.73 -2.63,7.18 -1.73,4.65 -1.09,1.3 -1.16,8.5l-1.46 -0.02c0.08,-1.56 0.06,-3.27 0.05,-4.85 -0.01,-1.86 -3.59,-8.53 -3.88,-10.83zm3.16 16.26l2.78 0.01c-0.02,-1.73 -0.02,-3.45 -0.02,-5.17 -0.01,-1.57 0.77,-2.76 1.26,-4.08 0.91,-2.42 2.14,-5.14 2.89,-7.59l-2.97 0.01c-0.29,1.09 -2.07,7.1 -2.47,7.59 -0.53,-1.18 -0.84,-2.52 -1.26,-3.78 -0.32,-0.97 -0.78,-3.02 -1.19,-3.81l-3.2 -0c0.87,2.46 2,4.96 2.96,7.45 0.48,1.26 1.26,2.61 1.27,4.09 0.01,1.69 0.07,3.63 -0.04,5.29z"/>
   <path class="fil24" d="M96.01 62.02c0.46,0.81 0.82,1.24 1.22,2.34 0.35,0.95 0.67,1.7 0.6,2.88 -0.49,-0.87 -0.19,-0.12 -1.14,0.54 -1.03,0.71 -0.16,1.08 -0.83,1.75 -0.32,-1.82 -0.77,-3.97 -1.79,-5.42 -0.24,-0.34 -0.22,0 -0.23,-0.44 -0.03,-0.87 0.34,0.3 2.17,-1.64zm-5.49 -1.87l0.27 0.19c-0.44,0.15 -0.19,-0.36 -0.35,0.22 0.25,0.15 1.17,0.69 0.93,1.04 0.01,0.78 0.06,0.13 1,1.5 0.61,0.89 1.14,0.99 1.99,3.07 0.34,0.84 0.7,1.86 0.83,2.83 0.08,0.58 0.11,1.15 -0.07,1.78 -0.13,0.43 -0.08,0.25 -0.32,0.66l-0.42 0.8c0.76,-0.2 0.7,-0.36 0.92,-0.57l0.3 -0.23c0.03,-0.02 0.06,-0.03 0.09,-0.05l2.52 -1.98c0.43,-0.47 0.06,0.16 0.41,-0.43 0.65,-1.12 -0.56,-4.91 -1.21,-5.92 -0.36,-0.55 -0.6,-0.91 -0.93,-1.51l-1.1 -1.5 -0.1 -0.13c-0.22,0.2 -0.48,-0.37 -0.27,0.54 -0.29,-0.41 -0.69,-0.69 -1.11,-1.06 -0.45,-0.4 -0.82,-0.83 -1.34,-0.38l-0.09 -0.36c-0.43,0.23 -0.57,0.43 -0.92,0.72l-1.03 0.78z"/>
   <path class="fil9" d="M33.8 99.25c4.05,0 3.13,-1.47 3.13,7.06 0,2.44 -0.03,4.89 0.01,7.33l1.62 0 -0.01 -14.26 3.22 -0.04 -0.01 -1.31c-1.08,-0.3 -6.94,-0.15 -7.92,-0.13l-0.03 1.35z"/>
   <path class="fil18" d="M54.45 97.9l6.35 0.01c0.04,0.8 -0.09,0.79 -0.11,1.44l-4.21 0.05c-0.63,1.11 -0.41,0.78 -0.41,2.85 0,2.19 -0.21,1.68 0.41,2.85l3.54 0.05c0.39,0.12 0.13,-0 0.4,0.22l0 0.68c-0.26,0.21 -0.02,0.09 -0.4,0.22 -0.31,0.11 0.01,0.02 -0.27,0.06l-1.91 -0.01c-0.38,-0 -0.95,-0.03 -1.3,0.02 -0.38,0.05 -0.46,0.06 -0.48,0.52 -0.06,1.59 0.02,3.41 0.02,5.03 0.14,0.16 0.31,0.36 0.41,0.54 0.77,0 1.54,0 2.31,0 0.87,-0 1.66,-0.15 2.17,0.27l-0 0.68c-0.25,0.2 -0.04,0.09 -0.39,0.22 -0.37,0.13 -0.79,0.06 -1.23,0.06l-4.87 -0 -0.01 -15.75zm6.77 1.96l0.02 -2.47 -7.26 0.02 0.01 16.74 7.37 0.01 0.03 -2.29 -4.67 -0.04c-0.26,-0.49 -0.2,-4.17 -0.09,-4.65 0.01,-0.03 0.04,-0.05 0.04,-0.11 0.04,-0.41 3.78,-0.22 4.25,-0.22l-0.02 -2.34 -4.3 -0.07c-0.09,-1.06 -0.19,-3.58 0.04,-4.45l4.57 -0.13z"/>
   <path class="fil9" d="M23.63 99.36l2.85 0c0.06,0.86 0.27,0.1 0.28,1.24l-0.01 13.18 1.48 0c0.04,-1.93 -0.28,-13.55 0.28,-14.39 0.83,-0.05 1.91,0.07 2.57,-0.14 0.02,-0.04 0.04,-0.14 0.05,-0.13 0.01,0.02 0.03,-0.09 0.04,-0.13 0.01,-0.04 0.02,-0.08 0.03,-0.13 0.01,-0.05 0.02,-0.08 0.02,-0.14 0.03,-0.22 0.01,-0.58 0.01,-0.81l-7.6 -0.02 0 1.46z"/>
   <path class="fil16" d="M121.96 99.24l3.38 -0.01c0.1,1.16 -0.3,-0.4 -0.43,1.22l0.05 13.12 1.57 0.03c-0.01,-1.84 -0.18,-13.58 0.1,-14.26l2.92 -0.1 0.09 -1.3 -7.62 0 -0.07 1.29z"/>
   <path class="fil9" d="M44.81 113.64l4.89 0c0.73,0.01 0.98,0.09 1.49,-0.27l-0.03 -0.68c-0.23,-0.2 -0.03,-0.09 -0.37,-0.21l-0.81 -0.07c-4.35,0.07 -3.53,0.71 -3.53,-4.74 0,-3.26 0,-6.52 0,-9.78l-1.63 0 -0 15.75z"/>
   <path class="fil13" d="M126.54 113.61l-1.57 -0.03 -0.05 -13.12c0.13,-1.63 0.52,-0.06 0.43,-1.22l-3.38 0.01 0.07 -1.29 7.62 -0 -0.09 1.3 -2.92 0.1c-0.28,0.68 -0.11,12.42 -0.1,14.26zm-5.13 -13.71c0.96,-0 2,-0.16 2.91,0.06l0.01 14.23 2.86 -0 -0.03 -14.29 3.03 -0.02 0.04 -2.54 -8.82 0.01 -0 2.54z"/>
   <path class="fil25" d="M91.92 31.08c-0.29,0.46 -2.3,2.11 -2.81,2.51l-2.13 1.94c-0.28,0.22 -0.41,0.31 -0.66,0.55 -0.42,0.41 -1.02,0.88 -1.49,1.25l-3.89 3.43c-0.36,0.24 0.05,0.05 -0.42,0.24 -0.01,0.33 0.31,-0.07 -0.23,0.44l-1.57 1.3c-0.17,0.15 -0.23,0.23 -0.42,0.39 -0.8,0.65 -0.35,0.09 -1.55,1.3 -0.65,0.66 -1.23,1.09 -1.9,1.76l-6.84 6.08c-0.65,0.49 -1.92,1.81 -3.1,2.72 -0.57,0 -0.39,0.89 -0.54,1.49 0.69,0 0.25,0.04 0.41,-0.13l11.58 -10.29c0.17,-0.15 0.18,-0.17 0.37,-0.32l1.3 -1.15c0.34,-0.26 0.59,-0.46 0.84,-0.66l5.35 -4.96c0.02,-0.02 0.06,-0.04 0.08,-0.06 0.02,-0.02 0.05,-0.04 0.08,-0.06l2.58 -2.43c0.36,-0.32 0.51,-0.4 0.88,-0.75 0.3,-0.28 0.51,-0.41 0.83,-0.68l2.6 -2.14 0.54 -0.27c-0.73,0 -0.46,0.07 -0.95,-0.11 -0.04,-0.02 -0.1,-0.01 -0.14,-0.07 -0.03,-0.07 -0.09,-0.05 -0.14,-0.08 0.31,-0.77 0.78,-0.62 1.63,-1.69 0.14,0.36 0.17,0.23 -0.27,0.46z"/>
   <path class="fil26" d="M54.45 63.95c-0.61,0.39 -0.95,0.74 -1.45,1.14 -0.02,0.02 -0.05,0.04 -0.08,0.06l-0.61 0.61c-0.26,0.27 -0.43,0.43 -0.72,0.37 -0.3,0.73 -0.46,0.52 -1.32,1.39 -0.47,0.47 -0.91,0.75 -1.43,1.17 -0.63,0.51 -0.94,0.86 -1.49,1.12 -0.75,0.35 -3.75,2.71 -4.43,3.27 -0.89,0.73 -2.48,1.66 -2.87,2.28 0.04,-0.28 0.11,-0.25 0.59,-0.2l0.36 0.06c0.07,0.29 0.27,-0.38 0.02,0.38 -0.01,0.03 -0.13,0.15 -0.15,0.16 0.46,0.03 0.24,-0.04 0.41,0.14l9.4 -7.44c0.44,-0.38 0.32,-0.34 1.06,-0.43 -0.32,1.25 -0.14,0.95 0,1.63l0.95 0.14 2.73 -2.03c0.5,-0.43 0.25,-0.08 0.26,-0.41 0.11,0.23 0.39,-0.09 -0.27,0.14 -0.14,-0.18 -0.5,-0.14 -0.81,-0.41 0,-1.08 0.15,-0.93 0.62,-1.53 0.02,-0.02 0.04,-0.05 0.06,-0.07 0.03,-0.05 0.12,-0.18 0.16,-0.25l0.11 -0.18c-0,0.23 0.04,0.15 -0.27,-0 -0.17,0 -0.18,-0.16 -0.27,0.14l0.04 -0.26c0.07,-0.97 -0.15,-1.13 -0.45,-1.37 -0.22,0.29 -0.24,0.06 -0.14,0.41z"/>
   <path class="fil13" d="M98.13 97.97c1.2,-0.12 2.99,-0.03 4.25,-0.02 1.44,0.01 2.48,0.25 3.1,1.2 0.56,0.85 0.57,2.6 0.45,3.76 -0.18,1.8 -1.14,1.75 -1.44,2.59 0.49,1.1 1.52,0.5 1.69,2.73 0.32,4.01 -0.33,5.34 -3.67,5.37 -1.42,0.01 -2.98,0.07 -4.39,-0.03l0.01 -15.59zm7.06 7.53c0.35,-0.84 1.31,-0.48 1.38,-3.39 0.09,-3.81 -1.03,-4.72 -4.46,-4.74 -1.52,-0.01 -3.07,-0.03 -4.59,-0l-0.01 16.82c7.57,0.13 9.43,0.64 9.31,-5.43 -0.06,-2.91 -1.01,-2.54 -1.63,-3.25z"/>
   <path class="fil27" d="M129.67 65.99c0.01,-0.01 0.04,0.02 0.04,0.04l-0.04 -0.04zm5.43 -6.89l-3.02 3.19c-0.77,0.77 -2.59,2.4 -3.09,3.16 0.22,0.11 -0.25,0.14 0.41,0l-0.71 0.79c0.51,0.22 0.13,-0.07 0.43,0.57 -0.59,0.24 -0.34,-0.34 -0.41,0.41 1,-0.27 0.99,-0.98 2.2,-1.44l4.84 -3.99c0.54,-0.97 2.46,-1.97 2.7,-3.36 -0.55,0.1 -0.66,0.07 -0.67,0.41 0.34,-0.34 2.91,-4.1 3.12,-4.79 -0.85,0.27 -0.43,0.32 -1.5,1.6 -0.24,0.29 -1.13,1.3 -1.06,1.52 0.42,-0.18 0.28,-0.27 0.4,-0.66 -0.48,0.07 -0.67,-0.02 -1.12,0.77l-0.08 0.3c0.34,-0.13 0.21,-0.24 0.27,-0.67 -1.26,0.41 -0.18,0.48 -0.94,0.23 -0.42,0.41 -0.56,0.45 -0.89,0.91 -0.28,0.4 -0.59,0.7 -0.88,1.05z"/>
   <path class="fil0" d="M80.79 100.47c0,2 -0.38,1.77 1.9,1.77l0 8.55c0.61,0.01 0.44,0.12 0.94,0.11 0.36,-0.01 0.4,-0.11 0.96,-0.11l0.14 -3.53c0,-1.85 -0.14,-3.19 -0.14,-5.02 1.91,0 1.63,0.27 1.63,-1.49 0,-0.54 -0.51,-0.44 -1.09,-0.42 -0.22,0.01 -0.43,0.03 -0.64,0.04l-2.78 -0.02c-0.43,-0.01 -0.62,0 -0.93,0.12z"/>
   <path class="fil23" d="M23.63 97.89l7.6 0.02c0,0.22 0.02,0.59 -0.01,0.81 -0.01,0.06 -0.01,0.09 -0.02,0.14 -0.01,0.05 -0.02,0.09 -0.03,0.13 -0.01,0.04 -0.03,0.15 -0.04,0.13 -0.01,-0.02 -0.03,0.09 -0.05,0.13 -0.66,0.21 -1.74,0.08 -2.57,0.14 -0.56,0.84 -0.24,12.47 -0.28,14.39l-1.48 -0 0.01 -13.18c-0.01,-1.14 -0.22,-0.38 -0.28,-1.24l-2.85 -0 -0 -1.46zm-0.53 1.97l2.7 0.04c0.27,0.07 0.2,0.05 0.35,0.15l0.06 14.11 2.53 -0.01 -0 -14.26 2.94 -0.04 0.05 -2.44 -8.62 -0.02 -0.01 2.47z"/>
   <path class="fil23" d="M36.94 113.64c-0.04,-2.44 -0.01,-4.89 -0.01,-7.33 0,-8.53 0.92,-7.06 -3.13,-7.06l0.03 -1.35c0.97,-0.02 6.84,-0.16 7.92,0.13l0.01 1.31 -3.22 0.04 0.01 14.26 -1.62 -0zm5.3 -16.26c-1.89,0.09 -3.95,0.02 -5.86,0.02 -3.44,-0.01 -3.07,-0.28 -3.05,1.17 0.01,0.43 -0,0.85 0.01,1.29l3.09 0.03 0 14.28 2.59 -0.02 0.01 -14.31 3.18 0.04 0.02 -2.5z"/>
   <path class="fil18" d="M44.81 97.9l1.63 -0c0,3.26 0,6.52 0,9.78 0,5.45 -0.82,4.81 3.53,4.74l0.81 0.07c0.34,0.12 0.14,0.01 0.37,0.21l0.03 0.68c-0.51,0.36 -0.75,0.29 -1.49,0.27l-4.89 -0 0 -15.75zm-0.5 16.27l7.29 -0 0.03 -2.32 -4.49 0.02c-0.3,-0.87 -0.2,-12.8 -0.09,-14.47l-2.76 -0.02 0.03 16.79z"/>
   <path class="fil20" d="M45.76 44.25c-0.34,-0.11 -0.27,-0.08 -0.59,-0.22 0.21,-0.6 -0.04,0.04 0.22,-0.4 0.21,-0.35 0.03,0.05 0.25,-0.39 -1.02,0.35 -0.29,0.68 -1.6,0.01 -0.49,-0.25 -1.29,-0.39 -1.64,-0.73 -0.68,0.3 -1.09,1.05 -1.6,1.94 -0.34,0.59 -1.06,1.72 -1.11,2.48 0.21,-0.65 0.57,-1.17 1.05,-1.54 0.61,0.1 1.13,0.61 1.66,1l0.45 0.38c0.02,0.01 0.05,0.05 0.07,0.07 -0.29,0.53 -0.65,1.05 -0.99,1.71 -0.33,0.65 -0.53,1.39 -0.92,1.99 -0.03,-0.02 -0.08,-0.09 -0.09,-0.06 -0.03,0.06 -0.83,-0.82 -1.09,-0.68 -0.29,0.15 -0.01,0.02 -0.12,0.14 -0.01,0.01 -0.1,0.42 -0.49,0.02 -0.26,-0.26 -0.01,-1.35 -0.09,-2.16l-0.02 -0.12c-1.52,3.73 -0.38,3.49 1.17,4.64 0.86,0.64 1.03,1.17 1.99,1.33 -0.1,-0.09 -0.15,0 -0.44,-0.44 -0.36,-0.55 -0.22,-1.66 -0.11,-2.26 0.19,-1.01 0.55,-1.72 0.95,-2.58 0.84,-1.79 2.45,-2.88 3.1,-4.14z"/>
   <path class="fil28" d="M78.07 31.64c0.83,-0.56 1.93,-2.11 2.75,-2.95 2.33,-2.39 3.92,-6.06 5.13,-9.13l0.81 -2.04c-0.42,0.28 -0.36,0.32 -0.66,0.7l-2.09 2.26c-1.59,1.94 -2.24,3.12 -3.44,5.11 -0.62,1.03 -2.43,5.2 -2.5,6.05z"/>
   <path class="fil23" d="M8.01 105.63c1.5,0.78 1.51,1.22 1.71,2.6 0.97,6.61 -3.01,5.41 -8.09,5.41l-0.01 -15.75c2.52,0 6.65,-0.49 7.52,1.21 0.43,0.85 0.65,2.6 0.41,3.79 -0.47,2.37 -1.22,1.97 -1.55,2.74zm-6.87 -5.84l-0 14.35c1.74,0.04 4.88,0.14 6.45,-0.14 2.55,-0.46 2.69,-2.39 2.68,-4.71 -0,-1.99 -0.29,-3.01 -1.65,-3.69 0.44,-1.03 1.39,-0.61 1.5,-3.23 0.26,-6.09 -3.1,-4.92 -8.99,-5.01l0 2.43z"/>
   <path class="fil17" d="M101.91 28.24c-0.14,0.58 -0.02,0.75 0.46,0.95 -0.02,1.07 -0.05,1.32 -0.4,1.64l-1.53 2.11c-0.51,0.79 -0.2,0.19 -0.36,0.74 -0.12,0.42 -0.18,0.46 -0.49,0.69l-0.25 0.21c-0.3,0.51 0.2,0.38 -0.37,0.72l5.35 -3.74c0.22,-0.14 0.19,-0.1 0.39,-0.29 0.02,-0.02 0.05,-0.05 0.07,-0.07 0.02,-0.03 0.05,-0.06 0.07,-0.08 0.21,-0.24 -0.03,0.1 0.22,-0.3 -0.23,-0.06 -0.14,0.18 -0.14,-0.41 0.64,-0.04 0.41,-0.06 0.58,-0.58 0.38,-1.17 0.51,-1.51 0.51,-2.95 -0.46,0.09 -0.17,0.2 -0.16,-0.09 0.01,-0.33 0.3,-0.51 0.39,-0.62 0.33,-0.38 0.13,-0.08 0.31,-0.51 -0.48,0.08 -4.36,2.1 -4.67,2.58z"/>
   <path class="fil6" d="M92.46 22.27c1.14,-0.3 5.67,-4.74 6.3,-5.65 0.82,-1.17 1.44,-2.53 2.16,-3.82l2.13 -3.85c-0.45,0.12 -0.28,0.18 -0.78,0.71 -0.14,0.15 -0.2,0.19 -0.34,0.34 -1.12,1.21 -2.19,2.09 -3.29,3.5 -2.22,2.85 -2.76,3.17 -5.03,6.92l-1.16 1.82z"/>
   <path class="fil20" d="M73.48 71.24c0.34,-0.17 0.37,-0.13 0.65,-0.5l-2.19 -1.34c-0.72,-0.47 -1.38,-0.91 -2.04,-1.36 -0.72,-0.49 -1.27,-1.02 -1.93,-1.46 -0.69,-0.47 -1.67,-0.87 -2.13,-1.44 0.5,-0.12 0.52,-0.15 1.19,-0.15l-0.11 -0.66c-0.01,-0.03 -0.72,-0.45 0.55,-0.43l0.73 0.14c0.42,-0.45 0.08,-0.41 0.88,-0.49 -0.24,-0.38 -0.24,-0.32 -0.67,-0.58 -0.56,-0.33 -0.99,-0.77 -1.47,-0.84 -0.03,-0 -0.07,-0 -0.11,-0.01 -0.03,-0 -0.07,0 -0.11,0 -1.68,-0.06 -0.02,-0.27 -2.22,0.37 -0.11,0.03 -0.24,0.06 -0.43,0.11 -0.07,0.02 -0.23,0.11 -0.26,0.07 -0.03,-0.04 -0.09,0.02 -0.13,0.04l-0.05 0.16c-0.01,0.02 -0.02,0.06 -0.03,0.07 -0.01,0.03 -0.05,0.11 -0.06,0.15l-0.27 1.49 3.86 2.55c0.42,0.32 0.76,0.48 1.23,0.81 0.47,0.33 0.89,0.58 1.29,0.88 0.98,0.72 2.8,2.07 3.83,2.39z"/>
   <path class="fil23" d="M72.24 75.68c-1.1,1.23 -2.5,2.05 -3.9,3.12 -5.29,4.06 -4.92,3.5 -9.17,8.48 -0.53,0.62 -1.21,1.17 -1.7,1.78 0.55,-0.56 1.29,-1.19 1.92,-1.69 1.52,-1.2 2.61,-2.32 3.93,-3.41 1.67,-1.38 1.39,-0.81 2.24,-1.42 1.41,-1.01 2.89,-2.02 4.23,-3.1 0.9,-0.72 3.68,-2.52 4.15,-3.13 -0.21,-0.52 -0.61,-0.81 -1.15,-1.03 -0.31,0.42 -0.07,0.23 -0.56,0.4z"/>
   <path class="fil26" d="M64.36 39.38c-0.02,0.04 -0.14,0.04 -0.06,0.4 0.11,0.49 0.13,0.17 0.19,0.15 -0.51,0 -0.45,0 -0.81,0.14 0.14,0.43 -0.21,0.54 0.27,0.27l0.5 0.89c0.35,0.55 0.35,0.37 0.45,1.15 -0.74,-0.26 -0.28,0.23 -0.68,-0.54 -0.02,0.04 -0.07,0.09 -0.09,0.11l-0.99 0.7c1,0.45 3.26,2.97 4.07,2.99 0,0.33 0.04,-0.01 -0.14,0.13 0.04,-0.05 0.09,-0.15 0.12,-0.12 0.02,0.02 0.1,-0.11 0.22,-0.21 0.23,-0.2 0.05,0.01 0.32,-0.25l1.06 -1.93c0.01,-0.01 0.03,-0.04 0.04,-0.06 0.13,-0.52 0.04,-0.37 -0.5,-1.26 -0.26,-0.44 -0.47,-0.79 -0.72,-1.18l-1.36 -2.31 -0.29 0.21c-0.2,0.27 -0.12,2.13 -0.12,2.5 -0.78,-0.27 -0.14,0.18 -0.68,-0.46l-0.82 -1.31z"/>
   <path class="fil29" d="M37.34 24.03c-0.84,-1.26 -5.84,-5.4 -7.74,-6.66l-3.03 -1.86c-0.92,-0.51 -3.41,-2 -4.3,-2.21 1.36,2.03 8.82,6.95 10.94,8.34 0.67,0.44 3.54,2.25 4.13,2.39z"/>
   <polygon class="fil0" points="78.21,110.79 80.11,110.79 80.11,100.47 78.21,100.47 "/>
   <path class="fil30" d="M35.71 40.3l0.61 -0.76c-1.53,-0.8 -6.95,-4.54 -8.72,-5.75 -0.63,-0.43 -8.16,-5.74 -8.69,-5.75 -0.57,0.71 -0.12,0.68 1.3,1.72 3.79,2.79 7.33,4.89 11.04,7.55 0.75,0.54 1.39,0.95 2.19,1.47 0.77,0.51 1.5,1.11 2.27,1.51z"/>
   <path class="fil31" d="M82.98 69.82l-0.21 -0.52 0.52 0.1c0.45,0.14 -0.03,0.16 0.14,0.08 -0.41,-0.65 -0.7,-0.89 -1.26,-1.42 -0.27,-0.13 -0.1,-0.04 -0.3,-0.17 -0.1,-0.07 -0.17,-0.11 -0.24,-0.17 -0.22,-0.18 -0.31,-0.27 -0.44,-0.53l4.82 -3.47c0.58,-0.38 1.27,-0.86 1.58,-1.31 -2.42,-0.46 -0.98,-1.38 -5,1.57l-4.65 3.32c2.27,-0.41 4.26,1.53 5.04,2.51z"/>
   <path class="fil31" d="M42.39 42.51c0.35,0.35 1.16,0.48 1.64,0.73 1.31,0.67 0.57,0.34 1.6,-0.01 -0.22,0.44 -0.04,0.04 -0.25,0.39 -0.27,0.44 -0.01,-0.2 -0.22,0.4 0.32,0.15 0.25,0.11 0.59,0.22 0.43,-0.52 1.24,-1.13 1.9,-1.62 0.75,-0.56 1.49,-0.98 2.7,-1.1 -0.68,-0.41 -1.39,-0.56 -2.06,-1.03 -2.03,-1.42 -2.57,-0.75 -4.18,0.5 -0.3,0.24 -0.6,0.47 -0.91,0.72 -0.39,0.31 -0.41,0.42 -0.82,0.79z"/>
   <path class="fil8" d="M76.47 75.16c0.27,0.73 0.62,1.03 0.87,2.05 0.27,1.09 -0.07,1.57 -0.63,2.09 -0.75,0.02 -1.5,-0.18 -1.86,0.26 0.13,0.4 0.3,0.39 0.91,0.36 1.36,-0.07 1.61,-0.88 2.2,-1.42l3.62 -2.62c0.02,-0.02 0.06,-0.04 0.08,-0.06l0.3 -0.25c0.42,-0.45 0.43,-0.66 0.37,-1.05 -0.1,-0.66 -0.23,-0.57 -0.46,-0.41l-2.25 1.58c-0.57,0.4 -0.81,0.91 -1.6,1.09 -0.12,-0.63 -0.34,-1.22 -0.42,-1.7 0.03,-0.03 0.07,-0.06 0.09,-0.07 0.02,-0.02 0.06,-0.05 0.09,-0.07 0.03,-0.02 0.15,-0.1 0.19,-0.12 1.63,-0.92 1.09,-0.68 2.57,-2.02 0.31,-0.28 0.67,-0.36 0.89,-0.7 -0.14,-0.48 -0.05,-0.41 -0.44,-0.63 -0.06,-0.17 0.11,0.04 -0.2,-0.12 -1.17,0.72 -3.44,2.29 -4.15,3.52l-0.16 0.3z"/>
   <path class="fil27" d="M82.17 68.07l0.9 0.14c0.95,0.57 -0.6,-0.08 0.31,0.22 0.54,-0.67 3.19,-2.12 5.33,-4.43l0.34 -0.32c-0.22,-0.28 -0.38,-0.38 -0.66,-0.67 -0.23,-0.24 -0.36,-0.42 -0.81,-0.59 -0.31,0.45 -0.99,0.92 -1.58,1.31l-4.82 3.47c0.13,0.26 0.23,0.35 0.44,0.53 0.08,0.06 0.14,0.11 0.24,0.17 0.2,0.13 0.03,0.03 0.3,0.17z"/>
   <path class="fil29" d="M53.36 18.6c-1.2,-1.79 -4.29,-5.79 -6.08,-7.36 -0.98,-0.87 -5.05,-4.16 -6.14,-4.45 0.19,0.69 1.5,1.59 2.13,2.35 2.38,2.85 5.61,5.53 8.29,8.14 0.35,0.34 1.36,1.2 1.8,1.32z"/>
   <path class="fil24" d="M94.5 73.58c0.18,0.58 -0.29,0.48 -0.69,1.09l-0.72 1.17c0.28,0.2 0.5,0.36 0.77,0.57 0.13,0.1 0.23,0.16 0.37,0.26l0.43 0.32 -0.93 1.94c-0.2,0.39 -0.07,0.15 -0.18,0.3 -0.02,-0.03 -0.05,-0.07 -0.07,-0.09 -0.58,-0.69 -1.79,-1.43 -2.6,-1.34 -0.19,1.16 0.03,1.14 0.74,1.54 0.42,0.23 1.02,0.65 1.44,0.7l-0.34 0.47c0.2,0.25 0.54,0.35 0.88,0.6 0.35,0.25 0.24,0.25 0.82,0.13 -1.09,-0.45 0.37,-3.43 0.99,-4.41 0.33,-0.51 0.17,-0.44 0.59,-0.79l1.27 -0.73c0.05,-0.03 0.27,-0.12 0.27,-0.12 0.64,-0.37 0.43,-0.33 0.6,-0.67 -1.98,-0.82 -1.28,-0.73 -2.73,-0.78 -1.25,-0.04 0.08,-0.23 -0.94,-0.18z"/>
   <path class="fil32" d="M83.43 69.49c-0.17,0.07 0.3,0.05 -0.14,-0.08l-0.52 -0.1 0.21 0.52c0.17,0.81 0.65,0.49 1.16,2.23 0.37,1.25 0.32,1.91 0.15,3.23 0.82,-0.16 0.53,-0.34 1.53,-1.01l1.02 -0.75c0.02,-0.02 0.05,-0.04 0.07,-0.06l0.3 -0.25c0.14,-0.12 0.09,-0.07 0.23,-0.18 0.03,-0.02 0.18,-0.14 0.23,-0.17 0.02,-0.02 0.06,-0.04 0.08,-0.06 0.02,-0.02 0.06,-0.04 0.08,-0.06l1.01 -0.76c0.13,-0.1 0.1,-0.08 0.23,-0.18l1.16 -0.87c0.14,-0.1 0.1,-0.08 0.24,-0.17 0.3,-0.2 0.2,-0.09 0.5,-0.32 0.11,-0.08 0.35,-0.32 0.43,-0.38 0.18,-0.13 0.44,-0.21 0.63,-0.32l-0.32 -1.64 -6.62 4.91c-0.22,-1.13 -0.58,-1.69 -1.04,-2.68l-0.5 -0.77c-0.02,-0.02 -0.06,-0.05 -0.09,-0.08z"/>
   <path class="fil2" d="M4.89 108.08c1.64,0 1.76,-0.16 1.76,1.76 0,1.01 -0.75,0.95 -1.76,0.95 0.32,-1.38 0,-1.27 0,-2.72zm-1.02 3.75c0.73,0.26 2.43,0.18 3.15,-0.1 0.85,-0.33 0.92,-1.31 0.88,-2.43 -0.03,-0.97 -0.04,-2 -0.95,-2.35 -0.77,-0.3 -2.42,-0.29 -3.12,-0.05 -0.07,0.3 -0.19,4.34 0.04,4.93z"/>
   <path class="fil33" d="M48.61 66.12c-0.13,0.32 0.16,0.27 -0.14,0.27l0 0.68c1.31,0 0.87,-0.02 1.74,-0.47 0.03,-0.02 0.07,-0.03 0.09,-0.04 0.81,-0.41 0.52,-0.09 0.61,-0.57l0.68 0.14c0.28,0.07 0.46,-0.1 0.72,-0.37l0.61 -0.61c0.02,-0.02 0.05,-0.04 0.08,-0.06 0.5,-0.4 0.84,-0.75 1.45,-1.14 0.24,-0.36 0.59,-0.56 0.93,-0.81 0.38,-0.28 0.74,-0.55 0.97,-0.95 -0.34,-0.32 0.06,-0.07 -0.41,-0.27l-1.21 0.39c-0.02,-0.08 -0.1,-0.08 -0.15,-0.12 -0.18,0.23 -0.34,0.16 -0.68,0.27l0 -0.95c-0.52,0.21 -0.3,0.13 -0.79,0.57 -0.6,0.55 -4.5,3.53 -4.51,4.04z"/>
   <path class="fil4" d="M102.92 110.66c-1.91,0.44 -1.49,0.11 -1.49,-2.44 0,-0.77 1.76,-0.68 1.76,1.09 0,0.52 -0.17,0.92 -0.27,1.36zm-2.56 1.19c2.75,0.16 4.08,0.34 3.97,-2.69 -0.04,-1.15 -0.25,-1.98 -1.1,-2.35 -0.67,-0.29 -2.21,-0.29 -2.88,-0.08 -0.2,0.8 -0.23,4.38 0.01,5.13z"/>
   <path class="fil2" d="M5.3 100.75c1.42,0 1.22,0.55 1.22,1.63 0,0.74 -0.5,1.09 -1.22,1.09 -0.62,0 -0.24,-0.67 -0.27,-1.5 -0.02,-0.61 -0.34,-1.22 0.27,-1.22zm-0.96 -1.04c-0.69,0.1 -0.6,-0.27 -0.58,1.71 0.01,0.73 -0.01,1.46 -0.01,2.18 -0,1.15 0.11,1 1.28,0.98 0.68,-0.02 1.48,-0.04 1.99,-0.33 0.89,-0.51 1.07,-2.34 0.68,-3.58 -0.36,-1.17 -2.08,-1.15 -3.37,-0.96z"/>
   <path class="fil4" d="M96.01 62.02c-1.83,1.94 -2.2,0.77 -2.17,1.64 0.01,0.44 -0.01,0.09 0.23,0.44 1.02,1.45 1.47,3.61 1.79,5.42 0.67,-0.67 -0.2,-1.04 0.83,-1.75 0.95,-0.66 0.65,-1.4 1.14,-0.54 0.07,-1.18 -0.25,-1.92 -0.6,-2.88 -0.4,-1.09 -0.76,-1.53 -1.22,-2.34z"/>
   <path class="fil2" d="M17.65 106.31l0.41 1.49 -0.68 0c0.04,-0.52 0.23,-0.97 0.27,-1.49zm0.08 -5.35c-0.41,1.37 -1.56,6.61 -1.59,8l3.26 -0.06 -1.3 -7.07c-0.08,-0.47 -0.11,-0.59 -0.37,-0.87z"/>
   <path class="fil24" d="M85.73 58.64l-0.22 -0.09c-0.04,-0.01 -0.07,-0.03 -0.12,-0.04 -0.27,-0.07 0.02,-0.01 -0.26,-0.05 -0.13,-0.02 -0.41,-0.03 -0.55,-0.03 -0.34,-0.01 -0.66,0.01 -1.01,0l-0.23 0.19c-0.51,0.59 -0.51,0.4 -0.64,1.02 -0.16,0.78 0.03,1.58 0.38,2.15 1.24,0.03 0.34,-0.47 1.7,-1.04 0.81,-0.34 1.64,-0.21 2.38,0.06 2.42,0.85 2.84,2.16 3.5,2.01 0.09,-0.67 -0.3,-0.9 -0.8,-1.43 -0.19,-0.2 -0.41,-0.46 -0.62,-0.62 -0.37,-0.28 -0.4,-0.18 -0.66,-0.55l-0.14 -0.25c-0.4,-0.52 -2.6,-1.03 -3.28,-1.17 0.26,-0.17 0.07,-0.17 0.56,-0.15z"/>
   <path class="fil34" d="M107.67 15.89c-0.39,-0.02 -0.11,-0.13 -1.05,0.58l-2.68 1.93c-0.49,0.38 -0.25,0.05 -0.48,0.61l0.14 1.36 -1.09 0 -0 2.04c0.61,-0.1 0.48,-0.07 0.88,-0.34l4.27 -3.21c-0.65,0.03 -0.79,0.03 -0.73,-0.5l0.21 -1.06c0.09,-0.06 0.04,0.24 0.16,-0.19 0.21,-0.73 -0.52,-0.39 0.42,-1.01 0.4,-0.26 0.38,-0.1 0.4,-0.31l-0.45 0.12z"/>
   <path class="fil4" d="M102.65 103.33c-1.39,0 -1.22,0.7 -1.22,-2.04 0,-0.68 0.94,-0.37 1.36,-0.27 0.32,1.36 0.09,1.42 -0.14,2.31zm-2.39 1.19c1.26,-0.04 2.94,0.16 3.55,-0.85 0.49,-0.81 0.38,-2.9 -0.16,-3.51 -0.38,-0.43 -1.1,-0.43 -1.81,-0.43 -0.16,-0 -1.01,0 -1.1,0.02 -0.53,0.11 -0.41,-0.02 -0.5,0.57 -0.11,0.73 -0,3.32 0.02,4.2z"/>
   <path class="fil35" d="M55.84 59.83l-0.08 0.07c0.01,0.11 -0.1,0.2 0.05,0.38l1.9 -0.01c0.52,-0.04 1.2,-0.24 1.36,-0.67 0.42,0.25 0.08,0.07 0.53,0.13 0.35,-0.22 0.43,-0.35 0.72,-0.65l1.45 -1.25c0.35,-0.27 0.45,-0.32 0.69,-0.68l-0.14 -0.54c0.06,0.03 0.06,0.34 0.18,-0.08l-0.05 -0.33c-0.42,0 -1.09,0.04 -1.48,-0.01 -0.78,-0.09 -0.7,-0.49 -0.7,-0.03 -0.42,0.35 -0.66,0.67 -1.06,1.01 -0.39,0.32 -0.74,0.59 -1.14,0.91 -0.47,0.38 -1.45,1.37 -1.93,1.61 -0.28,0.14 0.11,-0.01 -0.31,0.12z"/>
   <path class="fil24" d="M69.83 64.01c0.41,0.57 2.3,1.43 3.19,2 0.79,0.5 2.32,1.64 3.14,1.98l0.84 -1.11c-0.37,-0.61 -0.24,-0.37 -0.84,-0.77l-4.62 -2.98c-0.25,-0.16 -0.74,-0.5 -1.21,-0.33 -0.45,0.17 -0.01,-0.19 -0.28,0.22 -0.25,0.39 0.02,1 0.05,0.99l-0.26 0z"/>
   <path class="fil36" d="M38.75 39.91c-0.21,0.4 -0.62,0.66 -0.93,0.96l3.05 1.96c0.38,-0.74 0.91,-0.8 1.55,-1.22 0.54,-0.36 0.14,-0 0.56,-0.52l-0.74 0.1c0.03,-0.03 0.09,-0.11 0.11,-0.08 0.02,0.03 0.11,-0.07 0.18,-0.16 0.19,-0.22 0.47,0.02 -0.45,-0.6 -1.74,-1.17 -2.44,-2.06 -3.87,-1.06l-1 0.92c-0.48,0.53 -0.87,0.74 -0.74,1.05 0.23,0.55 0.83,-0.33 1.01,-0.51 0.26,-0.25 0.82,-0.65 1.27,-0.82z"/>
   <path class="fil18" d="M83.58 58.43c0.35,0.01 0.66,-0.01 1.01,-0 0.14,0 0.42,0.01 0.55,0.03 0.28,0.04 -0.02,-0.02 0.26,0.05 0.04,0.01 0.08,0.03 0.12,0.04l0.22 0.09c1.86,-0.17 5.19,2.03 5.63,2.96 0.24,-0.35 -0.68,-0.89 -0.93,-1.04 0.17,-0.59 -0.09,-0.08 0.35,-0.22l-0.27 -0.19 -2.4 -1.76 1.17 -0.76c0.32,-0.21 0.79,-0.59 1.17,-0.64 0.7,-0.1 0.24,0.12 1.25,0.32l1.07 0.42c-0.64,-0.64 -3.54,-1.99 -4.87,-1.69 -1.34,0.3 -3.23,2.16 -4.34,2.39z"/>
   <path class="fil37" d="M118.87 36.08l-1.18 0.66c-0.43,0.28 -0.81,0.56 -1.27,0.91 -0.47,0.35 -0.8,0.59 -1.24,0.94 -1.01,0.8 -0.52,0.3 -0.86,1.6 0.88,-0.12 1.34,-0.61 2.32,-1.33 0.35,-0.25 1.79,-1.14 1.89,-1.39l0.37 0.32c0.02,0.01 0.06,0.04 0.09,0.04 0.72,0.25 -0.07,0.09 0.29,0.03 0.22,-0.04 0.58,-0.22 0.61,-0.45 0.68,-0.31 0.82,-0.61 1.49,-0.91 0.6,0.31 1.8,1.12 2.08,1.6 0.61,-0.12 -0.02,-0.05 0.18,-0.13 0.09,-0.04 -0.39,-0.18 0.28,-0.03 0.6,0.13 0.34,0.67 0.53,0.09 -0.25,-0.06 -0.78,-0.65 -1.07,-0.92 -0.34,-0.32 -0.86,-0.7 -1.32,-1 -0.84,-0.53 -2.6,-1.01 -3.2,-0.03z"/>
   <path class="fil38" d="M62.46 57.16c-0.24,0.36 -0.34,0.42 -0.69,0.68l-1.45 1.25c-0.3,0.3 -0.37,0.43 -0.72,0.65 -0.29,0.21 -0.55,0.4 -0.84,0.65 -0.31,0.26 -0.51,0.39 -0.85,0.65 -0.35,0.27 -1.14,1.14 -1.55,1.15 -0.23,0.4 -0.59,0.67 -0.97,0.95 -0.34,0.25 -0.69,0.46 -0.93,0.81 -0.1,-0.34 -0.08,-0.12 0.14,-0.41 0.3,0.24 0.52,0.4 0.45,1.37l-0.04 0.26c0.1,-0.3 0.1,-0.13 0.27,-0.14 0.31,-0.77 0.59,-0.65 1.59,-1.66 0.37,-0.38 0.24,-0.31 0.72,-0.51 0.01,-0.27 -0.07,-0.17 0.42,-0.55 0.95,-0.72 2.93,-2.82 4.2,-3.66 0.69,-0.46 0.49,-0.68 1.49,-1.04 -0.09,-0.27 -0.14,0.05 0.05,-0.28l1.04 -0.99c-0.15,0.17 0.29,0.13 -0.41,0.13 0.15,-0.6 -0.03,-1.49 0.54,-1.49 -0.16,0.3 -2.08,1.93 -2.44,2.17z"/>
   <path class="fil18" d="M72.7 72.84l0.01 0.04c1.3,-0.11 1.73,0.45 2.54,0.75l0.51 -0.05c-0.3,-0.32 -0.08,-0.42 0,-0.67 0.99,-0.45 3.16,-2.71 3.97,-2.68 -0.2,-0.38 -1.14,-1.13 -1.78,-1.08 -0.53,0.04 -1.42,0.83 -1.83,1.14 -0.44,0.33 -3.26,2.5 -3.42,2.55z"/>
   <path class="fil13" d="M100.36 111.85c-0.24,-0.75 -0.22,-4.33 -0.01,-5.13 0.67,-0.21 2.21,-0.21 2.88,0.08 0.85,0.37 1.06,1.2 1.1,2.35 0.11,3.03 -1.22,2.85 -3.97,2.69zm4.4 -0.92c0.22,-0.76 0.21,-2.11 0.07,-2.89 -0.35,-1.99 -2.32,-2.08 -3.79,-2.01 -1.92,0.09 -1.41,0.74 -1.43,4.5 -0.01,1.95 -0.05,1.98 0.85,1.99 1.98,0.02 3.8,0.17 4.3,-1.58z"/>
   <path class="fil13" d="M100.26 104.52c-0.03,-0.88 -0.13,-3.47 -0.02,-4.2 0.08,-0.58 -0.03,-0.45 0.5,-0.57 0.1,-0.02 0.95,-0.02 1.1,-0.02 0.71,0 1.43,-0 1.81,0.43 0.54,0.61 0.65,2.7 0.16,3.51 -0.61,1.01 -2.29,0.81 -3.55,0.85zm-0.36 -5.18c-0.49,0.42 -0.3,1.33 -0.29,2.36 0.01,0.79 -0.1,2.14 -0,2.83 0.12,0.91 1.1,0.6 2.09,0.59 4.08,-0.05 2.97,-4.5 2.64,-4.99 -1,-1.5 -4.09,-1.09 -4.44,-0.79z"/>
   <path class="fil35" d="M63.68 57.61c-1,0.36 -0.8,0.58 -1.49,1.04 0.13,0.45 -0.18,0.4 0.14,0.41 -0.3,0.16 -0.17,0.12 -0.4,0.42l-1.71 2.16c-0.21,0.65 0.02,-0.24 -0.06,0.25 -0.05,0.33 -0.02,1.35 0.01,1.71 0.37,-0.15 3.31,-2.44 3.55,-2.75l0.23 0.11c-0.42,-0.77 -0.32,-1.02 -0.29,-1.76 0.02,-0.44 -0.06,-0.56 0.13,-0.86 0.07,-0.11 0.1,-0.09 0.24,-0.3 0.2,-0.29 -0.02,0.17 0.19,-0.33l-0.26 -0.09c-0.3,-0.02 -0.2,-0.1 -0.42,0.23 0.21,-0 0.13,0.05 0.13,-0.23z"/>
   <path class="fil39" d="M57.57 62.87c0.16,0.52 0.17,0.13 0.08,0.69 -0.11,0.69 -0.36,0.2 -0.35,1.35l0.95 0.41c0.33,-0.01 -0.09,0.16 0.41,-0.13 0.22,-0.13 0.19,-0.14 0.37,-0.31 0.27,-0.24 0.59,-0.44 0.74,-0.65 0.21,-0.61 0.02,-0.21 0.41,-0.62 -0.03,-0.36 -0.06,-1.38 -0.01,-1.71 0.08,-0.49 -0.15,0.39 0.06,-0.25l1.71 -2.16c0.23,-0.3 0.1,-0.26 0.4,-0.42 -0.31,-0 -0.01,0.05 -0.14,-0.41 -1.27,0.85 -3.25,2.95 -4.2,3.66 -0.49,0.37 -0.41,0.27 -0.42,0.55z"/>
   <path class="fil37" d="M90.52 60.15l1.03 -0.78c0.34,-0.28 0.49,-0.49 0.92,-0.72l0.09 0.36c0.52,-0.45 0.89,-0.02 1.34,0.38 0.42,0.37 0.82,0.65 1.11,1.06 -0.21,-0.91 0.05,-0.34 0.27,-0.54l0.1 0.13c-0.67,-0.4 -1.61,-2.01 -2.59,-2.32l-1.07 -0.42c-1.02,-0.2 -0.56,-0.43 -1.25,-0.32 -0.38,0.06 -0.85,0.43 -1.17,0.64l-1.17 0.76 2.4 1.76z"/>
   <path class="fil40" d="M75.25 73.63l0.31 0.51c0.23,0.17 0.7,0.72 0.91,1.02l0.16 -0.3c0.71,-1.23 2.98,-2.8 4.15,-3.52 0.31,0.16 0.14,-0.05 0.2,0.12 -0.19,-0.62 -0.64,-1.02 -1.25,-1.24 -0.81,-0.03 -2.98,2.24 -3.97,2.68 -0.08,0.26 -0.3,0.36 -0,0.67l-0.51 0.05z"/>
   <path class="fil23" d="M3.87 111.83c-0.23,-0.59 -0.11,-4.64 -0.04,-4.93 0.7,-0.23 2.35,-0.25 3.12,0.05 0.91,0.36 0.92,1.38 0.95,2.35 0.03,1.12 -0.04,2.1 -0.88,2.43 -0.72,0.28 -2.42,0.36 -3.15,0.1zm-0.61 0.33l0.29 0.26c3.57,0.02 4.89,0.5 4.88,-3.39 -0,-0.97 -0.17,-1.54 -0.65,-2.07 -0.93,-1.03 -4.4,-0.73 -4.5,-0.42 -0.09,0.29 -0.02,4.91 -0.02,5.62z"/>
   <path class="fil23" d="M4.33 99.71c1.28,-0.19 3.01,-0.21 3.37,0.96 0.38,1.24 0.21,3.07 -0.68,3.58 -0.51,0.29 -1.31,0.32 -1.99,0.33 -1.17,0.03 -1.28,0.17 -1.28,-0.98 0,-0.73 0.02,-1.46 0.01,-2.18 -0.02,-1.99 -0.11,-1.61 0.58,-1.71zm-1.08 -0.19c0,1.19 -0.16,4.6 0.11,5.43 3.06,0.3 4.94,0.36 4.93,-2.99 -0.01,-2.5 -0.76,-2.86 -3.42,-2.86 -1.06,0 -0.98,0.05 -1.62,0.41z"/>
   <path class="fil35" d="M55.26 65.04c0.31,0.16 0.27,0.24 0.27,0l-0.11 0.18c-0.05,0.07 -0.13,0.2 -0.16,0.25 -0.02,0.02 -0.04,0.05 -0.06,0.07 -0.47,0.6 -0.62,0.45 -0.62,1.53 0.32,0.26 0.68,0.22 0.81,0.41 0.67,-0.22 0.38,0.09 0.27,-0.14 0.56,-0.19 2.2,-1.43 2.58,-2.04l-0.95 -0.41c-0.01,-1.15 0.24,-0.66 0.35,-1.35 0.09,-0.56 0.08,-0.17 -0.08,-0.69 -0.48,0.2 -0.35,0.13 -0.72,0.51 -1,1.01 -1.27,0.89 -1.59,1.66z"/>
   <path class="fil8" d="M102.39 80.46c0.02,-0.05 0.06,-0.05 0.09,-0.08l-5.31 -3.25 -0.47 0.52c0.43,0.16 4.15,2.53 4.46,3.01 -0.41,0.21 -0.49,-0.09 -1.3,-0.48 -0.99,-0.48 -2.66,-2.07 -3.46,-2.17 -0.12,0.73 0.88,1.05 2.2,1.81l2.55 1.61 1.24 -0.97z"/>
   <path class="fil41" d="M66.53 58.86c1.53,0.47 2.85,1.39 4.12,2.03l1.45 0.62c-0.08,-0.76 -1.45,-1.58 -2.21,-2.13 -0.87,-0.63 -0.6,-0.47 -0.75,-0.97 1.02,-0 1.63,0.3 1.33,0.51 -0.42,-0.55 -1.16,-0.72 -1.45,-1.26 -0.01,-0.02 -0.02,-0.06 -0.03,-0.08l-0.12 -0.34c-0.01,-0.03 -0.07,-0.17 -0.09,-0.21 -0.45,0.2 -0.27,0.17 -0.64,0.47 -0.04,0.03 -0.39,0.26 -0.56,0.39 -0.5,0.35 -0.78,0.46 -1.03,0.96z"/>
   <path class="fil39" d="M55.75 59.9c-0.34,0.3 -0.68,0.65 -1.17,0.84l-0.68 0.76 0 0.95c0.34,-0.11 0.5,-0.04 0.68,-0.27 0.05,0.04 0.13,0.04 0.15,0.12l1.21 -0.39c0.47,0.2 0.06,-0.05 0.41,0.27 0.41,-0.01 1.2,-0.88 1.55,-1.15 0.34,-0.26 0.54,-0.39 0.85,-0.65 0.29,-0.24 0.55,-0.44 0.84,-0.65 -0.45,-0.06 -0.11,0.12 -0.53,-0.13 -0.16,0.42 -0.84,0.63 -1.36,0.67l-1.9 0.01c-0.15,-0.18 -0.04,-0.27 -0.05,-0.38z"/>
   <path class="fil16" d="M123.7 35.98c0.58,0.78 0.78,0.3 1.15,1.1 0.03,-0.02 0.08,-0.1 0.1,-0.07 0.02,0.03 0.08,-0.05 0.1,-0.07l1.71 -1.31c1.72,-1.33 1.54,-0.67 2.42,-0.95l-0.62 -0.45c-0.18,-0.07 -0.63,-0.19 -0.84,-0.22 -1.19,-0.15 -3.73,1.64 -4.02,1.96z"/>
   <path class="fil42" d="M93.97 57.55l0.76 0.62c0.27,0.17 0.1,0.03 0.34,0.21 0.48,0.36 0.61,0.63 1.08,0.93 0.07,-0.61 1.32,-0.94 1.79,-1.15 -0.2,-0.89 -1.01,-1.56 -1.79,-1.86 -0.49,0.07 -0.71,0.32 -1.09,0.6 -0.32,0.23 -0.7,0.47 -1.08,0.66z"/>
   <path class="fil35" d="M67.21 45.62l1.49 1.36c0.78,-0.18 1.57,-0.9 1.42,-1.72l-0.77 -1.63c-0.31,-0.49 0.04,-0.2 -0.51,-0.45 -0.01,0.02 -0.03,0.05 -0.04,0.06l-1.06 1.93c-0.27,0.27 -0.09,0.05 -0.32,0.25 -0.12,0.11 -0.2,0.24 -0.22,0.21 -0.03,-0.03 -0.09,0.08 -0.12,0.12 0.18,-0.15 0.14,0.19 0.14,-0.13z"/>
   <path class="fil20" d="M72.24 75.68c0.5,-0.17 0.25,0.02 0.56,-0.4 -0.23,-0.25 -0.38,0.02 -0.56,-0.39 -0.18,-0.39 0.02,-0.48 0.28,-0.62 1.04,-0.6 2.11,0.69 2.84,1.48 0.2,0.22 0.18,0.25 0.43,0.49l-0.37 -1.75c0.03,-0.42 -0.29,-0.12 0.14,-0.35l-0.31 -0.51c-0.81,-0.3 -1.24,-0.87 -2.54,-0.75l-0.01 -0.04c-0.44,0.25 -0.13,0.05 -0.37,0.32 -0.8,0.89 -0.64,1.08 -0.44,2.34l0.34 0.18z"/>
   <path class="fil40" d="M93.97 57.55c0.38,-0.19 0.77,-0.43 1.08,-0.66 0.38,-0.28 0.61,-0.53 1.09,-0.6 -1.08,-1.03 -3.4,-1.49 -4.07,0.06 0.55,0.36 1.34,0.92 1.9,1.2z"/>
   <path class="fil23" d="M17.38 27.91c0.27,-0.3 0.41,-0.42 0.62,-0.74 -1.41,-0.71 -3.51,-1.81 -5.34,-2.12l4.72 2.86z"/>
  </g>
 </g>
</svg>
