<?xml version="1.0" encoding="UTF-8"?>
<!DOCTYPE svg PUBLIC "-//W3C//DTD SVG 1.1//EN" "http://www.w3.org/Graphics/SVG/1.1/DTD/svg11.dtd">
<!-- Creator: CorelDRAW 2023 -->
<svg xmlns="http://www.w3.org/2000/svg" xml:space="preserve" width="1in" height="0.11374in" version="1.1" style="shape-rendering:geometricPrecision; text-rendering:geometricPrecision; image-rendering:optimizeQuality; fill-rule:evenodd; clip-rule:evenodd"
viewBox="0 0 43.74 4.97"
 xmlns:xlink="http://www.w3.org/1999/xlink"
 xmlns:xodm="http://www.corel.com/coreldraw/odm/2003">
 <defs>
  <style type="text/css">
   <![CDATA[
    .fil0 {fill:#373435;fill-rule:nonzero}
   ]]>
  </style>
 </defs>
 <g id="Layer_x0020_1">
  <metadata id="CorelCorpID_0Corel-Layer"/>
  <path class="fil0" d="M-0 0.07l1.15 0c0.39,0 0.68,0.09 0.86,0.27 0.18,0.18 0.27,0.46 0.27,0.84l0 0.19c0,0.25 -0.04,0.45 -0.12,0.61 -0.08,0.16 -0.2,0.27 -0.37,0.34l0 0.01c0.38,0.13 0.57,0.47 0.57,1.01l0 0.41c0,0.37 -0.1,0.66 -0.29,0.85 -0.2,0.2 -0.48,0.29 -0.86,0.29l-1.2 0 0 -4.84zm1.06 1.97c0.15,0 0.27,-0.04 0.34,-0.12 0.08,-0.08 0.11,-0.21 0.11,-0.39l0 -0.27c0,-0.18 -0.03,-0.3 -0.09,-0.38 -0.06,-0.08 -0.16,-0.12 -0.29,-0.12l-0.37 0 0 1.28 0.3 0zm0.14 2.18c0.13,0 0.23,-0.04 0.3,-0.11 0.06,-0.07 0.1,-0.19 0.1,-0.37l0 -0.42c0,-0.22 -0.04,-0.37 -0.11,-0.46 -0.08,-0.09 -0.2,-0.13 -0.38,-0.13l-0.34 0 0 1.49 0.44 0z"/>
  <path id="_1" class="fil0" d="M3.38 0.07l1.03 0 0.79 4.84 -0.76 0 -0.14 -0.96 0 0.01 -0.86 0 -0.14 0.95 -0.7 0 0.79 -4.84zm0.83 3.23l-0.34 -2.39 -0.01 0 -0.33 2.39 0.68 0z"/>
  <polygon id="_2" class="fil0" points="5.84,0.76 5.04,0.76 5.04,0.07 7.39,0.07 7.39,0.76 6.6,0.76 6.6,4.91 5.84,4.91 "/>
  <polygon id="_3" class="fil0" points="8.42,0.76 7.63,0.76 7.63,0.07 9.98,0.07 9.98,0.76 9.18,0.76 9.18,4.91 8.42,4.91 "/>
  <polygon id="_4" class="fil0" points="10.34,0.07 11.1,0.07 11.1,4.21 12.35,4.21 12.35,4.91 10.34,4.91 "/>
  <polygon id="_5" class="fil0" points="12.72,0.07 14.79,0.07 14.79,0.76 13.48,0.76 13.48,2.04 14.52,2.04 14.52,2.73 13.48,2.73 13.48,4.21 14.79,4.21 14.79,4.91 12.72,4.91 "/>
  <polygon id="_6" class="fil0" points="15.05,0.07 15.78,0.07 16.12,3.79 16.13,3.79 16.49,0.07 17.32,0.07 17.68,3.79 17.7,3.79 18.03,0.07 18.69,0.07 18.2,4.91 17.25,4.91 16.91,1.64 16.89,1.64 16.55,4.91 15.54,4.91 "/>
  <polygon id="_7" class="fil0" points="19.08,0.07 19.84,0.07 19.84,4.91 19.08,4.91 "/>
  <polygon id="_8" class="fil0" points="21,0.76 20.2,0.76 20.2,0.07 22.55,0.07 22.55,0.76 21.76,0.76 21.76,4.91 21,4.91 "/>
  <polygon id="_9" class="fil0" points="22.92,0.07 23.68,0.07 23.68,2.04 24.49,2.04 24.49,0.07 25.25,0.07 25.25,4.91 24.49,4.91 24.49,2.73 23.68,2.73 23.68,4.91 22.92,4.91 "/>
  <path id="_10" class="fil0" d="M25.82 0.07l1.15 0c0.39,0 0.68,0.09 0.86,0.27 0.18,0.18 0.27,0.46 0.27,0.84l0 0.19c0,0.25 -0.04,0.45 -0.12,0.61 -0.08,0.16 -0.2,0.27 -0.37,0.34l0 0.01c0.38,0.13 0.57,0.47 0.57,1.01l0 0.41c0,0.37 -0.1,0.66 -0.29,0.85 -0.2,0.2 -0.48,0.29 -0.86,0.29l-1.2 0 0 -4.84zm1.06 1.97c0.15,0 0.27,-0.04 0.34,-0.12 0.08,-0.08 0.11,-0.21 0.11,-0.39l0 -0.27c0,-0.18 -0.03,-0.3 -0.09,-0.38 -0.06,-0.08 -0.16,-0.12 -0.29,-0.12l-0.37 0 0 1.28 0.3 0zm0.14 2.18c0.13,0 0.23,-0.04 0.3,-0.11 0.06,-0.07 0.1,-0.19 0.1,-0.37l0 -0.42c0,-0.22 -0.04,-0.37 -0.11,-0.46 -0.08,-0.09 -0.2,-0.13 -0.38,-0.13l-0.34 0 0 1.49 0.44 0z"/>
  <polygon id="_11" class="fil0" points="29.2,2.85 28.28,0.07 29.09,0.07 29.61,1.84 29.62,1.84 30.14,0.07 30.88,0.07 29.96,2.85 29.96,4.91 29.2,4.91 "/>
  <polygon id="_12" class="fil0" points="31.85,0.76 31.05,0.76 31.05,0.07 33.4,0.07 33.4,0.76 32.61,0.76 32.61,4.91 31.85,4.91 "/>
  <polygon id="_13" class="fil0" points="33.77,0.07 35.84,0.07 35.84,0.76 34.53,0.76 34.53,2.04 35.57,2.04 35.57,2.73 34.53,2.73 34.53,4.21 35.84,4.21 35.84,4.91 33.77,4.91 "/>
  <path id="_14" class="fil0" d="M37.28 4.97c-0.37,0 -0.65,-0.1 -0.84,-0.31 -0.19,-0.21 -0.28,-0.51 -0.28,-0.9l0 -0.28 0.72 0 0 0.33c0,0.31 0.13,0.47 0.39,0.47 0.13,0 0.23,-0.04 0.29,-0.11 0.07,-0.08 0.1,-0.2 0.1,-0.37 0,-0.2 -0.05,-0.38 -0.14,-0.54 -0.09,-0.15 -0.26,-0.34 -0.51,-0.56 -0.31,-0.28 -0.53,-0.53 -0.66,-0.75 -0.12,-0.22 -0.19,-0.48 -0.19,-0.76 0,-0.38 0.1,-0.68 0.29,-0.89 0.19,-0.21 0.47,-0.31 0.84,-0.31 0.36,0 0.64,0.1 0.83,0.31 0.19,0.21 0.28,0.51 0.28,0.9l0 0.2 -0.72 0 0 -0.25c0,-0.17 -0.03,-0.29 -0.1,-0.36 -0.06,-0.08 -0.16,-0.11 -0.28,-0.11 -0.25,0 -0.38,0.15 -0.38,0.46 0,0.18 0.05,0.34 0.14,0.49 0.09,0.15 0.27,0.34 0.51,0.55 0.32,0.28 0.54,0.53 0.66,0.75 0.12,0.23 0.18,0.49 0.18,0.79 0,0.4 -0.1,0.7 -0.29,0.91 -0.2,0.21 -0.48,0.32 -0.85,0.32z"/>
  <polygon id="_15" class="fil0" points="38.86,4.17 39.59,4.17 39.59,4.91 38.86,4.91 "/>
  <polygon id="_16" class="fil0" points="40.16,0.07 40.92,0.07 40.92,4.91 40.16,4.91 "/>
  <path id="_17" class="fil0" d="M42.58 4.97c-0.37,0 -0.66,-0.11 -0.86,-0.32 -0.2,-0.21 -0.3,-0.51 -0.3,-0.9l0 -2.54c0,-0.39 0.1,-0.69 0.3,-0.9 0.2,-0.21 0.48,-0.32 0.86,-0.32 0.37,0 0.66,0.11 0.86,0.32 0.2,0.21 0.3,0.51 0.3,0.9l0 2.54c0,0.39 -0.1,0.69 -0.3,0.9 -0.2,0.21 -0.48,0.32 -0.86,0.32zm0 -0.69c0.26,0 0.39,-0.16 0.39,-0.48l0 -2.64c0,-0.32 -0.13,-0.48 -0.39,-0.48 -0.26,0 -0.39,0.16 -0.39,0.48l0 2.64c0,0.32 0.13,0.48 0.39,0.48z"/>
 </g>
</svg>
