<?xml version="1.0" encoding="UTF-8"?>
<!DOCTYPE svg PUBLIC "-//W3C//DTD SVG 1.1//EN" "http://www.w3.org/Graphics/SVG/1.1/DTD/svg11.dtd">
<!-- Creator: CorelDRAW 2023 -->
<svg xmlns="http://www.w3.org/2000/svg" xml:space="preserve" width="1in" height="0.271795in" version="1.1" style="shape-rendering:geometricPrecision; text-rendering:geometricPrecision; image-rendering:optimizeQuality; fill-rule:evenodd; clip-rule:evenodd"
viewBox="0 0 61.25 16.65"
 xmlns:xlink="http://www.w3.org/1999/xlink"
 xmlns:xodm="http://www.corel.com/coreldraw/odm/2003">
 <defs>
  <style type="text/css">
   <![CDATA[
    .fil0 {fill:#373435}
   ]]>
  </style>
 </defs>
 <g id="Layer_x0020_1">
  <metadata id="CorelCorpID_0Corel-Layer"/>
  <g id="_2240428163920">
   <path class="fil0" d="M15.34 15.16c0,-0.5 0.85,-0.6 0.85,0 0,0.24 -0.16,0.41 -0.4,0.42 -0.28,0.01 -0.44,-0.22 -0.44,-0.42zm-12.53 -2.83l0 -8.01c0,-0.54 0.37,-1.05 0.82,-1.16 0.23,-0.06 0.65,-0.08 0.92,-0.08l6.66 0c0.57,0 1.14,-0.03 1.5,0.19 0.34,0.21 0.58,0.58 0.58,1.11l0 8.11c0,0.34 -0.2,0.63 -0.38,0.81 -0.2,0.2 -0.48,0.33 -0.86,0.33l-8.06 0c-0.6,0 -1.19,-0.56 -1.19,-1.29zm14.92 -1.04c-0.13,0 -0.4,-0.13 -0.4,-0.45 0,-0.4 0.46,-0.56 0.7,-0.31 0.26,0.27 0.06,0.75 -0.31,0.75zm-0.05 -4.23c-0.17,0 -0.24,0.01 -0.36,-0.09 -0.3,-0.26 -0.11,-0.8 0.26,-0.8 0.64,0 0.49,0.9 0.1,0.9zm-1.54 -6.02c0.44,0 0.62,0.85 -0.05,0.85 -0.52,0 -0.5,-0.85 0.05,-0.85zm-10.74 -0.7l0 1.99 -1.54 0c-0.92,0 -1.79,0.93 -1.79,1.84l0 1.44 -1.64 0c-0.54,0 -0.54,0.8 0,0.8l1.64 0 0 1.49 -1.64 0c-0.56,0 -0.56,0.8 0,0.8l1.64 0 0 1.49 -1.74 0c-0.4,0 -0.4,0.75 0,0.75l1.74 0c0,1.26 -0.18,2.15 0.66,2.92 0.73,0.67 1.62,0.56 2.67,0.56l0 1.94c0,0.42 0.75,0.36 0.75,0l0 -1.94 1.54 0 0 1.84c0,0.56 0.75,0.47 0.75,0.1l0 -1.94 1.54 0 0 1.84c0,0.56 0.75,0.47 0.75,0.1l0 -1.94c0.91,0 1.94,0.1 2.6,-0.48 0.17,-0.16 0.34,-0.32 0.47,-0.53 0.38,-0.63 0.27,-1.13 0.27,-1.97 0.76,0 0.66,-0.09 1.02,0.37 0.15,0.19 0.28,0.31 0.31,0.58 0.05,0.46 0,1.24 0,1.74 -0.94,0.08 -1.21,2.19 0.45,2.19 0.94,0 1.77,-1.53 0.3,-2.24 0,-2.09 0.27,-1.81 -0.64,-2.94 -0.48,-0.6 -0.55,-0.49 -1.45,-0.49l0 -1.34 1.54 0c0.42,0 0.49,0.1 0.72,0.33l0.48 0.57c-0.09,0.38 -0.15,0.1 -0.15,0.8 0,1.31 2.27,1.38 2.26,-0.15 -0,-0.56 -0.49,-1.14 -1.17,-1.14 -0.17,0 -0.19,0.04 -0.35,0.05 -0.13,-0.24 -0.46,-0.58 -0.66,-0.78 -0.26,-0.27 -0.46,-0.46 -0.98,-0.46l-1.69 0c0,-1.81 -0.11,-1.45 0.45,-1.44l2.04 -0c0.25,1.07 2.24,0.95 2.24,-0.45 0,-0.48 -0.24,-0.88 -0.63,-1.06 -0.78,-0.36 -1.53,0.15 -1.66,0.71l-2.44 0 0 -0.85c1.36,0 1.07,0.1 2.08,-0.91 0.23,-0.23 0.31,-0.38 0.31,-0.83 -0,-0.38 -0,-0.76 -0,-1.15 0.5,-0.12 0.85,-0.67 0.85,-0.99 0,-0.98 -1.11,-1.67 -1.94,-0.95 -0.51,0.44 -0.53,1.32 0.06,1.78 0.35,0.27 0.28,-0.15 0.28,1.31 0,0.26 -0.2,0.42 -0.34,0.56 -0.48,0.47 -0.29,0.39 -1.31,0.39 0,-0.68 0.01,-1.18 -0.56,-1.73 -0.75,-0.74 -1.57,-0.56 -2.77,-0.56l0 -1.94c0,-0.57 -0.75,-0.4 -0.75,-0.05l0 1.99 -1.54 0 0 -1.94c0,-0.6 -0.75,-0.37 -0.75,-0.05l0 1.99 -1.54 0 0 -1.94c0,-0.24 -0.18,-0.37 -0.35,-0.38 -0.16,-0.01 -0.39,0.17 -0.39,0.33z"/>
   <path class="fil0" d="M56.57 9.19c0,-0.57 0.03,-1 0.43,-1.46 0.92,-1.04 2.8,-0.28 2.8,1.06l0 0.5c0,2.07 -3.23,2.22 -3.23,-0.1zm-1.49 -0.25c0,1.37 0.38,2.25 1.48,2.9 0.71,0.41 2.19,0.44 2.91,-0.2 0.1,-0.09 0.21,-0.21 0.34,-0.26 -0.19,0.39 0.12,0.94 -0.31,1.58 -0.53,0.8 -1.88,0.76 -2.61,0.49 -0.13,-0.05 -0.26,-0.1 -0.39,-0.16 -0.29,-0.15 -0.29,-0.14 -0.33,-0.27 -0.1,0.07 -0.73,0.9 -0.75,1.14 0.18,0.05 1.8,1.26 3.95,0.52 1.27,-0.44 1.87,-1.54 1.87,-2.85l0 -5.72 -1.44 0 0 0.65c-0.11,-0.07 -0.21,-0.17 -0.33,-0.26 -0.81,-0.61 -2.1,-0.64 -2.9,-0.18 -0.87,0.5 -1.49,1.48 -1.49,2.64z"/>
   <path class="fil0" d="M23.4 7.94l-1.14 0 0 -3.03c1.16,0 2.8,-0.14 2.88,1.4 0.06,1.07 -0.66,1.64 -1.73,1.64zm-2.64 4.33l1.49 0 0 -2.93 1.34 0c1.65,0 3.03,-1.1 3.03,-2.74 0,-1.01 -0.16,-1.52 -0.86,-2.23 -0.42,-0.43 -1.15,-0.76 -1.98,-0.76l-3.03 0 0 8.65z"/>
   <path class="fil0" d="M39.81 7.25c0.2,0 0.56,0.1 0.73,0.17 1.5,0.65 1.39,3.71 -0.68,3.71 -2.35,0 -2.24,-3.88 -0.05,-3.88zm-3.13 1.74c0,1.13 0.17,1.83 0.91,2.57 0.55,0.55 1.5,0.9 2.27,0.86 0.19,-0.01 0.11,-0.03 0.31,-0.05 0.13,-0.01 0.25,0 0.38,-0.01 1.48,-0.21 2.5,-1.55 2.5,-3.02 0,-0.96 -0.3,-2.02 -1.07,-2.61 -0.24,-0.19 -0.39,-0.33 -0.72,-0.47 -0.79,-0.34 -2.06,-0.36 -2.86,0.01 -0.17,0.08 -0.34,0.17 -0.47,0.27l-0.4 0.35c-0.41,0.49 -0.84,1.21 -0.84,2.1z"/>
   <path class="fil0" d="M50.06 10.48c0,-0.51 0.11,-0.83 0.66,-0.99 0.36,-0.1 1.51,-0.06 1.93,-0.06 0,0.82 0.13,1.2 -0.46,1.58 -0.63,0.41 -2.13,0.47 -2.13,-0.54zm-1.09 -3.38l0.67 0.62c0.14,0.11 0.1,0.13 0.27,0.18 0.15,-0.57 2.74,-1.46 2.74,0.55 -1.32,0 -2.7,-0.21 -3.49,0.58 -0.87,0.87 -0.85,2.74 0.8,3.25 0.98,0.3 2.1,0.08 2.69,-0.6 0,0.29 0.05,0.35 0.05,0.6l1.34 0 0 -4.23c0,-1.25 -1.06,-2.04 -2.44,-2.04 -0.71,0 -1.09,0.01 -1.74,0.35 -0.27,0.14 -0.73,0.51 -0.89,0.75z"/>
   <path class="fil0" d="M8.48 11.23l-3.28 0 0 -5.72 5.77 0 0 3.23c0,1.11 -0.54,2.04 -1.43,2.34 -0.18,0.06 -0.3,0.08 -0.56,0.1 -0.11,0 -0.2,0.01 -0.24,0.01 -0.14,0.01 -0.11,0.03 -0.26,0.03zm-4.08 -5.77l0 5.72c0,0.5 0.25,0.85 0.75,0.85l3.58 0c0.95,0 1.62,-0.35 2.1,-0.83 0.46,-0.46 0.88,-1.16 0.88,-2.05l0 -3.78c0,-0.42 -0.33,-0.7 -0.75,-0.7l-5.72 0c-0.51,0 -0.85,0.26 -0.85,0.8z"/>
   <path class="fil0" d="M42.7 3.96l0 0.94 2.34 0 0 7.36 1.54 0 0 -7.36 2.29 0c0,-1.68 0.31,-1.34 -1.54,-1.34l-2.58 0.01c-0.2,0.01 -0.11,0 -0.35,-0.01 -0.27,-0.01 -1.57,-0.08 -1.66,0.07l-0.03 0.33z"/>
   <path class="fil0" d="M36.13 11.08c-0.36,-0.24 -0.64,-0.51 -0.99,-0.75 -0.59,0.39 -0.34,0.8 -1.74,0.8 -0.44,0 -0.89,-0.33 -1.11,-0.58 -0.23,-0.27 -0.41,-0.85 -0.43,-1.31 -0.01,-0.14 0.07,-0.62 0.1,-0.74 0.28,-0.89 0.81,-1.2 1.74,-1.2 0.71,0 1.06,0.47 1.34,0.9 0.18,-0.12 0.37,-0.3 0.53,-0.46 0.2,-0.19 0.35,-0.25 0.51,-0.48 -1.03,-1.53 -4,-1.89 -5.28,0.24 -0.52,0.86 -0.55,2.44 -0.06,3.36 0.24,0.45 0.55,0.79 0.97,1.07 0.9,0.59 2.37,0.65 3.34,0.18 0.35,-0.17 0.98,-0.64 1.08,-1.01z"/>
   <path class="fil0" d="M27.73 12.12c0,0.11 0.03,0.15 0.15,0.15l1.19 0c0.11,0 0.15,-0.03 0.15,-0.15l0 -6.02 -1.49 0 0 6.02z"/>
   <path class="fil0" d="M6.54 7.05l0 2.49c0,0.38 0.29,0.68 0.62,0.61 0.15,-0.03 1.31,-0.94 1.52,-1.1 1.03,-0.77 0.82,-0.79 -0.37,-1.68 -0.2,-0.15 -0.36,-0.27 -0.57,-0.43 -0.29,-0.22 -0.41,-0.38 -0.76,-0.38 -0.27,0 -0.45,0.25 -0.45,0.5z"/>
   <path class="fil0" d="M27.53 4.26c0,0.29 0.01,0.59 0.32,0.83 0.62,0.47 1.62,0.13 1.62,-0.78 0,-1.22 -1.94,-1.16 -1.94,-0.05z"/>
  </g>
 </g>
</svg>
